<?xml version="1.0" standalone="no"?>
<!DOCTYPE svg PUBLIC "-//W3C//DTD SVG 1.1//EN" "http://www.w3.org/Graphics/SVG/1.1/DTD/svg11.dtd" >
<svg xmlns="http://www.w3.org/2000/svg">
<metadata></metadata>
<defs>
<font id="block_tregular" horiz-adv-x="1024" >
<font-face units-per-em="2048" ascent="1638" descent="-410" />
<missing-glyph horiz-adv-x="512" />
<glyph horiz-adv-x="0" />
<glyph horiz-adv-x="682" />
<glyph d="M186 1300q0 41 35 41q14 0 25 -2q16 -2 26.5 -3t20.5 -1q8 0 18.5 1t22.5 3q23 4 30 4h11q16 0 22 -5t17 -25q25 -47 94 -47q45 0 68.5 12t48.5 51q8 12 26 12q12 0 23 -2q8 -2 35 -2h29.5t23.5 2q16 2 28.5 3t18.5 1q31 0 31 -28q0 -72 -62 -144q-92 -111 -260 -110 q-143 0 -250 82q-14 12 -28.5 31.5t-26.5 42t-19.5 45t-7.5 38.5z" />
<glyph d="M358 1112v11t2 18l2 67q0 14 -1 35t-3 49v15q0 33 25 39h66l24 2h27h26q12 -2 20.5 -2h10.5h84q4 0 11 -6.5t12 -12.5q0 -2 1 -11t1 -31.5v-61.5v-101q0 -31 -6.5 -43t-20.5 -12l-139 2h-101q-41 0 -41 43z" />
<glyph d="M223 1233q0 78 80 125t209 47q139 0 213 -46t74 -132q0 -82 -78 -127t-219 -45q-127 0 -203 49t-76 129zM414 1233q0 -23 28.5 -37t77.5 -14q43 0 69.5 14t26.5 39q0 53 -104 53q-47 0 -72.5 -14t-25.5 -41z" />
<glyph unicode="&#xa;" d="M244 1085q0 12 5 41t12 63t15.5 66.5t16.5 55.5q10 29 25.5 35t68.5 6q20 0 44 -1t45.5 -2t36.5 -2t17 -1q8 -4 15.5 -21.5t7.5 -30.5q0 -12 -23 -49l-18 -37l-55 -82q-12 -25 -21.5 -39t-22 -20t-34 -7t-57.5 -1q-47 0 -62.5 5t-15.5 21zM606 1085q0 12 5 41t12.5 63 t15.5 66.5t16 55.5q10 29 25.5 35t69.5 6q20 0 43.5 -1t45 -2t37 -2t17.5 -1q8 -4 15 -21.5t7 -30.5q0 -12 -22 -49l-19 -37l-55 -82q-12 -25 -21.5 -39t-21.5 -20t-33.5 -7t-58.5 -1q-47 0 -62.5 5t-15.5 21z" />
<glyph d="M344 -106q0 23 15.5 43t64.5 63h151q-31 -20 -40 -32.5t-9 -28.5q0 -29 31 -29q16 0 39 6q25 6 43 6q16 0 29.5 -10t13.5 -25q0 -31 -55.5 -54t-130.5 -23q-66 0 -109 23.5t-43 60.5z" />
<glyph d="M229 1327q0 25 25 31h22q16 2 32 2t32 2h9t11 -2q10 -2 16.5 -2h14.5h6q16 2 26.5 3t12.5 1q10 0 17.5 -7t25.5 -32q18 -29 45 -29t45 29q16 23 22.5 30t16.5 7h15.5t19.5 -2q6 -2 14.5 -2h16.5h84q39 0 39 -31q0 -10 -7.5 -23.5t-27.5 -37.5l-35 -50q-39 -53 -77 -94 t-56 -51q-14 -8 -41 -8h-13.5t-54.5 4q-29 2 -46 4t-28.5 8t-21.5 17.5t-24 33.5q-8 10 -15.5 20.5t-17.5 20.5q-16 20 -33.5 46t-33 49.5t-26 41t-10.5 21.5z" />
<glyph unicode="&#xd;" horiz-adv-x="512" />
<glyph horiz-adv-x="270" d="M-281 23q2 10 5.5 16t19.5 35q4 6 11 20.5t18 38.5q6 12 17 33.5t30 52.5q10 16 29.5 58t54.5 112q12 27 20 42t17.5 33.5t24 44.5t38.5 73q12 23 20.5 37t14.5 26t14 29.5t21 46.5l114 237q12 27 19.5 41.5t12.5 25.5t11.5 23.5t16.5 30.5l57 101q10 20 18.5 38.5 t14.5 38.5q23 68 44 92.5t56 24.5q12 0 21 -2q10 -2 18 -2l49 2q6 0 14.5 -9t8.5 -17q0 -4 -9.5 -25t-24.5 -51.5t-34.5 -66.5t-38.5 -70l-24 -58q-4 -10 -13.5 -30.5t-31 -62.5t-58 -112.5t-96.5 -183.5q-16 -35 -52 -108.5t-81 -167.5q-27 -51 -46.5 -92.5t-35.5 -71.5 q-18 -37 -43 -80q-16 -41 -33 -70l-8 -18l-8 -17q-29 -66 -68 -65h-55h-45q-10 2 -18.5 9t-6.5 18z" />
<glyph horiz-adv-x="1046" d="M6 754v43v88q0 25 1 39t7 23t17.5 15.5t34.5 16.5q14 10 17 31.5t5 95.5q2 72 8 108.5t23 65.5q20 33 40.5 54.5t48.5 33.5t66.5 16.5t96.5 4.5q121 0 162.5 -18.5t41.5 -70.5v-17t-2 -19v-15l2 -94q0 -41 -28 -55q-6 -4 -11.5 -6t-15.5 -3t-28.5 -2.5t-51.5 -1.5 q-25 -2 -42 -16t-17 -37q0 -16 8 -31.5t21 -23.5q2 -2 6 -3t15 -2t36 -2t68 -1q16 -2 26 -16.5t10 -32.5v-18.5t-2 -29.5l-2 -55q0 -59 -2 -78.5t-12 -29.5q-6 -6 -16 -6l-70 -9q-41 -4 -55.5 -32.5t-14.5 -102.5v-108v-80l-2 -70v-8v-10t1 -18.5t3 -33.5v-71v-76 q-4 -88 -53 -88h-63l-72 -2h-29.5t-40.5 -2q-18 0 -30.5 15.5t-12.5 41.5v191l-2 65v144q-2 29 -2 57.5v60.5q0 47 -4 72t-14 35q-2 2 -7.5 4t-33.5 12q-29 12 -29 62zM666 813v55v43q0 35 14 47.5t49 12.5h14.5t14.5 -2l47 -2h10q31 2 55.5 3t34.5 1q66 0 66 -62l-2 -41 q-4 -35 -5 -95t-1 -130l6 -207q0 -119 6 -223v-39q0 -59 -2 -94t-10.5 -53.5t-21.5 -23.5t-38 -5q-8 0 -27.5 1t-41.5 3h-23h-13.5t-23.5 -2h-37q-41 0 -55 15.5t-14 56.5v6v45l4 162zM668 1165.5v75.5q0 29 3 47.5t12 27.5t27.5 13t47.5 6q37 2 70.5 3t64.5 1q74 0 74 -57 l-2 -76v-59.5t-2 -31.5t-4.5 -17t-8.5 -13q-14 -23 -57 -20q-23 2 -29 2h-16h-14.5h-15.5t-25.5 -1t-47.5 -1q-55 0 -67 25q-4 8 -6 14t-3 20.5t-1 41z" />
<glyph horiz-adv-x="1058" d="M6 754v43v88q0 25 1 39t7 23t17.5 15.5t34.5 16.5q14 10 17 31.5t5 95.5q2 72 8 108.5t23 65.5q20 33 40.5 54.5t48.5 33.5t66.5 16.5t96.5 4.5q121 0 162.5 -18.5t41.5 -70.5v-17t-2 -19v-15l2 -94q0 -41 -28 -55q-6 -4 -11.5 -6t-15.5 -3t-28.5 -2.5t-51.5 -1.5 q-25 -2 -42 -16t-17 -37q0 -16 8 -31.5t21 -23.5q2 -2 6 -3t15 -2t36 -2t68 -1q16 -2 26 -16.5t10 -32.5v-18.5t-2 -29.5l-2 -55q0 -59 -2 -78.5t-12 -29.5q-6 -6 -16 -6l-70 -9q-41 -4 -55.5 -32.5t-14.5 -102.5v-108v-80l-2 -70v-8v-10t1 -18.5t3 -33.5v-71v-76 q-4 -88 -53 -88h-63l-72 -2h-29.5t-40.5 -2q-18 0 -30.5 15.5t-12.5 41.5v191l-2 65v144q-2 29 -2 57.5v60.5q0 47 -4 72t-14 35q-2 2 -7.5 4t-33.5 12q-29 12 -29 62zM666 125l10 397v35q-2 80 -2 130v89v38t1 33.5t2 46.5t3 73l-2 192q0 86 2 127t6 51q10 20 25.5 27.5 t46.5 7.5l94 -2l66 4q41 2 54 -14.5t13 -65.5v-16v-26.5t-1 -20.5t-2 -26.5t-3 -43.5q-2 -20 -2 -38.5v-37.5v-16v-19.5t1 -38t3 -69.5q2 -14 2 -26.5v-22.5v-26.5t-2 -53.5q-2 -10 -2 -21.5v-23.5l2 -141l-6 -295v-23.5t2 -48.5l2 -168q0 -53 -24.5 -75.5t-80.5 -22.5h-25 t-30 2h-28h-7q-4 0 -8 -1t-8 -1h-18q-51 0 -67.5 25.5t-16.5 105.5z" />
<glyph horiz-adv-x="976" d="M-31 588q0 25 19 37q18 12 28.5 18t18.5 12.5t18 12.5t27 18q23 18 37 30.5t21 27t9.5 32t2.5 45.5v29.5t-1.5 26t-3.5 36t-4 60.5v71v64q-2 20 -2 33.5v17.5v58v67q0 88 84 88h11.5t19.5 -2q10 -2 31.5 -2h52.5h78q27 0 44 -15.5t17 -39.5v-14.5t-2 -26.5q-2 -6 -2 -39 v-62l2 -102l-2 -68q0 -29 21 -28q12 0 28 16l35 27l18 14l37 27q23 18 36.5 25.5t27.5 7.5q29 0 29 -39v-33q-2 -10 -2.5 -18.5t-0.5 -12.5v-23.5t5 -31.5q2 -16 2 -31.5v-28.5q0 -20 -6.5 -30.5t-28.5 -26.5q-23 -16 -50.5 -35.5t-41.5 -27.5q-31 -20 -51.5 -35t-43.5 -37 q-10 -10 -14 -25.5t-4 -48.5v-39v-8v-63q0 -16 3 -42t9 -73q4 -37 19.5 -51.5t48.5 -14.5l172 2h15.5t29.5 -2q14 -2 24.5 -2h20.5q8 0 25.5 1t44.5 3h20q35 0 47.5 -18t12.5 -68q0 -4 -1.5 -27.5t-3.5 -62.5v-18v-13.5t2 -23.5v-18q0 -45 -15 -62.5t-52 -15.5 q-31 2 -48.5 3t-32.5 1h-33.5h-51.5h-29.5t-21.5 1t-22.5 2t-35.5 5q-10 2 -18 2h-12q-8 0 -37 -3t-72 -7q-12 -2 -24.5 -2h-22.5q-18 0 -36.5 1t-35.5 3q-10 2 -17 3t-9 1l-121 -6q-23 -2 -46.5 27.5t-23.5 58.5v19.5t2 25.5q2 16 2 24.5v22.5l-2 107l2 141q0 25 -16 24 q-8 0 -20 -12q-10 -12 -25 -18l-23 -17q-10 -6 -17 -12t-15 -12q-10 -10 -31 -11q-27 0 -27 44q0 14 2 24l2 47l-2 45q-2 18 -3 35.5t-1 30.5z" />
<glyph horiz-adv-x="542" d="M-27 620.5v14.5q0 37 50 65q35 18 59 37t31 31q6 10 10 66.5t4 123.5v111v90v66l2 55q-2 49 14.5 68.5t57.5 19.5h13t19 -2t21.5 -2h17.5h40.5t43.5 4h25q31 0 41 -17.5t10 -76.5v-30.5t-2 -51.5q-4 -45 -4 -68.5v-42.5v-80q-2 -8 -2 -13v-9q0 -14 10 -14q8 0 25 16 q8 6 16 13t19 16q20 14 36 30q14 14 27 15q12 0 20.5 -14.5t8.5 -36.5q0 -8 -3 -35t-8 -39q-2 -10 -3 -17.5t-1 -11.5q0 -6 2 -10q6 -29 7 -43q0 -10 -7.5 -25.5t-13.5 -23.5q-4 -4 -7 -7.5t-10 -8.5t-21.5 -14t-41.5 -26q-29 -18 -40 -34.5t-11 -38.5v-70v-32.5t-2 -49.5 q-2 -35 -2 -59.5v-44.5v-58v-37v-34.5t2 -65.5v-63v-74q0 -29 -6 -43t-25 -27q-31 -20 -65 -20l-51 2h-23h-35t-31 -2q-23 0 -40 9t-25 26q-4 10 -6 42.5t-2 80.5v61v135l4 125q2 6 2 16q0 4 -3 10.5t-7 6.5q-2 0 -29 -21.5t-47 -38.5q-25 -20 -39 -20q-18 0 -18 25v14v47 q2 16 3 27.5t1 15.5q0 6 -2 19.5t-7 31.5q-2 10 -2 16.5z" />
<glyph horiz-adv-x="1087" d="M23 72q0 4 1 16t2 24.5t2 22.5t1 12q2 8 22.5 41t48.5 78q6 10 9.5 15.5l17.5 27.5q4 8 18.5 29.5t36.5 58.5q8 14 15.5 23.5t16.5 26t25.5 45t47.5 79.5q18 35 43.5 77t58.5 93q12 18 19.5 28.5t11.5 19t9 15.5t11 19q12 25 20.5 38t15.5 25.5t15.5 26t24.5 37.5 q18 29 29.5 52.5t11.5 31.5q0 12 -14.5 21.5t-36.5 9.5h-31.5t-52.5 -2q-16 -2 -22.5 -2h-34.5q-8 0 -25.5 1t-37 2l-39 2t-32.5 1h-4l-69 -2q-49 0 -68.5 28.5t-19.5 100.5v24.5t2 30.5v37q0 31 6 48.5t23.5 26.5t51 12t89.5 3h44t88 -1t115.5 -2l127 -2t121 -2t100.5 -1 q31 -2 65.5 -2h61.5h20q59 0 57 -49q-4 -47 -6 -71.5t-2 -28.5q-4 -4 -7 -10.5t-21 -35.5q-6 -8 -11.5 -18t-13.5 -20l-18 -31q-6 -6 -21 -35q-4 -4 -10 -14.5t-17 -26.5q-4 -8 -13 -24.5t-23 -40.5q-10 -18 -31 -53.5t-46.5 -75t-51 -78.5t-45.5 -68q-16 -20 -31 -47 q-16 -31 -33.5 -61.5t-34.5 -63.5q-14 -27 -29.5 -52.5t-31.5 -49.5q-23 -41 -23 -68q0 -14 13.5 -23.5t29.5 -9.5h10.5t14.5 2h24q35 0 97 -6q6 -2 16 -2t18 2l64 2l92 2h29q45 6 57 6q16 0 31.5 -14t15.5 -33v-22.5t-2 -50.5l2 -45v-46v-24q0 -92 -73 -92q-45 0 -115 1 t-140.5 2t-130 2t-83.5 3l-127 -2h-105h-88q-47 0 -78 3t-41 7q-14 6 -22 24.5t-8 41.5zM260 1718q0 25 25 31h22q16 2 31.5 2t32.5 2l20 -2q10 -4 17.5 -4h13.5h6q16 2 26.5 3t12.5 1q10 0 17.5 -7t25.5 -32q18 -29 45 -29t45 29q16 23 22.5 30t16.5 7h15.5t19.5 -2t39 -2 h24q16 2 31.5 2h19.5q39 0 39 -31q0 -10 -7 -24.5t-27 -36.5l-35 -49q-39 -53 -77 -95.5t-56 -52.5q-14 -8 -41 -8h-13.5t-54.5 4q-29 2 -46 4t-28.5 8.5t-21.5 17.5t-25 34q-10 10 -17 21t-16 22q-16 20 -33.5 45.5t-32.5 48t-25.5 41t-10.5 22.5z" />
<glyph horiz-adv-x="778" d="M23 57q0 16 2 44t6 38q0 4 7 17.5t15 29t15.5 28.5t11.5 19q20 27 43 76q14 29 18 35t15 23q25 41 39 63.5t22 36.5t13.5 24.5t13.5 26.5q20 39 32.5 64.5t18.5 38.5q10 16 12 23t2 18q0 16 -22 20q-4 0 -17.5 -1t-33.5 -5l-74 -2h-6t-27 2h-35q-16 2 -27.5 15.5 t-11.5 31.5l2 49l-2 41l4 27l-2 63q0 29 18.5 48.5t45.5 19.5q14 0 49 -6q10 -2 27 -2q4 0 15 1t73 5h49h38.5t63.5 -2q29 -2 55.5 -2h47.5h30q39 2 64.5 2h34.5q33 0 44 -19.5t11 -75.5q0 -27 -1 -43t-4 -28.5t-10.5 -24.5t-19.5 -28q-10 -12 -15 -20.5t-11.5 -19 t-14.5 -24.5t-22 -41q-8 -12 -26.5 -41t-51.5 -74q-16 -25 -33.5 -55.5t-31 -58t-21.5 -51t-8 -33.5q0 -18 11 -30.5t28 -12.5h12t16 2t23.5 2h27.5h23q8 -2 20 -2h9h61q20 0 37.5 -18.5t17.5 -39.5v-4t-1 -8t-2 -20.5t-3 -38.5l6 -54q-2 -39 -4 -58t-2 -23 q-6 -12 -19.5 -22.5t-23.5 -10.5l-207 2h-14t-31 -2q-12 -2 -26.5 -2h-28.5h-46.5t-49.5 4q-16 2 -27.5 2h-15.5l-168 -2q-23 0 -38 17.5t-15 45.5zM104 1327q0 25 25 31h23q16 2 31.5 2t31.5 2h9t12 -2q10 -2 16 -2h14h6q16 2 26.5 3t12.5 1q10 0 17.5 -7t25.5 -32 q18 -29 45 -29t45 29q16 23 22.5 30t16.5 7h15.5t19.5 -2q6 -2 14.5 -2h16.5h84q39 0 39 -31q0 -10 -7.5 -23.5t-27.5 -37.5l-35 -50q-39 -53 -77 -94t-56 -51q-14 -8 -41 -8h-13t-55 4q-29 2 -46 4t-28.5 8t-21.5 17.5t-24 33.5q-8 10 -15.5 20.5t-17.5 20.5 q-16 20 -33.5 46t-33 49.5t-26 41t-10.5 21.5z" />
<glyph unicode=" "  horiz-adv-x="512" />
<glyph unicode="&#x09;" horiz-adv-x="512" />
<glyph unicode="&#xa0;" horiz-adv-x="512" />
<glyph unicode="!" horiz-adv-x="522" d="M102 1260q0 39 1 49t6 20q12 35 61 39h49l41 2h21q10 -2 18 -2h12h11h14q55 0 70.5 -17.5t15.5 -78.5v-26.5t-4 -41.5q-2 -23 -3 -36t-2 -25.5t-2 -26.5t-1 -41q0 -37 -13 -137l-2 -100q-2 -33 -2 -49.5t-4 -51.5q-10 -78 -16 -135t-13 -92l-4 -61q-4 -53 -26.5 -72 t-87.5 -19q-59 0 -70 35q-2 10 -2 23q-2 10 -2 27.5t-2 39.5l-27 209l-24 344q0 10 -13 224zM109 47l8 229q6 12 26.5 16.5t79.5 4.5t105.5 -4t56.5 -8q23 -12 23 -45v-21v-12v-57q0 -16 -1 -37t-3.5 -41.5t-4.5 -37t-4 -20.5q-8 -16 -26 -16l-50 2l-88 -2h-14q-8 2 -14 2 l-66 -2q-10 0 -19 16.5t-9 32.5z" />
<glyph unicode="&#x22;" horiz-adv-x="862" d="M96 1319v12q0 23 8.5 29t36.5 6h103h94q45 0 45 -25q0 -14 -2 -22l-2 -66q0 -33 -1 -46t-7 -42q-4 -16 -5 -25.5t-2.5 -17.5t-2.5 -17t-1 -26q0 -12 -3 -33.5t-7 -54.5v-65q-6 -41 -9 -62.5t-6 -32t-9.5 -12.5t-14.5 -2h-16l-55 -2q-37 2 -56.5 3t-29 3t-11.5 6t-2 11 q-2 4 -3 12t-1 10q-2 35 -4 61.5t-4 49.5q-2 12 -3 19t-1 15.5t-1 20.5t-3 31q-2 35 -3 49t-5 37t-8.5 66.5t-8.5 109.5zM479 1329q0 27 13 33q2 2 98 8q20 0 47 -1t51.5 -2t43 -2t22.5 -3q14 -6 14 -23q0 -10 -1 -17t-5 -48q-4 -16 -4 -23.5t-2 -42.5l-8 -63l-5 -45 q-4 -45 -12 -109l2 -65q-4 -35 -6 -53.5t-4 -27.5l-3 -13.5t-3 -6.5q-4 -4 -11.5 -6t-25.5 -2l-55 2l-60 -2q-33 0 -39 14q0 2 -3 25t-11 70v65q-4 33 -6 59.5t-4 49.5q0 8 -1 14t-2 14.5t-3 21.5t-7 38l3 65q-10 51 -11.5 61.5t-1.5 14.5z" />
<glyph unicode="#" horiz-adv-x="1150" d="M27 428q0 8 1 16.5t9 51.5q4 16 5 23t5 42t7 45t14 15q8 2 20 2h24.5t34.5 2l64 -4q20 0 26.5 7t10.5 29l10 72q2 6 2 19q0 20 -12 24l-74 6l-55 -4q-33 0 -33 23q0 12 3 34.5t7 49t8.5 51t8.5 39.5q4 14 17 17t67 3l73 -2q16 0 23.5 5t11.5 26q16 94 25.5 147.5 t13.5 96.5q4 25 11 30.5t38 5.5h24.5t22.5 -2q4 -2 9.5 -2h9.5t6 -2l92 6q12 2 21.5 -5t9.5 -17q0 -2 -1 -13.5t-3 -24.5t-4 -25.5t-2 -14.5q-4 -20 -7.5 -32.5t-4.5 -20.5t-2 -16.5t-1 -22.5l-12 -74q-2 -6 -2 -18q0 -16 7 -21.5t32 -5.5h71q14 0 23.5 1t13.5 10.5t7.5 29 t7.5 55.5q2 14 4 23.5t3 19t4 21.5t7 35q2 6 12 80q2 14 4.5 21t10.5 10t23.5 4t43.5 1h15.5t56.5 -4l55 4q39 0 39 -22q0 -23 -6 -58.5t-16 -74.5q-2 -8 -5.5 -27.5t-6.5 -40t-5 -39t-2 -24.5q0 -20 13 -23q2 0 73 -6l51 4q37 0 37 -22q0 -6 -3 -30t-7 -50.5t-8 -51 t-6 -36.5q-4 -16 -10.5 -20.5t-28.5 -4.5l-58 2q-35 0 -52 -1t-26.5 -4t-12.5 -11t-5 -23l-12 -71l-2 -19q-2 -18 9 -22t79 -7l51 3q39 0 39 -25q0 -6 -3 -27.5t-7 -48t-8 -51.5t-9 -39q-4 -16 -9 -20t-27 -4h-60q-59 0 -75.5 -3.5t-20.5 -15.5q0 -4 -5 -32.5t-11.5 -64.5 t-11.5 -70t-7 -48q-6 -35 -9 -54.5t-5 -28.5t-5 -12t-8 -5q-8 -2 -20 -2q-10 -2 -25.5 -2t-35.5 -2h-18.5t-37.5 2l-53 2q-41 0 -41 20q0 8 4 31.5t8 54.5q6 31 7.5 43t5.5 39q4 31 5 41t7 41q4 23 5 27t1 12q0 16 -7 21.5t-32 5.5h-72q-25 0 -31.5 -4.5t-11.5 -26.5 q0 -2 -1 -14.5t-3 -36.5q-2 -16 -3 -23.5t-11 -40.5q-4 -16 -5 -22.5t-3 -22.5q-2 -23 -6 -49.5t-11 -59.5q-4 -23 -11 -30.5t-25 -5.5l-60 4l-53 -6q-35 2 -54.5 3t-28.5 3t-10 6t-1 12l2 23q12 61 12 82q2 23 6 42t8 40q2 8 3.5 13t3.5 12t3 20.5t3 35.5q2 6 2 11.5v9.5 q0 16 -13.5 20.5t-74.5 4.5h-47q-41 0 -41 22zM489 662q0 -45 56 -46q31 0 58.5 5.5t33.5 11.5q6 4 11 33.5t9 64.5q2 23 -7 33t-38 16q-35 -2 -53 -3t-27.5 -2t-12.5 -2t-5 -1q-10 -6 -17.5 -41t-7.5 -69z" />
<glyph unicode="$" horiz-adv-x="843" d="M45 1024q0 68 16.5 118t55.5 99q25 31 62.5 53.5t109.5 44.5q29 10 35 27l6 23l2 88q2 27 23.5 36t84.5 9q27 0 39.5 -3t20.5 -12q4 -6 6 -10t3 -15.5t2 -31.5t3 -59q2 -16 15.5 -21.5t58.5 -7.5q29 0 61.5 -6t55.5 -17q29 -12 38 -24t9 -41q0 -14 -1 -45t-3 -41 t-2.5 -16.5t-0.5 -8.5l3 -67q0 -16 -18.5 -27.5t-45.5 -11.5h-20q-74 6 -126.5 10t-54.5 4q-35 0 -62.5 -25.5t-27.5 -58.5q0 -20 7.5 -37.5t28 -41t59 -54.5t102.5 -80q113 -84 161 -172t48 -205q0 -98 -30 -169.5t-93 -131.5q-16 -14 -25.5 -22t-24 -16.5t-37 -19.5 t-61.5 -32q-12 -6 -16 -18l-4 -21l-2 -143q0 -16 -31 -22.5t-102 -6.5q-51 0 -51 31l2 119q0 25 -17.5 33t-70.5 8q-45 -2 -95.5 10t-64.5 29q-4 6 -7 10t-4.5 12t-2.5 24.5t-1 47.5q0 43 -1 66.5t-1 38t-1 23.5t-1 21q0 53 78 54h20.5t19.5 -2.5t28.5 -6.5t50.5 -10 q25 -6 65 -6q70 0 108 30.5t38 84.5q0 20 -2 32.5t-13.5 27.5t-36 37.5t-69.5 59.5q-20 16 -32.5 27.5t-18.5 15.5q-8 8 -14.5 13.5t-14.5 13.5t-22.5 19.5t-38.5 33.5q-84 72 -121 151t-37 181z" />
<glyph unicode="%" horiz-adv-x="1550" d="M68 1003.5v77.5q0 14 4 35t10 41.5t13 40t16 31.5q41 63 114.5 101t157.5 38q86 0 145.5 -25.5t108.5 -82.5q68 -74 68 -226q0 -18 -3.5 -42.5t-7.5 -49t-9 -46.5t-9 -34q-37 -84 -114 -135t-165 -51q-68 0 -127 20.5t-100 61.5q-72 66 -94 145q-2 10 -4 21.5t-3 30 t-1 49zM289 1018q0 -20 1 -32.5t7 -49.5q12 -86 88 -86q23 0 36 6t30 25q12 14 22 59t10 88q0 4 -1 17.5t-3 29t-3 30.5t-3 23q-4 31 -28.5 51.5t-57.5 20.5q-51 0 -74 -43q-4 -6 -8 -23.5t-8 -39t-6 -42t-2 -34.5zM358 23q2 10 5.5 16t19.5 35q4 8 8 15t21 44l131 256 q12 27 20 42t18.5 33.5t25 44.5t38.5 73q12 23 19.5 37t13.5 26t14 29.5t21 46.5l116 237q12 27 18.5 41.5t12.5 25.5t12.5 23.5t16.5 30.5l55 101q14 16 25 51q4 12 5 12t5 14q23 68 44 92.5t56 24.5q12 0 21 -2q4 -2 12 -2h4l51 2q6 0 14.5 -9t8.5 -17q0 -4 -9.5 -25 t-24.5 -50.5t-33.5 -66.5t-39.5 -71q-6 -16 -12 -29.5t-12 -28.5q-4 -10 -14.5 -30.5t-33 -64.5t-59.5 -114.5t-94 -179.5q-20 -43 -55 -116.5t-76 -159.5l-53 -103l-45 -92l-29 -49q-12 -27 -24.5 -52.5t-22.5 -52.5q-29 -66 -70 -65h-55h-45q-10 2 -18.5 9t-6.5 18z M846 321.5v77.5q0 14 4 35t10 41.5t13.5 40t15.5 31.5q41 63 114.5 101t157.5 38q86 0 145.5 -25.5t108.5 -82.5q68 -74 68 -226q0 -18 -3 -42.5t-7.5 -49t-9.5 -46t-9 -34.5q-37 -84 -113.5 -135t-164.5 -51q-68 0 -127.5 20.5t-100.5 61.5q-35 31 -59.5 68.5t-34.5 76.5 q-2 10 -4 21.5t-3 30t-1 49zM1067 336q0 -20 1 -32.5t7 -49.5q12 -86 88 -86q23 0 36 6t30 25q12 14 22.5 59t10.5 88q0 4 -1 17.5t-3.5 29t-3.5 30.5t-3 23q-4 31 -28.5 51.5t-57.5 20.5q-51 0 -73 -43q-4 -6 -8.5 -23.5t-8.5 -39t-6 -42t-2 -34.5z" />
<glyph unicode="&#x26;" horiz-adv-x="1153" d="M55 408q0 29 1 45t5.5 32.5t12.5 38t24 58.5q16 35 32.5 57.5t53.5 56.5q12 12 20.5 18.5t17.5 12.5t23.5 14.5t39.5 22.5q12 6 22 18.5t10 20.5q0 2 -13 38t-36 93q-10 31 -10 70q0 94 33 157.5t104 114.5q41 29 81 40t93 11q80 0 137.5 -21.5t114.5 -74.5 q18 -16 34.5 -46t30 -65t20.5 -72.5t7 -70.5q0 -119 -122 -229q-47 -41 -60.5 -57.5t-13.5 -37.5q0 -20 33 -73q4 -8 9 -14.5t9 -16.5q57 -98 92 -98q16 0 23 41q4 29 6 44t3 23t1 11v8q0 14 -2 20q-2 12 -2 20.5v16.5t6 15t14 7l64 -2h114q20 0 37 -15t17 -34 q0 -33 -9.5 -78t-24.5 -91t-33.5 -86t-37.5 -60q-31 -37 -30 -49q0 -14 26 -43q12 -14 17.5 -22.5t21.5 -43.5q4 -6 9 -14t12 -17q12 -18 16 -29.5t4 -23.5q0 -35 -39 -45q-4 0 -30.5 -3t-58.5 -6t-60.5 -6t-34.5 -3t-9 1t-10.5 8t-19.5 21.5t-35 42.5q-6 8 -14 9 q-4 0 -12.5 -3.5t-51.5 -25.5q-18 -10 -46.5 -18.5t-62.5 -14.5t-69 -9t-63 -3q-53 0 -97.5 7t-83.5 22.5t-74.5 42t-74.5 63.5q-18 18 -31.5 32.5t-23 29t-17.5 33t-16 42.5q-23 63 -23 142zM340 420q0 -43 29 -88q53 -80 153 -80q18 0 38 4t37 9t28.5 11.5t11.5 12.5 t-8 26q-6 10 -11.5 18.5t-9.5 18.5q-16 29 -38.5 64t-61.5 82q-33 39 -41 46t-18 9q-16 2 -35 -11.5t-35.5 -33t-27.5 -44t-11 -44.5zM520 1004q0 -16 6 -37t16.5 -38.5t21.5 -28.5t22 -11q16 0 34.5 11t34 28.5t24.5 39t9 40.5q0 37 -24.5 62.5t-59.5 25.5q-39 0 -61.5 -26 t-22.5 -66z" />
<glyph unicode="'" horiz-adv-x="479" d="M96 1319v12q0 23 9.5 29t37.5 6h101h78q37 0 49 -4t12 -21q0 -14 -2 -22l-2 -66q0 -33 -1 -46t-7 -42q-4 -23 -6.5 -43t-4.5 -43v-14t-1 -14.5t-3 -21.5t-6 -38v-65q-6 -37 -9 -57.5t-5 -30t-4 -12.5t-6 -5q-4 -4 -86 -6q-35 2 -54.5 3t-29 3t-11.5 6t-4 11q0 4 -1 12 t-3 10q-2 35 -3 61.5t-5 49.5q-4 25 -4 38t-2 48q-4 35 -5 49t-5 37t-8.5 66.5t-8.5 109.5z" />
<glyph unicode="(" horiz-adv-x="610" d="M55 608q0 211 40 358.5t126 258.5q27 35 55.5 63.5t45.5 40.5q35 23 81 41.5t68 15.5q12 0 20.5 -5t12.5 -17t5 -35.5t1 -62.5v-73v-40t-1 -19.5t-3 -7.5q-2 -4 -3 -7t-6 -8t-14.5 -15.5t-25.5 -28.5q-16 -16 -30.5 -46t-27 -66.5t-19.5 -76.5t-9 -73q0 -23 -1 -36 t-1 -25.5t-1 -25.5t-3 -38q-2 -16 -3.5 -26.5t-1.5 -16.5v-12.5v-16.5l9 -243q10 -88 38.5 -156t90.5 -139q16 -18 16 -54v-14q-2 -23 -2 -37v-18l2 -53q-2 -33 -3 -50.5t-5 -27t-10.5 -11.5t-16.5 -2q-43 0 -91 21.5t-93 59.5t-85 90.5t-69 113.5q-86 180 -86 520z" />
<glyph unicode=")" horiz-adv-x="610" d="M96 1174v13t4 56l-2 53q2 33 3 50.5t4.5 25.5t9.5 10t18 4q35 4 94.5 -23.5t104.5 -68.5q117 -104 170 -275t53 -437q0 -211 -40 -358.5t-126 -258.5q-27 -35 -54.5 -63.5t-45.5 -40.5q-35 -23 -79 -40.5t-71 -17.5q-25 0 -32 21.5t-7 99.5v72v41t1 18t3 8t3.5 7.5 t6.5 8.5t14 15t26 29q14 16 29.5 47t27.5 67.5t19.5 75.5t9.5 72q0 59 6 125q2 16 3 26.5t1 16.5v12v17l-8 243q-10 88 -39 156t-90 139q-16 18 -17 54z" />
<glyph unicode="*" horiz-adv-x="798" d="M96 1057q0 16 8 41l9 45q12 78 49 78q14 0 37 -13q20 -12 26 -15t25 -13q4 -2 10 -6.5t14 -8.5q27 -18 43 -18q18 0 19 18q0 14 -12 45q-20 45 -25.5 63.5t-5.5 37.5q0 16 11 29.5t26 11.5q16 -2 30.5 -3t28.5 -1h43q12 2 19.5 3t9.5 1q16 0 27.5 -11.5t11.5 -27.5 q0 -14 -27 -107q-6 -23 -6 -32q0 -27 18 -27q8 0 25.5 11t58.5 46q37 31 64 31q14 0 21.5 -10.5t15.5 -38.5q4 -18 12 -43t10 -27q10 -20 11.5 -26.5t1.5 -10.5q0 -23 -35 -32h-7.5t-15.5 -3q-23 -4 -61 -12q-41 -6 -52.5 -11t-11.5 -17q0 -14 27 -29q14 -10 21.5 -15.5 t13.5 -9.5t13 -10t17 -14q23 -18 31 -28.5t8 -23.5q0 -12 -5 -17t-38 -21q-10 -10 -18 -16.5t-17 -12.5q-37 -37 -55 -37t-35.5 26.5t-46.5 98.5q-12 33 -28 33q-12 0 -35 -39t-39 -90q-12 -35 -33 -35q-18 0 -53 24q-6 6 -13.5 12.5t-15.5 12.5l-37 18q-20 10 -20 37 q0 18 11 31.5t46 34.5q25 16 49.5 37.5t24.5 29.5q0 10 -19.5 16.5t-50.5 6.5h-53q-45 0 -60.5 6t-15.5 27z" />
<glyph unicode="+" d="M111 741q0 35 24 47q8 6 17.5 7.5t52.5 1.5l45 4q12 4 21.5 4h15.5h10t16 -2t15.5 -2h15.5q16 0 28.5 12t12.5 29l-2 67v8.5t2 16.5t2 29q0 14 -2 24q-2 20 -3 35.5t-1 26.5q0 16 16.5 29.5t38.5 11.5q20 -2 31.5 -3.5t20 -1.5h14.5h16h27.5t34.5 2q33 4 47 -40v-11.5 t2 -21.5v-26.5v-18.5t1 -17.5t3 -25.5q-8 -47 -8 -66q0 -55 43 -55l69 2h2q2 0 3 -1t3 -1q43 -6 56 -6h10q12 2 17.5 2h25.5q33 0 46 -20.5t13 -67.5v-31v-18v-50q-4 -49 -53 -49h-129q-20 2 -25.5 2h-17.5q-29 -2 -39 -9t-14 -28q-2 -4 -2 -9v-32q0 -29 -1 -51t-3 -39 l2 -73q0 -49 -62 -50q-10 0 -23.5 1.5t-23.5 3.5t-18 3t-15 1h-6q-4 0 -5 -1t-5 -1q-10 -2 -21.5 -2h-21.5q-27 2 -38 28.5t-11 89.5q0 16 1 45t3 72q2 20 -9 33.5t-30 13.5h-55q-18 2 -31.5 3t-23.5 1h-23.5t-50.5 -4q-10 -2 -23.5 5t-17.5 18q-6 12 -8 40.5t-2 114.5z" />
<glyph unicode="," horiz-adv-x="456" d="M78 251v9q0 41 51 41h27h61l131 -6q12 -4 21.5 -18.5t7.5 -28.5q-2 -23 -3 -59.5t-1 -84.5q-2 -92 -26.5 -161.5t-78.5 -141.5q-10 -12 -16 -18t-19.5 -9t-38 -3h-69.5q-31 0 -31 24q0 10 5 18.5t28 34.5q8 10 17.5 26.5t17.5 34t13 33t5 23.5q0 18 -10 25.5t-39 7.5 q-29 4 -38 15.5t-9 45.5v21l-4 158q-2 8 -2 13z" />
<glyph unicode="-" horiz-adv-x="440" d="M0 465q0 35 2 65.5t6 51.5q4 23 13.5 31t35.5 12l129 -2h13.5t21.5 2h43h18.5t32.5 -2q92 -6 95 -9q25 -12 24 -47q0 -16 1 -25.5t1 -17.5t1 -18t3 -29q-6 -94 -10 -102q-8 -16 -22.5 -22.5t-55.5 -6.5l-106 2h-29q-18 0 -49 1t-60.5 2t-53 2t-25.5 1q-16 6 -22.5 31 t-6.5 80z" />
<glyph unicode="." horiz-adv-x="456" d="M76 51l2 51l-2 109q0 47 6 65.5t24 22.5l134 2h17t17 -2h27q35 0 43 -1t16 -5q8 -6 15.5 -17.5t7.5 -19.5q0 -225 -8 -242q-4 -6 -14.5 -12t-22.5 -6q-27 -2 -64.5 -2t-74.5 2t-65 4t-34 6q-25 8 -24 45z" />
<glyph unicode="/" horiz-adv-x="804" d="M18 -141q4 37 25 82q14 37 23.5 61.5t17.5 52t18.5 68.5t26.5 108q18 88 53 166l64 224l55 155l59 213l58 185q8 23 12 43t8 36q10 63 23.5 89t36.5 28l20 -2l139 2q47 0 67.5 -9t20.5 -32q0 -47 -28 -119q-23 -66 -37 -141q-4 -18 -8 -31.5t-10.5 -30t-13.5 -37 t-17 -50.5q-12 -45 -23.5 -85t-21.5 -75q-16 -66 -25.5 -97.5t-19.5 -56.5l-37 -96q-6 -14 -10.5 -26.5t-10.5 -30t-14 -45t-20 -72.5q-53 -178 -87 -277q-16 -43 -22 -66.5t-14 -58.5q-10 -45 -18.5 -71.5t-21 -39.5t-30.5 -16.5t-49 -3.5h-29q-10 -2 -15 -2h-7h-15l-28 2 q-41 0 -52.5 1t-21.5 8q-25 14 -21 47z" />
<glyph unicode="0" horiz-adv-x="1060" d="M55 631.5v154.5q0 47 8.5 91.5t24.5 101.5q8 27 14.5 45t10.5 33q6 14 8 26q29 59 65.5 105.5t94.5 87.5q37 27 66.5 45t58 29.5t58 15.5t66.5 4q117 0 207 -51t166 -164q53 -78 78 -187.5t25 -265.5q0 -39 -1 -66.5t-3.5 -52t-7.5 -50t-11 -58.5q-4 -16 -5 -22.5 t-5 -34.5q-4 -18 -6 -32.5t-7.5 -30t-14.5 -35t-23 -50.5q-10 -23 -19.5 -39t-19 -31.5t-22.5 -31.5t-34 -39q-59 -66 -134 -103.5t-150 -37.5q-18 0 -44 3t-50.5 9t-46 13t-33.5 14q-37 20 -57.5 33.5t-34 22.5t-23.5 18.5t-27 25.5q-53 57 -97 139t-60 162q-4 20 -7.5 44 t-5.5 61.5t-2 98zM369 651.5q0 -12.5 2 -28.5v-15.5t2 -42.5q0 -16 3 -42.5t6 -54.5t6 -50.5t5 -30.5q18 -59 54 -93t83 -34q37 0 55.5 13.5t47.5 54.5q12 18 21.5 43.5t11.5 42.5q10 88 16 134t6 50l2 49q2 10 2 41q0 12 -1 42t-3 67t-5 73.5t-5 65.5q-6 74 -49 124t-99 50 q-39 0 -71.5 -28.5t-50.5 -80.5q-6 -14 -12.5 -55t-12.5 -91t-10 -100t-4 -81v-22.5z" />
<glyph unicode="1" horiz-adv-x="757" d="M27 1030q0 41 51 84q135 113 139 115q6 4 29.5 18.5t51.5 31.5t53.5 31.5t35.5 18.5q53 27 131 27q66 0 100.5 -20.5t34.5 -57.5v-61l2 -115l-4 -152l2 -325l-2 -181v-104l-2 -190q-2 -59 -4 -90t-9 -46.5t-23.5 -17.5t-47.5 -2l-51 2q-43 6 -49 6q-4 0 -16.5 -1 t-32.5 -3h-21q-66 0 -65 72q0 4 2 35.5t6 78.5l2 92l4 95q4 78 6 126t2 78l-4 125q-4 92 -4 140.5v52.5q0 66 -41 65q-8 0 -14 -1t-18.5 -7t-35 -20.5t-65.5 -38.5q-10 -6 -25 -6q-18 0 -39.5 14t-39 35.5t-28.5 47.5t-11 48z" />
<glyph unicode="2" horiz-adv-x="1032" d="M27 117q0 20 16 43q2 2 101.5 87t297.5 255q10 8 35 32.5t51.5 54t52 58.5t37.5 45q72 92 72 197q0 86 -48 136t-130 50q-53 0 -97 -22.5t-67 -63.5q-4 -10 -7 -16t-4 -16.5t-2 -30t-3 -54.5q0 -41 -53 -41q-16 0 -43 1.5t-52.5 2.5t-47 2t-27.5 1q-25 4 -35.5 22.5 t-10.5 61.5q0 72 15.5 129t52.5 127q45 86 140.5 137t209.5 55l45 2q10 2 15.5 2h7.5q14 0 41.5 -4t57.5 -10t56.5 -12.5t38.5 -12.5q98 -43 168 -149q20 -33 32.5 -59.5t20 -55.5t10.5 -63.5t3 -81.5q0 -86 -17.5 -162t-48.5 -117q-39 -55 -61.5 -88t-34.5 -49t-16 -22.5 t-6 -8.5q-49 -49 -56 -57q-16 -16 -42.5 -42t-43.5 -38q-25 -18 -24 -27q0 -10 14 -10h8q10 2 22.5 2h28.5h16.5t37.5 -2l65 2h19.5t31.5 -2q57 -2 76 -14q27 -16 27 -60v-84v-9t2 -15v-37q0 -49 -31 -68.5t-110 -19.5h-240q-41 4 -49 4h-19h-14h-127h-17.5t-37.5 2h-31 h-15.5t-43.5 -2h-45q-43 0 -71 1t-44.5 2t-23.5 4t-13 9q-2 2 -5 14.5t-5 28t-4 30.5t-2 26z" />
<glyph unicode="3" horiz-adv-x="1036" d="M27 219q0 16 8 29.5t33 36.5l28 32l13 17q29 33 50 46t48 13q4 0 8 -1t13.5 -9t27.5 -23.5t51 -46.5q29 -27 82 -44t100 -17q39 0 74 13.5t60.5 35t40 51t14.5 64.5q0 43 -27.5 84t-75.5 67q-16 8 -28 14.5t-26.5 9.5t-36 6t-56.5 7q-66 10 -66 62q0 111 11 131q4 8 8 13 t15.5 8t34 6t65.5 7q63 8 104 45t41 87q0 57 -47 96t-117 39q-31 0 -65.5 -10.5t-65.5 -30.5q-12 -6 -96 -84q-23 -20 -49 -21q-6 0 -11.5 1t-12.5 6.5t-19.5 16.5t-34.5 32q-4 4 -53 59q-14 16 -17.5 21.5t-3.5 15.5q0 49 47 94q29 31 45.5 46.5t18.5 17.5q23 18 40 29.5 t34.5 20.5t38 17t46.5 17q61 18 93 24t67 6q76 0 156 -18.5t133 -46.5q35 -20 65.5 -52t53 -71t36 -81t13.5 -83q0 -23 -2 -40t-7 -36.5t-15.5 -42t-24.5 -53.5q-10 -16 -15.5 -23.5t-25.5 -27.5l-16.5 -16.5t-11.5 -10.5t-10 -10t-13 -14q-16 -10 -17 -19q0 -4 17.5 -16.5 t60.5 -34.5q27 -16 49.5 -45t40 -68t26.5 -84t9 -92q0 -25 -6 -56.5t-16.5 -63t-23.5 -60.5t-26 -47q-16 -20 -29.5 -34.5t-31 -29t-41 -30t-59.5 -35.5q-41 -25 -109 -39t-143 -14q-41 0 -63.5 1t-44 4t-46.5 11t-68 22q-33 10 -40 13.5t-19 11.5t-19.5 12t-13.5 8.5 t-14 8.5t-21 12q-121 66 -120 133z" />
<glyph unicode="4" horiz-adv-x="987" d="M14 379v14q0 10 1 17.5t4.5 15.5t9.5 19.5t16 31.5q4 8 18.5 36t38.5 75q4 10 27 49t55.5 93t71.5 118.5t78 128.5l57 98l27 49q12 23 25.5 46.5t29.5 50.5l37 61q29 51 44 65.5t42 14.5h22l52 -2q78 0 100 -14q4 -4 7 -9.5t4 -18.5t2 -38t1 -68v-110l4 -152v-157l3 -119 q0 -35 1 -53.5t2 -27.5t2 -13.5t3 -8.5q4 -10 16 -16t25 -6l82 2q33 0 36 -31q2 -4 2.5 -7t0.5 -24v-116q-4 -41 -6.5 -49.5t-8.5 -12.5q-4 -2 -7 -3t-13.5 -3t-31 -3t-58.5 -3q-25 0 -35 -18l-8 -41l-5 -189q0 -53 -49 -53h-10q-16 2 -30.5 2h-24.5h-29.5t-34.5 -2 q-14 -2 -26.5 -2h-22.5q-41 0 -49 18q0 2 -1 6.5t-1 27t-1 70.5t-1 136q-2 25 -19.5 34t-64.5 9l-47 2q-16 2 -27.5 2h-19.5h-4l-105 -2h-14t-29 2h-28h-19q-27 -2 -43 -2h-25q-27 0 -35 13.5t-12 54.5zM350 594q0 -53 80 -53q47 0 61.5 12t14.5 53v29v63v83t-2 44.5 t-4 17.5t-8 3q-10 0 -34 -33t-47.5 -76t-42 -84t-18.5 -59z" />
<glyph unicode="5" horiz-adv-x="1021" d="M14 217q0 16 10.5 31.5t41.5 42.5q14 12 26 24.5t25 24.5q47 49 73 49q12 0 18.5 -5t31.5 -34l65 -51q61 -45 141 -45q94 0 151.5 59.5t57.5 157.5q0 102 -68.5 165.5t-176.5 63.5h-27.5t-29 -3t-45 -9t-77.5 -16q-6 -2 -20 -2q-25 0 -45.5 12t-26.5 31v32q-2 27 -2 47.5 v34.5l-2 60l4 67q0 4 -1 28t-3 62v43v56q2 27 2 45v24v27q-2 18 -2 32.5v20.5q0 35 17.5 56.5t46.5 21.5h22q16 -2 21.5 -2h21.5l72 2h43t47 -2q35 -2 69.5 -3t75.5 -1h89.5h109.5q86 0 100 -39q0 -4 2 -23.5t4.5 -45t3.5 -50t1 -37.5q0 -39 -22.5 -63.5t-59.5 -24.5h-18.5 t-22.5 2q-29 2 -81 4.5t-85 2.5q-57 0 -90 -2.5t-49.5 -9.5t-20.5 -20.5t-4 -37.5q0 -63 35 -64q8 0 22.5 1t36.5 4q10 2 23 2q88 0 174 -39t139 -105q23 -29 43.5 -66.5t35.5 -78.5t23.5 -82t8.5 -76q0 -27 -3 -59.5t-8.5 -65.5t-12.5 -62.5t-15 -47.5q-8 -25 -14.5 -39.5 t-15.5 -27.5t-25.5 -32.5t-47.5 -52.5q-61 -70 -155 -108.5t-199 -38.5h-12t-23 2q-6 2 -11 2h-32q-59 2 -125.5 25.5t-123 58t-94.5 73.5t-38 74z" />
<glyph unicode="6" horiz-adv-x="1056" d="M55 662q0 59 7.5 121.5t20.5 121t32.5 109.5t42.5 92q74 129 212 197.5t324 68.5q41 0 90.5 -4t79.5 -8q66 -12 66 -68q0 -68 -2 -108.5t-10.5 -63t-21.5 -30t-34 -7.5q-2 0 -30.5 2t-114.5 9q-8 2 -15.5 2h-13.5q-74 0 -128 -21.5t-107 -75.5q-35 -35 -56.5 -77.5 t-21.5 -75.5q0 -10 7 -18.5t15 -8.5q6 0 15.5 5t58.5 36q16 10 60 17.5t94 7.5q43 0 88 -13.5t88 -37t78.5 -54t58.5 -65.5q20 -29 37.5 -69t21.5 -62q2 -10 4.5 -33t4.5 -48.5t3 -52t1 -40.5q0 -33 -9.5 -72t-26 -77t-36.5 -71.5t-45 -56.5q-41 -41 -61.5 -57.5 t-43.5 -28.5q-47 -29 -107 -44t-120 -15q-23 0 -54.5 3t-62 9t-56.5 12t-38 13q-96 49 -145 96t-78 119q-8 16 -15.5 34.5t-15.5 36.5q-14 31 -22 56.5t-12.5 60.5t-5.5 89t-1 145zM362 446q0 -37 15.5 -68.5t41 -56t59.5 -39t73 -14.5q29 0 54.5 13.5t66.5 48.5 q45 39 45 121q0 41 -21.5 81.5t-54.5 57.5q-16 10 -46 18t-48 8q-35 0 -76 -15t-61 -38q-47 -53 -48 -117z" />
<glyph unicode="7" horiz-adv-x="966" d="M14 1135v96v74q4 57 58 57q8 0 36.5 -1t62.5 -3t67.5 -4t52.5 -4l104 4h101l231 -2l47 -2h31h16q33 2 52.5 2h23.5q29 0 50.5 -22.5t21.5 -55.5q0 -16 -1 -27.5t-4 -24t-12.5 -29.5t-23.5 -48q-27 -53 -46.5 -94t-29.5 -70q-4 -10 -8 -18.5t-11.5 -25.5t-22.5 -48 t-42 -86q-10 -20 -19.5 -43t-31.5 -78l-39 -94q-29 -59 -49.5 -106.5t-37 -93.5t-31.5 -97t-32 -117q-18 -102 -39.5 -139t-64.5 -37h-26.5t-26.5 2h-11l-61 -2q-6 -2 -13 -2h-14q-37 0 -59.5 19.5t-22.5 52.5q0 47 9.5 90t36.5 121q63 182 79 223q35 84 53.5 129t22.5 53 q41 82 68 152q6 16 14 32.5t19 34.5q4 8 7 16.5t7 14.5q4 10 7 17t6 13.5t8 15.5t14 26q4 16 4 22q0 27 -53 33q-6 2 -37 2q-12 0 -20.5 1t-17.5 1t-23.5 1t-39.5 3q-8 0 -71 -6h-23h-8t-13.5 1t-26.5 2t-48 5h-88q-35 0 -48.5 13.5t-13.5 50.5z" />
<glyph unicode="8" horiz-adv-x="1071" d="M55 379q0 20 2 43.5t5.5 45t8.5 39t9 25.5q16 29 39.5 60t50.5 55q6 6 11 11.5t14.5 11.5t26 16t44.5 29q18 12 19 24q0 8 -9.5 14.5t-44.5 28.5q-12 8 -28.5 21.5t-31.5 29t-28.5 30t-19.5 26.5q-12 25 -23.5 72t-11.5 77q0 45 22.5 102.5t55.5 94.5q20 23 55 46.5 t75 41.5t79 30.5t67 12.5h56q2 2 8 2h9t11 2q8 2 15.5 2h13.5q8 0 33.5 -4t53.5 -10t53.5 -12.5t37.5 -10.5q119 -45 181.5 -120.5t62.5 -176.5q0 -121 -96 -209q-6 -6 -10.5 -9t-13.5 -10t-26.5 -18.5t-50.5 -31.5q-6 -4 -6 -12q0 -6 9.5 -13.5t31.5 -17.5q18 -8 42 -24.5 t46.5 -38t42 -45t31.5 -44.5q23 -37 31 -72.5t8 -86.5q0 -125 -45 -207t-146 -142q-37 -23 -68.5 -36t-70.5 -21t-86 -11t-115 -3q-104 0 -186 34.5t-154 112.5q-14 14 -22 23.5t-15.5 24t-16.5 37t-23 63.5q-8 18 -10.5 38.5t-2.5 59.5zM352 397q0 -66 49.5 -104.5 t130.5 -38.5q76 0 126.5 39t50.5 98q0 31 -17.5 63.5t-44 60.5t-59.5 46.5t-62 18.5t-58.5 -17.5t-56 -44t-43 -59.5t-16.5 -62zM401 1018q0 -37 25 -66q23 -27 60.5 -50t58.5 -23q16 0 40.5 16t47.5 43q18 23 25.5 39t7.5 39q-1 102 -142 102q-57 0 -90 -26.5t-33 -73.5z " />
<glyph unicode="9" horiz-adv-x="1058" d="M47 903q0 76 12.5 129t42.5 107q23 39 35.5 58.5t14.5 23.5q18 25 33.5 38t41.5 29q86 53 101 58q41 12 88 19t98 7q47 0 103.5 -12t117.5 -37q18 -6 40 -19.5t43.5 -30t38.5 -33.5t28 -32q33 -47 55.5 -94t36.5 -104.5t20.5 -125t6.5 -153.5q0 -39 -1.5 -64.5t-2.5 -47 t-5 -43t-10 -52.5q-2 -6 -12 -78q-14 -78 -56.5 -159.5t-101.5 -141.5l-11 -11t-28 -30q-23 -23 -61.5 -44t-86.5 -37.5t-101.5 -25.5t-100.5 -9l-72 2l-57 -2q-76 0 -122 28.5t-46 75.5q0 14 2 23v12l-2 59q0 39 21.5 61.5t58.5 22.5q8 0 16 -1t51 -5h35h39q39 4 47.5 5 t22.5 1q12 0 33.5 6.5t43 15.5t43 19.5t33.5 20.5q47 35 75 79t28 83q0 10 -7 20t-18 10q-6 0 -27.5 -10t-50.5 -27q-18 -10 -55 -18t-69 -8q-8 0 -30 3t-46.5 6t-46 7t-29.5 6q-33 10 -79 40t-73 59q-53 63 -75.5 134.5t-22.5 186.5zM334 899q0 -35 15.5 -66.5t41 -56 t59 -39t70.5 -14.5q78 0 130 47t52 115q0 82 -54 137t-134 55q-41 0 -74.5 -13t-56.5 -38q-49 -59 -49 -127z" />
<glyph unicode=":" horiz-adv-x="456" d="M76 51l2 51l-2 109q0 47 6 65.5t24 22.5l134 2h17t17 -2h27q35 0 43 -1t16 -5q8 -6 15.5 -17.5t7.5 -19.5q0 -225 -8 -242q-4 -6 -14.5 -12t-22.5 -6q-27 -2 -64.5 -2t-74.5 2t-65 4t-34 6q-25 8 -24 45zM76 702l2 52l-2 108q0 47 6 65.5t24 22.5l134 2h17t17 -2h27 q35 0 43 -1t16 -5q8 -6 15.5 -17.5t7.5 -19.5q0 -225 -8 -241q-4 -6 -14.5 -12.5t-22.5 -6.5q-27 -2 -64.5 -2t-74.5 2t-65 4t-34 6q-25 8 -24 45z" />
<glyph unicode=";" horiz-adv-x="456" d="M76 260q0 41 51 41h27h61q14 0 36.5 -1t43 -2t36 -2t17.5 -1q12 -4 21.5 -17.5t7.5 -29.5q-2 -23 -3 -59.5t-1 -84.5q-2 -92 -26.5 -161.5t-80.5 -141.5q-8 -12 -14 -18t-20.5 -9t-39 -3h-69.5q-31 0 -31 24q0 10 5 18.5t28 34.5q8 10 17.5 26.5t17.5 34t13 33t5 23.5 q0 18 -10 25.5t-39 7.5q-53 4 -47 61l2 21q0 12 -1 36.5l-2 49t-2 45t-1 27.5zM76 702l2 52l-2 108q0 47 6 65.5t24 22.5l134 2h17t17 -2h27q35 0 43 -1t16 -5q8 -6 15.5 -17.5t7.5 -19.5q0 -225 -8 -241q-4 -6 -14.5 -12.5t-22.5 -6.5q-27 -2 -64.5 -2t-74.5 2t-65 4t-34 6 q-25 8 -24 45z" />
<glyph unicode="&#x3c;" d="M68 528v312l886 487v-371l-493 -274l493 -272v-371z" />
<glyph unicode="=" d="M111 578q0 35 18 46t76 9l45 2q14 2 23.5 2h13.5h16t39 -2q10 -2 38 -2h71l235 6h16h11h14q10 2 18 2l48 -4h59q35 0 48 -20.5t13 -67.5v-31v-18v-49q-4 -49 -53 -50h-101.5t-45.5 2t-35 2.5t-51 0.5h-31l-104 -5l-150 -2h-45q-35 4 -42 4h-19h-23.5t-50.5 -4 q-10 -2 -23.5 5.5t-17.5 17.5q-6 12 -8 41t-2 115zM111 778l2 49q-2 12 -2 24.5v25.5q0 90 61 90l59 -2l48 6h6q4 0 6 -1t6 -1q6 -2 10 -2h45l47 -2q49 -2 99.5 -3t70.5 -1h69t44 2t29.5 2h25.5h14.5t22.5 -2h51q53 0 70.5 -11.5t17.5 -46.5v-74.5t-1 -44t-3 -23.5t-6 -13 q-4 -10 -18.5 -17.5t-24.5 -5.5q-35 4 -44 4h-28h-18l-43 -4l-45 2h-150l-104 4h-31h-63.5t-34.5 -2q-4 -2 -29 -2h-106q-23 0 -38 13.5t-15 35.5z" />
<glyph unicode="&#x3e;" d="M68 39v371l493 272l-493 274v371l886 -487v-312z" />
<glyph unicode="?" horiz-adv-x="614" d="M47 1273v9q0 43 41 55q12 4 18.5 7.5t12.5 5.5t14 5t23 9q29 10 53 14t74 4q76 0 115.5 -14t80.5 -53q43 -43 58.5 -82t15.5 -103q0 -47 -5 -78.5t-20 -74.5q-8 -18 -14 -37.5t-12 -40.5q-2 -8 -4 -13t-6.5 -14.5t-11.5 -25t-19 -43.5q-10 -25 -17.5 -42.5t-11.5 -36.5 t-9 -47t-11 -77l-13 -72l-2 -106q-4 -31 -24.5 -42t-73.5 -11q-47 0 -60.5 6t-21.5 35q-25 82 -24 184q0 35 1 58.5t4 46t11 53t20 82.5q4 20 10.5 62t6.5 62q0 43 -25.5 70t-68.5 27q-12 0 -19 -2q-20 -2 -34.5 -3t-18.5 -1q-14 0 -23.5 10t-7.5 24l4 47q-4 45 -4 53.5 v14.5v16q2 10 2 18.5v10.5q-2 2 -2 6v15q-2 4 -2 9zM164 59v47v64q2 20 2 39.5v36.5q0 35 11 47t40 12l21 -2l55 4q74 -4 108 -6q23 -2 37 -2q27 -10 27 -37v-55v-21q2 -10 2 -19v-20v-18t-4 -45l2 -53q0 -14 -13.5 -23.5t-31.5 -9.5q-4 0 -16.5 1t-30.5 3h-6q-6 0 -18.5 -1 t-29.5 -3q-10 -2 -17 -2h-13h-15.5t-33.5 4q-53 6 -58 10q-18 12 -18 49z" />
<glyph unicode="@" horiz-adv-x="1460" d="M45 653q0 20 2 45t6 56l8 67l5 45q0 14 4 28.5t17 38t36.5 61.5t64.5 100q23 33 40.5 56.5t37 42.5t42 37.5t57.5 41.5q41 29 91 49t138 49q35 10 87 15.5t116 5.5q117 0 231.5 -46.5t198.5 -127.5q59 -59 92 -106.5t55 -111.5q20 -53 30.5 -107t10.5 -95q0 -6 -2 -22.5 t-5 -39t-6 -48t-7 -46.5q-6 -33 -20.5 -68.5t-35 -71.5t-46 -67t-52.5 -53q-39 -31 -81 -48.5t-83 -17.5q-39 0 -67.5 11.5t-61.5 40.5q-23 14 -41 14q-16 0 -23 -4t-42 -29q-33 -23 -82 -37t-94 -14q-61 0 -114.5 24.5t-92.5 67.5t-61.5 102.5t-22.5 126.5q0 80 28.5 155 t77.5 131.5t113.5 90t134.5 33.5q47 0 79 -9t73 -38q8 -4 30 -4q16 0 21.5 3t17.5 19q8 8 21 9h16l90 2q33 -10 39 -13.5t6 -15.5q0 -4 -30 -160q-10 -37 -13 -67q-4 -29 -6 -44.5t-4 -24.5t-3 -13t-3 -8l-12 -46q-4 -23 -6.5 -40t-4.5 -29l-2 -29q0 -23 13.5 -39t31.5 -16 q23 0 53.5 22.5t37.5 42.5q10 31 14 40.5t16 33.5q20 41 27.5 76t7.5 86q0 119 -26.5 191.5t-90.5 132.5q-152 137 -338 137q-33 0 -75 -6l-41 -7l-78 -12q-18 -14 -33 -20q-29 -20 -60.5 -40t-66.5 -40l-35 -21q-10 -6 -12 -9t-10 -17l-13 -27q-16 -18 -30 -43 q-12 -16 -20.5 -28.5t-14.5 -25.5t-12.5 -30.5t-12.5 -42.5q-4 -12 -5 -18t-11 -33q-4 -8 -7 -26.5t-5 -40t-4 -42t-2 -32.5q0 -18 3 -46t7 -63q2 -16 35 -104q10 -25 13 -32t9 -24l16 -45l33 -26q8 -10 15.5 -21.5t17.5 -21.5q23 -31 68 -60.5t100 -50.5q47 -16 91 -23.5 t108 -7.5q61 0 105 2t82 7.5t75 14.5t84 23q20 4 30 5q20 0 29 -37l19 -78q4 -16 4 -27q0 -8 -6.5 -14t-23.5 -12.5t-50 -13.5t-84 -15q-35 -6 -55.5 -9t-38 -4t-36 -2t-48.5 -1l-78 -3h-19q-16 -2 -27.5 -2h-17.5q-16 0 -50 6.5t-70.5 15.5t-71.5 19.5t-55 20.5 q-57 27 -104.5 58.5t-100.5 78.5q-29 27 -45.5 48.5t-38.5 66.5l-47 86q-14 27 -22.5 42t-13.5 31.5t-9.5 37t-10.5 55.5q-8 51 -10 70.5t-2 41.5zM582 629q0 -66 35.5 -106t95.5 -40q33 0 61.5 18.5t50 49.5t33.5 72t12 88q0 72 -24.5 99.5t-85.5 27.5q-37 0 -69 -16.5 t-56.5 -45t-38.5 -66.5t-14 -81z" />
<glyph unicode="A" horiz-adv-x="1116" d="M-2 66q0 10 1 14t5 26q4 16 8 36t6 40q2 10 6.5 36t14.5 67l12 75q2 18 4 32t4 24t5.5 20t7.5 25q14 45 24 98q2 12 3 20.5t3 18.5t5.5 22.5t7.5 32.5l16 74q6 23 12.5 49.5t14.5 54.5l8 32t8 30q10 47 19.5 90t19.5 82q10 35 15 55.5t12 61.5q8 55 17 91t25.5 56.5 t40 29.5t60.5 11q25 2 52.5 2h47.5l74 2h47q16 -4 22.5 -4h26.5l52 2q59 0 87.5 -20.5t49.5 -75.5q4 -12 6 -20.5t12 -45.5q2 -10 9.5 -34.5t19.5 -65.5q4 -16 7 -25.5t5 -19.5t5 -22.5t7 -34.5q2 -12 4.5 -19.5t4.5 -16.5t6 -23.5t12 -39.5q4 -12 6 -19t4 -15.5t3 -19.5 t5 -32l11 -51q12 -47 24 -137l15 -55q4 -16 7 -25.5t6 -21t6 -28t9 -44.5q2 -23 17 -70q2 -10 4 -24.5t6 -30.5q0 -6 6 -34t13.5 -58.5t13.5 -59t8 -37.5q10 -39 12 -47t2 -20q0 -31 -14 -53.5t-37 -30.5q-2 0 -15.5 -1t-32 -2t-36.5 -1h-33q-96 0 -110 6q-29 10 -41 37 l-1 3t-6.5 15.5t-13.5 40t-24 76.5q-6 14 -13.5 23.5t-25 13.5t-46 6t-75.5 2q-72 0 -119 -5t-75.5 -17.5t-43 -34t-20.5 -54.5q-12 -68 -23.5 -88t-33.5 -20h-17.5t-23.5 2h-66h-86q-29 0 -40 4t-28 18q-20 25 -20 46zM436 604q0 -82 101 -82q86 0 114.5 15.5t28.5 56.5 q0 33 -4 57.5t-19 79.5l-16 76q-4 20 -12 47t-16.5 51.5t-16.5 45t-14 28.5q-8 12 -27 12q-25 0 -45.5 -38t-30.5 -105q-10 -49 -18 -92q-10 -45 -14.5 -71t-7.5 -39t-3 -21.5v-20.5z" />
<glyph unicode="B" horiz-adv-x="1179" d="M96 162v20t1 23.5t2 41t3 72.5l-6 168v17.5t2 27.5q4 70 6 95.5t2 44.5v18t-2 19q0 10 -1 18t-1 14v13q2 35 3 54t2.5 29.5t1.5 14.5v10v25q-2 47 -3.5 80.5t-1.5 44.5v10t1 15.5t2.5 33t3.5 62.5v38v127q0 45 16 61.5t63 16.5h38.5t29.5 -2q41 -2 68.5 -3t33.5 -1h7 q10 0 18 2h41q20 0 30.5 -1t47.5 -3h4h24.5t38.5 2h29q205 0 320 -65q102 -61 149 -160q16 -39 26.5 -79t10.5 -69q0 -45 -10.5 -100t-26.5 -84l-17.5 -31.5t-18.5 -25t-26.5 -22.5t-39.5 -29q-10 -6 -11 -15q0 -12 50 -33q8 -4 20 -16t26.5 -27.5t27 -32t18.5 -28.5 q4 -10 9 -32.5t10 -50.5t8 -54.5t3 -42.5q0 -25 -4 -56.5t-11 -63.5t-16.5 -59.5t-17.5 -46.5q-66 -117 -272 -145q-43 -6 -110.5 -8t-194.5 -2h-68t-93 1t-90 2t-56 1q-57 2 -78 37t-21 129zM410 432l6 -117q6 -36 84 -36h4h14h88q61 0 87 4t48 16q61 31 62 113 q0 43 -17.5 76.5t-50.5 50.5q-16 8 -30.5 13t-34 8t-47 4t-70.5 1t-60.5 -2t-31.5 -10q-51 -29 -51 -121zM430 1004q0 -16 4 -45t8 -50q4 -25 23.5 -31t85.5 -10l27 -2q10 -2 21 -2h22q157 0 157 108q0 70 -58 100q-58 32 -188 32q-59 0 -80.5 -21.5t-21.5 -78.5z" />
<glyph unicode="C" horiz-adv-x="847" d="M39 690q0 61 3 109.5t12 91.5t24.5 86t38.5 92q63 135 256 242q55 31 133 48t158 17q51 0 80.5 -3t46 -14t21.5 -31.5t5 -55.5v-27q-2 -10 -2 -18v-15v-12v-8q2 -29 2 -48.5v-23.5q0 -23 -10 -39t-27 -16q-2 0 -25.5 4t-60.5 8q-8 2 -20 2q-29 0 -60.5 -8t-63.5 -22.5 t-58.5 -33t-40.5 -38.5q-6 -10 -19.5 -30.5t-30.5 -51.5q-20 -39 -29.5 -77t-9.5 -85q0 -53 7.5 -99t17.5 -81q57 -143 129 -205q12 -10 33.5 -19.5t46.5 -18.5t47.5 -14t38.5 -5h5t10.5 2t21.5 4t41 8h10q47 0 47 -65l-2 -56v-98q0 -53 -19.5 -74.5t-70.5 -21.5 q-152 0 -264 37q-35 12 -71 33.5t-79 58.5q-8 6 -13 10t-11 9t-16.5 13.5t-28.5 22.5q-53 43 -90 97.5t-72 146.5q-41 102 -41 272z" />
<glyph unicode="D" horiz-adv-x="1300" d="M96 131v51q2 47 2 78v37l-2 156v23t2 32q4 31 5 52.5t1 25.5q-2 12 -2 24q0 10 -1 25.5t-1 32.5q-2 10 -2 17v13v12.5t1 16.5t2 30.5t5 57.5v25q0 8 -1 17t-5 54v25l2 160q2 18 2 29.5v13.5l-4 118q0 61 23.5 87t81.5 26h29.5t31.5 -2h94h228q31 0 54.5 -1t45 -5 t47 -11.5t62.5 -19.5q55 -18 94 -34.5t68.5 -35t56 -42t61.5 -58.5q27 -29 43.5 -49t30.5 -42.5t28.5 -53.5t37.5 -80q12 -29 19 -52.5t12 -51t7 -63.5t5 -91l2 -39v-16q0 -98 -36 -203t-96 -178q-35 -43 -66.5 -74t-66 -55.5t-75.5 -43t-93 -34.5q-20 -6 -54 -13.5 t-70.5 -13.5t-72.5 -9t-59 -3l-333 4h-29q-37 0 -59.5 5t-35 19.5t-16.5 40t-4 66.5zM418 672q0 -6 2 -31v-8v-20.5t1 -48.5t3 -91q2 -37 3 -57.5t3 -31.5t5 -18.5t9 -17.5q33 -45 197 -45q59 0 120.5 24.5t96.5 65.5q18 20 33.5 51t28 66t19.5 73t7 70q0 98 -24.5 162 t-79.5 117q-23 20 -34 30.5t-17 14.5q-35 29 -94.5 44t-123.5 15q-45 0 -73.5 -8t-45 -28.5t-22.5 -56.5t-6 -91v-29v-19t-1 -17.5t-3 -27t-4 -44.5v-25v-18z" />
<glyph unicode="E" horiz-adv-x="1050" d="M96 682v31.5t2 50.5q2 23 2 40v32v16v17.5t-1 28.5t-3 48q2 49 4 76t3 41t1 20.5v16.5v17t-1 18.5t-2 29t-3 47.5v35q0 117 86 123l39 -2h99l110 -4l238 2h31.5t50.5 -2q16 -2 29.5 -2h21.5h28q14 2 24.5 2h18.5q31 0 44.5 -18.5t13.5 -63.5q0 -12 -3 -36.5t-6 -52.5 t-8.5 -52.5t-7.5 -32.5q-6 -16 -21.5 -23.5t-49.5 -7.5h-37.5t-38 1t-61 2t-107.5 5q-14 2 -28.5 2h-31.5q-104 0 -104 -75q0 -8 2 -44t4 -57q4 -33 29.5 -47t81.5 -14h43t37 2q29 2 48 2h25q2 0 9.5 -1t54.5 -5l37 2q10 2 37 2q61 0 81.5 -18.5t20.5 -71.5q0 -82 -1 -115 t-5 -49q-14 -51 -105 -51q-25 0 -61.5 1t-73.5 2t-69.5 3t-51.5 4q-53 6 -82 6q-61 0 -61 -92q0 -84 4 -116.5t17 -43.5q12 -10 54 -16t99 -6l47 4l144 -2q43 4 52 4h23q70 0 92.5 -21.5t22.5 -87.5q0 -115 -12.5 -151.5t-48.5 -36.5h-70t-46.5 1t-37.5 2t-45 3 q-37 -4 -57.5 -5t-34 -2t-23.5 -1h-24h-43.5t-46.5 4h-29h-35q-25 -2 -41 -2h-27h-16h-15t-25.5 1t-45.5 3h-20h-17h-41q-55 0 -69 39q-4 6 -6.5 33.5t-4.5 71.5t-3 100.5t-1 120.5l2 157z" />
<glyph unicode="F" horiz-adv-x="978" d="M96 82v15t2 20q2 33 3 54.5t1 37.5l-2 70q-2 16 -2 30.5v30.5v21.5t1 29t2 56t5 102.5v29v45.5t-2 68.5q-2 31 -2 55.5v45.5v29.5t1 38t3.5 69.5t6.5 127l-4 174q0 141 104 141l100 -4l195 2h26.5t43.5 -2t47 -3t32 -1h6.5t15.5 1t33.5 2t65.5 5q10 2 17.5 2h13.5 q55 0 77.5 -4t33.5 -20q6 -8 12 -24.5t6 -22.5q-4 -66 -5 -102t-3 -53.5t-3 -22.5t-3 -9q-16 -37 -64 -37h-31q-57 0 -89.5 1t-60.5 1t-59.5 1t-87.5 3q-55 0 -78.5 -23.5t-23.5 -78.5l2 -76q10 -69 148 -69h4h10h13t25.5 1t45.5 3l78 -4h94q59 0 59 -60q0 -12 -1 -27.5 t-3 -31.5l-2 -41v-64q0 -57 -57 -57h-4h-9.5t-23.5 1t-45 3l-107 -2l-55 2q-10 2 -19.5 2h-15.5q-37 0 -70.5 -16.5t-47.5 -38.5q-6 -10 -10.5 -20.5t-6.5 -33t-3 -64.5t-1 -114l-6 -88q-2 -16 -2 -27v-20v-28q2 -14 2 -24.5v-20.5q0 -76 -80 -76l-88 2l-72 -2 q-47 0 -66.5 21.5t-19.5 68.5z" />
<glyph unicode="G" horiz-adv-x="1263" d="M39 778q0 244 186 430q68 72 195 119q121 47 346 47q162 0 238.5 -12t99.5 -43q10 -12 16 -26.5t9.5 -37t4.5 -57.5t1 -88q0 -41 -13.5 -57.5t-48.5 -16.5h-14t-19.5 3t-36 8.5t-65.5 15.5q-41 10 -101.5 17t-111.5 7q-35 0 -86 -11t-92 -27q-47 -18 -86 -58.5t-66 -95.5 q-16 -37 -24.5 -78t-8.5 -96q0 -72 35 -152t90 -135q23 -23 45.5 -38t57.5 -31q39 -16 63.5 -26.5t44 -15t42 -5.5t57.5 -1q55 0 79.5 26t24.5 85q0 104 -20 127q-10 10 -26.5 19.5t-33.5 9.5l-53 -2q-31 0 -31 55v27q2 29 3 45t1 18l-2 41v9q0 87 76 87q18 0 52 -1t75 -5 q10 -2 19.5 -2h19.5h23q45 4 73.5 6t32.5 2q72 0 72 -94l-4 -283v-46.5t2 -69.5q2 -31 2 -52.5v-37.5q0 -205 -25 -248q-8 -12 -21.5 -20.5t-39 -12.5t-67.5 -6t-105 -2q-68 0 -112 1t-79 4t-65.5 9t-67.5 17q-39 10 -70.5 21t-64.5 28.5t-72 43t-92 62.5q-37 27 -65.5 53.5 t-52 59.5t-44 75t-43.5 99q-57 150 -57 313z" />
<glyph unicode="H" horiz-adv-x="1333" d="M96 80v20q2 37 3 62.5t1 30.5l-4 362v14v19.5t1 38t3 67.5v47l-2 86l2 291v29.5t-2 40.5q-2 12 -2 20.5v10.5q0 51 1 79.5t7.5 43t18.5 18.5t35 8h131h73q61 0 62 -59q0 -43 -6 -148v-28q0 -6 1 -32t3 -54.5t4 -53t2 -30.5q6 -47 28.5 -68t69.5 -21h15q29 2 47 2.5 t22 0.5h8.5t21.5 -1.5t51 -2.5t95 -3q18 0 50 15.5t49 34.5q27 31 26 67v86v111q0 10 -1 28.5t-3 42.5q-2 14 -2 25.5v22.5q0 27 13.5 45t29.5 18l144 -4l90 10q23 0 38 -14.5t15 -36.5q0 -29 -1 -52.5t-5 -58.5v-16q0 -4 1 -12t5 -54v-22l-4 -111l2 -123l-6 -79 q0 -2 1 -22.5t3 -51.5v-35q0 -55 -1 -111.5t-2 -106.5t-2 -91t-3 -66q4 -61 6 -101t4 -64.5t2 -40v-27.5q0 -31 -10.5 -55.5t-24.5 -24.5l-92 4h-4q-2 0 -4 -1t-6 -1l-99 -2q-41 0 -65.5 21.5t-24.5 56.5v305l-4 70q-2 43 -14.5 64.5t-42.5 29.5q-6 2 -25.5 3t-45 3t-55.5 3 t-54 1h-62h-47q-88 0 -121 -59q-16 -33 -16 -56l-2 -377q0 -61 -66 -61h-28.5t-30.5 2h-27h-15t-22 -2q-18 -2 -34.5 -2h-30.5q-35 0 -50.5 18.5t-15.5 63.5z" />
<glyph unicode="I" horiz-adv-x="548" d="M102 1263.5v16.5q0 35 25 62.5t57 27.5h4q2 0 4.5 -1t6.5 -1h12h18q23 2 60 2h73q84 0 84 -108l-4 -125v-50v-10q0 -4 -1 -10t-1 -12q-2 -10 -2 -19.5v-15.5v-11t1 -12.5t2 -20.5t3 -36l-2 -121v-157q-4 -39 -4 -46.5v-11.5q0 -6 1 -13t5 -44v-277l-2 -77v-14.5t2 -33.5 q2 -16 2 -37.5v-37.5q0 -74 -40 -74q-41 0 -85.5 1t-82 2t-63 2t-30.5 1q-36 12 -36 53v37q0 19 4 47l2 244l-2 186l2 179q-2 45 -3 71.5t-2 44t-1 30.5v34v54.5t2 53.5q2 29 2 49.5v30.5q0 23 -2 55.5t-7 73.5q-2 10 -2 18.5z" />
<glyph unicode="J" horiz-adv-x="675" d="M-2 176v19q0 68 15.5 87t66.5 21h54.5t31.5 1t18 4t15 7q31 16 48 66.5t19 122.5l2 186l2 62l-2 264v177t1 92t2 38t5 14q6 14 28 21.5t50 7.5h99l77 4q70 0 70 -53v-19.5t-2 -21.5q-2 -16 -3 -28.5t-1 -20.5l2 -226v-20t-2 -41q0 -6 -1 -32.5t-2 -94.5t-2 -185.5 t-3 -305.5q-4 -119 -55.5 -200t-139.5 -108q-25 -8 -47 -12t-50 -7t-67 -4t-100 -1q-76 0 -100.5 21.5t-24.5 86.5l-2 52q-2 16 -2 26z" />
<glyph unicode="K" horiz-adv-x="1175" d="M96 43q0 16 2 27q2 14 2 26.5v32.5l-2 256q2 31 2 41v39q2 39 2 76t2 73q2 41 2 53.5v32.5v19.5t-1 30t-2 58.5t-3 110v75v20.5v17.5t1 22.5t3 38.5l-2 61v92v53q0 57 39 72q2 0 23.5 1t55.5 2t74 1h81q59 -4 59 -71v-19.5t-2 -21.5q-2 -18 -3 -35t-1 -27v-4q2 -59 3 -97 t1 -40l-4 -84q-2 -23 8 -39t27 -16q18 0 35.5 15t44.5 50q29 37 49 65.5t35 47.5q16 23 28 39q10 16 28.5 41.5t47.5 62.5q12 16 24.5 33.5t26.5 40.5q25 37 42.5 49t49.5 12h19.5t19.5 -2q25 -2 42.5 -3t25.5 -1h14.5t26.5 2q23 2 45.5 2h46.5q55 0 55 -39q0 -23 -13 -43 t-60 -71q-12 -14 -35 -47q-16 -23 -25.5 -36.5t-22 -29.5t-31.5 -40t-52 -67q-6 -10 -12.5 -18t-12.5 -16q-10 -10 -18 -22.5t-17 -29.5q-31 -41 -49 -66.5t-27.5 -43t-12.5 -29.5t-3 -26q0 -16 5 -35t18.5 -49.5t39 -79.5t68.5 -125q18 -35 29.5 -57.5t19.5 -38.5 q8 -20 15.5 -40t17.5 -38l58 -92l63 -125q12 -25 12 -37q0 -16 -14 -29.5t-31 -13.5l-98 2h-45.5t-50.5 4h-78q-18 2 -34.5 12t-22.5 27q-8 23 -28 67.5t-48 112.5q-4 10 -10.5 20.5t-10.5 20.5l-37 70l-28 41q-10 18 -19 30l-34 72q-8 14 -27 26.5t-33 12.5 q-18 0 -31.5 -17.5t-13.5 -46.5q0 -23 -1 -36t-2 -21t-2 -15t-3 -20q-4 -18 -4 -23v-18v-16t2 -19q4 -35 4 -45v-34v-8.5v-14.5t1 -30.5t3 -57.5q0 -35 -17.5 -60.5t-43.5 -31.5l-119 -4h-7t-14 2q-10 2 -18 2h-16h-13q-12 -2 -21 -3t-12 -1q-18 0 -34.5 17.5t-16.5 35.5z " />
<glyph unicode="L" horiz-adv-x="931" d="M96 86v14.5t2 22.5q2 10 2 28.5v43.5v24v70q2 37 2 60.5v31.5v18q-4 80 -5 121t-1 53v6.5t1 13.5t2 28.5t3 54.5v20v7.5v12.5t-1 26.5t-3 48.5l2 57v31l-2 79v148l-2 92v19v26v45q0 37 17.5 61.5t46.5 24.5l94 -2h127q20 0 37.5 -17.5t15.5 -39.5l-4 -86l2 -103 q-2 -31 -3 -49t-1 -28.5v-18.5v-20v-64t4 -110q2 -23 2 -38.5v-25.5v-20.5t-1 -23.5t-3 -43t-4 -79q-2 -10 -2 -18v-19q0 -47 4 -102t10 -94q12 -53 60 -54h172l121 -2h13t21 2h33q42 1 52 -27q7 -19 7 -66q0 -22 -2 -50q-2 -16 -2 -27.5v-13.5l2 -94q0 -49 -63 -49l-78 2 q-141 0 -215 6q-8 2 -16 2h-17h-8t-17.5 -1t-41 -3t-78.5 -4l-121 6q-4 0 -13 -1t-26 -3q-10 -2 -19 -2h-18q-39 0 -63.5 25.5t-24.5 66.5z" />
<glyph unicode="M" horiz-adv-x="1499" d="M96 1239v23q0 51 15.5 74.5t50.5 27.5h49h55h23h53q39 0 82 -74q16 -29 43 -69.5t56.5 -84.5t58 -84t47.5 -65q45 -57 69.5 -89t39 -46t20.5 -16t14 -2t12 5t21 31q16 25 32.5 49.5t20.5 32.5q27 33 53 78q2 4 12.5 17.5t28.5 39.5q10 14 31 54.5t49 97.5q8 14 16.5 30.5 t36.5 63.5q16 25 27.5 34t28.5 9q29 0 64.5 -1t66.5 -3t54.5 -3t27.5 -3q20 -8 33.5 -21.5t13.5 -29.5l-2 -70l2 -160v-12t-2 -22q-6 -78 -6 -101l4 -178l-2 -135v-52.5t2 -56.5q2 -39 2 -66.5v-43.5v-12.5t-1 -19.5t-2 -38.5t-3 -71.5v-36v-10.5t1 -13.5t2 -24.5t3 -44.5 q2 -10 2 -19v-22q0 -51 -17.5 -79.5t-50.5 -28.5l-114 2h-111q-41 4 -41 57q0 29 6 76q2 20 3 32.5t1 20.5l-2 183v166q-4 63 -39 63q-8 0 -13 -1t-13.5 -8t-20.5 -21.5t-33 -39.5q-8 -10 -13 -15t-11 -13t-17.5 -20.5t-31.5 -35.5q-10 -10 -19 -24q-35 -47 -47 -58.5 t-31 -11.5q-18 0 -30.5 3t-27.5 17.5t-37.5 44t-61.5 81.5l-45 51l-49 57q-39 45 -66 45q-23 0 -30 -15.5t-9 -58.5v-114q0 -29 -6 -182q-2 -18 -2 -43v-60v-58.5t2 -43.5q2 -10 2 -27q0 -57 -61 -57h-10.5t-37.5 2l-88 -2h-10q-8 2 -13 2h-9h-11q-10 -2 -22 -2h-10 q-23 0 -38.5 14t-15.5 37v7t2 9v21v18q-2 55 -3 90t-1 45q0 4 1 11.5l7 52.5q2 12 2.5 24.5t0.5 26.5v23.5t-3 31.5q-2 35 -2 75v87l2 232v159v107q-4 61 -6 96t-3 53.5t-1 28.5z" />
<glyph unicode="N" horiz-adv-x="1323" d="M96 1307q0 33 12 51q10 16 27 16h4l23 -2l51 2h57h66q16 0 37.5 -2t38.5 -6q16 -4 28.5 -15.5t36.5 -52.5l51 -79l70 -107q14 -25 29.5 -47.5t33 -50t40 -63.5t55.5 -87q14 -18 22 -37q18 -39 29.5 -62.5t20 -38.5t14.5 -27.5t14 -28.5q14 -27 25 -27q12 0 12 16v82 t-2 50q-2 10 -2 24v8t4 27v18v16.5t-2 41.5v14l4 98q-2 39 -3 60.5t-2 34t-1 19.5v19v57.5t2 45.5v22v19q-2 6 -2 11v7q0 14 8 24.5t18 10.5l76 -4h10q12 0 23 2h18h16.5t31.5 -2h16h18h25q35 0 55.5 -19.5t20.5 -52.5q0 -10 -1 -32.5t-3 -51.5l-2 -65q-2 -61 -2 -104.5 v-63.5l-9 -275l2 -145q0 -10 -1 -44t-3 -85q-2 -25 -2 -45.5v-40.5v-24.5t2 -31t4 -55t9 -98.5q2 -16 2 -32.5v-35.5q0 -71 -54 -71h-2q-16 0 -26 2l-54 2h-6h-78q-39 0 -56 11t-46 56q-53 84 -90 140.5t-53 87.5q-10 18 -25.5 39.5t-32.5 46.5q-8 12 -20 31.5t-29 46.5 q-12 20 -17 27t-22 32q-23 33 -36 52.5t-20 31.5t-11 20.5t-11 22.5q-27 55 -43 78.5t-32 23.5q-18 0 -25.5 -24.5t-7.5 -83.5v-39q2 -41 3 -69.5t1 -43.5v-5t-1 -10t-2 -22.5t-3 -44.5q2 -20 3 -31.5t2 -22.5t2 -26.5t1 -39.5q2 -68 3 -111t5 -61q2 -23 2 -28v-18 q0 -41 -30 -55q-23 -11 -74 -11q-15 0 -31 1q-29 2 -44 3t-23.5 1h-10.5h-4h-8q-25 -2 -42 -3t-23 -1q-16 0 -30 14.5t-14 32.5q0 2 1.5 12.5t3.5 26.5v16v13.5t-2 27.5v64l4 252l-4 151l4 172q-4 82 -7.5 161t-3.5 126z" />
<glyph unicode="O" horiz-adv-x="1363" d="M39 715q4 72 26.5 154.5t59.5 148.5q53 100 107.5 164.5t123.5 111.5q20 12 69.5 32t102.5 36q25 8 72 14t80 6q20 0 49 -3t59.5 -8t58 -10t44.5 -11q18 -8 45 -20.5t53.5 -27t49 -28.5t32.5 -23q14 -12 38 -35.5t46.5 -48t40.5 -47t25 -35.5q8 -12 11 -20t17 -43l27 -55 q12 -25 19.5 -45.5t12.5 -44t8 -55t5 -77.5v-28q2 -23 3 -42.5t1 -39.5q0 -57 -17.5 -137t-43.5 -146q-16 -43 -43 -85t-57.5 -78.5t-63.5 -64.5t-64 -42q-4 -2 -21.5 -12.5t-49.5 -26.5q-20 -10 -53 -21.5t-69 -20.5t-72 -14t-62 -5q-82 0 -135.5 8t-108.5 30 q-45 16 -72.5 29.5t-42.5 24.5q-49 35 -95 73.5t-67 65.5q-35 45 -66.5 99.5t-47.5 101.5q-4 10 -10.5 52t-12.5 91t-9 94t-3 64zM354 696q0 -72 17.5 -140.5t50.5 -121.5q41 -66 112.5 -102.5t161.5 -36.5q61 0 118.5 29.5t107.5 85.5q8 10 26.5 40.5t24.5 45.5 q6 12 12 34.5t11 46t8.5 46t3.5 34.5q0 100 -17.5 162t-60.5 111q-45 51 -73 72.5t-69 37.5q-23 8 -31.5 10.5t-35.5 2.5q-6 2 -11 2t-32 2q-10 0 -28.5 -3t-40 -8.5t-40 -10.5t-24.5 -7q-86 -45 -138.5 -136t-52.5 -196z" />
<glyph unicode="P" horiz-adv-x="1196" d="M96 53v31q2 16 2 32.5v33.5v202q2 33 3 52.5t1 40t1 49t1 77.5l7 209v29l-7 168v131q-4 39 -5 61.5t-2 35t-1 19.5v17q0 59 28 82t107 35q16 2 51 4t78 4t88.5 3t79.5 1q160 0 270.5 -28.5t200.5 -94.5q29 -23 46.5 -37t31 -28.5t24.5 -31.5t25 -44q29 -53 40.5 -102.5 t11.5 -122.5q0 -156 -43 -259.5t-140 -172.5q-123 -92 -319 -93h-13.5t-14.5 1t-25.5 3t-47.5 7q-88 0 -112 -11q-23 -10 -36 -34.5t-13 -53.5q0 -10 1 -45t5 -86q2 -12 2 -25.5v-25.5q0 -51 -16.5 -70.5t-59.5 -19.5h-11t-14.5 1t-25.5 3t-47 6q-8 2 -27 2h-8t-12 -1 t-23.5 -3t-42.5 -6h-4q-16 0 -25.5 15.5t-9.5 39.5zM428 856q0 -68 8 -108.5t32 -64.5t64.5 -32t108.5 -8q53 0 98 17.5t66 44.5q14 23 26 34q14 18 17.5 25.5t11.5 30.5q14 51 14 79q0 12 -7 39t-17 62q-4 16 -22.5 37.5t-34.5 34.5q-74 51 -207 51q-53 0 -84 -7.5 t-47.5 -32t-21.5 -72.5t-5 -130z" />
<glyph unicode="Q" horiz-adv-x="1335" d="M39 690q0 47 7 99.5t19.5 102.5t30 95t37.5 78q37 61 101.5 126.5t125.5 102.5q59 37 141.5 58.5t162.5 21.5q266 0 450 -182q47 -47 81 -98.5t55.5 -112.5t30.5 -135t9 -164q0 -31 -2 -46t-10 -58q-2 -8 -4 -20.5t-6 -31.5q-6 -31 -9.5 -49t-9.5 -35.5t-15 -41 t-26 -64.5q-4 -12 -4 -14q0 -10 16.5 -18.5t39.5 -10.5q45 -4 57 -15.5t12 -48.5v-53v-49.5t2 -60.5q0 -23 -3 -37.5t-17.5 -21.5t-39 -9t-67.5 -2q-47 0 -96 15.5t-72 35.5q-27 25 -32 25q-4 0 -20.5 -8.5t-39.5 -18.5q-49 -25 -117.5 -39t-142.5 -14q-84 0 -152.5 12 t-130 40t-118 73t-113.5 110q-10 10 -15 17.5t-13.5 21t-20.5 38t-33 69.5q-23 47 -36 131t-13 186zM348 700q0 -61 2 -87.5t10 -53.5q16 -57 48 -105t75 -83q18 -14 40 -27.5t43.5 -25t38 -17.5t24.5 -6q49 4 77.5 8t45 7t21.5 7.5t5 10.5t-8 20t-22 35q-4 8 -8.5 17.5 t-4.5 17.5q0 14 10.5 29.5t25.5 28.5t34 22.5t35 9.5q8 0 15 -5t46 -32q0 -2 6 -2q14 0 28.5 20.5t27 52t19.5 71.5t7 81q0 158 -84 260q-39 47 -101.5 77t-121.5 30q-43 0 -96.5 -15.5t-79.5 -33.5q-88 -66 -123 -135.5t-35 -176.5z" />
<glyph unicode="R" horiz-adv-x="1144" d="M96 51v47v56q0 2 1 29.5t3 68.5q2 23 2 44v42v29.5v25t-1 31.5t-3 53v29l4 121l-2 200q4 100 7.5 161t3.5 91l-5 213q0 86 87 86h31.5h27.5t31.5 -1t42.5 -3q14 -2 22 -2h12l234 2q92 0 178 -26.5t158 -75.5q72 -47 112.5 -139.5t40.5 -202.5q0 -78 -21.5 -154 t-62.5 -135q-8 -10 -36.5 -45t-81.5 -92q-6 -10 -11.5 -22.5t-5.5 -22.5q0 -29 27 -49q25 -20 61.5 -42t55.5 -26q43 -14 56 -25.5t13 -35.5q0 -35 -1 -78t-3 -81t-4 -65.5t-4 -29.5q-10 -16 -38 -27.5t-52 -11.5q-37 0 -60.5 9t-58.5 38l-16 10q-72 55 -111 98 q-35 37 -43 46.5t-18 15.5q-4 4 -32 21.5t-75 52.5q-31 20 -65 20q-31 0 -50.5 -19.5t-19.5 -48.5v-55l-2 -57q4 -27 7 -41.5t4 -21.5t1 -10v-5q0 -51 -53 -51h-4l-82 6l-133 -4q-68 0 -68 59zM422 756l2 -35q2 -72 16.5 -95.5t57.5 -23.5q106 0 190 107q33 43 53.5 93 t20.5 91q0 37 -15.5 72.5t-37.5 56.5q-47 41 -177 41q-61 0 -83.5 -21.5t-22.5 -80.5l2 -74q0 -25 -6 -86v-19v-26z" />
<glyph unicode="S" horiz-adv-x="841" d="M45 1024q0 184 113.5 267t363.5 83q78 0 124 -7t77 -26q16 -10 22.5 -24t6.5 -43v-14.5t-2 -18.5q-2 -16 -2 -29.5v-17.5v-8q2 -23 2 -38v-26q0 -53 -54 -53q-8 0 -50 3t-107 7q-8 2 -16.5 2h-14.5q-53 0 -85 -23.5t-32 -62.5q0 -20 8.5 -38.5t27.5 -40t55 -51t91 -70.5 q121 -90 172.5 -180.5t51.5 -211.5q0 -240 -197 -352q-59 -33 -119.5 -46t-156.5 -13q-147 0 -207 19.5t-60 66.5l2 55v9.5t-2 19.5v18v21q2 10 2 15v9v13q-2 18 -3 31.5t-1 15.5q0 23 21.5 35t56.5 12h13.5t16.5 -2t32.5 -6.5t58.5 -10.5q31 -6 65 -6q66 0 104 32t38 87 q0 31 -19.5 59.5t-66.5 67.5q-4 2 -105 90q-51 45 -80.5 72.5t-48 47t-30 38t-25.5 45.5q-41 76 -41 178z" />
<glyph unicode="T" horiz-adv-x="862" d="M27 1157v32.5t2 49.5q2 8 2 47q2 45 19.5 62.5t58.5 21.5l170 -2h42h35.5t41 -1t57.5 -3q20 -2 37.5 -2h27.5h32.5t39.5 2q23 0 40 1t34.5 1h36h42.5q72 0 84 -51q2 -4 3.5 -8t1.5 -16.5v-35v-63.5q-6 -109 -9 -111q-10 -31 -30 -30l-99 2q-18 0 -44.5 -19.5t-37.5 -38.5 q-8 -16 -13 -55t-5 -76v-145l-6 -84l2 -80l-2 -96q2 -37 2 -44v-16q-4 -55 -4 -74.5v-29.5v-23q2 -29 3 -57.5t1 -56.5l2 -52q0 -10 1 -18t1 -14v-15q0 -43 -51 -55q-16 -4 -44 -6t-46 -2h-17l-69 4h-64q-45 6 -45 66v37t2 26q2 23 3 37t1 27v7t-2 13q-2 18 -3 30.5t-1 27 v37v63.5q0 37 3 90t7 94q2 10 2 17.5v11.5v9t-2 13q-4 29 -4 45.5v59.5v26l4 68v2q-2 66 -6 88q0 4 3 23.5t5 29.5q2 12 -4 30.5t-17 37t-24.5 31t-23.5 12.5l-135 -2q-41 0 -41 100z" />
<glyph unicode="U" horiz-adv-x="1294" d="M76 1115v28v55q2 18 2 31.5v17.5v37q0 86 61 86h17.5t27.5 -2h17h18t53 4h25q78 0 102.5 -10t24.5 -45q0 -14 -1 -31.5t-3 -40.5q-4 -20 -4 -36.5v-32.5v-5l2 -200l-4 -148q0 -94 1 -155.5t2 -104.5t5 -72.5t10 -60.5q31 -149 218 -149h3q72 0 130.5 34.5t76.5 87.5 q2 8 5 32t6 54.5t4.5 64.5t1.5 64l2 132v15t1 23.5t2 47t3 88.5l-2 63l-2 137v78q-2 20 -2 34.5v25.5q0 59 24.5 83.5t81.5 24.5h115h39q27 0 42 -5t23 -22.5t11.5 -49t3.5 -85.5v-11t-2 -26q-2 -16 -2.5 -33.5t-0.5 -39.5l3 -148l-9 -413q-2 -10 -2 -17.5v-9.5v-86 q0 -6 -1 -14.5t-7 -49.5q-6 -47 -11 -74.5t-9 -37.5q-23 -59 -59 -105.5t-81 -72.5q-152 -88 -346 -88q-287 0 -401 63q-86 45 -136.5 119t-60.5 166q-8 72 -12 111.5t-4 45.5v10.5v12.5t1 24.5t3 45.5v30v27q-2 51 -2 85v42l2 248q-2 31 -3 48t-2 30.5t-1 24.5z" />
<glyph unicode="V" horiz-adv-x="1017" d="M-6 1296q-1 6 -1 12q0 51 50 60l125 -6q41 4 50 4h22q25 0 39 -3t23 -14.5t15.5 -32t10.5 -52.5q6 -29 13 -58.5t15 -58.5q4 -27 8.5 -48.5t8.5 -41.5l18 -109l4 -24l19 -54q10 -35 16 -72.5t10 -70.5q8 -59 25 -104l12 -68q4 -29 13.5 -48.5t19.5 -19.5q14 0 33.5 70 t36.5 180q10 72 18 107l49 198q4 16 7 32t8 50q2 23 4 35t4 20.5t3 14.5t5 16l12 52l10 47q12 67 74 67h2q29 0 66 -6q14 -2 26.5 -3t22.5 -1h8q25 2 42 3t20 1q65 0 65 -51q0 -10 -5 -39t-12.5 -65.5t-16.5 -73.5t-15 -60q-6 -25 -11 -47t-10 -45l-24 -141 q-12 -53 -19.5 -86t-15.5 -65.5t-20.5 -71.5t-30.5 -103q-4 -16 -8 -34.5t-9 -38.5q-4 -20 -3 -20.5t-3 -18.5q-4 -23 -8 -47.5t-8 -53.5q-14 -53 -27.5 -102t-29.5 -96q-10 -39 -19.5 -62.5t-24 -36t-39 -16.5t-65.5 -4l-51 -2q-16 -2 -32.5 -2h-29.5q-14 0 -34.5 1t-42 2 t-41 2t-31.5 3q-23 2 -37 10t-25.5 26.5t-21.5 50.5t-23 85q-4 18 -7 29.5t-6 26t-6 33.5t-9 56q-4 25 -16.5 73t-30.5 120q-10 37 -17.5 67.5t-13.5 62.5t-12 69.5t-15 89.5q-10 61 -31.5 154t-52.5 216q-10 37 -15 70t-7 61z" />
<glyph unicode="W" horiz-adv-x="1589" d="M-6 1315q0 20 11 36.5t28 16.5q23 0 48 1t54 3t35 2h16q102 0 121 -31q18 -31 27.5 -75.5t17.5 -130.5l6 -47l31 -95l10 -41q12 -53 29 -110q12 -45 17.5 -67.5t9.5 -51.5l8 -39l29 -106l12 -56l4 -26q6 -45 24 -45q10 0 22.5 30.5t18.5 71.5q6 29 9.5 47.5t6.5 31.5 t8 24.5t11 27.5q14 33 22.5 53.5t11.5 36t4 29.5t1 37q0 14 -2 38.5t-7 55.5t-11 63.5t-13 63.5q-4 14 -4 20.5t-4 30.5q-2 12 -3 18.5t-7 32.5q-6 27 -9 43.5l-5 27.5t-4.5 22.5t-4.5 29.5q-6 31 -6 45q0 16 17.5 25.5t46.5 9.5h30.5t37 -1t32.5 -2t21 -1q4 -2 8 -2h4l88 6 q8 0 19.5 -11t15.5 -26l4 -12t5 -23.5t8 -53.5t16 -101q12 -78 49 -246q6 -31 10 -49.5t7 -31.5t5 -25.5t6 -32.5q10 -53 21.5 -112.5t25.5 -123.5q8 -43 25 -43q6 0 11 6t11.5 23.5t13.5 49.5t19 85q2 16 4 25.5t5.5 18.5t7.5 21.5t10 32.5q2 10 4 17.5t4 18.5t5 28.5 t7 48.5l72 285l8 46t11 50q25 133 75 133q14 0 23 -2l125 -2q27 0 41 -1t22 -2t12.5 -3t10.5 -4q10 -6 19 -20q7 -11 7 -19l-19 -93q-11 -54 -28 -128q-2 -8 -3 -13.5t-4 -16.5t-9 -31.5t-16 -57.5q-10 -33 -16.5 -56.5t-11.5 -46t-11 -47t-13 -61.5q-18 -96 -43 -176 q-12 -35 -23 -74t-22 -82q-4 -14 -8 -42t-12 -71l-19 -79q-10 -43 -21 -86t-22 -89q-18 -69 -86 -69h-2h-4t-14 1t-36 2t-69 3l-22 -2h-35h-19.5t-17.5 2q-10 2 -16 2h-8l-52 -2q-37 0 -65 35q-10 14 -14.5 29.5t-12.5 56.5q-2 6 -13 44t-34 109q-6 18 -9 22.5t-9 4.5 q-29 0 -68 -203q-12 -61 -28.5 -83.5t-49.5 -22.5q-39 0 -95 1t-109 5h-50q-37 0 -55 18q-16 16 -33.5 76t-25.5 135q-4 20 -6 32.5t-5.5 26t-8.5 33t-13 52.5l-37 141l-14 84l-76 305q-14 59 -26.5 118.5t-26.5 119.5q-14 57 -21.5 90t-10.5 50t-4 23.5t-1 12.5z" />
<glyph unicode="X" horiz-adv-x="1118" d="M-20 41q0 16 25.5 62.5t70.5 105.5q18 25 35.5 51.5t31.5 54.5l136 236q8 18 18 34.5t25 32.5q6 8 8 11.5t4 5.5t4 5t8 11q14 16 14 31q0 16 -36 74q-10 16 -16.5 28.5t-20.5 40.5q-14 29 -37 73t-57 103q-16 29 -28.5 50.5t-17.5 33.5q-12 25 -24 48.5t-29 46.5 q-14 23 -20 33t-21 34l-14 29q-14 23 -19.5 35t-5.5 22q0 39 41 43h18.5t35.5 -4q10 -2 17 -2h17h11.5t17.5 2q27 2 49.5 2h44.5q47 0 73 -17.5t48 -62.5q20 -39 33.5 -65.5t23.5 -42.5q2 -6 5.5 -10.5t6.5 -11.5t10 -21.5t19 -38.5q18 -35 41 -60.5t35 -25.5q6 0 9 1t9.5 8 t17.5 23.5t30 45.5q14 23 31.5 51.5t34 58t30.5 56t25 45.5q10 23 26.5 40t30.5 21q8 4 38.5 5t78.5 1h34.5t30.5 -2q4 -2 12 -2h7l96 2q14 0 25.5 -14.5t11.5 -30.5q0 -10 -2 -18.5t-9.5 -20.5t-19.5 -30.5t-33 -45.5q-10 -14 -19 -27.5t-20 -27.5q-8 -14 -8 -13t-8 -14 q-20 -31 -41 -62.5t-41 -66.5q-27 -39 -42 -61t-25.5 -36.5t-18.5 -28t-21 -33.5q-8 -14 -18 -30.5t-27 -37.5q-49 -63 -49 -98q0 -18 43 -70q31 -41 49 -80q10 -16 18.5 -32.5t18.5 -32.5l70 -113q8 -12 15 -24.5t16 -28.5q8 -14 7 -14t7 -15q18 -37 30.5 -57.5t19.5 -34.5 t13.5 -22.5t16.5 -20.5q59 -80 59 -100q0 -18 -19.5 -29.5t-49.5 -11.5h-18.5t-53.5 4l-150 -2q-35 4 -65 43q-2 2 -3 4t-5 9t-11.5 21.5t-21.5 39.5l-41 71q-20 31 -31.5 50.5t-22 36t-23.5 39t-34 59.5q-16 23 -30 22q-16 0 -31 -37q-4 -6 -14.5 -27.5t-23.5 -46 t-25.5 -48t-18.5 -33.5q-16 -29 -74 -136q-12 -25 -21 -37t-28.5 -18t-56.5 -7t-103 -1l-63 2l-45 -4q-20 0 -38.5 15.5t-18.5 31.5z" />
<glyph unicode="Y" horiz-adv-x="1126" d="M-20 1325v5q0 46 65 46h127h57q59 0 81 -10t36 -47q14 -33 21.5 -51.5t12.5 -30.5t10 -20.5t11 -22.5q16 -39 38 -85t44 -103q8 -23 14.5 -35.5t10.5 -22.5t9 -21.5t15 -29.5q14 -31 31 -31q20 0 39 41q4 6 45 113q6 14 17.5 39.5t22.5 52.5t21.5 49.5t14.5 30.5 q18 37 28.5 57.5t15.5 31.5t8 17.5t7 14.5q16 35 31.5 46t50.5 11l111 -2q23 -2 35 -2h24l51 2q61 0 62 -41q0 -8 -1 -14t-4 -14.5t-10.5 -21.5t-21.5 -38q-25 -47 -47.5 -93t-42.5 -89q-8 -16 -14.5 -27.5t-13.5 -26t-20.5 -38t-37.5 -66.5q-4 -8 -8 -15t-10.5 -20.5 t-18.5 -39t-35 -72.5q-25 -51 -69 -140q-25 -49 -41.5 -86t-25.5 -74.5t-12 -80.5t-3 -103v-44t2 -44v-35q0 -53 -2 -83.5t-8.5 -46t-17.5 -20.5t-30 -5h-15t-17 2q-16 2 -28.5 2h-19.5l-126 -2q-25 0 -41.5 7t-24.5 27.5t-11 56.5t-3 95q2 47 4 72.5t3 40t1 23v20.5 q0 45 -3 80t-9.5 64.5t-17.5 57t-28 58.5q-18 37 -43 90q-23 45 -55.5 110.5t-75.5 157.5q-16 35 -27.5 60.5t-21.5 48.5l-55 127l-47 90q-14 29 -14 47z" />
<glyph unicode="Z" horiz-adv-x="1087" d="M23 72q0 4 1 16t2 24.5t2 22.5t1 12q2 8 22.5 41t48.5 78q6 10 9.5 15.5l17.5 27.5q4 8 18.5 29.5t36.5 58.5q8 14 15.5 23.5t16.5 26t25.5 45t47.5 79.5q18 35 43.5 77t58.5 93q12 18 19.5 28.5t11.5 19t9 15.5t11 19q12 25 20.5 38t15.5 25.5t15.5 26t24.5 37.5 q18 29 29.5 52.5t11.5 31.5q0 12 -14.5 21.5t-36.5 9.5h-31.5t-52.5 -2q-16 -2 -22.5 -2h-34.5q-8 0 -25.5 1t-37 2l-39 2t-32.5 1h-4l-69 -2q-49 0 -68.5 28.5t-19.5 100.5v24.5t2 30.5v37q0 31 6 48.5t23.5 26.5t51 12t89.5 3h44t88 -1t115.5 -2l127 -2t121 -2t100.5 -1 q31 -2 65.5 -2h61.5h20q59 0 57 -49q-4 -47 -6 -71.5t-2 -28.5q-4 -4 -7 -10.5t-21 -35.5q-6 -8 -11.5 -18t-13.5 -20l-18 -31q-6 -6 -21 -35q-4 -4 -10 -14.5t-17 -26.5q-4 -8 -13 -24.5t-23 -40.5q-10 -18 -31 -53.5t-46.5 -75t-51 -78.5t-45.5 -68q-16 -20 -31 -47 q-16 -31 -33.5 -61.5t-34.5 -63.5q-14 -27 -29.5 -52.5t-31.5 -49.5q-23 -41 -23 -68q0 -14 13.5 -23.5t29.5 -9.5h10.5t14.5 2h24q35 0 97 -6q6 -2 16 -2t18 2l64 2l92 2h29q45 6 57 6q16 0 31.5 -14t15.5 -33v-22.5t-2 -50.5l2 -45v-46v-24q0 -92 -73 -92q-45 0 -115 1 t-140.5 2t-130 2t-83.5 3l-127 -2h-105h-88q-47 0 -78 3t-41 7q-14 6 -22 24.5t-8 41.5z" />
<glyph unicode="[" horiz-adv-x="595" d="M102 506v24v19v14l2 94v19q-2 35 -2 55.5v22.5l4 65l-2 84v25q0 14 1 34.5t2.5 40t1.5 34v16.5v23.5t-3 51.5v56v20v56q-2 10 -2 17v13q0 33 20.5 53.5t51.5 20.5h13.5t15.5 -2q12 -2 19 -2h9l99 4l71 -6l52.5 6t52.5 2q45 0 45 -47v-35v-22v-43q2 -8 2 -17v-8 q0 -35 -10 -49.5t-37 -14.5h-27q-10 2 -17 2.5t-11 0.5q-37 0 -53.5 -8.5t-20.5 -28.5q-6 -23 -10 -84.5t-4 -114.5v-5t1 -14.5t2 -34t5 -63.5q2 -14 2 -30.5v-38.5q0 -18 -1 -44t-3 -59q-2 -31 -3 -51t-1 -35.5v-30v-34.5v-23v-121q-2 -16 -2 -26.5v-14.5q0 -25 1 -54.5 t4 -56t5 -48t6 -29.5q10 -29 72 -29h11t17 2h27q27 0 37 -14t10 -49v-8q0 -23 -2 -31v-25v-69q0 -39 -45 -39q-35 0 -52.5 2l-52.5 6l-71 -6l-99 4h-10t-18 -2q-8 -2 -15.5 -2h-13.5q-31 0 -51.5 20.5t-20.5 53.5v13t2 17v56v20v55q2 35 2.5 54.5t0.5 21.5v17.5t-1.5 35 t-2.5 40t-1 32.5v25q0 16 1 39.5t4 44.5v10q-2 43 -3.5 66.5t-2.5 37t-1 23.5z" />
<glyph unicode="\" horiz-adv-x="804" d="M61 1329q0 23 18.5 32t67.5 9h66q31 -2 51.5 -2h22.5q8 2 13 2h7q23 0 36 -26.5t24 -90.5q4 -16 7 -28.5t7 -26.5t10 -34.5t17 -51.5q18 -61 42.5 -145t53.5 -191q29 -78 48 -135t30 -96q25 -90 55 -185l25 -73l40 -166q10 -27 19.5 -56.5t19.5 -64.5q6 -14 7.5 -20.5 t3.5 -9.5t3 -9t7 -20q23 -55 22 -99q0 -25 -16 -32t-76 -7l-26 -2h-15h-8t-16 2h-45q-25 0 -40.5 5.5t-25.5 18.5t-19.5 38.5t-17.5 68.5q-4 18 -7 30.5l-6 25t-9 29t-15 40.5q-14 49 -28.5 95.5t-28.5 91.5l-63 207q-12 39 -56 153q-6 14 -10 26.5t-9 29t-11.5 39 t-16.5 59.5q-18 70 -30.5 115t-20.5 67q-16 41 -24.5 68.5t-16.5 58.5q-10 35 -19.5 71t-19.5 70q-12 39 -19.5 69t-7.5 50z" />
<glyph unicode="]" horiz-adv-x="595" d="M41 -6q0 35 10 49t37 14h27q10 -2 17 -2h11q37 0 53.5 8.5t20.5 28.5q6 23 10 84.5t4 114.5v5t-1 14.5t-3 34t-4 63.5q-2 14 -2 30.5v38.5q0 18 1 44t3 59q2 31 3 51t1 35.5v30v34.5v23v120q2 16 2 27.5v13.5q0 27 -1 55.5t-4 55.5t-6 47.5t-5 30.5q-10 29 -72 29h-11 t-17 -3h-27q-27 0 -37 14.5t-10 49.5v8q0 20 2 31v24v70q0 39 45 39q35 0 52.5 -2l52.5 -6l71 6l98 -4h10.5t18.5 2q8 2 15.5 2h13.5q31 0 51.5 -20.5t20.5 -53.5v-13t-3 -17v-56v-20v-56q-2 -33 -2 -53v-22v-17.5t1 -35t2.5 -40t1.5 -32.5v-25q0 -16 -1.5 -39.5t-3.5 -44.5 v-10q2 -43 3.5 -66.5t2.5 -37t1 -22.5v-24v-20v-12l-2 -97v-18q2 -33 2 -54.5v-23.5l-7 -65q2 -29 3.5 -44.5t1.5 -23.5v-10v-4v-27q0 -16 -1.5 -36.5t-2.5 -39t-1 -33v-16.5v-23.5t2 -52.5v-55v-20v-56q2 -10 2.5 -17t0.5 -13q0 -33 -20.5 -53.5t-51.5 -20.5h-13.5t-15.5 2 q-12 2 -19 2h-10l-98 -4l-71 6l-52.5 -6t-52.5 -2q-45 0 -45 47v37v20v43q-2 8 -2 17v8z" />
<glyph unicode="^" d="M16 696l291 678h412l289 -678h-326l-168 428l-172 -428h-326z" />
<glyph unicode="_" d="M0 -102h1024v-217h-1024v217z" />
<glyph unicode="`" d="M268 1294q0 51 43 58l74 -2q2 0 12.5 1t26.5 3h16h8.5t20.5 -4h55q25 0 36 -15.5t26 -74.5q16 -57 25.5 -105.5t9.5 -69.5q0 -27 -46 -26q-59 0 -92.5 1t-52 3t-27 6t-14.5 12q-4 4 -6 8.5t-14 24.5q-2 8 -37 57q-4 6 -9.5 15.5t-13.5 23.5q-4 8 -9 16.5t-9 18.5 q-23 37 -23 49z" />
<glyph unicode="a" horiz-adv-x="980" d="M35 324q0 55 23.5 112.5t64.5 100.5q16 18 48 33.5t87 31.5q45 14 90 19.5t123 5.5q25 0 43 -1t31 -3q35 -8 55 -9q14 0 25.5 10.5t11.5 22.5q0 33 -41 55.5t-100 22.5q-33 0 -56.5 -2t-54.5 -8t-77 -19.5t-122 -36.5q-16 -4 -24 -4q-23 0 -37 13.5t-14 36.5l4 165 q4 20 14 30.5t39 21.5l68 28q45 20 110.5 29.5t169.5 9.5q164 0 248 -51q59 -39 89 -67.5t48 -73.5q10 -18 12 -51t2 -109v-125v-21.5t3 -44.5v-43v-25t-3 -46q-2 -12 -2 -23.5v-21.5v-37q2 -16 2 -27.5v-19.5v-9.5t-2 -37.5l2 -15q2 -8 2.5 -17t0.5 -20q0 -39 -4.5 -60 t-20.5 -31.5t-52 -13.5t-100 -5l-49 -2h-10q-10 0 -15 5t-28 38q-4 4 -8 4q-2 0 -7.5 -3t-33.5 -22q-8 -6 -24.5 -12t-36 -10t-40 -7t-34.5 -3h-6.5t-28.5 4l-49 -2q-72 0 -139.5 25.5t-106.5 66.5q-47 51 -68.5 109.5t-21.5 138.5zM334 305q0 -41 46 -62.5t132 -21.5 q53 0 87 24.5t34 65.5q0 39 -37 64.5t-90 25.5q-172 0 -172 -96z" />
<glyph unicode="b" horiz-adv-x="1095" d="M72 68v47v125v22l2 117v33.5v25t1 24.5t3 38l-2 78l2 296l-2 127v50.5t2 60.5q2 16 2 27.5v17.5v31q-4 57 -5 95t-1 44q0 53 41 53q129 0 178 -2t59 -8q16 -10 25 -37v-83t2 -242q0 -25 13.5 -41.5t35.5 -16.5q2 0 6 1t19.5 4t48.5 11.5t92 22.5q6 2 41 2q246 0 366 -229 q23 -43 37.5 -76t21.5 -63.5t9 -67.5t2 -88q0 -88 -14.5 -145.5t-50.5 -120.5q-131 -223 -355 -224q-41 0 -71.5 2.5t-58 8.5t-53.5 16t-54 27q-12 6 -29 6q-10 0 -16.5 -4t-38.5 -29q-12 -8 -21 -8h-80h-73.5t-39 2t-17.5 4t-9 8q-18 18 -18 58zM367 481q0 -217 225 -217 q68 0 119 35t65 90q2 6 4 20.5t4 30t4.5 28.5t2.5 17q0 98 -58.5 162t-146.5 64q-98 0 -158.5 -62.5t-60.5 -167.5z" />
<glyph unicode="c" horiz-adv-x="653" d="M25 502q0 92 24.5 181t65.5 140q29 35 64.5 65t78.5 50q18 8 49 17.5t67 16.5t71.5 11t62.5 4q72 0 96.5 -18.5t24.5 -71.5q0 -18 -1 -49t-3 -45v-23v-7q0 -49 -25 -65q-27 -16 -115 -16q-35 -2 -72.5 -20.5t-60.5 -42.5q-14 -18 -27.5 -58.5t-13.5 -66.5 q0 -23 8.5 -50.5t21.5 -53t29.5 -48t32.5 -35.5q16 -12 46 -27.5t43 -17.5q23 -6 51 -10t41 -6q27 -2 35 -8t8 -25l-2 -104q4 -23 4 -35v-29q0 -59 -21 -67q-10 -6 -35.5 -11.5t-35.5 -5.5q-72 4 -109 6.5t-41 2.5q-31 6 -54.5 12t-46 17t-47 27.5t-57.5 41.5 q-41 33 -67.5 69.5t-42.5 88.5q-16 45 -25.5 77.5t-13.5 61t-6 57.5t-2 70z" />
<glyph unicode="d" horiz-adv-x="1142" d="M25 492q0 96 19 167.5t67 143.5q10 16 17 26.5t19.5 20.5t34 25.5t58.5 44.5l28.5 19t18.5 12t16 7.5t25 6.5q35 10 69.5 15t69.5 5q27 0 57.5 -4t59 -10t54.5 -14.5t42 -16.5q37 -20 51 -20t23.5 19t9.5 48v35q-2 43 -2 70.5v31.5v2l2 105v63q2 37 24.5 59.5t57.5 22.5 l94 -2h16q12 2 22.5 2h20.5q68 0 68 -92v-42.5t-2 -53.5q-2 -27 -2 -51.5v-51.5v-55l2 -231v-129l2 -74v-49v-32.5t-2 -51.5v-80v-45.5t2 -46.5q2 -66 3 -111t1 -67q0 -74 -16.5 -97.5t-69.5 -23.5l-72 2l-79 -2q-16 0 -26.5 1t-17 4t-10.5 10t-12 22q-6 10 -20 10 q-4 0 -7.5 -1t-12.5 -4t-26.5 -12.5t-50.5 -23.5q-4 -2 -21.5 -5t-40 -5t-47 -4t-42.5 -2q-94 0 -170 23.5t-154 76.5q-23 16 -54.5 62t-53.5 100q-25 53 -34 108.5t-9 139.5zM317 467q0 -43 17.5 -80t48.5 -64.5t72 -43t88 -15.5q18 0 33.5 2t31 7.5t36 14.5t48.5 25 q37 23 54.5 59t17.5 95q0 131 -86 184q-33 18 -74 30.5t-76 12.5q-96 0 -153.5 -61.5t-57.5 -161.5v-4z" />
<glyph unicode="e" horiz-adv-x="952" d="M25 467q0 92 17 162.5t54 134.5q68 113 160 166t219 53q102 0 170 -23.5t131 -80.5q47 -43 84 -102.5t45 -106.5q4 -20 6 -27.5t7 -30.5q6 -23 8 -38t2 -42q0 -57 -8.5 -86.5t-24.5 -42.5q-10 -8 -25.5 -13t-25.5 -5h-119l-39 -2l-96 2l-123 -2l-64 4q-27 0 -45 -12.5 t-18 -28.5q0 -18 28.5 -40.5t80.5 -43.5q6 -2 22 -5t38.5 -5t47.5 -3t45 -1q27 0 47.5 2t44 6t55 13.5t80.5 25.5q14 6 35 6q55 0 56 -78v-17.5t-1 -32.5t-2.5 -33.5t-1.5 -20.5q-2 -33 -17 -53.5t-54 -36.5q-115 -49 -260 -49t-236.5 25.5t-161.5 86.5q-45 37 -85 99.5 t-52 113.5q-8 35 -13 57.5t-7 39t-3 30.5t-1 35zM332 641q-2 -23 22 -35q21 -10 59 -10h13l117 2h8q74 0 74 37q0 20 -12.5 39.5t-33 35t-47 24.5t-53.5 9t-53.5 -9t-47 -23.5t-33.5 -33t-13 -36.5z" />
<glyph unicode="f" horiz-adv-x="593" d="M6 754v43v88q0 25 1 39t7 23t17.5 15.5t34.5 16.5q14 10 17 31.5t5 95.5q2 72 8 108.5t23 65.5q20 33 40.5 54.5t48.5 33.5t66.5 16.5t96.5 4.5q121 0 162.5 -18.5t41.5 -70.5v-17t-2 -19v-15l2 -94q0 -41 -28 -55q-6 -4 -11.5 -6t-15.5 -3t-28.5 -2.5t-51.5 -1.5 q-25 -2 -42 -16t-17 -37q0 -16 8 -31.5t21 -23.5q2 -2 6 -3t15 -2t36 -2t68 -1q16 -2 26 -16.5t10 -32.5v-18.5t-2 -29.5l-2 -55q0 -59 -2 -78.5t-12 -29.5q-6 -6 -16 -6l-70 -9q-41 -4 -55.5 -32.5t-14.5 -102.5v-108v-80l-2 -70v-8v-10t1 -18.5t3 -33.5v-71v-76 q-4 -88 -53 -88h-63l-72 -2h-29.5t-40.5 -2q-18 0 -30.5 15.5t-12.5 41.5v191l-2 65v144q-2 29 -2 57.5v60.5q0 47 -4 72t-14 35q-2 2 -7.5 4t-33.5 12q-29 12 -29 62z" />
<glyph unicode="g" horiz-adv-x="999" d="M25 555q0 244 161 365q45 35 107.5 49t161.5 14q47 0 89 -8t66 -23q23 -14 30 -17t13 -3q4 0 7.5 3t19.5 26q6 6 20 6l45 -2q8 -2 22.5 -2h29.5h61q76 0 76 -62l-2 -92l2 -35v-57v-125l-4 -121v-45q2 -25 2 -41v-20l-4 -144l2 -170q0 -45 -24.5 -92t-63.5 -76 q-20 -16 -48 -27.5t-75 -27.5q-31 -10 -57.5 -16.5t-63.5 -9.5t-89 -4t-132 -1q-61 0 -110.5 11.5t-116.5 39.5q-53 23 -75 43.5t-22 49.5v13t2 17v31v51q0 55 10.5 77t36.5 22q8 0 17.5 -1t29 -7.5t52 -18.5t88.5 -33q37 -14 89 -21.5t109 -7.5q43 0 65.5 4.5t41.5 14.5 q23 12 38 35.5t15 46.5q0 27 -24 26q-12 0 -27 -6q-45 -20 -70.5 -25t-66.5 -5q-27 0 -44.5 1t-36 4t-43 9t-67.5 16q-23 6 -31 10.5t-32 22.5q-10 6 -14.5 9t-26.5 18q-6 4 -10 7t-12.5 12t-22 27.5t-37.5 53.5q-57 80 -57 211zM315 555q0 -66 45.5 -106.5t116.5 -40.5 q78 0 123 38.5t45 104.5q0 70 -43 110.5t-115 40.5q-49 0 -80.5 -15t-58.5 -50q-20 -29 -26.5 -44t-6.5 -38z" />
<glyph unicode="h" horiz-adv-x="972" d="M72 88v13t1 16.5t2 30t3 53.5v63l-6 244v8q2 18 2 41v51l2 221q4 87 5 145v34q0 30 -1 41q-2 20 -3 37.5t-1 40v53t2 80.5v38q2 27 6 43.5t18 23.5t38 9q12 1 29 1t38 -1h28.5t63.5 2h31q47 -4 47 -63v-84v-18.5t2 -22.5q2 -16 2 -29.5v-17.5v-20.5t-2 -20.5 q-2 -20 -3 -32.5t-1 -16.5v-23v-22q4 -53 7 -67.5t13 -16.5q4 0 16.5 5t28.5 15q23 12 66 22.5t78 10.5q143 0 215 -66q43 -39 72.5 -101.5t31.5 -117.5q2 -119 3 -183.5t1 -76.5v-40v-32.5t-1 -34t-3 -44.5q-2 -8 -2 -19.5v-15.5v-49.5t4 -44.5l2 -68q-1 -42 -19 -66 q-17 -22 -45 -22h-5q-23 2 -40.5 2h-33.5l-84 -2q-39 0 -60.5 18.5t-19.5 50.5q6 86 6 189v36v21t1 13.5t1 15.5q2 27 3 43t1 25q0 20 -2 48.5t-6 56.5t-8 50.5t-8 32.5q-23 55 -78 55q-43 0 -76 -31.5t-49 -87.5q-6 -25 -9 -91t-3 -183v-19.5t2 -25.5q4 -53 6 -89t2 -54 q0 -70 -59 -70h-45q-23 2 -41.5 2h-28.5h-12q-16 -2 -28.5 -2h-23.5q-10 0 -18 -2q-23 2 -39 29.5t-16 62.5z" />
<glyph unicode="i" horiz-adv-x="452" d="M72 813v55v43q0 35 14 47.5t49 12.5h14.5t14.5 -2l47 -2h10q31 2 55.5 3t34.5 1q66 0 66 -62l-2 -41q-4 -35 -5 -95t-1 -130l6 -207v-114.5t4 -108.5v-39q0 -59 -2 -94t-10.5 -53.5t-21.5 -23.5t-38 -5q-8 0 -26.5 1t-40.5 3h-23h-15t-24 -2h-35q-41 0 -55 15.5t-14 56.5 v6v45l4 162zM74 1165.5v75.5q0 29 3 47.5t12 27.5t27.5 13t47.5 6q37 2 70.5 3t64.5 1q74 0 74 -57l-2 -76v-59.5t-2 -31.5t-4.5 -17t-8.5 -13q-12 -20 -47 -20h-10q-23 2 -29 2h-16h-14.5h-15.5t-25.5 -1t-46.5 -1q-55 0 -68 25q-4 8 -6 14t-3 20.5t-1 41z" />
<glyph unicode="j" horiz-adv-x="462" d="M-23 4q0 4 3 27q2 8 2 26q0 16 -2 25l-3 37q0 29 21 43q2 2 8 3t47 5q23 4 37 31.5t14 70.5v47.5v27.5t1 21.5t1 26.5q2 25 2.5 30t0.5 9v11.5t-3 48.5q-2 10 -2 28.5v42.5v74t2 47q2 25 2.5 41t0.5 25v8t-3 33q0 6 -1 9t-1 10t-1 20.5t-1 35.5v23q0 33 15.5 53.5 t42.5 22.5h7t13 -2q10 -2 25 -2l59 2q31 -2 37 -2h10h15q10 2 17 2h11q43 0 43 -39v-43t-1 -55.5t-2 -58.5t-3 -50v-17v-8v-10t1 -19.5t3 -35.5v-23v-7t-1 -13.5t-2 -30.5t-3 -57l4 -45q2 -14 2 -34v-42v-47.5t-2 -38.5q-2 -20 -2 -34.5v-23.5v-10t4 -47v-41 q0 -131 -46 -192.5t-150 -65.5q-29 -2 -36 -2t-18 -2q-10 -2 -14 -2h-8q-47 0 -86 9t-47 24q-6 12 -9.5 35.5t-3.5 52.5v12zM102 1165v29v29q0 6 1 12t1 10v8v35q0 23 18.5 37t47.5 14q76 0 120 -1t67.5 -7t29.5 -17t6 -32v-19.5t-2 -37.5v-17v-16t2 -64v-6q0 -57 -78 -57 h-6l-104 4l-58 -2q-27 4 -36 29q-4 8 -5.5 13t-1.5 32z" />
<glyph unicode="k" horiz-adv-x="925" d="M72 53l2 248v219l2 43v332l2 43l-2 143l2 64l-4 180q0 35 22 47q10 4 45 5t127 1q61 0 84 -11t23 -46v-66v-208l-2 -195q6 -90 18 -125t37 -35q20 0 41 29q14 18 22.5 30.5t16.5 32t16 51t23 89.5q10 39 65 39h23q23 -2 36 -2h17l86 2q10 2 17.5 2h11.5q55 0 55 -54 q0 -16 -15.5 -63t-36 -101.5t-43 -104.5t-36.5 -71q-23 -35 -30 -46t-7 -21q0 -18 27 -53q6 -10 10 -15.5t8 -11.5t8.5 -15.5t12.5 -25.5q4 -8 11 -19.5t17 -27.5q4 -6 30 -51t75 -131q4 -6 8 -12.5t25 -39.5q16 -31 21 -42t5 -27q0 -18 -12 -30.5t-31 -12.5l-239 4 q-43 6 -70 67q-10 14 -17.5 32t-33.5 73q-6 16 -11.5 25.5t-8.5 17.5t-8 15t-11 18q-4 6 -9 17t-16 28q-23 47 -63 47q-16 0 -28.5 -11.5t-12.5 -23.5l2 -41v-6q-6 -35 -6 -51l2 -129q0 -37 -12.5 -58.5t-34.5 -21.5l-105 2h-114q-37 4 -37 59z" />
<glyph unicode="l" horiz-adv-x="462" d="M72 125l10 397v35q-2 80 -2 130v89v38t1 33.5t2 46.5t3 73l-2 192q0 86 2 127t6 51q10 20 25.5 27.5t46.5 7.5l94 -2l66 4h9q34 0 45 -14q13 -16 13 -66v-16v-26.5t-1 -20.5t-2 -26.5t-3 -43.5q-2 -20 -2 -38.5v-37.5v-16v-19.5t1 -38t3 -69.5q2 -14 2 -26.5v-22.5v-26.5 t-2 -53.5q-2 -10 -2 -21.5v-23.5l2 -141l-6 -295v-23.5t2 -48.5l2 -168q0 -53 -24.5 -75.5t-79.5 -22.5h-25.5t-30.5 2h-28h-7q-4 0 -8 -1t-8 -1h-18q-51 0 -67.5 25.5t-16.5 105.5z" />
<glyph unicode="m" horiz-adv-x="1456" d="M72 883q0 39 10 57t39 27l143 -2l62 4q10 -2 19 -10.5t13 -18.5q6 -20 8.5 -24.5t10.5 -4.5q4 0 13 4.5t32 20.5t76 27.5t106 11.5q72 0 146.5 -24.5t113.5 -59.5q6 -8 13 -8q2 0 6 3t30 23q51 39 95.5 52.5t121.5 13.5q117 0 186.5 -77t69.5 -208l-2 -241v-33t2 -51 q2 -43 3.5 -72t1.5 -47q0 -86 -2.5 -135.5t-9.5 -74t-20 -31.5t-36 -7l-51 2h-21.5t-35 -1l-39 -2t-31.5 -1q-41 0 -49 33q0 4 -1 30.5t-2 66.5t-2 86t-1 89q2 33 3 50.5t2 26.5t1 13v8q0 63 -8.5 121t-22.5 84q-25 41 -82 41t-82 -41q-10 -16 -13 -35.5t-3 -72.5l-2 -45 q-2 -16 -2 -39v-43v-54.5t2 -31.5l2 -56l-2 -75v-11.5t2 -19.5v-43q0 -37 -13.5 -59.5t-35.5 -22.5h-115l-86 -2q-53 0 -53 72l2 131v20q0 29 -6 309q-2 133 -91 133q-116 0 -116 -221v-46q0 -19 1 -47t2 -70t5 -109v-76q0 -98 -53 -98h-21.5t-23.5 2q-12 2 -24.5 2h-20.5 h-27.5t-28.5 -2q-12 -2 -23.5 -2h-17.5q-37 0 -51 20.5t-14 71.5v35.5v30t1 29t1 34.5v49v51v19.5t-2 42.5v74v108v98z" />
<glyph unicode="n" horiz-adv-x="1021" d="M72 63v18.5t1 21t2 35t3 63.5v41v14v20.5t-1 42t-3 76.5q0 6 -1 26.5t-1 45.5v50.5v41.5v26.5t1 21.5t2 25.5t3 41.5v26v7.5v12.5t-1 25.5t-3 47.5q-1 35 -1 62q0 54 5 77q8 35 43 35l143 -2h25h45q18 0 27.5 -6.5t44.5 -43.5l18 13l8 8q20 18 78.5 30.5t124.5 12.5 q57 0 119.5 -28.5t101.5 -71.5q45 -51 69.5 -123t24.5 -154v-50.5t-2 -59.5v-27v-9t1 -19.5t2 -43t3 -80.5v-45l-4 -110v-68q0 -23 -6 -47.5t-14 -30.5q-8 -8 -24.5 -10t-80.5 -6h-81.5t-44 1t-21.5 2t-12 3q-10 6 -17.5 21.5t-7.5 31.5l10 80q0 57 -1 123t-3 123t-3 100 t-3 54q-10 66 -44 100.5t-85 34.5q-111 0 -127 -129q-2 -6 -3 -38t-2 -75t-1 -92v-90q2 -29 3 -45.5t2 -24.5t1 -12v-10q0 -57 -1 -90t-7 -48.5t-18.5 -19.5t-32.5 -4h-23.5t-26.5 2q-18 2 -32.5 2h-24.5h-20q-23 -2 -40.5 -2h-33.5q-29 0 -41 15.5t-12 53.5z" />
<glyph unicode="o" horiz-adv-x="1095" d="M25 506q0 66 23.5 141.5t60.5 126.5q41 59 80.5 94t89.5 60q51 25 128.5 41t147.5 16q72 0 148.5 -19.5t138.5 -54.5q20 -12 36.5 -23t30 -25.5t28.5 -37t36 -55.5l10 -18q16 -27 26.5 -41.5t15.5 -24.5t8 -19.5t7 -21.5q31 -84 31 -182q0 -94 -23.5 -160.5t-76.5 -132.5 l-70 -82q-53 -43 -119.5 -72.5t-124.5 -33.5q-43 -4 -67.5 -5.5t-36.5 -2.5t-18.5 -1h-12.5q-35 0 -73.5 7.5t-76.5 20.5t-71 30.5t-55 36.5q-16 16 -31.5 29.5t-32.5 25.5q-96 80 -127 174q-12 41 -21 102.5t-9 106.5zM322 502q0 -49 17 -91t48 -74t73 -49.5t91 -17.5 q43 0 82 17.5t66.5 46t44 68.5t16.5 85t-18.5 86t-49 72t-71.5 49.5t-84 18.5t-82 -17.5t-69 -46t-47 -66.5t-17 -81z" />
<glyph unicode="p" horiz-adv-x="1112" d="M72 -29q2 35 3 54.5t2 31t1 19.5v20v17.5v17.5t-1 29.5t-3 54.5v33l4 311v268q0 74 4 98.5t14 35.5q18 14 39 14q10 2 162 2q16 0 26.5 -1t17.5 -7t15.5 -18.5t20.5 -32.5q6 -8 20 -9q8 0 14.5 3t37.5 24q31 23 85 35t109 12q57 0 109.5 -16.5t130.5 -59.5 q43 -25 79.5 -65.5t64.5 -93t43 -111.5t15 -119q0 -178 -41 -266q-14 -29 -31.5 -59.5t-37.5 -59.5q-2 -4 -43 -39l-21 -18q-45 -47 -121.5 -76t-150.5 -29q-109 0 -150 23q-72 41 -98 41q-8 0 -16 -8.5t-8 -18.5l2 -172q0 -20 -28 -27.5t-97 -7.5q-25 0 -35 2h-23 q-6 0 -10 2l-74 -4q-12 0 -22 19q-8 15 -8 32v7l2 30zM369 453q0 -39 6 -63.5t22 -47.5q29 -37 84.5 -65.5t102.5 -28.5q23 0 50.5 9t53 25.5t47 36t33.5 41.5q12 23 20.5 54.5t8.5 56.5q0 47 -22.5 100.5t-55.5 81.5q-23 23 -67 38.5t-79 15.5q-59 0 -113 -40t-77 -100 q-8 -16 -11 -45.5t-3 -68.5z" />
<glyph unicode="q" horiz-adv-x="1112" d="M25 524q0 109 43 207t120 164q109 94 291 94q59 0 121 -12t90 -29q14 -8 25.5 -13t17.5 -5q10 0 15.5 6t17.5 31q2 10 27 10q193 0 211 -6q33 -8 32 -43v-35v-66v-17t-2 -22q-2 -29 -3 -46t-1 -21l4 -115l-2 -49l4 -72v-23.5t-2 -43.5q-2 -14 -2 -32.5v-43.5l2 -192v-101 v-24v-44.5t2 -41.5q2 -27 2 -47.5v-30.5q0 -49 -34 -56l-205 -4q-51 0 -60 39v7t-2 20q0 16 -1 37.5t-3 46.5q-4 45 -7 58.5t-13 13.5q-8 0 -41 -15q-35 -18 -85 -25.5t-141 -7.5q-41 0 -104 21.5t-115 52.5q-49 29 -93 84t-66 111q-43 111 -43 280zM315 485 q0 -109 61.5 -174t164.5 -65q53 0 103 27.5t77 70.5q22 39 22 120v7q0 72 -17 120t-58 79q-8 6 -26.5 14t-40 14.5t-41.5 11.5t-32 5q-27 0 -59.5 -9.5t-60.5 -23.5q-43 -25 -68 -77t-25 -120z" />
<glyph unicode="r" horiz-adv-x="659" d="M72 94q0 4 1 14.5t2 30t3 56.5l-2 143l2 74q2 66 3 102.5t1 55v26.5v18q2 31 3 56.5t1 46.5v53q-2 29 -2 58.5v45.5q0 51 17.5 73t56.5 22h11h13t22.5 -1t41.5 -1q18 -2 30.5 -2h16.5h4q18 2 29.5 2h13.5q6 0 13 -5.5t12 -9.5q2 -4 2 -11t2 -52q0 -16 16 -17q2 0 5 1 t12.5 8.5t28 22t52.5 40.5q39 31 99 31q41 0 58 -16.5t17 -57.5v-41q-2 -23 -2 -40v-23v-90q0 -49 -17 -66.5t-67 -22.5q-41 -2 -87 -25.5t-74 -57.5q-25 -29 -35 -64t-10 -86v-16.5t1 -16.5t2 -25.5t3 -43.5v-115l2 -100q0 -35 -18.5 -54.5t-49.5 -19.5h-8q-14 0 -25 2 l-135 -2q-65 0 -65 87v13z" />
<glyph unicode="s" horiz-adv-x="753" d="M23 113q0 8 1 14t5 37l2 53q2 37 13 51.5t46 18.5q12 2 48 -2t89 -13q37 -6 74 -6q47 0 72.5 17.5t25.5 48.5q0 47 -63 74q-61 25 -100 42t-66 33.5t-44 32.5t-36 39q-27 33 -43 82t-16 90q0 74 42 135.5t109 87.5q14 6 42 13.5t58.5 11.5t62.5 7t56 3q256 0 256 -86 q0 -20 -1 -48t-2 -53.5t-2 -44t-1 -20.5q-4 -12 -16 -20.5t-27 -8.5h-3t-14 2.5t-35 5.5t-69 9q-8 2 -30 2q-33 0 -55.5 -12.5t-22.5 -28.5q0 -18 26.5 -36.5t98.5 -51.5q111 -49 170 -129t59 -176q0 -86 -39 -153.5t-110 -108.5q-27 -14 -52.5 -24.5t-55.5 -17t-67.5 -8.5 t-89.5 -2q-88 0 -145 6.5t-91 22.5t-47 43t-13 68z" />
<glyph unicode="t" horiz-adv-x="550" d="M18 911q0 29 21 45q6 4 12 6.5t41 6.5q4 0 7 4t3 8l-6 176q0 18 27 31.5t65 13.5h28.5t29.5 -2q16 -2 25.5 -2h11.5h51q35 0 49 -27q2 -6 3 -11t2 -22.5t1 -51v-95.5q0 -14 12.5 -22t28.5 -8h8q10 2 21 2h6q59 0 59 -74v-23q0 -12 -2 -24v-23q-2 -61 -6 -78.5t-16 -23.5 l-15 -6l-41 -6q-53 -6 -61 -68q-4 -16 -4 -53v-131q0 -61 1 -94t7 -49.5t20.5 -20.5t41.5 -8q20 -4 33.5 -17.5t13.5 -32.5v-55l2 -92q0 -39 -36 -65.5t-87 -26.5h-4l-58 2l-49 -2q-84 0 -131 76.5t-47 212.5l4 366q0 35 -7 44t-40 24q-23 8 -23 53v16v19z" />
<glyph unicode="u" horiz-adv-x="1013" d="M66 303v15.5t1 20.5t2 40t3 76v41v10t-1 44t-2 111.5t-3 217.5q0 43 13 63.5t48 28.5q23 0 58.5 -1t70.5 -3t61.5 -4t28.5 -2q10 -4 18.5 -15.5t8.5 -21.5l-2 -74q-2 -72 -3 -111t-1 -61.5t-1 -34.5t-4 -29q-6 -80 -6 -137q0 -86 37 -140t92 -54q45 0 87 29.5t55 68.5 q2 4 3 7t2 14.5t2 32t3 57.5v40v7q0 8 2 14q2 14 2 44v67v59t-2 35q-4 47 -6 76.5t-2 39.5q0 18 8 41t20 35q16 16 60 17h45t51 -2h21h15t21 2h19q49 0 49 -66v-43q-2 -41 -3 -67.5t-1 -30.5v-283q0 -20 -1 -45.5t-3 -56.5q-4 -78 -7 -132.5t-3 -72.5q0 -10 1 -21.5t5 -62.5 v-12q0 -41 -22.5 -64.5t-63.5 -23.5q-31 0 -62.5 1t-57.5 2t-44.5 2t-22.5 3q-10 4 -14 8t-25 33q-8 12 -16 12q-25 0 -86 -29q-31 -14 -83 -24t-89 -10q-45 0 -95 16t-75 39q-31 29 -51.5 55.5t-32.5 56t-17 66.5t-5 86z" />
<glyph unicode="v" horiz-adv-x="813" d="M-10 903q0 37 24.5 48.5t104.5 11.5l18 -2q8 -2 15 -3l104 7q10 0 23.5 -15.5t21.5 -38.5q4 -14 8 -27.5t8.5 -30.5t8.5 -43t10 -62l10 -46l6 -22q6 -23 12.5 -46.5t12.5 -47.5l18 -84l6 -25q8 -37 21 -37q12 0 16 23l11 63q4 18 7 38t7 42q4 20 8 45t10 54 q12 47 15.5 60t1.5 21l8 48q4 18 8 36.5t8 34.5q6 27 24.5 43.5t41.5 16.5h30.5t36.5 -2q8 -2 13.5 -2h9.5h18q61 6 82 6q18 0 30.5 -13.5t12.5 -33.5q0 -8 -9 -52.5t-21.5 -98.5t-24.5 -105.5t-18 -71.5q-4 -12 -16.5 -61.5t-28 -107.5t-27.5 -110.5t-17 -68.5 q-4 -12 -13 -46t-20.5 -71t-20.5 -65.5t-11 -32.5q-16 -23 -32.5 -31t-49.5 -8l-90 2l-88 -2q-59 0 -82 51q-4 4 -5 9t-9 30q-2 6 -6.5 15t-10.5 24q-6 14 -18 61q-6 16 -8 23.5t-11 32.5q-12 35 -22 63.5t-17 56.5q-4 12 -9 25.5t-9 28.5q-8 25 -13 40t-9.5 27t-8.5 25.5 t-10 36.5q-2 8 -3 13t-3 12t-7 19.5t-14 34.5q-12 33 -24 76t-22.5 84t-16.5 76t-6 49z" />
<glyph unicode="w" horiz-adv-x="1257" d="M-10 913q0 39 35 52l90 -7h6q4 0 8 1.5t8 1.5q10 2 24.5 3t31.5 1q31 0 48 -2t27.5 -13.5t18.5 -37t20 -70.5q2 -10 4 -16.5t5 -13.5t7.5 -18.5t10.5 -31.5q2 -10 4 -17.5t4 -13.5t4 -15t6 -26q4 -16 6 -24.5t15 -40.5q8 -23 12 -37q2 -10 4 -17.5t5 -16.5l7.5 -22.5 l12.5 -37.5q8 -27 22 -27t29 49q2 12 6 30.5t8 38t6 35t2 21.5q0 14 -3 32.5t-10 47.5t-19.5 72t-32.5 106q-2 6 -2 21q0 10 5 20t15 14q6 2 12.5 4.5t19.5 3.5t40 1h76l30 -2l72 2q35 -2 43 -45l12 -46l5.5 -27.5t7.5 -43.5q2 -10 3 -15.5t3 -13.5t5 -20.5t9 -34.5 q2 -10 7.5 -31.5t9.5 -44.5t8 -44.5t6 -33.5q6 -35 7 -44t5 -25q8 -37 19 -37q8 0 10 7t8 42q6 39 8 50t11 34q4 14 7 28.5t15 67.5q8 47 29 96q6 16 12 35t10 37q16 63 29.5 85t40.5 24h33h55l35 -2q4 2 10 2q14 0 25 2q8 2 28 2q59 0 60 -58q0 -35 -58 -184 q-2 -6 -7 -25.5t-13 -52.5q-4 -16 -12.5 -42.5t-20.5 -61.5q-4 -12 -7 -20.5t-6 -18.5t-8.5 -26.5t-13.5 -43.5q-6 -18 -14 -41.5t-19 -54.5q-4 -12 -7 -19.5t-7 -19.5t-10 -31.5t-16 -56.5q-4 -16 -13.5 -43t-18.5 -54.5t-18.5 -49t-11.5 -27.5q-25 -43 -74 -43l-73 2 h-11.5t-23.5 -2q-10 -2 -19.5 -2h-17.5q-43 0 -66 24q-8 8 -13 17.5t-12 31t-18.5 63.5t-31.5 120q-4 14 -13 14q-16 0 -22 -53q-2 -16 -4 -28.5t-5 -28t-8.5 -35t-11.5 -49.5q-8 -35 -29.5 -55.5t-48.5 -18.5l-32 2l-35 -2q-43 0 -67.5 1t-40 5t-24 11t-16.5 22 q-4 4 -16 38.5t-27.5 78t-30 84t-18.5 57.5q-8 27 -12 43t-7 25.5t-6.5 16.5t-7.5 17q-6 16 -12 33.5t-12 36.5l-29 88q-10 33 -19.5 61.5t-17.5 57.5t-15 53.5t-15 46.5q0 2 -31 125q-2 4 -2 18z" />
<glyph unicode="x" horiz-adv-x="888" d="M-10 37q0 14 8 28.5t35 47.5q4 6 8 10t10 14t17.5 28.5t31.5 53.5q12 20 26.5 42t31.5 44q6 8 10 14.5t10 15.5t15.5 26.5t25.5 48.5q18 31 22.5 38t12.5 19q16 25 18 30t2 9q0 6 -8 27.5t-14 31.5q-37 57 -58.5 91t-29.5 46q-25 49 -49 80q-4 8 -17.5 31t-36.5 61 q-16 29 -21 39.5t-5 20.5q0 37 49 37h17.5t25.5 -2q12 -2 20.5 -2h14.5l114 2q33 0 52.5 -2t30 -8.5t16.5 -19.5t14 -36q27 -55 62 -104l8 -15q8 -23 16 -22q10 0 19 26q4 10 18 34t25 38q12 12 22 29l27 51q10 23 49 23q6 0 13 -1t46 -6h11h22l53 2h41q10 2 19.5 2.5 t13.5 0.5q16 0 27.5 -10.5t11.5 -26.5q0 -14 -12.5 -40t-59.5 -98q-4 -8 -7 -13t-8 -11t-12.5 -15.5t-19.5 -25.5q-16 -20 -31 -45q-16 -27 -37.5 -62.5t-50.5 -81.5q-16 -27 -16 -47q0 -10 4 -18t25 -39q16 -29 34.5 -61.5t38.5 -69.5q10 -20 24.5 -43t35.5 -51 q14 -23 18 -29t15 -24q10 -18 16 -28.5t11 -20t11.5 -18.5t18.5 -26q8 -10 8 -30q0 -14 -10 -24.5t-25 -10.5l-127 4q-2 0 -17 -1t-38 -3q-12 -2 -25.5 -2h-25.5q-16 0 -27.5 3t-22 12t-21.5 28.5t-28 50.5q-6 12 -9 18.5t-19 30.5q-2 4 -11.5 19.5t-33.5 60.5 q-10 16 -13 16q-4 0 -5 -3t-9 -21q-8 -16 -12 -24.5t-8 -14.5t-8.5 -13.5t-12.5 -17.5q-10 -16 -74 -117q-17 -28 -45 -28h-2q-8 0 -23.5 1t-37.5 3q-10 2 -21.5 2h-21.5h-53q-18 -2 -35 -2h-31q-57 0 -57 43z" />
<glyph unicode="y" horiz-adv-x="833" d="M-10 909q0 45 30 49h140l92 3q29 -2 43 -43q4 -10 6 -17.5t6 -19t10.5 -28.5t18.5 -48t15 -41t9 -37q4 -8 6.5 -17.5t6.5 -19.5q8 -20 14 -42.5t14 -49.5t24.5 -52.5t25.5 -25.5q12 0 14 37l2 16q4 20 9 40t11 40l5 21q10 59 20 106t20 74q4 10 7.5 18.5t7.5 16.5 q14 51 27.5 64.5t54.5 13.5l102 -2l62 2q51 0 51 -41v-13.5t-3 -13.5t-8.5 -22.5t-13.5 -40.5q-4 -14 -10 -34t-12 -44q-6 -23 -9.5 -35t-8.5 -27.5t-14 -37t-24 -60.5q-10 -27 -17 -52.5t-15 -53.5q-6 -20 -18.5 -59.5t-28 -82.5t-30 -81t-22.5 -54q-2 -4 -10 -25.5 t-22 -62.5q-10 -27 -26.5 -57.5t-36 -58t-38 -48t-33.5 -26.5q-20 -8 -32.5 -13.5t-18.5 -9.5q-61 -35 -170 -35q-16 0 -23 1t-42 5q-14 2 -19.5 2h-23.5q-37 2 -51.5 27t-14.5 88v37v59q0 41 15.5 58.5t52.5 21.5h6q31 -4 52.5 -4h68.5q31 0 30 29q0 12 -1 18t-11 29 q-18 43 -24 67q-4 12 -7.5 18.5t-17.5 31.5q-6 12 -16.5 32.5t-21.5 46t-23.5 52t-20.5 51.5l-16 40t-12.5 29.5t-14.5 32t-22 47.5q-12 29 -26.5 62t-25 63.5t-17.5 54t-7 31.5z" />
<glyph unicode="z" horiz-adv-x="778" d="M23 57q0 16 2 44t6 38q0 4 7 17.5t15 29t15.5 28.5t11.5 19q20 27 43 76q14 29 18 35t15 23q25 41 39 63.5t22 36.5t13.5 24.5t13.5 26.5q20 39 32.5 64.5t18.5 38.5q10 16 12 23t2 18q0 16 -22 20q-4 0 -17.5 -1t-33.5 -5l-74 -2h-6t-27 2h-35q-16 2 -27.5 15.5 t-11.5 31.5l2 49l-2 41l4 27l-2 63q0 29 18.5 48.5t45.5 19.5q14 0 49 -6q10 -2 27 -2q4 0 15 1t73 5h49h38.5t63.5 -2q29 -2 55.5 -2h47.5h30q39 2 64.5 2h34.5q33 0 44 -19.5t11 -75.5q0 -27 -1 -43t-4 -28.5t-10.5 -24.5t-19.5 -28q-10 -12 -15 -20.5t-11.5 -19 t-14.5 -24.5t-22 -41q-8 -12 -26.5 -41t-51.5 -74q-16 -25 -33.5 -55.5t-31 -58t-21.5 -51t-8 -33.5q0 -18 11 -30.5t28 -12.5h12t16 2t23.5 2h27.5h23q8 -2 20 -2h9h61q20 0 37.5 -18.5t17.5 -39.5v-4t-1 -8t-2 -20.5t-3 -38.5l6 -54q-2 -39 -4 -58t-2 -23 q-6 -12 -19.5 -22.5t-23.5 -10.5l-207 2h-14t-31 -2q-12 -2 -26.5 -2h-28.5h-46.5t-49.5 4q-16 2 -27.5 2h-15.5l-168 -2q-23 0 -38 17.5t-15 45.5z" />
<glyph unicode="{" horiz-adv-x="616" d="M14 537l2 53l-2 78q0 23 5.5 30t21.5 11q82 27 82 133q0 10 -1 23.5t-3 31.5q-2 10 -2 18.5v16.5t1 18.5t9 57.5l-6 59q0 92 11 144.5t38 84.5q66 84 248 84h11t17 -2l62 -2q47 0 58.5 -6t8.5 -29l-4 -81l4 -78l-2 10q-4 -35 -6 -41t-10 -8h-11t-46 -2q-127 0 -121 -88 l4 -64l-4 -55l4 -55q-6 -74 -10 -116t-13.5 -66.5t-26 -42t-46.5 -44.5q-6 -4 -6 -14t4 -14t26 -21q37 -27 53.5 -83t16.5 -167l-4 -55q0 -55 1 -90t5 -55.5t11 -30.5t18 -17q16 -10 41.5 -12t93.5 -2q29 -2 28 -35v-82v-82q0 -12 -3 -20t-16 -12t-38.5 -5t-71.5 -1h-30h-29 q-264 0 -264 249v66l-4 76v11t2 24q2 18 2 31.5v47.5q0 47 -3 78t-12.5 50.5t-24.5 31.5t-42 23q-16 6 -21.5 13t-5.5 24z" />
<glyph unicode="|" d="M324 -342v1708h374v-1708h-374z" />
<glyph unicode="}" horiz-adv-x="616" d="M41 8l2 -8q4 35 6 40t12 7q4 2 10.5 2h45.5q68 2 94.5 20.5t26.5 67.5l-2 64l4 55l-7 55q4 66 8.5 104t6.5 48q6 23 10 36t12.5 25.5t21.5 24.5t38 31q8 8 8 14q0 8 -6 15t-25 20q-39 25 -55 84t-16 166l4 55q0 57 -1 92t-5.5 55.5t-10.5 29.5t-18 15q-16 10 -42 12.5 t-91 4.5q-31 0 -31 33v84v79q0 27 11 32t59 5l59 2q10 2 18.5 2h12.5q154 0 224.5 -60t68.5 -190v-67l4 -76v-10q0 -4 -1 -10t-1 -15l-2 -80q0 -47 3 -76.5t12 -49t25.5 -32t40.5 -22.5q16 -8 21.5 -14t5.5 -23v-55v-78q0 -20 -5 -27.5t-22 -13.5q-41 -16 -58 -39.5 t-21 -76.5l-2 -11v-6l4 -53q2 -8 2 -16.5v-18.5t-1 -20.5t-7 -57.5l4 -59q0 -92 -10.5 -143.5t-39.5 -85.5q-35 -45 -92 -63.5t-155 -18.5h-29q-43 0 -69.5 1t-40 5t-16.5 12t-3 20l4 82z" />
<glyph unicode="~" horiz-adv-x="1366" d="M188 1255q61 158 136 229.5t180 71.5q23 0 41 -2t47 -10t73 -25.5t117 -45.5q61 -25 95 -25q39 0 65.5 24.5t61.5 90.5l178 -152q-29 -72 -51.5 -114t-51.5 -76q-43 -53 -98 -83t-117 -30q-16 0 -30.5 2t-39 9t-69.5 24.5t-123 48.5q-43 16 -66.5 22.5t-41.5 6.5 q-37 0 -64 -25t-63 -92z" />
<glyph unicode="&#xa1;" horiz-adv-x="522" d="M102 94v26.5t4 41.5q4 31 6.5 62.5t2.5 66.5v21.5t1 21.5t4 33.5t7 60.5l2 100q0 33 1 49.5t5 51.5q10 78 16.5 135t12.5 92l4 62q4 61 27 73q10 6 36.5 11.5t51.5 5.5q57 0 67 -35q0 -10 2 -23q0 -10 1 -27.5t3 -39.5l27 -209q20 -311 25 -344q0 -12 12 -224 q0 -39 -1 -49t-5 -20q-16 -39 -62 -39h-49l-41 -2h-20q-10 2 -18.5 2h-12.5h-8h-15q-55 0 -70.5 17.5t-15.5 78.5zM117 1126v21v12v58l2 32q-2 68 6 91.5t31 27.5l49 -2l88 2h14q8 -2 15 -2l65 2q10 0 19.5 -16.5t9.5 -32.5l-8 -229q-6 -12 -27 -16.5t-80 -4.5t-105 4t-57 8 q-23 10 -22 45z" />
<glyph unicode="&#xa2;" horiz-adv-x="653" d="M25 678q0 94 24.5 182t65.5 139q12 14 28.5 31t35 32t35.5 27.5t32 18.5q25 12 39 19.5t21 19.5t9 30.5t4 53.5q2 29 24 37t83 8q25 0 38 -2t20.5 -10.5t10.5 -24.5t5 -47q4 -20 13 -25.5t52 -9.5q37 -6 50.5 -23.5t13.5 -60.5q0 -18 -1 -49t-3 -45v-23q2 -55 -25 -71.5 t-115 -16.5q-35 -2 -72.5 -20.5t-60.5 -42.5q-14 -18 -27.5 -58t-13.5 -67q0 -23 8.5 -50.5t21.5 -53t29.5 -48t32.5 -34.5t46 -27.5t43 -20.5q25 -4 52 -9t40 -5q27 -2 35 -8t8 -27l-2 -102q4 -23 4 -36v-28q0 -25 -2 -40t-11.5 -23t-28 -12t-50.5 -9q-33 -6 -37 -20 l-6 -45q-2 -16 -32 -22.5t-100 -6.5q-35 0 -46 15.5t-11 66.5q0 23 -2 32t-12 15q-25 14 -47 27q-76 55 -82 61q-35 29 -58.5 72t-46.5 117q-12 37 -18 61.5t-9 46t-4 47t-1 64.5z" />
<glyph unicode="&#xa3;" horiz-adv-x="1060" d="M41 33q0 16 7 42.5t20 53.5q8 18 14 30.5t16.5 24t27.5 26.5t48 42q10 10 18.5 56t8.5 95v17.5t-2 22t-4 41t-9 75.5q-4 35 -6 45t-12 17l-64 -3q-18 0 -30.5 20.5t-12.5 55.5q0 47 29 64q4 2 11.5 2t45.5 2q4 0 5 10v5t-5 20q-4 25 -8 74t-4 83q0 94 39 185.5t98 138.5 q119 92 273 92q408 0 407 -401q0 -39 -10 -54.5t-37 -15.5q-2 0 -18.5 1t-42.5 3h-19q-25 0 -51 -1t-41 -3q-8 -2 -22 -2q-20 0 -27.5 14.5t-11.5 63.5q-4 35 -32 58.5t-71 23.5q-63 0 -98 -40t-35 -112q0 -10 2 -28.5t4 -39t4.5 -38t4.5 -23.5q4 -18 26 -14l25 2h32.5 t59.5 -4h27h12q12 2 21.5 2h11.5q63 0 63 -78q0 -47 -24 -61q-6 -4 -12.5 -5.5t-26 -2.5t-60.5 -1h-117q-6 0 -6 -10q0 -4 2 -8l2 -29l5 -43q2 -14 2 -25.5v-19.5q0 -12 -1 -27.5t-2.5 -30.5t-2.5 -28.5t-3 -17.5q-2 -10 -3 -19.5t-1 -13.5q0 -16 29 -16q6 0 13 -1 t19.5 -4.5t35 -7.5t59.5 -12q4 -2 16 -2q25 0 39 20q6 10 8 19.5t11 52.5q0 8 10 12.5t27 4.5h16q33 -4 56.5 -5.5t29.5 -1.5q4 0 12 1t62 8h8q59 0 59 -78q0 -66 -6 -123t-16 -90q-18 -55 -83 -92t-147 -37q-31 0 -54 2t-49 7t-58.5 16.5t-83.5 29.5q-18 6 -48 6 q-31 0 -45 -7t-43 -40q-6 -6 -20 -6h-8t-13 2q-6 0 -27.5 1t-44 2t-42 1h-23.5l-74 -4q-66 -4 -65 33z" />
<glyph unicode="&#xa4;" d="M43 1028q0 18 18 39q45 47 68 64.5t35 17.5q16 0 52 -29.5t63 -64.5q16 -20 24 -26.5t19 -6.5q6 0 11 1t21 11q25 14 72 24.5t88 10.5q37 0 83 -9t71 -22q16 -10 21 -12t11 -2t10.5 2t14.5 11.5t31.5 29.5t58.5 57q23 23 43 23q12 0 31.5 -14.5t39 -35t34 -40t14.5 -31.5 q0 -35 -94 -111q-29 -23 -29 -45q0 -6 3 -12t15 -31q14 -25 23.5 -66.5t9.5 -78.5t-9 -82t-24 -70q-10 -20 -12 -25t-2 -9q0 -10 3 -14.5t13 -14.5q12 -12 16.5 -17.5t20.5 -23.5q4 -4 7.5 -7t8.5 -8t12 -12.5t22 -19.5q23 -23 22 -41q0 -12 -14.5 -32.5t-34 -40t-40 -34 t-32.5 -14.5q-18 0 -41 23l-20 20l-13.5 13.5t-11.5 10.5t-14 13l-15.5 15.5t-21.5 23.5q-4 4 -16 4q-6 0 -17.5 -4t-38.5 -17q-61 -29 -114 -28q-47 0 -96.5 8t-69.5 18q-41 23 -54 23q-10 0 -22 -10.5t-55 -55.5q-35 -35 -49.5 -46t-28.5 -11q-18 0 -37 19 q-45 43 -63.5 65.5t-18.5 36.5q0 31 94 111q33 31 33 47q0 10 -10 30q-25 45 -33 73t-8 69q0 57 11 102t36 90q4 8 4 17q0 4 -21.5 26.5t-84.5 81.5q-23 23 -23 43zM350 668q6 -47 10 -56q4 -8 8.5 -15t6.5 -15q10 -27 46 -48.5t71 -21.5q41 0 76.5 10t54.5 27 q10 10 28.5 34.5t20.5 32.5t2 19v22.5t2 30.5q-2 18 -3 31.5t-1 19.5q0 8 -2 12.5t-11 14.5q-8 12 -20 29q-20 29 -44 42t-63 17q-37 -4 -58 -6t-35.5 -9.5t-26 -20.5t-27.5 -36q-2 -2 -7 -12t-10.5 -21.5t-9.5 -21.5t-4 -12v-23q0 -4 -1 -9z" />
<glyph unicode="&#xa5;" horiz-adv-x="1069" d="M-20 1329q0 47 61 47h106h70q55 0 75.5 -11t35.5 -46q12 -33 20 -51.5t12.5 -30.5t8.5 -20.5t10 -22.5q12 -29 19.5 -46.5t15.5 -34.5t17 -40.5t28 -66.5q10 -29 22.5 -55.5t22.5 -53.5q14 -31 28 -31q16 0 39 41q2 4 12.5 32t30.5 81q6 14 15.5 39.5t21 52.5t20.5 49.5 t13 30.5q18 37 28.5 57.5t15.5 31.5t7 17.5t6 14.5q16 35 30.5 46t47.5 11l105 -2q23 -2 34 -2h21l51 2q57 0 57 -41q0 -8 -1 -14t-4 -14.5t-10 -22.5t-19 -39q-23 -47 -44.5 -92t-41.5 -90q-10 -23 -31 -62t-51 -96q-6 -16 -6 -33q0 -23 18 -22l27 2q14 2 28.5 -10.5 t12.5 -26.5l-2 -35q0 -10 2 -20q6 -35 6 -39q0 -29 -16.5 -37t-69.5 -8h-56h-12q-39 0 -61 -50l-25 -49q-16 -29 -16 -43q0 -10 9 -17t19 -7h7q8 0 16 2q55 0 100 -1t52 -3q12 -4 23 -22.5t11 -35.5q0 -2 -1 -10t-3 -22q-2 -4 -2 -9l2 -34q2 -16 -11 -27.5t-36 -11.5h-115 q-66 0 -90 -13.5t-24 -48.5q0 -8 1 -29.5t3 -56.5v-39v-24v-39q0 -49 -12.5 -68.5t-42.5 -19.5h-13.5t-17.5 2q-16 2 -25.5 3t-11.5 1l-133 -4q-53 0 -66 57q0 2 -1 18.5t-2 36t-2 36t-1 20.5l8 139q2 18 -25.5 24.5t-111.5 6.5h-20q-29 -2 -49.5 -2h-36.5q-23 0 -37.5 14 t-14.5 35q0 6 7 41q2 4 2 10l-2 43q0 27 38 33h103h86q35 4 35 28q0 8 -4 16.5t-29 53.5q-12 25 -21.5 38t-17.5 19.5t-19.5 8.5t-27.5 2h-23q-33 -2 -57.5 -2h-36.5q-51 0 -51 49v19.5t2 21.5t2 18l-2 31q-2 23 13.5 31t56.5 8h8t8 -2h10q27 0 27 26q0 29 -21 62 q-12 20 -21 41.5t-20 44.5q-10 33 -22 63.5t-25 61.5l-65 135q-14 27 -14 51z" />
<glyph unicode="&#xa6;" d="M324 313h374v-655h-374v655zM324 629v737h374v-737h-374z" />
<glyph unicode="&#xa7;" horiz-adv-x="1060" d="M84 584q0 25 5 60.5t13 64.5q16 66 101 149q23 23 22 33q0 8 -3 12t-19 25q-31 41 -31 129q0 78 29.5 145.5t81.5 108.5q18 14 52 27.5t74 23.5t83 16t81 6q18 0 50 -2t66 -6t62.5 -8t43.5 -8q84 -23 84 -74q0 -10 -1 -20.5t-4 -22.5l-10 -67l-4 -48q-2 -27 -19.5 -43 t-43.5 -16q-16 0 -32.5 3t-57.5 13q-16 4 -40 9.5t-48.5 8.5t-47 5t-34.5 2q-27 0 -47.5 -16.5t-20.5 -38.5q0 -14 9 -27.5t37 -32t79 -45t135 -67.5q51 -25 87 -46.5t60.5 -43t40 -45t27.5 -52.5q12 -35 22.5 -82t10.5 -75q0 -61 -28.5 -124t-69.5 -91q-16 -10 -20.5 -15.5 t-4.5 -11.5q0 -2 3 -7t20 -34q16 -27 27 -77t11 -93q0 -61 -25.5 -121.5t-68.5 -101.5q-66 -63 -147.5 -88t-220.5 -25q-47 0 -104.5 9.5t-160.5 31.5q-45 10 -59 27.5t-14 64.5q0 10 1 17.5t5 48.5q2 12 3 27.5t1 29.5v17v12q0 66 45 65q10 0 20.5 -1t25.5 -6t37.5 -13 t57.5 -21q14 -6 39 -11t52.5 -9t56 -6t53.5 -2q41 0 64.5 16t23.5 45q0 39 -27.5 61.5t-99.5 51.5q-12 4 -46 20.5t-72 35t-72.5 35.5t-49.5 26q-29 16 -56 46.5t-47.5 67.5t-33 75t-12.5 73zM354 653q0 -41 23.5 -65.5t89.5 -55.5q16 -8 30.5 -15t28.5 -15 q35 -18 59.5 -31.5t41.5 -21.5q16 -6 21 -8.5t9 -2.5q20 0 35 25.5t15 60.5q0 23 -3.5 37t-16.5 27.5t-39.5 28t-72.5 38.5q-16 10 -34.5 19.5t-36.5 19.5q-10 4 -21.5 10.5t-21.5 14.5l-35 12l-23 10l-12 4q-12 -2 -24.5 -31.5t-12.5 -60.5z" />
<glyph unicode="&#xa8;" d="M154 1112v11t2 18l2 67q0 14 -1 35t-3 49v15q0 33 24 39h66l24 2h27h27q12 -2 20 -2h10h84q4 0 11.5 -6.5t11.5 -12.5q0 -2 1 -11t1 -31.5v-61.5v-101q0 -31 -6 -43t-21 -12l-139 2h-100q-41 0 -41 43zM557 1096l2 26q0 23 1 36t1 29.5t1 40t1 64.5l-2 25v10q0 20 23 27 q37 -2 82 -3t100 -3q68 0 83 -6.5t15 -34.5v-15q-2 -14 -2 -25.5v-27.5q0 -20 1 -48t5 -56q2 -8 2 -23q0 -47 -36 -43l-23 2h-29q-12 0 -25.5 -1t-25.5 -1h-43h-53t-41 -2q-37 0 -37 29z" />
<glyph unicode="&#xa9;" horiz-adv-x="1492" d="M47 621v31.5t2 56t3 57.5t3 35q2 4 7.5 20.5t15.5 42.5q2 2 7 24.5t17 67.5q8 33 35 77t62 81q10 12 15 19.5t28 35.5q10 14 13 17.5t17 13.5t22.5 16.5t14.5 11.5t14.5 12t20.5 20q27 25 70 48t90 40q49 14 60 18t28 8q12 4 23.5 5t66.5 1l45 6l23 7q10 4 18 6t12 2 q53 -10 91 -16.5t61 -10.5l15 -3t7 -1q29 -16 59.5 -30.5t61.5 -28.5q16 -6 48 -30t61 -50q12 -10 25.5 -21.5t25.5 -23.5q10 -8 18.5 -15.5t18.5 -13.5q16 -12 25.5 -27.5t25.5 -50.5q4 -16 11 -32.5t16 -30.5q14 -29 36 -62q12 -16 18.5 -26t9.5 -20.5t5 -25t4 -38.5 q2 -10 6.5 -33t14.5 -57l-4 -70l6 -72q0 -16 -19 -67q-4 -16 -8 -32.5t-8 -33.5q-6 -20 -9 -31.5t-7 -21.5t-11.5 -21.5t-19.5 -31.5q-14 -20 -31 -64q-16 -35 -51 -79t-78 -80q-8 -6 -41 -33t-65 -54q-6 -4 -11.5 -7t-13.5 -6t-20.5 -8t-36.5 -13q-78 -29 -142.5 -46.5 t-82.5 -17.5q-14 0 -41 8l-66 13h-70q-39 0 -107.5 29.5t-164.5 86.5q-18 10 -29.5 17.5t-21.5 19t-24.5 28.5t-39.5 48q-68 84 -71 92q-23 43 -44.5 86t-29.5 60q-2 4 -10.5 46t-24.5 122zM180 719q0 -4 1 -12.5t3 -22.5l6 -57q4 -70 19.5 -120t48.5 -97l16 -35l7 -17 q14 -31 20 -42t21 -21q31 -25 69 -64q45 -35 74 -55q8 -10 19.5 -15t47.5 -16q29 -6 54 -18q18 -6 29.5 -9t26.5 -5t39 -5.5t64 -5.5q29 4 44.5 7.5t25.5 4.5t17.5 1h19.5q37 0 49 2t27 12q29 16 82 39q43 33 77 49q14 0 29 25l23 30l53 54q8 16 20.5 37.5t28.5 44.5l19 53 l26 51l6 57l4 58q6 49 7 65q0 33 -7.5 82t-17.5 78q-10 27 -17.5 49.5t-11.5 40.5q-4 16 -9 24.5t-32 39.5q-10 14 -17 24t-17 21q-27 33 -45.5 52t-59.5 52q-4 2 -6 4l-4 4t-4 2l-41 37l-35 12l-18 5q-35 6 -47.5 9t-24.5 9l-51 14l-56 4l-34 9q-8 2 -29 2 q-27 0 -47.5 -4.5t-67.5 -20.5l-37 -12l-35 -8l-45 -35q-16 -10 -51 -19q-18 -6 -28.5 -10t-18.5 -11t-16 -18.5t-23 -31.5q-6 -10 -15 -21.5t-20 -23.5q-23 -25 -28.5 -35t-18.5 -45q-6 -14 -9 -20.5t-19 -28.5q-16 -23 -21.5 -35.5t-13.5 -52.5q-16 -66 -20.5 -88.5 t-4.5 -26.5zM385 698q0 211 137 314q113 86 264 86q66 0 84.5 -12.5t18.5 -53.5v-18q-2 -10 -2 -16.5v-10.5v-4q2 -10 2 -20.5v-20.5q0 -16 -9.5 -29.5t-19.5 -11.5q-47 6 -56 7t-11 1q-35 0 -76 -17.5t-62 -39.5q-23 -29 -38 -68t-15 -69q0 -117 62 -191q20 -23 29 -31 t24 -14q23 -8 45 -14t33 -6q4 0 10 1t39 7h8q14 0 24.5 -9t10.5 -20v-49v-63q0 -59 -66 -60h-4q-53 0 -100 8.5t-78 22.5q-29 12 -41 18.5t-39 28.5q-39 29 -59.5 46.5t-24.5 21.5q-16 20 -38.5 60t-33.5 71q-10 29 -14 65.5t-4 89.5z" />
<glyph unicode="&#xaa;" horiz-adv-x="618" d="M14 743q0 55 30 98.5t79 61.5q23 8 41 13.5t37.5 8.5t42 4t55.5 1q29 0 45 -4q12 -2 21.5 -3t13.5 -1q16 0 16 12q0 16 -23.5 27.5t-58.5 11.5q-20 0 -34.5 -1t-34 -4t-48 -11.5t-77.5 -20.5q-4 -2 -17 -2q-39 0 -39 35v21.5t1.5 32.5t2.5 31l1 13q2 14 9 21.5t27 15.5 q16 4 21.5 6t21.5 10q27 10 69 16.5t106 6.5q70 0 115.5 -12.5t86.5 -43.5q23 -16 38.5 -40.5t19.5 -47.5q2 -8 2 -28.5v-42.5v-70v-63v-20.5t-2 -26.5v-25v-23q2 -10 2 -17v-11v-5t-2 -22v-8q2 -6 2 -21q0 -25 -3 -39t-14.5 -22t-35 -10t-66.5 -2l-29 -2h-8q-6 0 -20 12 q-6 8 -15 8q-4 0 -18 -6q-49 -18 -90 -18h-4t-19 2l-31 -2q-45 0 -89 15t-68 42q-59 57 -60 149zM217 733q0 -18 26.5 -29.5t73.5 -11.5q35 0 54.5 12.5t19.5 32.5t-21.5 33.5t-52.5 13.5q-100 0 -100 -51z" />
<glyph unicode="&#xab;" horiz-adv-x="665" d="M68 373l2 131l2 59q-2 12 -3 19.5t-1 11.5q0 8 7 19.5t17 19.5q37 25 56.5 38t29.5 21t16.5 12.5t12.5 10.5q20 18 32.5 27.5t19.5 14.5t11 6t9 1q23 0 22 -29v-16q-2 -4 -2 -18.5v-32.5l2 -111q0 -20 -8 -27l-57 -36q-10 -6 -11 -15q0 -8 7.5 -13t50.5 -28q10 -6 13 -17 t3 -40l-2 -80q0 -8 2 -16v-43q0 -37 -29 -37q-14 0 -26 10q-29 16 -54.5 34.5t-54.5 39.5q-41 23 -54 39t-13 45zM352 348l2 107l-2 155q2 20 17.5 34.5t62.5 43.5l10 6q9 6 19 14.5t22.5 16.5t18.5 14q20 16 28.5 21.5t16.5 5.5q10 0 16 -9t6 -22q0 -8 -2 -12 q-2 -10 -2 -18.5v-16.5v-9t2 -13q2 -23 2 -44.5v-41.5q0 -29 -6 -43q-2 -2 -16.5 -11.5t-42.5 -27.5q-4 -4 -4 -11q0 -6 7 -12t52 -33q4 -4 6 -8t2 -16q0 -98 -1 -146.5t-3 -52.5q-8 -12 -22 -12q-4 0 -11.5 3t-21.5 12t-41 27.5t-72 49.5q-31 23 -37 29t-6 20z" />
<glyph unicode="&#xac;" d="M68 281v325h886v-606h-362v281h-524z" />
<glyph unicode="&#xad;" horiz-adv-x="440" d="M0 465q0 35 2 65.5t6 51.5q4 23 13.5 31t35.5 12l129 -2h13.5t21.5 2h43h18.5t32.5 -2q92 -6 95 -9q25 -12 24 -47q0 -16 1 -25.5t1 -17.5t1 -18t3 -29q-6 -94 -10 -102q-8 -16 -22.5 -22.5t-55.5 -6.5l-106 2h-29q-18 0 -49 1t-60.5 2t-53 2t-25.5 1q-16 6 -22.5 31 t-6.5 80z" />
<glyph unicode="&#xae;" horiz-adv-x="1492" d="M47 693.5v33.5v18q16 78 24.5 120t10.5 46q10 23 24.5 51.5t29 55t26.5 47t20 31.5q16 18 33.5 40.5t40.5 49.5q16 20 27.5 32.5t31 27t53 32.5t95.5 51q33 16 54.5 26.5t44 15.5t50 7t72.5 2l66 13q31 6 51 6q8 0 49 -11.5t88 -25.5t89 -27.5t52 -19.5q2 -2 22.5 -18.5 t45 -36t46 -37t28.5 -23.5q39 -35 68.5 -75t43.5 -70q6 -16 10.5 -25.5t8.5 -17.5t9 -16.5t15 -22.5q16 -23 20.5 -37t14.5 -49q4 -16 8 -33.5t8 -34.5q18 -53 19 -67l-6 -70l4 -70q-6 -27 -9 -41t-5.5 -25t-4.5 -21.5t-4 -26.5q-4 -29 -9 -43.5t-26 -44.5 q-10 -16 -19 -30.5t-17 -29.5q-12 -18 -19 -43l-4 -10l-4 -10q-10 -23 -17.5 -38.5t-15.5 -23.5q-12 -12 -25.5 -24.5t-29.5 -22.5l-51 -45q-39 -35 -68 -54.5t-61 -33.5q-41 -18 -82 -41q-16 -10 -19 -10l-69 -8q-29 -8 -43.5 -12.5t-22.5 -6.5t-11 -2h-7q-20 0 -51 6 q-23 6 -68 13l-68 2q-10 0 -34.5 7t-54 17t-58.5 22.5t-47 22.5t-29.5 16.5t-21 12.5t-18.5 14t-23 23q-18 14 -56 43q-16 10 -30 33q-10 14 -16.5 22t-12.5 14.5t-12 14.5t-19 20q-10 12 -23.5 30.5t-24.5 40t-20.5 40t-11.5 31.5q-6 27 -9 41t-5 22t-4 13.5t-6 13.5 q-10 27 -15.5 42t-8.5 28.5t-4 26.5t-1 38q-2 37 -2 58.5zM180 692q0 -16 6 -65l4 -58q2 -35 4.5 -48t10.5 -25q16 -31 37 -88q16 -23 28.5 -44.5t20.5 -37.5l8 -19q35 -23 57 -49l23 -31q49 -29 80 -49q10 -10 14 -10q25 -10 46.5 -19.5t37.5 -19.5q12 -10 25.5 -12 t48.5 -2h19t17.5 -1t26 -4.5t43.5 -7.5q41 2 65.5 5.5t40 5.5t27 5t29.5 9l51 18q39 10 49.5 15.5t20.5 15.5q27 20 74 55q20 20 36.5 36t30.5 28q14 10 21.5 21.5t21.5 41.5q6 18 12.5 31.5t10.5 20.5l28 49q35 84 39 168l6 57q2 14 3.5 22.5t1.5 12.5q0 10 -6.5 38.5 t-13.5 59.5t-15 56.5t-13 31.5q-10 10 -15 19.5t-9 15.5q-6 8 -8 12q-10 25 -15.5 38.5t-10.5 22.5t-11 17t-19 21q-6 8 -12 15t-12 13l-6 8l-4 9q-14 20 -22.5 31.5t-17 18.5t-18.5 11t-28 10q-33 10 -44.5 15.5t-23.5 15.5q-8 4 -15.5 10t-15.5 13l-51 14l-53 18 q-18 6 -40 9.5t-40 3.5q-14 0 -19.5 -1l-27.5 -5q-29 -6 -37 -7.5t-37 -1.5q-14 0 -18 -1t-17 -5l-32 -16l-54 -10q-31 -4 -42 -9.5t-25 -19.5q-10 -8 -20.5 -16.5t-20.5 -18.5q-23 -16 -37 -28.5t-25.5 -23.5t-21.5 -23.5t-23 -28.5q-8 -10 -16 -21.5t-19 -23.5 q-27 -31 -31.5 -39.5t-9.5 -24.5q-4 -14 -6 -22.5t-5 -16.5t-7 -19.5t-10 -31.5q-10 -29 -17.5 -78t-7.5 -82zM428 311l2 27l-2 33v20.5t2 38.5q2 10 2 22.5v28.5v33t-2 47v17l2 71l-2 119q2 33 3 55.5t2 38t1 27.5v24l-2 127q0 59 60 60l86 -2q8 -2 13 -2h9l146 2 q145 0 230 -73t85 -196q0 -47 -14.5 -93t-38.5 -83q-4 -4 -7.5 -8t-10.5 -11t-20.5 -21.5t-37.5 -41.5q-8 -8 -8 -20t27.5 -32.5t58.5 -31.5q31 -10 40 -18t9 -25q0 -23 -1 -48t-2 -47.5t-2 -38t-3 -17.5q-8 -10 -27.5 -18.5t-36.5 -8.5q-25 0 -41 6.5t-39 22.5l-10 6 q-20 16 -37.5 30.5t-34.5 28.5q-18 20 -24 24.5t-12 8.5q-16 10 -27.5 17.5t-18.5 11.5q-25 18 -34 22.5t-25 4.5q-37 0 -37 -33v-33v-33q4 -31 5 -37t1 -10q0 -35 -39 -35h-4l-51 2l-84 -2q-53 0 -49 43zM647 725l2 -20q0 -41 7.5 -52.5t31.5 -11.5q27 0 55.5 14.5t51 38 t37 53t14.5 58.5q0 94 -139 94q-35 0 -46.5 -11t-11.5 -42l2 -47v-14.5t-4 -34.5v-11v-14z" />
<glyph unicode="&#xaf;" d="M166 1094l4 20q2 4 2 16v23l2 55v11.5t-2 15.5q-2 6 -2 11v9q0 29 51 29h39q16 -2 28.5 -2h22.5h27q43 2 68.5 2h35.5h14.5t30.5 -2q25 -2 39.5 -2h36.5l240 4q31 0 43 -10t12 -35q0 -4 -1 -13t-7 -55l2 -26q2 -10 2 -33q0 -45 -49 -45h-18.5t-22.5 2h-39l-88 -2l-74 2 l-65 -2l-66 2l-55 -4l-84 6h-8t-17 -2q-12 -2 -27.5 -2h-29.5q-45 0 -45 27z" />
<glyph unicode="&#xb0;" d="M197 1051v31.5t3 23.5t8 29.5t15 46.5q14 41 44 81t65 60q43 27 85.5 37t112.5 10q150 0 240 -121q29 -41 44 -89t15 -99q0 -57 -14 -109.5t-37 -81.5q-94 -119 -280 -118q-59 0 -120 22.5t-102 61.5q-45 45 -59 98q-8 25 -14 62.5t-6 54.5zM377 1049q6 -45 8 -48 q2 -6 12 -30q10 -23 41 -40.5t62 -17.5q47 0 73.5 13.5t55.5 54.5q10 14 11 20.5t3 16.5v12l2 35q-2 14 -2 23.5t-2 17.5q0 8 -2 12t-8 15q-4 4 -7 10t-8 10q-35 53 -96 53q-43 0 -68.5 -13t-48.5 -50q-4 -4 -12 -26.5t-10 -29.5v-6t-2 -12q0 -10 -2 -20z" />
<glyph unicode="&#xb1;" d="M111 168q0 35 18 46t76 9l45 2q14 2 23.5 2h13.5h16t39 -2q10 -2 38 -2h71l235 6h16h11h14q10 2 18 2l48 -4h59q35 0 48 -20.5t13 -67.5v-30v-19v-49q-4 -49 -53 -49l-147 2q-10 2 -35 2h-51h-31l-104 -4l-150 -2h-45q-35 4 -42 4h-19h-23.5t-50.5 -4q-10 -2 -23.5 5 t-17.5 17q-6 12 -8 41t-2 115zM111 741q0 35 24 47q8 6 17.5 7.5t52.5 1.5l45 4q12 4 21.5 4h15.5h10t16 -2t15.5 -2h15.5q16 0 28.5 12t12.5 29l-2 67v8.5t2 16.5t2 29q0 14 -2 24q-2 20 -3 35.5t-1 26.5q0 16 16.5 29.5t38.5 11.5q20 -2 31.5 -3.5t20 -1.5h14.5h16h27.5 t34.5 2q33 4 47 -40v-11.5t2 -21.5v-26.5v-18.5t1 -17.5t3 -25.5q-8 -47 -8 -66q0 -55 43 -55l69 2h2q2 0 3 -1t3 -1q43 -6 56 -6h10q12 2 17.5 2h25.5q33 0 46 -20.5t13 -67.5v-31v-18v-50q-4 -49 -53 -49h-129q-20 2 -25.5 2h-17.5q-29 -2 -39 -9t-14 -28l-6 -116l2 -60 q0 -51 -62 -51q-14 0 -47 6q-10 2 -18 2h-15q-8 0 -16 -2q-14 -2 -22.5 -2h-20.5q-49 0 -49 115q0 12 1 35.5t3 60.5q2 18 -10.5 31.5t-28.5 13.5h-55q-18 2 -31.5 3t-23.5 1h-23.5t-50.5 -4q-10 -2 -23.5 5t-17.5 18q-6 12 -8 40.5t-2 114.5z" />
<glyph unicode="&#xb2;" horiz-adv-x="716" d="M25 621q0 12 12 30l5 4t28.5 22.5t75 59.5t145.5 115l21.5 21.5t32.5 32t32.5 32.5t23.5 27q45 53 45 112q0 47 -28.5 75t-77.5 28q-68 0 -98 -47q-6 -10 -7.5 -17.5t-3.5 -48.5q0 -31 -41 -31q-49 0 -77.5 1t-43 7.5t-18.5 18.5t-4 35q0 117 77 191.5t198 78.5l28 2h15 q53 0 105 -17.5t85 -45.5q47 -41 68.5 -88.5t21.5 -118.5q0 -61 -12 -103.5t-41 -81.5q-29 -37 -50.5 -62.5t-40 -45t-37 -34.5t-40.5 -32h4h45h5t20 -2q25 2 29.5 2h11.5q61 0 83.5 -10t22.5 -39l-2 -53q0 -6 2 -14v-21q0 -35 -21.5 -47t-76.5 -12l-205 4l-84 -2h-4h-11 t-18 2h-18h-9t-30 -2h-23q-63 0 -81.5 2t-26.5 10q-4 4 -8 24.5t-4 37.5z" />
<glyph unicode="&#xb3;" horiz-adv-x="716" d="M37 682q0 10 6 19.5t23 25.5q6 6 13 13.5t13 15.5q35 37 68 37q2 0 5 -1t9 -5.5t18.5 -14.5t34.5 -29q16 -14 49 -24t64 -10q47 0 80 26.5t33 63.5q0 23 -16.5 45t-45.5 37q-10 6 -17 9t-16.5 5t-22.5 4t-36 4q-47 6 -47 43t1 55.5t5 24.5t7 9t11.5 6t23.5 4.5t44 5.5 q37 4 61.5 23.5t24.5 45.5q0 31 -28.5 52.5t-69.5 21.5q-18 0 -31.5 -2t-29 -10t-34 -21.5t-47.5 -38.5q-14 -14 -34 -14q-10 0 -17.5 4t-38.5 31q-23 18 -36 35.5t-13 25.5q0 23 19.5 48.5t54.5 50.5q41 31 98.5 50t108.5 19t102 -11t86 -28q47 -25 80 -75t33 -103 q0 -49 -37 -111q-4 -4 -12.5 -13t-18.5 -18t-19 -17.5t-16 -10.5q18 -14 48 -24q35 -18 59.5 -68.5t24.5 -106.5q0 -55 -28 -107t-71 -83q-49 -33 -100 -47t-117 -14h-44t-29.5 3t-30 7t-41.5 14q-29 8 -66 26.5t-57 35.5q-23 18 -32 31.5t-9 29.5z" />
<glyph unicode="&#xb4;" d="M403 1092q0 14 1.5 23t4.5 24.5t10 43t19 77.5q14 55 25.5 72.5t38.5 17.5h55q16 4 19.5 4h7.5h16q18 -2 31.5 -3t21.5 -1h12.5t20.5 2h19q23 0 37 -15.5t14 -40.5q0 -14 -23 -51q-4 -10 -9 -18t-9 -17l-53 -84q-10 -18 -16.5 -29.5t-10.5 -16.5t-8 -8t-11 -5 q-6 -4 -10 -5t-18.5 -2t-41 -1h-75.5q-41 0 -55.5 7t-12.5 26z" />
<glyph unicode="&#xb5;" horiz-adv-x="1013" d="M27 -254q0 14 2 23l2 67q0 31 1 44.5t7 41.5q4 23 6 44.5t4 43.5v13.5t1 13.5t3 21.5t6 37.5v66l7 53v102v8.5t1 16.5t2 39t3 74v41v43q-4 125 -5 218t-1 122q0 43 16 67.5t45 24.5q23 0 58.5 -1t70.5 -3t61.5 -4t28.5 -2q10 -4 18.5 -15.5t8.5 -21.5l-2 -74 q-2 -72 -3 -111t-1 -61.5t-1 -34.5t-4 -29q-6 -80 -6 -137q0 -86 37 -140t92 -54q45 0 87 28.5t55 69.5q2 4 3 7t2 14.5t2 32t3 57.5v40v21q2 10 2 46v65v61t-2 33q-4 45 -6 75.5t-2 40.5q0 92 88 93h47t51 -2h21h15t21 2h19q49 0 49 -66v-14t-1 -19.5t-2 -38t-3 -69.5 l2 -283q0 -18 -1 -44.5t-3 -57.5q-6 -70 -9 -122t-3 -63v-20t1 -18.5t2 -24.5t5 -41v-12q0 -41 -22.5 -64.5t-63.5 -23.5q-63 0 -120.5 2t-68.5 6q-8 4 -12 8t-25 33q-4 8 -16 12q-16 4 -88 -29q-8 -4 -27.5 -10t-41 -11t-39 -9t-23.5 -4l-57 2q-10 0 -18.5 -7.5t-8.5 -17.5 l10 -59q2 -35 3 -67t5 -64v-15q0 -23 -8 -29t-39 -6h-100h-78q-39 0 -51 4.5t-12 20.5z" />
<glyph unicode="&#xb6;" horiz-adv-x="1132" d="M55 999q0 100 40 177t114 120q104 66 336 66h52t75 -2q16 -2 29.5 -2h23.5h13t15.5 1t28 2t47.5 3l72 -4l72 6l71 -8l41 4q35 0 35 -39l-2 -63l2 -58q0 -29 -8 -37t-39 -8h-18q-16 0 -26.5 -2t-14.5 -13.5t-5 -34t-1 -65.5l6 -71l-8 -70l10 -106q0 -2 -1 -10.5t-3 -22.5 q-2 -16 -3 -27.5t-1 -21.5l2 -90l-4 -70l2 -70l-2 -71l6 -70l-6 -70l6 -69v-70v-70l-4 -79q2 -29 3 -44.5t1 -23.5v-12v-10q0 -59 -5.5 -73t-31.5 -14l-78 3l-72 -3q-31 0 -37 15q-2 2 -8 100q2 20 3 49t2 57.5t2 56.5t1 48l-6 92q0 2 1 14.5t3 32.5q2 10 2 20.5v20.5v11.5 t-1 14.5t-2 25.5t-3 47.5v41v30q2 23 2 39.5v18.5l-2 82l6 69q-2 31 -3 48.5t-2 26.5t-1 14v14v36v39v31q-2 12 -2 21.5v17.5v16l6 86q0 39 -1 62.5t-6 35t-14 14.5t-26 3h-24q-29 0 -37 -7t-8 -36v-49v-9t-1 -17.5t-2 -37t-3 -69.5l2 -31q4 -16 4 -25.5v-17.5l-4 -96l2 -70 v-82v-21.5t2 -35.5q2 -23 2 -37v-20v-84l2 -166v-54.5t-4 -58.5q-2 -14 -2 -22.5v-12.5l4 -104l-4 -72l2 -69q0 -29 -7.5 -37.5t-31.5 -8.5h-74h-68q-16 0 -26 3.5t-14.5 14.5t-5.5 33.5t-1 63.5l2 70v96v12v14.5t2 18.5v35v13t-1 17.5t-2 34t-3 60.5l2 49l2 113v10v13 t-1 25.5t-3 47.5l4 70q0 12 -4 20t-20.5 14.5t-47 10.5t-81.5 8q-41 4 -88 35.5t-82 78.5q-66 90 -66 211z" />
<glyph unicode="&#xb7;" horiz-adv-x="1060" d="M377 389l2 49l-2 111q0 47 6 65.5t25 22.5l133 2h17t17 -2h27q35 0 43 -1t17 -5q8 -6 15 -17.5t7 -21.5q0 -225 -8 -240q-8 -20 -37 -20q-27 -2 -64.5 -2t-74.5 2t-64.5 4t-34.5 6q-25 8 -24 47z" />
<glyph unicode="&#xb8;" d="M336 -104q0 10 10 23t21 13l47 -2q23 0 26 54v16h183q-2 -6 -2 -16t5 -15.5t38 -27.5q10 -6 16 -21.5t6 -28.5q0 -23 -36 -40t-89 -17q-78 0 -118 3t-56 7q-51 18 -51 52z" />
<glyph unicode="&#xb9;" horiz-adv-x="716" d="M106 1161q0 10 1.5 16.5t6.5 13.5t17 16.5t35 27.5t36 28.5t25.5 18.5t27.5 16.5t40 20.5q47 27 71.5 34t61.5 7q43 0 68.5 -14.5t25.5 -38.5v-13.5t-2 -23.5l2 -66l-2 -90l2 -192v-38t-1 -58.5t-2 -59.5t-1 -37v-96q0 -33 -2 -50.5t-8 -26.5t-18.5 -11t-32.5 -2l-33 2 q-10 2 -18.5 3t-10.5 1h-12t-18 -2q-6 -2 -15 -2q-23 0 -36 13t-13 36q0 4 1 22.5t3 47.5l2 53l2 55q6 92 6 121l-6 180v10q0 29 -18 29q-4 0 -7 -1t-11.5 -4t-24 -11.5t-41.5 -22.5q-8 -4 -17 -4q-29 0 -56.5 30.5t-27.5 61.5z" />
<glyph unicode="&#xba;" horiz-adv-x="690" d="M8 852q0 57 26.5 114.5t74.5 98.5q41 35 103 55.5t136 20.5q45 0 94.5 -11.5t89.5 -33.5q27 -14 42.5 -29.5t41.5 -56.5l7 -11q35 -49 46 -83.5t11 -90.5q0 -55 -15.5 -95t-50.5 -81q-45 -51 -53 -57q-43 -29 -80 -41t-84 -16q-45 -4 -53 -4.5t-16 -0.5q-31 0 -55.5 4.5 t-49 14.5t-52.5 27.5t-60 44.5q-53 41 -78 96t-25 135zM209 848q0 -53 40 -91t97 -38q53 0 89 34.5t36 84.5q0 53 -40 91t-93 38t-91 -36t-38 -83z" />
<glyph unicode="&#xbb;" horiz-adv-x="665" d="M96 238q0 8 2 12q2 10 2 18v17v24q-2 25 -3 46.5t-1 37.5q0 29 8 43q0 2 7.5 6t50.5 33q4 4 4 10q0 2 -1 5.5t-6 7.5t-17.5 11t-35.5 21q-4 4 -6 8.5t-2 16.5q0 98 1 146.5t3 52.5q8 12 23 12q4 0 11 -3t21.5 -12.5t41 -27.5t71.5 -49q31 -23 37 -29t6 -20l-2 -107 l2 -156q-2 -20 -17 -34.5t-63 -42.5q-23 -16 -39 -28.5t-30 -23.5q-33 -27 -45 -26q-10 0 -16.5 9t-6.5 22zM365 236v16q2 8 2 53l-2 111q0 20 8 26q16 10 30.5 18.5t26.5 18.5q10 4 10 15q0 8 -7 13t-50 28q-10 4 -13 15t-3 40l2 82q0 8 -2 16v41q0 39 28 39q4 0 8.5 -1 t13.5 -6t27.5 -17.5t51.5 -34.5q39 -27 59 -42.5t29.5 -25.5t11.5 -18.5t2 -22.5l-2 -131l-2 -61q2 -10 3 -18.5t1 -12.5q0 -8 -7 -18.5t-18 -18.5q-47 -33 -84.5 -61.5t-68.5 -53.5q-18 -16 -33 -16q-23 0 -22 27z" />
<glyph unicode="&#xbc;" horiz-adv-x="1703" d="M106 1161q0 10 1.5 16.5t6.5 13.5t17 16.5t35 27.5t36 28.5t25.5 18.5t27.5 16.5t40 20.5q47 27 71.5 34t61.5 7q43 0 68.5 -14.5t25.5 -38.5v-13.5t-2 -23.5l2 -66l-2 -90l2 -192v-38t-1 -58.5t-2 -59.5t-1 -37v-96q0 -33 -2 -50.5t-8 -26.5t-18.5 -11t-32.5 -2l-33 2 q-10 2 -18.5 3t-10.5 1h-12t-18 -2q-6 -2 -15 -2q-23 0 -36 13t-13 36q0 4 1 22.5t3 47.5l2 53l2 55q6 92 6 121l-6 180v10q0 29 -18 29q-4 0 -7 -1t-11.5 -4t-24 -11.5t-41.5 -22.5q-8 -4 -17 -4q-29 0 -56.5 30.5t-27.5 61.5zM436 23q2 10 5 16t20 35q4 8 8 15t20 44 l132 256q12 27 20 42t18.5 33.5t24.5 44.5t39 73q12 23 19.5 37t13.5 26t14 29.5t21 46.5l116 237q12 27 18.5 41.5t12.5 25.5t12 23.5t17 30.5l55 101q14 16 25 51q4 12 5 12t5 14q23 68 44 92.5t56 24.5q12 0 21 -2q4 -2 12 -2h4l51 2q6 0 14.5 -9t8.5 -17q0 -4 -9.5 -25 t-24.5 -50.5t-33.5 -66.5t-39.5 -71q-6 -16 -12 -29.5t-12 -28.5q-4 -10 -14.5 -30.5t-33 -64.5t-59.5 -114.5t-94 -179.5q-20 -43 -55 -116.5t-76 -159.5l-53 -103l-45 -92l-29 -49q-12 -27 -24.5 -52.5t-22.5 -52.5q-29 -66 -70 -65h-55h-45q-10 2 -18.5 9t-6.5 18z M1028 229v9q0 23 48 102.5t159 245.5q14 23 26.5 44t26.5 44q8 14 16.5 27.5t18.5 29.5q6 10 12 18.5t13 16.5q18 33 28 41t31 10q20 2 57 -1t49 -7q14 -4 18.5 -19.5t4.5 -66.5l-2 -68l4 -88v-92v-31v-41l2 -36q0 -29 25 -29h53q25 0 29 -23l2 -90q-6 -29 -7.5 -33t-5.5 -8 q-6 -4 -15 -4t-58 -4q-12 0 -19 -8l-4 -21l-2 -110q-2 -23 -10 -30t-33 -7l-78 -2h-33q-31 0 -36 14q0 2 -1 5t-1 16.5v41v81.5q0 12 -16.5 16t-61.5 4h-23h-74h-13t-17 2h-21h-10q-10 -2 -21.5 -2h-25.5q-31 0 -33 47zM1257 358q0 -25 41 -24q29 0 37 5t8 21v37v74 q0 23 -4 27q-4 0 -17 -18.5t-27.5 -43t-26 -47t-11.5 -31.5z" />
<glyph unicode="&#xbd;" horiz-adv-x="1703" d="M106 1161q0 10 1.5 16.5t6.5 13.5t17 16.5t35 27.5t36 28.5t25.5 18.5t27.5 16.5t40 20.5q47 27 71.5 34t61.5 7q43 0 68.5 -14.5t25.5 -38.5v-13.5t-2 -23.5l2 -66l-2 -90l2 -192v-38t-1 -58.5t-2 -59.5t-1 -37v-96q0 -33 -2 -50.5t-8 -26.5t-18.5 -11t-32.5 -2l-33 2 q-10 2 -18.5 3t-10.5 1h-12t-18 -2q-6 -2 -15 -2q-23 0 -36 13t-13 36q0 4 1 22.5t3 47.5l2 53l2 55q6 92 6 121l-6 180v10q0 29 -18 29q-4 0 -7 -1t-11.5 -4t-24 -11.5t-41.5 -22.5q-8 -4 -17 -4q-29 0 -56.5 30.5t-27.5 61.5zM436 23q2 10 5 16t20 35q4 8 8 15t20 44 l132 256q12 27 20 42t18.5 33.5t24.5 44.5t39 73q12 23 19.5 37t13.5 26t14 29.5t21 46.5l116 237q12 27 18.5 41.5t12.5 25.5t12 23.5t17 30.5l55 101q14 16 25 51q4 12 5 12t5 14q23 68 44 92.5t56 24.5q12 0 21 -2q4 -2 12 -2h4l51 2q6 0 14.5 -9t8.5 -17q0 -4 -9.5 -25 t-24.5 -50.5t-33.5 -66.5t-39.5 -71q-6 -16 -12 -29.5t-12 -28.5q-4 -10 -14.5 -30.5t-33 -64.5t-59.5 -114.5t-94 -179.5q-20 -43 -55 -116.5t-76 -159.5l-53 -103l-45 -92l-29 -49q-12 -27 -24.5 -52.5t-22.5 -52.5q-29 -66 -70 -65h-55h-45q-10 2 -18.5 9t-6.5 18z M1012 74q0 12 12 30q0 2 254 201l21.5 21.5t33 32t32.5 33t24 26.5q45 53 45 112q0 47 -29 75t-78 28q-68 0 -98 -47q-6 -10 -7 -17.5t-3 -48.5q0 -31 -41 -31q-49 0 -78 1.5t-43.5 7.5t-18.5 18t-4 35q0 117 77 191.5t198 78.5l28 2h15q53 0 105 -17.5t85 -45.5 q47 -41 68.5 -88t21.5 -119q0 -61 -12 -103t-41 -81q-29 -37 -50.5 -62.5t-40 -45t-36.5 -35t-41 -31.5h4h45h5t20 -2q25 2 30 2h11q61 0 83.5 -10.5t22.5 -39.5l-2 -53q0 -6 2 -14v-21q0 -35 -21.5 -47t-76.5 -12l-205 4l-84 -2h-4h-11t-18 2h-18h-9t-30 -2h-22 q-63 0 -82 2t-27 10q-4 4 -8 24.5t-4 37.5z" />
<glyph unicode="&#xbe;" horiz-adv-x="1703" d="M37 682q0 10 6 19.5t23 25.5q6 6 13 13.5t13 15.5q35 37 68 37q2 0 5 -1t9 -5.5t18.5 -14.5t34.5 -29q16 -14 49 -24t64 -10q47 0 80 26.5t33 63.5q0 23 -16.5 45t-45.5 37q-10 6 -17 9t-16.5 5t-22.5 4t-36 4q-47 6 -47 43t1 55.5t5 24.5t7 9t11.5 6t23.5 4.5t44 5.5 q37 4 61.5 23.5t24.5 45.5q0 31 -28.5 52.5t-69.5 21.5q-18 0 -31.5 -2t-29 -10t-34 -21.5t-47.5 -38.5q-14 -14 -34 -14q-10 0 -17.5 4t-38.5 31q-23 18 -36 35.5t-13 25.5q0 23 19.5 48.5t54.5 50.5q41 31 98.5 50t108.5 19t102 -11t86 -28q47 -25 80 -75t33 -103 q0 -49 -37 -111q-4 -4 -12.5 -13t-18.5 -18t-19 -17.5t-16 -10.5q18 -14 48 -24q35 -18 59.5 -68.5t24.5 -106.5q0 -55 -28 -107t-71 -83q-49 -33 -100 -47t-117 -14h-44t-29.5 3t-30 7t-41.5 14q-29 8 -66 26.5t-57 35.5q-23 18 -32 31.5t-9 29.5zM436 23q2 10 5 16t20 35 q4 8 8 15t20 44q4 8 7.5 14.5t8.5 14.5t12 21.5t20 35.5q10 16 29.5 58t54.5 112q16 35 40.5 83t59.5 110q16 31 34.5 64.5t35.5 74.5l114 237q16 35 30.5 66t29.5 55l57 101q10 20 18.5 38.5t14.5 38.5q23 68 44 92.5t56 24.5q12 0 21 -2q10 -2 18 -2l49 2q6 0 14.5 -9 t8.5 -17q0 -4 -9.5 -25t-24.5 -51.5t-34.5 -66.5t-38.5 -70l-24 -58q-4 -10 -13.5 -30.5t-31 -62.5t-58.5 -112.5t-96 -183.5q-16 -35 -52 -108.5t-81 -167.5q-27 -51 -46.5 -92.5t-35.5 -71.5q-10 -23 -13 -29t-12 -18l-18 -33l-49 -105q-29 -66 -68 -65h-55h-45 q-10 2 -18.5 9t-6.5 18zM1028 238q0 23 47 101.5t158 246.5q16 23 28.5 44t26.5 44q8 14 16.5 27.5t18.5 29.5l25 35q18 33 28 41t31 10h15.5t28.5 -1t28.5 -2t17.5 -1q23 -4 30 -12t7 -33v-45v-68l2 -88v-92l2 -31v-62.5t3 -30.5t7 -11t15 -2h53q12 0 18 -2t9.5 -12.5 t3.5 -33v-65.5q0 -16 -1 -25.5t-9.5 -14.5t-26 -6t-49.5 -3q-14 0 -17 -8l-4 -21l-2 -110q-2 -23 -11 -30t-34 -7l-76 -2h-33q-31 0 -36 14q0 2 -1 5t-1 16.5t-1.5 41t-1.5 81.5q0 12 -15 16t-62 4h-21h-74h-13t-17 2h-21h-10q-10 -2 -21.5 -2h-25.5q-35 0 -35 62zM1257 358 q0 -25 41 -24q27 0 35 5t8 21v19v18v20.5t2 47.5v6q0 23 -4 27q-4 0 -17 -18.5t-27.5 -43t-26 -47t-11.5 -31.5z" />
<glyph unicode="&#xbf;" horiz-adv-x="614" d="M61 236q0 47 5.5 79.5t19.5 73.5q10 29 13 39t14 39q4 10 14 34.5t27 63.5q10 25 16 41.5t11 36t9.5 48t10.5 77.5l12 72l4 106q4 31 23.5 42t72.5 11q25 0 38.5 -1t21.5 -5t13 -12t9 -23q25 -84 25 -186q0 -35 -1 -57.5t-4 -45t-11.5 -53t-20.5 -81.5q-4 -20 -10 -63.5 t-6 -63.5q0 -43 25.5 -70t68.5 -27q12 0 18 2q20 2 34.5 3t18.5 1q31 0 31 -34l-2 -47q4 -45 4 -53.5v-14.5q0 -12 -2 -16l-2 -29q2 -2 2 -6q0 -8 2 -15q2 -4 2 -9v-9q0 -43 -41 -55q-16 -6 -32.5 -12.5t-34.5 -14.5q-29 -10 -54.5 -14t-72.5 -4q-76 0 -117 13t-80 54 q-43 43 -58.5 82t-15.5 103zM147 1104l3 55v21q-2 8 -2.5 18t-0.5 21v20t3 43v53q4 33 45 33q4 0 16 -1t31 -3h6q6 0 18.5 1t28.5 3q10 2 17 2h14h15t34 -4q53 -6 57 -10q18 -12 19 -49l-2 -47l2 -64q-2 -20 -2 -39.5v-36.5q0 -23 -2.5 -31t-8.5 -14t-18 -11t-23 -3l-20 2 l-58 -4q-70 2 -108 6q-23 2 -37 2q-27 10 -27 37z" />
<glyph unicode="&#xc0;" horiz-adv-x="1116" d="M-2 66q0 10 1 14t5 26q4 16 8 36t6 40q2 10 6.5 36t14.5 67l12 75q2 18 4 32t4 24t5.5 20t7.5 25q14 45 24 98q2 12 3 20.5t3 18.5t5.5 22.5t7.5 32.5l16 74q6 23 12.5 49.5t14.5 54.5l8 32t8 30q10 47 19.5 90t19.5 82q10 35 15 55.5t12 61.5q8 55 17 91t25.5 56.5 t40 29.5t60.5 11q25 2 52.5 2h47.5l74 2h47q16 -4 22.5 -4h26.5l52 2q59 0 87.5 -20.5t49.5 -75.5q4 -12 6 -20.5t12 -45.5q2 -10 9.5 -34.5t19.5 -65.5q4 -16 7 -25.5t5 -19.5t5 -22.5t7 -34.5q2 -12 4.5 -19.5t4.5 -16.5t6 -23.5t12 -39.5q4 -12 6 -19t4 -15.5t3 -19.5 t5 -32l11 -51q12 -47 24 -137l15 -55q4 -16 7 -25.5t6 -21t6 -28t9 -44.5q2 -23 17 -70q2 -10 4 -24.5t6 -30.5q0 -6 6 -34t13.5 -58.5t13.5 -59t8 -37.5q10 -39 12 -47t2 -20q0 -31 -14 -53.5t-37 -30.5q-2 0 -15.5 -1t-32 -2t-36.5 -1h-33q-96 0 -110 6q-29 10 -41 37 l-1 3t-6.5 15.5t-13.5 40t-24 76.5q-6 14 -13.5 23.5t-25 13.5t-46 6t-75.5 2q-72 0 -119 -5t-75.5 -17.5t-43 -34t-20.5 -54.5q-12 -68 -23.5 -88t-33.5 -20h-17.5t-23.5 2h-66h-86q-29 0 -40 4t-28 18q-20 25 -20 46zM315 1686q0 51 43 57l74 -2q2 0 12.5 1t26.5 3h16h8.5 t20.5 -4h55q25 0 36 -15.5t26 -74.5q16 -57 25.5 -105.5t9.5 -68.5q0 -27 -45 -27q-59 0 -93 1t-52.5 3t-27 6t-14.5 13q-6 4 -20 32q-2 8 -37 58q-4 6 -9 15t-14 24q-4 8 -9 16t-9 18q-23 37 -23 50zM436 604q0 -82 101 -82q86 0 114.5 15.5t28.5 56.5q0 33 -4 57.5 t-19 79.5l-16 76q-4 20 -12 47t-16.5 51.5t-16.5 45t-14 28.5q-8 12 -27 12q-25 0 -45.5 -38t-30.5 -105q-10 -49 -18 -92q-10 -45 -14.5 -71t-7.5 -39t-3 -21.5v-20.5z" />
<glyph unicode="&#xc1;" horiz-adv-x="1116" d="M-2 66q0 10 1 14t5 26q4 16 8 36t6 40q2 10 6.5 36t14.5 67l12 75q2 18 4 32t4 24t5.5 20t7.5 25q14 45 24 98q2 12 3 20.5t3 18.5t5.5 22.5t7.5 32.5l16 74q6 23 12.5 49.5t14.5 54.5l8 32t8 30q10 47 19.5 90t19.5 82q10 35 15 55.5t12 61.5q8 55 17 91t25.5 56.5 t40 29.5t60.5 11q25 2 52.5 2h47.5l74 2h47q16 -4 22.5 -4h26.5l52 2q59 0 87.5 -20.5t49.5 -75.5q4 -12 6 -20.5t12 -45.5q2 -10 9.5 -34.5t19.5 -65.5q4 -16 7 -25.5t5 -19.5t5 -22.5t7 -34.5q2 -12 4.5 -19.5t4.5 -16.5t6 -23.5t12 -39.5q4 -12 6 -19t4 -15.5t3 -19.5 t5 -32l11 -51q12 -47 24 -137l15 -55q4 -16 7 -25.5t6 -21t6 -28t9 -44.5q2 -23 17 -70q2 -10 4 -24.5t6 -30.5q0 -6 6 -34t13.5 -58.5t13.5 -59t8 -37.5q10 -39 12 -47t2 -20q0 -31 -14 -53.5t-37 -30.5q-2 0 -15.5 -1t-32 -2t-36.5 -1h-33q-96 0 -110 6q-29 10 -41 37 l-1 3t-6.5 15.5t-13.5 40t-24 76.5q-6 14 -13.5 23.5t-25 13.5t-46 6t-75.5 2q-72 0 -119 -5t-75.5 -17.5t-43 -34t-20.5 -54.5q-12 -68 -23.5 -88t-33.5 -20h-17.5t-23.5 2h-66h-86q-29 0 -40 4t-28 18q-20 25 -20 46zM436 604q0 -82 101 -82q86 0 114.5 15.5t28.5 56.5 q0 33 -4 57.5t-19 79.5l-16 76q-4 20 -12 47t-16.5 51.5t-16.5 45t-14 28.5q-8 12 -27 12q-25 0 -45.5 -38t-30.5 -105q-10 -49 -18 -92q-10 -45 -14.5 -71t-7.5 -39t-3 -21.5v-20.5zM451 1483q0 14 1 23.5t4 24.5t10 43t19 77q14 55 25.5 72.5t38.5 17.5h55q16 4 19.5 4 h7.5h16q18 -2 31.5 -3t21.5 -1h12.5t20.5 2h19q23 0 37 -15.5t14 -39.5q0 -14 -23 -52q-4 -10 -9 -18t-9 -16l-53 -84q-10 -18 -16.5 -29.5t-10.5 -17t-8 -8.5t-10 -5q-6 -4 -10.5 -5t-18.5 -2t-41 -1h-76q-41 0 -55 7t-12 26z" />
<glyph unicode="&#xc2;" horiz-adv-x="1116" d="M-2 66q0 10 1 14t5 26q4 16 8 36t6 40q2 10 6.5 36t14.5 67l12 75q2 18 4 32t4 24t5.5 20t7.5 25q14 45 24 98q2 12 3 20.5t3 18.5t5.5 22.5t7.5 32.5l16 74q6 23 12.5 49.5t14.5 54.5l8 32t8 30q10 47 19.5 90t19.5 82q10 35 15 55.5t12 61.5q8 55 17 91t25.5 56.5 t40 29.5t60.5 11q25 2 52.5 2h47.5l74 2h47q16 -4 22.5 -4h26.5l52 2q59 0 87.5 -20.5t49.5 -75.5q4 -12 6 -20.5t12 -45.5q2 -10 9.5 -34.5t19.5 -65.5q4 -16 7 -25.5t5 -19.5t5 -22.5t7 -34.5q2 -12 4.5 -19.5t4.5 -16.5t6 -23.5t12 -39.5q4 -12 6 -19t4 -15.5t3 -19.5 t5 -32l11 -51q12 -47 24 -137l15 -55q4 -16 7 -25.5t6 -21t6 -28t9 -44.5q2 -23 17 -70q2 -10 4 -24.5t6 -30.5q0 -6 6 -34t13.5 -58.5t13.5 -59t8 -37.5q10 -39 12 -47t2 -20q0 -31 -14 -53.5t-37 -30.5q-2 0 -15.5 -1t-32 -2t-36.5 -1h-33q-96 0 -110 6q-29 10 -41 37 l-1 3t-6.5 15.5t-13.5 40t-24 76.5q-6 14 -13.5 23.5t-25 13.5t-46 6t-75.5 2q-72 0 -119 -5t-75.5 -17.5t-43 -34t-20.5 -54.5q-12 -68 -23.5 -88t-33.5 -20h-17.5t-23.5 2h-66h-86q-29 0 -40 4t-28 18q-20 25 -20 46zM274 1489q0 10 7.5 23.5t27.5 37.5l35 49 q39 53 77 94.5t56 51.5q14 8 41 8h4h8.5t19.5 -1t36 -3q29 -2 46 -4t28.5 -8t20.5 -18.5t26 -32.5q18 -29 32 -41q14 -20 33 -46t34 -49.5t25.5 -41t10.5 -21.5q0 -25 -25 -31h-22q-16 -2 -31.5 -2t-32.5 -2q-10 0 -20 2t-16.5 2h-14.5h-6q-16 -2 -26.5 -3t-12.5 -1 q-10 0 -17.5 7t-25.5 32q-18 29 -45 29t-45 -29q-16 -23 -22.5 -30t-16.5 -7h-15.5t-19.5 2q-6 2 -14 2h-17h-84q-39 0 -39 31zM436 604q0 -82 101 -82q86 0 114.5 15.5t28.5 56.5q0 33 -4 57.5t-19 79.5l-16 76q-4 20 -12 47t-16.5 51.5t-16.5 45t-14 28.5q-8 12 -27 12 q-25 0 -45.5 -38t-30.5 -105q-10 -49 -18 -92q-10 -45 -14.5 -71t-7.5 -39t-3 -21.5v-20.5z" />
<glyph unicode="&#xc3;" horiz-adv-x="1116" d="M-2 66q0 10 1 14t5 26q4 16 8 36t6 40q2 10 6.5 36t14.5 67l12 75q2 18 4 32t4 24t5.5 20t7.5 25q14 45 24 98q2 12 3 20.5t3 18.5t5.5 22.5t7.5 32.5l16 74q6 23 12.5 49.5t14.5 54.5l8 32t8 30q10 47 19.5 90t19.5 82q10 35 15 55.5t12 61.5q8 55 17 91t25.5 56.5 t40 29.5t60.5 11q25 2 52.5 2h47.5l74 2h47q16 -4 22.5 -4h26.5l52 2q59 0 87.5 -20.5t49.5 -75.5q4 -12 6 -20.5t12 -45.5q2 -10 9.5 -34.5t19.5 -65.5q4 -16 7 -25.5t5 -19.5t5 -22.5t7 -34.5q2 -12 4.5 -19.5t4.5 -16.5t6 -23.5t12 -39.5q4 -12 6 -19t4 -15.5t3 -19.5 t5 -32l11 -51q12 -47 24 -137l15 -55q4 -16 7 -25.5t6 -21t6 -28t9 -44.5q2 -23 17 -70q2 -10 4 -24.5t6 -30.5q0 -6 6 -34t13.5 -58.5t13.5 -59t8 -37.5q10 -39 12 -47t2 -20q0 -31 -14 -53.5t-37 -30.5q-2 0 -15.5 -1t-32 -2t-36.5 -1h-33q-96 0 -110 6q-29 10 -41 37 l-1 3t-6.5 15.5t-13.5 40t-24 76.5q-6 14 -13.5 23.5t-25 13.5t-46 6t-75.5 2q-72 0 -119 -5t-75.5 -17.5t-43 -34t-20.5 -54.5q-12 -68 -23.5 -88t-33.5 -20h-17.5t-23.5 2h-66h-86q-29 0 -40 4t-28 18q-20 25 -20 46zM213 1522q0 213 158 213q31 0 67.5 -5.5t65.5 -15.5 q59 -18 100 -28.5t53 -10.5t16.5 6.5t14.5 42.5q4 14 43 15h14.5t16.5 -2q6 0 12 -1t10 -1h11l75 2q33 0 33 -58q0 -119 -38 -172t-122 -53q-16 0 -32.5 2t-43 7t-64.5 15.5t-95 26.5q-25 8 -49 8q-16 0 -21.5 -6t-15.5 -41q-6 -14 -47 -14l-47 2l-72 -2q-27 0 -35 14.5 t-8 55.5zM436 604q0 -82 101 -82q86 0 114.5 15.5t28.5 56.5q0 33 -4 57.5t-19 79.5l-16 76q-4 20 -12 47t-16.5 51.5t-16.5 45t-14 28.5q-8 12 -27 12q-25 0 -45.5 -38t-30.5 -105q-10 -49 -18 -92q-10 -45 -14.5 -71t-7.5 -39t-3 -21.5v-20.5z" />
<glyph unicode="&#xc4;" horiz-adv-x="1116" d="M-2 66q0 10 1 14t5 26q4 16 8 36t6 40q2 10 6.5 36t14.5 67l12 75q2 18 4 32t4 24t5.5 20t7.5 25q14 45 24 98q2 12 3 20.5t3 18.5t5.5 22.5t7.5 32.5l16 74q6 23 12.5 49.5t14.5 54.5l8 32t8 30q10 47 19.5 90t19.5 82q10 35 15 55.5t12 61.5q8 55 17 91t25.5 56.5 t40 29.5t60.5 11q25 2 52.5 2h47.5l74 2h47q16 -4 22.5 -4h26.5l52 2q59 0 87.5 -20.5t49.5 -75.5q4 -12 6 -20.5t12 -45.5q2 -10 9.5 -34.5t19.5 -65.5q4 -16 7 -25.5t5 -19.5t5 -22.5t7 -34.5q2 -12 4.5 -19.5t4.5 -16.5t6 -23.5t12 -39.5q4 -12 6 -19t4 -15.5t3 -19.5 t5 -32l11 -51q12 -47 24 -137l15 -55q4 -16 7 -25.5t6 -21t6 -28t9 -44.5q2 -23 17 -70q2 -10 4 -24.5t6 -30.5q0 -6 6 -34t13.5 -58.5t13.5 -59t8 -37.5q10 -39 12 -47t2 -20q0 -31 -14 -53.5t-37 -30.5q-2 0 -15.5 -1t-32 -2t-36.5 -1h-33q-96 0 -110 6q-29 10 -41 37 l-1 3t-6.5 15.5t-13.5 40t-24 76.5q-6 14 -13.5 23.5t-25 13.5t-46 6t-75.5 2q-72 0 -119 -5t-75.5 -17.5t-43 -34t-20.5 -54.5q-12 -68 -23.5 -88t-33.5 -20h-17.5t-23.5 2h-66h-86q-29 0 -40 4t-28 18q-20 25 -20 46zM201 1501v11.5t2 17.5l2 67q0 14 -1 36t-3 50v15 q0 33 24 39l66 -2h6q4 0 8 1t10 1q8 2 27 2h13t14 -2l30 -2l84 2q4 0 11.5 -6.5t11.5 -12.5q0 -2 1 -11t1 -31.5v-62.5v-102q0 -31 -6 -43t-21 -12l-139 2h-100q-41 0 -41 43zM436 604q0 -82 101 -82q86 0 114.5 15.5t28.5 56.5q0 33 -4 57.5t-19 79.5l-16 76q-4 20 -12 47 t-16.5 51.5t-16.5 45t-14 28.5q-8 12 -27 12q-25 0 -45.5 -38t-30.5 -105q-10 -49 -18 -92q-10 -45 -14.5 -71t-7.5 -39t-3 -21.5v-20.5zM604 1485l2 26q0 23 1 36.5t1 29.5t1 39.5t1 64.5l-2 25v10q0 20 23 27q37 -2 82 -3t100 -3q66 0 82 -6.5t16 -34.5v-15q-2 -14 -2 -24 v-27q0 -47 6 -104q2 -10 3 -25q0 -41 -37 -41h-23h-45q-35 -2 -54.5 -2h-23.5l-69 -2h-25q-37 0 -37 29z" />
<glyph unicode="&#xc5;" horiz-adv-x="1116" d="M-2 66q0 10 1 14t5 26q4 16 8 36t6 40q2 10 6.5 36t14.5 67l12 75q2 18 4 32t4 24t5.5 20t7.5 25q14 45 24 98q2 12 3 20.5t3 18.5t5.5 22.5t7.5 32.5l16 74q6 23 12.5 49.5t14.5 54.5l8 32t8 30q10 47 19.5 90t19.5 82q10 35 15 55.5t12 61.5q8 55 17 91t25.5 56.5 t40 29.5t60.5 11q25 2 52.5 2h47.5l74 2h47q16 -4 22.5 -4h26.5l52 2q59 0 87.5 -20.5t49.5 -75.5q4 -12 6 -20.5t12 -45.5q2 -10 9.5 -34.5t19.5 -65.5q4 -16 7 -25.5t5 -19.5t5 -22.5t7 -34.5q2 -12 4.5 -19.5t4.5 -16.5t6 -23.5t12 -39.5q4 -12 6 -19t4 -15.5t3 -19.5 t5 -32l11 -51q12 -47 24 -137l15 -55q4 -16 7 -25.5t6 -21t6 -28t9 -44.5q2 -23 17 -70q2 -10 4 -24.5t6 -30.5q0 -6 6 -34t13.5 -58.5t13.5 -59t8 -37.5q10 -39 12 -47t2 -20q0 -31 -14 -53.5t-37 -30.5q-2 0 -15.5 -1t-32 -2t-36.5 -1h-33q-96 0 -110 6q-29 10 -41 37 l-1 3t-6.5 15.5t-13.5 40t-24 76.5q-6 14 -13.5 23.5t-25 13.5t-46 6t-75.5 2q-72 0 -119 -5t-75.5 -17.5t-43 -34t-20.5 -54.5q-12 -68 -23.5 -88t-33.5 -20h-17.5t-23.5 2h-66h-86q-29 0 -40 4t-28 18q-20 25 -20 46zM270 1612q0 86 73 131t210 45q68 0 117 -10.5 t90 -32.5q37 -20 60.5 -56t23.5 -71q0 -78 -78 -126t-203 -48q-135 0 -214 45t-79 123zM436 604q0 -82 101 -82q86 0 114.5 15.5t28.5 56.5q0 33 -4 57.5t-19 79.5l-16 76q-4 20 -12 47t-16.5 51.5t-16.5 45t-14 28.5q-8 12 -27 12q-25 0 -45.5 -38t-30.5 -105 q-10 -49 -18 -92q-10 -45 -14.5 -71t-7.5 -39t-3 -21.5v-20.5zM453 1620q0 -49 94 -49q49 0 77.5 13t28.5 38q0 23 -27.5 37t-74.5 14q-98 0 -98 -53z" />
<glyph unicode="&#xc6;" horiz-adv-x="1679" d="M-37 59q0 39 27 105q8 27 15 52.5t13 47.5q10 35 19.5 68t21.5 65l56 166l22 94q2 12 5 22.5t6.5 21t8.5 24.5t13 37q16 43 36.5 107.5t49.5 152.5q23 70 38 119t25 78q16 51 28.5 79.5t28 43t38 17.5t59.5 3q55 0 94 1t74 1t72 1t88 3q74 2 133 3t88 1h47.5t43 -1t55 -2 t87.5 -3h37h19.5t19.5 2q16 2 22.5 2h20.5h15h34h47h13q45 0 59 -24q4 -6 6 -31t2 -82l-2 -25l4 -65q0 -23 -16 -38t-39 -15h-84h-15.5t-27.5 -3q-14 -2 -25.5 -2h-21.5h-23.5t-23.5 2q-47 4 -78 5.5t-41 1.5q-70 0 -93.5 -26t-23.5 -103q0 -66 18.5 -89.5t67.5 -25.5l99 -2 q41 -4 90 -4h78q41 2 66.5 3t31.5 1q47 0 57 -55q0 -2 1 -26t2 -54.5t1 -62.5v-50q-8 -51 -73 -51h-37q-12 2 -20.5 2h-14.5l-96 -2l-47 2h-95l-59 2q-39 0 -56.5 -29.5t-17.5 -95.5q0 -76 17.5 -104.5t62.5 -28.5h29h20h19l119 -2q23 -2 42 -2h35q12 -2 23.5 -2h19.5h19h10 q53 6 76 4q45 -4 60.5 -15.5t17.5 -41.5q0 -25 -2 -33l4 -47q2 -10 2 -14.5v-18.5v-7t-2 -10v-14v-8t2 -16v-19q0 -23 -16.5 -37t-41.5 -16h-6l-53 4l-109 -4l-63 4q-18 -2 -33.5 -3t-32.5 -1h-17h-15.5t-20.5 1t-33 3q-16 2 -33.5 2h-52.5h-36t-32.5 -1t-51 -3t-89.5 -4 h-40q-39 0 -56.5 6t-32.5 27q-10 14 -17 29.5t-7 23.5l2 63q0 16 -9 31.5t-24 24.5q-12 8 -24.5 12t-34 6t-54 3t-88.5 1q-49 0 -79.5 -5t-50 -22.5t-33 -52.5t-29.5 -96q-16 -41 -68 -41h-8l-55 2l-41 -2q-25 2 -45.5 2h-36.5q-80 0 -80 53zM463 625q0 -27 16 -54 q14 -18 31.5 -24t56.5 -6q78 0 108 14t40 57q2 6 4 23.5t4 39t3 43t1 38.5q0 104 -2 168.5t-9 99.5t-20.5 46t-33.5 11q-18 0 -38 -16t-28 -39q-14 -37 -23.5 -63.5t-17.5 -42.5q-4 -12 -7 -21.5t-16 -48.5q-2 -10 -4 -16.5t-5 -17.5t-10 -28.5t-19 -50.5 q-16 -41 -22.5 -66.5t-8.5 -45.5z" />
<glyph unicode="&#xc7;" horiz-adv-x="847" d="M39 692q0 61 3 108.5t12 90.5t24.5 86t38.5 92q63 135 256 242q55 31 133 48t158 17q49 0 79.5 -4t47 -14t21.5 -29.5t5 -52.5v-31q-2 -18 -2 -30.5v-16.5v-6q2 -27 2 -46.5v-25.5q0 -23 -10 -39t-27 -16q-2 0 -25.5 4t-60.5 8q-8 2 -18 2q-29 0 -61.5 -8t-63.5 -22.5 t-57.5 -33t-42.5 -38.5q-6 -10 -19.5 -30.5t-30.5 -51.5q-39 -76 -39 -160q0 -53 7.5 -100t17.5 -82q57 -143 129 -205q12 -10 33.5 -19.5t46.5 -18.5t47.5 -14t38.5 -5h5t10.5 2t21.5 4t41 8h10q47 0 47 -53l-2 -68v-98q0 -96 -67 -96h-35q-31 -4 -31 -29q0 -10 5 -14 t40 -27q8 -6 15.5 -22.5t7.5 -30.5q0 -25 -39 -43.5t-95 -18.5q-86 0 -128 3.5t-58 9.5q-55 18 -55 53q0 12 11 26.5t22 14.5l53 -4q12 -2 20 15.5t8 45.5q0 33 -11 45.5t-54 30.5q-16 6 -26.5 10t-20.5 11.5t-25.5 19.5t-40.5 33q-10 8 -27.5 21.5t-39.5 33.5 q-53 43 -91 97.5t-73 146.5q-23 53 -32 118.5t-9 155.5z" />
<glyph unicode="&#xc8;" horiz-adv-x="1050" d="M96 682v31.5t2 50.5q2 23 2 40v32v16v17.5t-1 28.5t-3 48q2 49 4 76t3 41t1 20.5v16.5v17t-1 18.5t-2 29t-3 47.5v35q0 117 86 123l39 -2h99l110 -4l238 2h31.5t50.5 -2q16 -2 29.5 -2h21.5h28q14 2 24.5 2h18.5q31 0 44.5 -18.5t13.5 -63.5q0 -12 -3 -36.5t-6 -52.5 t-8.5 -52.5t-7.5 -32.5q-6 -16 -21.5 -23.5t-49.5 -7.5h-37.5t-38 1t-61 2t-107.5 5q-14 2 -28.5 2h-31.5q-104 0 -104 -75q0 -8 2 -44t4 -57q4 -33 29.5 -47t81.5 -14h43t37 2q29 2 48 2h25q2 0 9.5 -1t54.5 -5l37 2q10 2 37 2q61 0 81.5 -18.5t20.5 -71.5q0 -82 -1 -115 t-5 -49q-14 -51 -105 -51q-25 0 -61.5 1t-73.5 2t-69.5 3t-51.5 4q-53 6 -82 6q-61 0 -61 -92q0 -84 4 -116.5t17 -43.5q12 -10 54 -16t99 -6l47 4l144 -2q43 4 52 4h23q70 0 92.5 -21.5t22.5 -87.5q0 -115 -12.5 -151.5t-48.5 -36.5h-70t-46.5 1t-37.5 2t-45 3 q-37 -4 -57.5 -5t-34 -2t-23.5 -1h-24h-43.5t-46.5 4h-29h-35q-25 -2 -41 -2h-27h-16h-15t-25.5 1t-45.5 3h-20h-17h-41q-55 0 -69 39q-4 6 -6.5 33.5t-4.5 71.5t-3 100.5t-1 120.5l2 157zM283 1686q0 51 43 57l73 -2q2 0 12.5 1t26.5 3h17h8t20 -4h56q25 0 36 -15.5 t25 -74.5q16 -57 25.5 -105.5t9.5 -68.5q0 -27 -45 -27q-59 0 -93 1t-52.5 3t-26.5 6t-15 13q-6 4 -20 32q-2 8 -37 58q-4 6 -9 15t-13 24q-4 8 -9.5 16t-9.5 18q-23 37 -22 50z" />
<glyph unicode="&#xc9;" horiz-adv-x="1050" d="M96 682v31.5t2 50.5q2 23 2 40v32v16v17.5t-1 28.5t-3 48q2 49 4 76t3 41t1 20.5v16.5v17t-1 18.5t-2 29t-3 47.5v35q0 117 86 123l39 -2h99l110 -4l238 2h31.5t50.5 -2q16 -2 29.5 -2h21.5h28q14 2 24.5 2h18.5q31 0 44.5 -18.5t13.5 -63.5q0 -12 -3 -36.5t-6 -52.5 t-8.5 -52.5t-7.5 -32.5q-6 -16 -21.5 -23.5t-49.5 -7.5h-37.5t-38 1t-61 2t-107.5 5q-14 2 -28.5 2h-31.5q-104 0 -104 -75q0 -8 2 -44t4 -57q4 -33 29.5 -47t81.5 -14h43t37 2q29 2 48 2h25q2 0 9.5 -1t54.5 -5l37 2q10 2 37 2q61 0 81.5 -18.5t20.5 -71.5q0 -82 -1 -115 t-5 -49q-14 -51 -105 -51q-25 0 -61.5 1t-73.5 2t-69.5 3t-51.5 4q-53 6 -82 6q-61 0 -61 -92q0 -84 4 -116.5t17 -43.5q12 -10 54 -16t99 -6l47 4l144 -2q43 4 52 4h23q70 0 92.5 -21.5t22.5 -87.5q0 -115 -12.5 -151.5t-48.5 -36.5h-70t-46.5 1t-37.5 2t-45 3 q-37 -4 -57.5 -5t-34 -2t-23.5 -1h-24h-43.5t-46.5 4h-29h-35q-25 -2 -41 -2h-27h-16h-15t-25.5 1t-45.5 3h-20h-17h-41q-55 0 -69 39q-4 6 -6.5 33.5t-4.5 71.5t-3 100.5t-1 120.5l2 157zM418 1483q0 14 1 23.5t4 24.5t10 43t20 77q14 55 25 72.5t38 17.5h55q16 4 19.5 4 h7.5h16q18 -2 31.5 -3t22.5 -1h12t20 2h19q23 0 37 -15.5t14 -39.5q0 -14 -22 -52q-4 -10 -9.5 -18t-9.5 -16l-53 -84q-10 -18 -16.5 -29.5t-10.5 -17t-8 -8.5t-10 -5q-6 -4 -10.5 -5t-18.5 -2t-40.5 -1h-76.5q-41 0 -55 7t-12 26z" />
<glyph unicode="&#xca;" horiz-adv-x="1050" d="M96 682v31.5t2 50.5q2 23 2 40v32v16v17.5t-1 28.5t-3 48q2 49 4 76t3 41t1 20.5v16.5v17t-1 18.5t-2 29t-3 47.5v35q0 117 86 123l39 -2h99l110 -4l238 2h31.5t50.5 -2q16 -2 29.5 -2h21.5h28q14 2 24.5 2h18.5q31 0 44.5 -18.5t13.5 -63.5q0 -12 -3 -36.5t-6 -52.5 t-8.5 -52.5t-7.5 -32.5q-6 -16 -21.5 -23.5t-49.5 -7.5h-37.5t-38 1t-61 2t-107.5 5q-14 2 -28.5 2h-31.5q-104 0 -104 -75q0 -8 2 -44t4 -57q4 -33 29.5 -47t81.5 -14h43t37 2q29 2 48 2h25q2 0 9.5 -1t54.5 -5l37 2q10 2 37 2q61 0 81.5 -18.5t20.5 -71.5q0 -82 -1 -115 t-5 -49q-14 -51 -105 -51q-25 0 -61.5 1t-73.5 2t-69.5 3t-51.5 4q-53 6 -82 6q-61 0 -61 -92q0 -84 4 -116.5t17 -43.5q12 -10 54 -16t99 -6l47 4l144 -2q43 4 52 4h23q70 0 92.5 -21.5t22.5 -87.5q0 -115 -12.5 -151.5t-48.5 -36.5h-70t-46.5 1t-37.5 2t-45 3 q-37 -4 -57.5 -5t-34 -2t-23.5 -1h-24h-43.5t-46.5 4h-29h-35q-25 -2 -41 -2h-27h-16h-15t-25.5 1t-45.5 3h-20h-17h-41q-55 0 -69 39q-4 6 -6.5 33.5t-4.5 71.5t-3 100.5t-1 120.5l2 157zM242 1489q0 10 7 23.5t27 37.5l35 49q39 53 77 94.5t56 51.5q14 8 41 8h4.5h8.5 t19 -1t36 -3q29 -2 46 -4t28.5 -8t20.5 -18.5t26 -32.5q18 -29 33 -41q14 -20 32.5 -46t33.5 -49.5t25.5 -41t10.5 -21.5q0 -25 -25 -31h-22q-16 -2 -31.5 -2t-32.5 -2q-10 0 -20 2t-16.5 2h-14.5h-6q-16 -2 -26.5 -3t-12.5 -1q-10 0 -17 7t-26 32q-18 29 -45 29t-45 -29 q-16 -23 -22.5 -30t-16.5 -7h-15t-20 2q-6 2 -14 2h-16h-84q-39 0 -39 31z" />
<glyph unicode="&#xcb;" horiz-adv-x="1050" d="M96 682v31.5t2 50.5q2 23 2 40v32v16v17.5t-1 28.5t-3 48q2 49 4 76t3 41t1 20.5v16.5v17t-1 18.5t-2 29t-3 47.5v35q0 117 86 123l39 -2h99l110 -4l238 2h31.5t50.5 -2q16 -2 29.5 -2h21.5h28q14 2 24.5 2h18.5q31 0 44.5 -18.5t13.5 -63.5q0 -12 -3 -36.5t-6 -52.5 t-8.5 -52.5t-7.5 -32.5q-6 -16 -21.5 -23.5t-49.5 -7.5h-37.5t-38 1t-61 2t-107.5 5q-14 2 -28.5 2h-31.5q-104 0 -104 -75q0 -8 2 -44t4 -57q4 -33 29.5 -47t81.5 -14h43t37 2q29 2 48 2h25q2 0 9.5 -1t54.5 -5l37 2q10 2 37 2q61 0 81.5 -18.5t20.5 -71.5q0 -82 -1 -115 t-5 -49q-14 -51 -105 -51q-25 0 -61.5 1t-73.5 2t-69.5 3t-51.5 4q-53 6 -82 6q-61 0 -61 -92q0 -84 4 -116.5t17 -43.5q12 -10 54 -16t99 -6l47 4l144 -2q43 4 52 4h23q70 0 92.5 -21.5t22.5 -87.5q0 -115 -12.5 -151.5t-48.5 -36.5h-70t-46.5 1t-37.5 2t-45 3 q-37 -4 -57.5 -5t-34 -2t-23.5 -1h-24h-43.5t-46.5 4h-29h-35q-25 -2 -41 -2h-27h-16h-15t-25.5 1t-45.5 3h-20h-17h-41q-55 0 -69 39q-4 6 -6.5 33.5t-4.5 71.5t-3 100.5t-1 120.5l2 157zM168 1501v11.5t2 17.5l2 67q0 14 -1 36t-3 50v15q0 33 25 39l65 -2h6q4 0 8 1t11 1 q8 2 26 2h13.5t13.5 -2l31 -2l84 2q4 0 11 -6.5t11 -12.5q0 -2 1 -11t1 -31.5v-62.5v-102q0 -31 -6 -43t-20 -12l-140 2h-100q-41 0 -41 43zM571 1485l2 26q0 23 1 36.5t1 29.5t1.5 39.5t1.5 64.5l-3 25v10q0 20 23 27q37 -2 82 -3t100 -3q66 0 82.5 -6.5t16.5 -34.5v-15 q-2 -14 -2 -24v-27q0 -47 6 -104q2 -10 2 -25q0 -41 -37 -41h-23h-45q-35 -2 -54 -2h-24l-69 -2h-25q-37 0 -37 29z" />
<glyph unicode="&#xcc;" horiz-adv-x="548" d="M31 1686q0 51 43 57l73 -2q2 0 12.5 1t26.5 3h17h8t20 -4h56q25 0 36 -15.5t25 -74.5q16 -57 25.5 -105.5t9.5 -68.5q0 -27 -45 -27q-59 0 -93 1t-52.5 3t-26.5 6t-14 13q-6 4 -21 32q-2 8 -37 58q-4 6 -9 15t-13 24q-4 8 -9.5 16t-9.5 18q-23 37 -22 50zM102 1263.5 v16.5q0 35 25 62.5t57 27.5h4q2 0 4.5 -1t6.5 -1h12h18q23 2 60 2h73q84 0 84 -108l-4 -125v-50v-10q0 -4 -1 -10t-1 -12q-2 -10 -2 -19.5v-15.5v-11t1 -12.5t2 -20.5t3 -36l-2 -121v-157q-4 -39 -4 -46.5v-11.5q0 -6 1 -13t5 -44v-277l-2 -77v-14.5t2 -33.5q2 -16 2 -37.5 v-37.5q0 -74 -40 -74q-41 0 -85.5 1t-82 2t-63 2t-30.5 1q-37 12 -36 55v35t4 47l2 244l-2 186l2 179q-2 45 -3 71.5t-2 44t-1 30.5v34v54.5t2 53.5q2 29 2 49.5v30.5q0 23 -2 55.5t-7 73.5q-2 10 -2 18.5z" />
<glyph unicode="&#xcd;" horiz-adv-x="548" d="M102 1263.5v16.5q0 35 25 62.5t57 27.5h4q2 0 4.5 -1t6.5 -1h12h18q23 2 60 2h73q84 0 84 -108l-4 -125v-50v-10q0 -4 -1 -10t-1 -12q-2 -10 -2 -19.5v-15.5v-11t1 -12.5t2 -20.5t3 -36l-2 -121v-157q-4 -39 -4 -46.5v-11.5q0 -6 1 -13t5 -44v-277l-2 -77v-14.5t2 -33.5 q2 -16 2 -37.5v-37.5q0 -74 -40 -74q-41 0 -85.5 1t-82 2t-63 2t-30.5 1q-37 12 -36 55v35t4 47l2 244l-2 186l2 179q-2 45 -3 71.5t-2 44t-1 30.5v34v54.5t2 53.5q2 29 2 49.5v30.5q0 23 -2 55.5t-7 73.5q-2 10 -2 18.5zM168 1483q0 14 1 23.5t4 24.5t10 43t20 77 q14 55 25.5 72.5t37.5 17.5h56q16 4 19 4h7h17q18 -2 31.5 -3t21.5 -1h12t21 2h18q23 0 37 -15.5t14 -39.5q0 -14 -22 -52q-4 -10 -9.5 -18t-9.5 -16l-53 -84q-10 -18 -16.5 -29.5t-10.5 -17t-8 -8.5t-10 -5q-6 -4 -10 -5t-18.5 -2t-41 -1h-75.5q-41 0 -55.5 7t-12.5 26z " />
<glyph unicode="&#xce;" horiz-adv-x="548" d="M-8 1489q0 10 7 23.5t28 37.5l34 49q39 53 77 94.5t57 51.5q14 8 41 8h4h8t19.5 -1t35.5 -3q29 -2 46.5 -4t28.5 -8t20.5 -18.5t25.5 -32.5q18 -29 33 -41q14 -20 32.5 -46t34 -49.5t25.5 -41t10 -21.5q0 -25 -24 -31h-23q-16 -2 -31.5 -2t-31.5 -2q-10 0 -21 2 q-10 2 -16 2h-15h-6q-16 -2 -26.5 -3t-12.5 -1q-10 0 -17 7t-26 32q-18 29 -45 29t-45 -29q-16 -23 -22.5 -30t-16.5 -7h-15t-20 2q-6 2 -14 2h-16h-84q-39 0 -39 31zM102 1263.5v16.5q0 35 25 62.5t57 27.5h4q2 0 4.5 -1t6.5 -1h12h18q23 2 60 2h73q84 0 84 -108l-4 -125 v-50v-10q0 -4 -1 -10t-1 -12q-2 -10 -2 -19.5v-15.5v-11t1 -12.5t2 -20.5t3 -36l-2 -121v-157q-4 -39 -4 -46.5v-11.5q0 -6 1 -13t5 -44v-277l-2 -77v-14.5t2 -33.5q2 -16 2 -37.5v-37.5q0 -74 -40 -74q-41 0 -85.5 1t-82 2t-63 2t-30.5 1q-37 12 -36 55v35t4 47l2 244 l-2 186l2 179q-2 45 -3 71.5t-2 44t-1 30.5v34v54.5t2 53.5q2 29 2 49.5v30.5q0 23 -2 55.5t-7 73.5q-2 10 -2 18.5z" />
<glyph unicode="&#xcf;" horiz-adv-x="548" d="M-35 1501v29q2 10 2 29.5v39.5v44.5t-2 39.5v15q0 33 23 39l57 -2l25 2q6 2 22 2t25 -2q6 0 10 -1t8 -1h8l76 2q4 0 10.5 -6.5t10.5 -12.5q0 -2 1 -11t1 -32.5v-62.5v-101q0 -31 -5.5 -43t-19.5 -12l-125 2h-90q-37 0 -37 43zM102 1263.5v16.5q0 35 25 62.5t57 27.5h4 q2 0 4.5 -1t6.5 -1h12h18q23 2 60 2h73q84 0 84 -108l-4 -125v-50v-10q0 -4 -1 -10t-1 -12q-2 -10 -2 -19.5v-15.5v-11t1 -12.5t2 -20.5t3 -36l-2 -121v-157q-4 -39 -4 -46.5v-11.5q0 -6 1 -13t5 -44v-277l-2 -77v-14.5t2 -33.5q2 -16 2 -37.5v-37.5q0 -74 -40 -74 q-41 0 -85.5 1t-82 2t-63 2t-30.5 1q-37 12 -36 55v35t4 47l2 244l-2 186l2 179q-2 45 -3 71.5t-2 44t-1 30.5v34v54.5t2 53.5q2 29 2 49.5v30.5q0 23 -2 55.5t-7 73.5q-2 10 -2 18.5zM305 1485q0 16 2 26l2 172v7.5t-2 15.5v10q0 20 21 27q63 -2 164 -6q61 0 75.5 -6.5 t14.5 -34.5v-15q-2 -12 -2 -24v-27q0 -23 1 -49.5t3 -54.5q2 -10 2 -25q0 -41 -33 -41h-21h-40q-31 -2 -48.5 -2h-21.5l-62 -2h-22q-33 0 -33 29z" />
<glyph unicode="&#xd0;" horiz-adv-x="1345" d="M-25 641q0 6 1 12t8 41q2 6 2 23v16q-2 16 -3 30.5t-1 18.5q0 18 15 30.5t40 12.5l39 -2q12 -2 23.5 -3t21.5 -1q33 0 33 19l-7 88v14l3 64l2 67v53v45.5t-2 51.5v43q0 59 27.5 81.5t94.5 22.5h13.5t23.5 -2q6 0 33 -1t59.5 -2t63.5 -1h45l129 2q33 0 76 -7t88 -18.5 t88 -27t78 -31.5q53 -29 113.5 -84t107.5 -121q14 -18 29.5 -48t30 -63.5t26.5 -67.5t18 -60q2 -10 4 -37t4.5 -59.5t3.5 -67.5t1 -64q0 -35 -8.5 -78t-21.5 -86t-30.5 -85t-36.5 -72q-45 -72 -110.5 -131.5t-124.5 -85.5l-121 -43q-12 -4 -44 -9.5t-68.5 -10.5t-71.5 -8 t-54 -3h-18h-26.5t-52.5 1t-97 1q-31 2 -61.5 2h-43.5h-45q-45 0 -62 2t-30 10q-37 20 -37 82l2 62l-2 75l4 119v34.5t-2 27.5q-2 6 -2 16v6l7 123q0 25 -35 25h-54h-22q-63 0 -64 59zM469 526l4 -51v-78q0 -51 48 -73.5t153 -22.5q84 0 153.5 34t102.5 87q29 47 46 111.5 t17 121.5q0 84 -26.5 153t-74.5 118t-114.5 76.5t-148.5 27.5q-47 0 -77 -7t-47.5 -26.5t-24.5 -52.5t-7 -84q0 -20 9.5 -26.5t41.5 -8.5q4 -2 13.5 -2t23.5 -2h23h20q23 2 37 2h21q53 0 71.5 -13t18.5 -48v-13.5t-2 -15.5t-2 -16l4 -80q0 -8 -8.5 -21.5t-16.5 -17.5 q-18 -12 -65 -12l-72 2h-51h-41q-29 0 -29 -41v-21z" />
<glyph unicode="&#xd1;" horiz-adv-x="1323" d="M96 1307q0 33 11.5 51t31.5 16l23 -2l51 2h57h66q16 0 37.5 -2t38.5 -6q16 -4 28.5 -15.5t36.5 -52.5l51 -79l70 -107q14 -25 29.5 -47.5t33 -50t40 -63.5t55.5 -87q14 -18 22 -37q18 -39 29.5 -62.5t20 -38.5t14.5 -27.5t14 -28.5q14 -27 25 -27q12 0 12 16v82t-2 50 q-2 10 -2 24v8t4 27v18v16.5t-2 41.5v14l4 98q-2 39 -3 60.5t-2 34t-1 19.5v19v57.5t2 45.5v22v19q-2 6 -2 11v7q0 14 8 24.5t18 10.5l76 -4h10q12 0 23 2h18h16.5t31.5 -2h16h18h25q35 0 55.5 -19.5t20.5 -52.5q0 -10 -1 -32.5t-3 -51.5l-2 -65q-2 -61 -2 -104.5v-63.5 l-9 -275l2 -145q0 -10 -1 -44t-3 -85q-2 -25 -2 -45.5v-40.5v-24.5t2 -31t4 -55t9 -98.5q2 -16 2 -32.5v-35.5q0 -72 -56 -71q-16 0 -26 2l-54 2h-6h-78q-39 0 -56 11t-46 56q-53 84 -90 140.5t-53 87.5q-10 18 -25.5 39.5t-32.5 46.5q-8 12 -20 31.5t-29 46.5 q-12 20 -17 27t-22 32q-23 33 -36 52.5t-20 31.5t-11 20.5t-11 22.5q-27 55 -43 78.5t-32 23.5q-18 0 -25.5 -24.5t-7.5 -83.5v-39q2 -41 3 -69.5t1 -43.5v-5t-1 -10t-2 -22.5t-3 -44.5q2 -20 3 -31.5t2 -22.5t2 -26.5t1 -39.5q2 -68 3 -111t5 -61q2 -23 2 -28v-18 q0 -41 -29.5 -55t-105.5 -10q-29 2 -44 3t-23.5 1h-10.5h-4h-8q-25 -2 -42 -3t-23 -1q-16 0 -30 14.5t-14 32.5q0 2 1.5 12.5t3.5 26.5v16v13.5t-2 27.5v64l4 252l-4 151l4 172q-4 82 -7.5 161t-3.5 126zM315 1522q0 213 158 213q31 0 68 -5.5t65 -15.5q59 -18 100.5 -28.5 t53.5 -10.5t16 6.5t15 42.5q4 14 43 15h14t16 -2q6 0 12.5 -1t10.5 -1h10l76 2q33 0 33 -58q0 -119 -38 -172t-122 -53q-16 0 -32.5 2t-43.5 7t-64.5 15.5t-95.5 26.5q-25 8 -49 8q-16 0 -21 -6t-16 -41q-6 -14 -47 -14l-47 2l-72 -2q-27 0 -35 14.5t-8 55.5z" />
<glyph unicode="&#xd2;" horiz-adv-x="1363" d="M39 715q4 72 26.5 154.5t59.5 148.5q53 100 107.5 164.5t123.5 111.5q20 12 69.5 32t102.5 36q25 8 72 14t80 6q20 0 49 -3t59.5 -8t58 -10t44.5 -11q18 -8 45 -20.5t53.5 -27t49 -28.5t32.5 -23q14 -12 38 -35.5t46.5 -48t40.5 -47t25 -35.5q8 -12 11 -20t17 -43l27 -55 q12 -25 19.5 -45.5t12.5 -44t8 -55t5 -77.5v-28q2 -23 3 -42.5t1 -39.5q0 -57 -17.5 -137t-43.5 -146q-16 -43 -43 -85t-57.5 -78.5t-63.5 -64.5t-64 -42q-4 -2 -21.5 -12.5t-49.5 -26.5q-20 -10 -53 -21.5t-69 -20.5t-72 -14t-62 -5q-82 0 -135.5 8t-108.5 30 q-45 16 -72.5 29.5t-42.5 24.5q-49 35 -95 73.5t-67 65.5q-35 45 -66.5 99.5t-47.5 101.5q-4 10 -10.5 52t-12.5 91t-9 94t-3 64zM354 696q0 -72 17.5 -140.5t50.5 -121.5q41 -66 112.5 -102.5t161.5 -36.5q61 0 118.5 29.5t107.5 85.5q8 10 26.5 40.5t24.5 45.5 q6 12 12 34.5t11 46t8.5 46t3.5 34.5q0 100 -17.5 162t-60.5 111q-45 51 -73 72.5t-69 37.5q-23 8 -31.5 10.5t-35.5 2.5q-6 2 -11 2t-32 2q-10 0 -28.5 -3t-40 -8.5t-40 -10.5t-24.5 -7q-86 -45 -138.5 -136t-52.5 -196zM436 1686q0 51 43 57l74 -2q2 0 12 1t27 3h16h8.5 t20.5 -4h55q25 0 36 -15.5t26 -74.5q16 -57 25 -105.5t9 -68.5q0 -27 -45 -27q-59 0 -93 1t-52 3t-26.5 6t-14.5 13q-6 4 -20 32q-2 8 -37 58q-4 6 -9.5 15t-13.5 24q-4 8 -9 16t-9 18q-23 37 -23 50z" />
<glyph unicode="&#xd3;" horiz-adv-x="1363" d="M39 715q4 72 26.5 154.5t59.5 148.5q53 100 107.5 164.5t123.5 111.5q20 12 69.5 32t102.5 36q25 8 72 14t80 6q20 0 49 -3t59.5 -8t58 -10t44.5 -11q18 -8 45 -20.5t53.5 -27t49 -28.5t32.5 -23q14 -12 38 -35.5t46.5 -48t40.5 -47t25 -35.5q8 -12 11 -20t17 -43l27 -55 q12 -25 19.5 -45.5t12.5 -44t8 -55t5 -77.5v-28q2 -23 3 -42.5t1 -39.5q0 -57 -17.5 -137t-43.5 -146q-16 -43 -43 -85t-57.5 -78.5t-63.5 -64.5t-64 -42q-4 -2 -21.5 -12.5t-49.5 -26.5q-20 -10 -53 -21.5t-69 -20.5t-72 -14t-62 -5q-82 0 -135.5 8t-108.5 30 q-45 16 -72.5 29.5t-42.5 24.5q-49 35 -95 73.5t-67 65.5q-35 45 -66.5 99.5t-47.5 101.5q-4 10 -10.5 52t-12.5 91t-9 94t-3 64zM354 696q0 -72 17.5 -140.5t50.5 -121.5q41 -66 112.5 -102.5t161.5 -36.5q61 0 118.5 29.5t107.5 85.5q8 10 26.5 40.5t24.5 45.5 q6 12 12 34.5t11 46t8.5 46t3.5 34.5q0 100 -17.5 162t-60.5 111q-45 51 -73 72.5t-69 37.5q-23 8 -31.5 10.5t-35.5 2.5q-6 2 -11 2t-32 2q-10 0 -28.5 -3t-40 -8.5t-40 -10.5t-24.5 -7q-86 -45 -138.5 -136t-52.5 -196zM573 1483q0 14 1 23.5t4.5 24.5t10.5 43t19 77 q14 55 25.5 72.5t38.5 17.5h55q16 4 19.5 4h7.5h16q18 -2 31.5 -3t21.5 -1h12.5t20.5 2h18q23 0 37.5 -15.5t14.5 -39.5q0 -14 -23 -52q-4 -10 -9 -18t-9 -16l-54 -84q-10 -18 -16 -29.5t-10 -17t-8 -8.5t-11 -5q-6 -4 -10 -5t-18.5 -2t-41 -1h-75.5q-41 0 -55.5 7t-12.5 26 z" />
<glyph unicode="&#xd4;" horiz-adv-x="1363" d="M39 715q4 72 26.5 154.5t59.5 148.5q53 100 107.5 164.5t123.5 111.5q20 12 69.5 32t102.5 36q25 8 72 14t80 6q20 0 49 -3t59.5 -8t58 -10t44.5 -11q18 -8 45 -20.5t53.5 -27t49 -28.5t32.5 -23q14 -12 38 -35.5t46.5 -48t40.5 -47t25 -35.5q8 -12 11 -20t17 -43l27 -55 q12 -25 19.5 -45.5t12.5 -44t8 -55t5 -77.5v-28q2 -23 3 -42.5t1 -39.5q0 -57 -17.5 -137t-43.5 -146q-16 -43 -43 -85t-57.5 -78.5t-63.5 -64.5t-64 -42q-4 -2 -21.5 -12.5t-49.5 -26.5q-20 -10 -53 -21.5t-69 -20.5t-72 -14t-62 -5q-82 0 -135.5 8t-108.5 30 q-45 16 -72.5 29.5t-42.5 24.5q-49 35 -95 73.5t-67 65.5q-35 45 -66.5 99.5t-47.5 101.5q-4 10 -10.5 52t-12.5 91t-9 94t-3 64zM354 696q0 -72 17.5 -140.5t50.5 -121.5q41 -66 112.5 -102.5t161.5 -36.5q61 0 118.5 29.5t107.5 85.5q8 10 26.5 40.5t24.5 45.5 q6 12 12 34.5t11 46t8.5 46t3.5 34.5q0 100 -17.5 162t-60.5 111q-45 51 -73 72.5t-69 37.5q-23 8 -31.5 10.5t-35.5 2.5q-6 2 -11 2t-32 2q-10 0 -28.5 -3t-40 -8.5t-40 -10.5t-24.5 -7q-86 -45 -138.5 -136t-52.5 -196zM397 1489q0 10 7.5 23.5t27.5 37.5l35 49 q39 53 77 94.5t56 51.5q14 8 41 8h4h8t19.5 -1t36.5 -3q29 -2 46 -4t28.5 -8t20.5 -18.5t25 -32.5q18 -29 33 -41q14 -20 32.5 -46t34 -49.5t26 -41t10.5 -21.5q0 -25 -25 -31h-22q-16 -2 -32 -2t-32 -2q-10 0 -20 2t-16.5 2h-14.5h-6q-16 -2 -26.5 -3t-12.5 -1 q-10 0 -17.5 7t-25.5 32q-18 29 -45 29t-45 -29q-16 -23 -22.5 -30t-16.5 -7h-15.5t-19.5 2q-6 2 -14.5 2h-16.5h-84q-39 0 -39 31z" />
<glyph unicode="&#xd5;" horiz-adv-x="1363" d="M39 715q4 72 26.5 154.5t59.5 148.5q53 100 107.5 164.5t123.5 111.5q20 12 69.5 32t102.5 36q25 8 72 14t80 6q20 0 49 -3t59.5 -8t58 -10t44.5 -11q18 -8 45 -20.5t53.5 -27t49 -28.5t32.5 -23q14 -12 38 -35.5t46.5 -48t40.5 -47t25 -35.5q8 -12 11 -20t17 -43l27 -55 q12 -25 19.5 -45.5t12.5 -44t8 -55t5 -77.5v-28q2 -23 3 -42.5t1 -39.5q0 -57 -17.5 -137t-43.5 -146q-16 -43 -43 -85t-57.5 -78.5t-63.5 -64.5t-64 -42q-4 -2 -21.5 -12.5t-49.5 -26.5q-20 -10 -53 -21.5t-69 -20.5t-72 -14t-62 -5q-82 0 -135.5 8t-108.5 30 q-45 16 -72.5 29.5t-42.5 24.5q-49 35 -95 73.5t-67 65.5q-35 45 -66.5 99.5t-47.5 101.5q-4 10 -10.5 52t-12.5 91t-9 94t-3 64zM336 1522q0 213 158 213q31 0 67.5 -5.5t65.5 -15.5q59 -18 100 -28.5t53 -10.5t16.5 6.5t14.5 42.5q4 14 43 15h14.5t16.5 -2q6 0 12 -1 t10 -1h11l75 2q33 0 33 -58q0 -119 -38 -172t-122 -53q-16 0 -32.5 2t-43 7t-64.5 15.5t-95 26.5q-25 8 -49 8q-16 0 -21.5 -6t-15.5 -41q-6 -14 -47 -14l-47 2l-72 -2q-27 0 -35 14.5t-8 55.5zM354 696q0 -72 17.5 -140.5t50.5 -121.5q41 -66 112.5 -102.5t161.5 -36.5 q61 0 118.5 29.5t107.5 85.5q8 10 26.5 40.5t24.5 45.5q6 12 12 34.5t11 46t8.5 46t3.5 34.5q0 100 -17.5 162t-60.5 111q-45 51 -73 72.5t-69 37.5q-23 8 -31.5 10.5t-35.5 2.5q-6 2 -11 2t-32 2q-10 0 -28.5 -3t-40 -8.5t-40 -10.5t-24.5 -7q-86 -45 -138.5 -136 t-52.5 -196z" />
<glyph unicode="&#xd6;" horiz-adv-x="1363" d="M39 715q4 72 26.5 154.5t59.5 148.5q53 100 107.5 164.5t123.5 111.5q20 12 69.5 32t102.5 36q25 8 72 14t80 6q20 0 49 -3t59.5 -8t58 -10t44.5 -11q18 -8 45 -20.5t53.5 -27t49 -28.5t32.5 -23q14 -12 38 -35.5t46.5 -48t40.5 -47t25 -35.5q8 -12 11 -20t17 -43l27 -55 q12 -25 19.5 -45.5t12.5 -44t8 -55t5 -77.5v-28q2 -23 3 -42.5t1 -39.5q0 -57 -17.5 -137t-43.5 -146q-16 -43 -43 -85t-57.5 -78.5t-63.5 -64.5t-64 -42q-4 -2 -21.5 -12.5t-49.5 -26.5q-20 -10 -53 -21.5t-69 -20.5t-72 -14t-62 -5q-82 0 -135.5 8t-108.5 30 q-45 16 -72.5 29.5t-42.5 24.5q-49 35 -95 73.5t-67 65.5q-35 45 -66.5 99.5t-47.5 101.5q-4 10 -10.5 52t-12.5 91t-9 94t-3 64zM322 1501v11.5t2 17.5l2 67q0 14 -1 36t-3 50v15q0 33 24 39l66 -2h6q4 0 8 1t10 1q8 2 27 2h13t13 -2l31 -2l84 2q4 0 11.5 -6.5t11.5 -12.5 q0 -2 1 -11t1 -31.5v-62.5v-102q0 -31 -6.5 -43t-20.5 -12l-139 2h-101q-41 0 -40 43zM354 696q0 -72 17.5 -140.5t50.5 -121.5q41 -66 112.5 -102.5t161.5 -36.5q61 0 118.5 29.5t107.5 85.5q8 10 26.5 40.5t24.5 45.5q6 12 12 34.5t11 46t8.5 46t3.5 34.5q0 100 -17.5 162 t-60.5 111q-45 51 -73 72.5t-69 37.5q-23 8 -31.5 10.5t-35.5 2.5q-6 2 -11 2t-32 2q-10 0 -28.5 -3t-40 -8.5t-40 -10.5t-24.5 -7q-86 -45 -138.5 -136t-52.5 -196zM725 1485l2 26q0 23 1 36.5t1 29.5t1 39.5t1 64.5l-2 25v10q0 20 23 27q37 -2 82 -3t100 -3q66 0 82 -6.5 t16 -34.5v-15q-2 -14 -2 -24v-27q0 -47 6 -104q2 -10 2 -25q0 -41 -37 -41h-22h-45q-35 -2 -54.5 -2h-23.5l-70 -2h-24q-37 0 -37 29z" />
<glyph unicode="&#xd7;" d="M131 893q0 16 12.5 31.5t42.5 42.5q16 12 25.5 22t19.5 21q18 25 28.5 32t25.5 7q8 0 14 -1t14.5 -7.5t21.5 -18.5t36 -33q16 -16 20 -19t12 -12q8 -8 13.5 -12t10.5 -10t11 -13.5t17 -21.5q10 -16 26.5 -25.5t26.5 -9.5q16 0 41 29l37 37q10 10 20 17t23 16l12 12 q35 41 52.5 55.5t33.5 14.5q10 0 18.5 -2.5t19.5 -10.5t26.5 -24.5t42.5 -42.5l12 -13q33 -31 33 -49q0 -16 -8.5 -27.5t-36.5 -39.5q-45 -43 -70 -66.5t-29 -28.5q-39 -33 -39 -55q0 -14 38 -56t134 -136q16 -16 17 -35q0 -16 -12.5 -31.5t-47.5 -42.5q-12 -10 -20 -17.5 t-17 -17.5q-25 -29 -34 -36t-21 -7q-18 0 -58 32t-81 79q-23 27 -37 41t-22.5 21t-14.5 9.5t-14 2.5q-10 0 -16.5 -5.5t-34.5 -33.5q-10 -10 -41 -35q-14 -12 -33 -33q-37 -43 -54.5 -57.5t-33.5 -14.5q-4 0 -10.5 3.5t-18.5 12.5t-31.5 27.5t-50.5 47.5q-20 20 -26 30 t-6 23q0 14 8 26.5t37 40.5q27 27 49 56q16 18 23 26t20 19q23 18 30 27.5t7 19.5q0 16 -15 31q-18 16 -27.5 25t-15.5 15.5t-10 11.5t-10 13q-10 14 -27.5 30.5t-30.5 26.5q-20 18 -31.5 27.5t-17.5 16t-7 11.5t-1 11z" />
<glyph unicode="&#xd8;" horiz-adv-x="1359" d="M39 711q0 33 8 78t21.5 91t30 88t34.5 72q16 25 27.5 43.5t19.5 30.5q8 14 17 27q37 45 66.5 75.5t57 52t57.5 37t66 29.5q8 2 20.5 7.5t31.5 13.5q10 4 32.5 9t49 9t52 7t44.5 3q14 0 38.5 -2t53.5 -6t56.5 -9t45.5 -11q8 -2 15.5 -4t23 -8.5t43 -19.5t76.5 -38 q8 -4 14 -4q10 0 34 25.5t56 72.5q8 12 27 13q8 0 18.5 -6.5t26.5 -22.5l12 -10q25 -18 25 -31q0 -14 -10 -28.5t-39 -47.5q-16 -18 -29.5 -36.5t-13.5 -28.5q0 -2 1 -3t5 -7.5t13.5 -17.5t27.5 -32q25 -31 47 -80q2 -6 12.5 -26.5t26.5 -57.5q43 -92 43 -319 q0 -72 -21.5 -160t-56.5 -160q-39 -84 -97 -145t-128 -96l-14 -8l-41 -23q-23 -12 -57 -23.5t-71.5 -20.5t-74.5 -14t-68 -5q-61 0 -114.5 10t-118.5 33q-84 31 -92 36q-39 25 -45 25q-10 0 -27 -22l-18 -21l-19 -18q-23 -31 -30 -38t-17 -7q-8 0 -17.5 5t-31.5 21 q-33 20 -33 51q0 14 12 27q10 10 22.5 23.5t29.5 33.5q16 18 19 23.5t3 9.5q0 6 -27 39q-23 25 -53.5 74t-46.5 90q-25 53 -38 140t-13 192zM342 705q-2 -31 6 -75t19.5 -84t26 -68.5t24.5 -28.5q6 0 12 7t35 48q12 16 24.5 32.5t22.5 28.5q18 23 27.5 36t17.5 23.5 t14.5 19.5t18.5 26q6 10 19.5 26.5l31.5 38.5q4 6 23.5 33t48.5 68q4 6 10 13t12 17q47 53 90 113q14 16 18.5 24.5t4.5 14.5q0 10 -17.5 20.5t-44 17.5t-61.5 12t-68 5q-72 0 -136 -37t-111 -102q-33 -47 -48.5 -99.5t-19.5 -129.5zM506 340q2 -8 19.5 -17.5t44 -16.5 t58 -12t60.5 -5q143 0 244 112q49 57 69.5 127t20.5 177q0 33 -7 70.5t-19.5 69.5t-27 52.5t-26.5 20.5q-4 0 -8 -4.5t-21 -28.5q-4 -6 -12 -17.5t-17.5 -24t-18.5 -23.5t-11 -13q-33 -39 -59 -78q-6 -8 -9.5 -13t-9.5 -12.5t-15 -19.5t-26 -33q-8 -10 -13 -16t-10 -13.5 t-11.5 -16.5t-18.5 -27q-10 -10 -21.5 -25.5t-27.5 -36.5q-16 -18 -31 -43l-9 -12t-20 -23q-4 -6 -11 -16t-17 -27q-10 -16 -21 -26q-14 -20 -16 -23.5t-2 -5.5z" />
<glyph unicode="&#xd9;" horiz-adv-x="1294" d="M76 1115v28v55q2 18 2 31.5v17.5v37q0 86 61 86h17.5t27.5 -2h17h18t53 4h25q78 0 102.5 -10t24.5 -45q0 -14 -1 -31.5t-3 -40.5q-4 -20 -4 -36.5v-32.5v-5l2 -200l-4 -148q0 -94 1 -155.5t2 -104.5t5 -72.5t10 -60.5q31 -150 221 -149q72 0 130.5 34.5t76.5 87.5 q2 8 5 32t6 54.5t4.5 64.5t1.5 64l2 132v15t1 23.5t2 47t3 88.5l-2 63l-2 137v78q-2 20 -2 34.5v25.5q0 59 24.5 83.5t81.5 24.5h115h39q27 0 42 -5t23 -22.5t11.5 -49t3.5 -85.5v-11t-2 -26q-2 -16 -2.5 -33.5t-0.5 -39.5l3 -148l-9 -413q-2 -10 -2 -17.5v-9.5v-86 q0 -6 -1 -14.5t-7 -49.5q-6 -47 -11 -74.5t-9 -37.5q-23 -59 -59 -105.5t-81 -72.5q-152 -88 -346 -88q-287 0 -401 63q-86 45 -136.5 119t-60.5 166q-8 72 -12 111.5t-4 45.5v10.5v12.5t1 24.5t3 45.5v30v27q-2 51 -2 85v42l2 248q-2 31 -3 48t-2 30.5t-1 24.5zM403 1686 q0 51 43 57l74 -2q2 0 12.5 1t26.5 3h16h8.5t20.5 -4h55q25 0 36.5 -15.5t25.5 -74.5q16 -57 25.5 -105.5t9.5 -68.5q0 -27 -45 -27q-59 0 -93 1t-52.5 3t-27 6t-14.5 13q-6 4 -20 32q-2 8 -37 58q-4 6 -9 15t-14 24q-4 8 -9 16t-9 18q-23 37 -23 50z" />
<glyph unicode="&#xda;" horiz-adv-x="1294" d="M76 1115v28v55q2 18 2 31.5v17.5v37q0 86 61 86h17.5t27.5 -2h17h18t53 4h25q78 0 102.5 -10t24.5 -45q0 -14 -1 -31.5t-3 -40.5q-4 -20 -4 -36.5v-32.5v-5l2 -200l-4 -148q0 -94 1 -155.5t2 -104.5t5 -72.5t10 -60.5q31 -150 221 -149q72 0 130.5 34.5t76.5 87.5 q2 8 5 32t6 54.5t4.5 64.5t1.5 64l2 132v15t1 23.5t2 47t3 88.5l-2 63l-2 137v78q-2 20 -2 34.5v25.5q0 59 24.5 83.5t81.5 24.5h115h39q27 0 42 -5t23 -22.5t11.5 -49t3.5 -85.5v-11t-2 -26q-2 -16 -2.5 -33.5t-0.5 -39.5l3 -148l-9 -413q-2 -10 -2 -17.5v-9.5v-86 q0 -6 -1 -14.5t-7 -49.5q-6 -47 -11 -74.5t-9 -37.5q-23 -59 -59 -105.5t-81 -72.5q-152 -88 -346 -88q-287 0 -401 63q-86 45 -136.5 119t-60.5 166q-8 72 -12 111.5t-4 45.5v10.5v12.5t1 24.5t3 45.5v30v27q-2 51 -2 85v42l2 248q-2 31 -3 48t-2 30.5t-1 24.5zM541 1483 q0 14 1 23.5t4 24.5t10 43t19 77q14 55 25.5 72.5t38.5 17.5h55q16 4 19.5 4h7.5h16q18 -2 31.5 -3t22.5 -1h12t20 2h19q23 0 37 -15.5t14 -39.5q0 -14 -23 -52q-4 -10 -9 -18t-9 -16l-53 -84q-10 -18 -16.5 -29.5t-10.5 -17t-8 -8.5t-10 -5q-6 -4 -10.5 -5t-18.5 -2t-41 -1 h-76q-41 0 -55 7t-12 26z" />
<glyph unicode="&#xdb;" horiz-adv-x="1294" d="M76 1115v28v55q2 18 2 31.5v17.5v37q0 86 61 86h17.5t27.5 -2h17h18t53 4h25q78 0 102.5 -10t24.5 -45q0 -14 -1 -31.5t-3 -40.5q-4 -20 -4 -36.5v-32.5v-5l2 -200l-4 -148q0 -94 1 -155.5t2 -104.5t5 -72.5t10 -60.5q31 -150 221 -149q72 0 130.5 34.5t76.5 87.5 q2 8 5 32t6 54.5t4.5 64.5t1.5 64l2 132v15t1 23.5t2 47t3 88.5l-2 63l-2 137v78q-2 20 -2 34.5v25.5q0 59 24.5 83.5t81.5 24.5h115h39q27 0 42 -5t23 -22.5t11.5 -49t3.5 -85.5v-11t-2 -26q-2 -16 -2.5 -33.5t-0.5 -39.5l3 -148l-9 -413q-2 -10 -2 -17.5v-9.5v-86 q0 -6 -1 -14.5t-7 -49.5q-6 -47 -11 -74.5t-9 -37.5q-23 -59 -59 -105.5t-81 -72.5q-152 -88 -346 -88q-287 0 -401 63q-86 45 -136.5 119t-60.5 166q-8 72 -12 111.5t-4 45.5v10.5v12.5t1 24.5t3 45.5v30v27q-2 51 -2 85v42l2 248q-2 31 -3 48t-2 30.5t-1 24.5zM365 1489 q0 10 7 23.5t27 37.5l35 49q39 53 77 94.5t56 51.5q14 8 41 8h4h8.5t19.5 -1t36 -3q29 -2 46 -4t28.5 -8t20.5 -18.5t26 -32.5q18 -29 32 -41q14 -20 33 -46t34 -49.5t25.5 -41t10.5 -21.5q0 -25 -25 -31h-22q-16 -2 -31.5 -2t-32.5 -2q-10 0 -20 2t-16.5 2h-14.5h-6 q-16 -2 -26.5 -3t-12.5 -1q-10 0 -17.5 7t-25.5 32q-18 29 -45 29t-45 -29q-16 -23 -22.5 -30t-16.5 -7h-15.5t-19.5 2q-6 2 -14 2h-17h-84q-39 0 -38 31z" />
<glyph unicode="&#xdc;" horiz-adv-x="1294" d="M76 1115v28v55q2 18 2 31.5v17.5v37q0 86 61 86h17.5t27.5 -2h17h18t53 4h25q78 0 102.5 -10t24.5 -45q0 -14 -1 -31.5t-3 -40.5q-4 -20 -4 -36.5v-32.5v-5l2 -200l-4 -148q0 -94 1 -155.5t2 -104.5t5 -72.5t10 -60.5q31 -150 221 -149q72 0 130.5 34.5t76.5 87.5 q2 8 5 32t6 54.5t4.5 64.5t1.5 64l2 132v15t1 23.5t2 47t3 88.5l-2 63l-2 137v78q-2 20 -2 34.5v25.5q0 59 24.5 83.5t81.5 24.5h115h39q27 0 42 -5t23 -22.5t11.5 -49t3.5 -85.5v-11t-2 -26q-2 -16 -2.5 -33.5t-0.5 -39.5l3 -148l-9 -413q-2 -10 -2 -17.5v-9.5v-86 q0 -6 -1 -14.5t-7 -49.5q-6 -47 -11 -74.5t-9 -37.5q-23 -59 -59 -105.5t-81 -72.5q-152 -88 -346 -88q-287 0 -401 63q-86 45 -136.5 119t-60.5 166q-8 72 -12 111.5t-4 45.5v10.5v12.5t1 24.5t3 45.5v30v27q-2 51 -2 85v42l2 248q-2 31 -3 48t-2 30.5t-1 24.5zM289 1501 v11.5t2 17.5l2 67q0 14 -1 36t-3 50v15q0 33 24 39l66 -2h6q4 0 8 1t10 1q8 2 27 2h13.5t13.5 -2l30 -2l84 2q4 0 11.5 -6.5t11.5 -12.5q0 -2 1 -11t1 -31.5v-62.5v-102q0 -31 -6 -43t-21 -12l-139 2h-100q-41 0 -41 43zM692 1485l2 26q0 23 1 36.5t1 29.5t1 39.5t1 64.5 l-2 25v10q0 20 23 27q37 -2 82 -3t100 -3q66 0 82 -6.5t16 -34.5v-15q-2 -14 -2 -24v-27q0 -47 7 -104q2 -10 2 -25q0 -41 -37 -41h-23h-45q-35 -2 -54.5 -2h-23.5l-69 -2h-25q-37 0 -37 29z" />
<glyph unicode="&#xdd;" horiz-adv-x="1126" d="M-20 1325q-4 51 65 51h127h57q59 0 81 -10t36 -47q14 -33 21.5 -51.5t12.5 -30.5t10 -20.5t11 -22.5q16 -39 38 -85t44 -103q8 -23 14.5 -35.5t10.5 -22.5t9 -21.5t15 -29.5q14 -31 31 -31q20 0 39 41q4 6 45 113q6 14 17.5 39.5t22.5 52.5t21.5 49.5t14.5 30.5 q18 37 28.5 57.5t15.5 31.5t8 17.5t7 14.5q16 35 31.5 46t50.5 11l111 -2q23 -2 35 -2h24l51 2q61 0 62 -41q0 -8 -1 -14t-4 -14.5t-10.5 -21.5t-21.5 -38q-25 -47 -47.5 -93t-42.5 -89q-8 -16 -14.5 -27.5t-13.5 -26t-20.5 -38t-37.5 -66.5q-4 -8 -8 -15t-10.5 -20.5 t-18.5 -39t-35 -72.5q-25 -51 -69 -140q-25 -49 -41.5 -86t-25.5 -74.5t-12 -80.5t-3 -103v-44t2 -44v-35q0 -53 -2 -83.5t-8.5 -46t-17.5 -20.5t-30 -5h-15t-17 2q-16 2 -28.5 2h-19.5l-126 -2q-25 0 -41.5 7t-24.5 27.5t-11 56.5t-3 95q2 47 4 72.5t3 40t1 23v20.5 q0 45 -3 80t-9.5 64.5t-17.5 57t-28 58.5q-18 37 -43 90q-23 45 -55.5 110.5t-75.5 157.5q-16 35 -27.5 60.5t-21.5 48.5l-55 127l-47 90q-14 29 -14 47zM455 1483q0 14 1 23.5t4 24.5t10 43t19 77q14 55 25.5 72.5t38.5 17.5h55q16 4 19.5 4h7.5h16q18 -2 31.5 -3t22.5 -1 h12t20 2h19q23 0 37 -15.5t14 -39.5q0 -14 -23 -52q-4 -10 -9 -18t-9 -16l-53 -84q-10 -18 -16.5 -29.5t-10.5 -17t-8 -8.5t-10 -5q-6 -4 -10.5 -5t-18.5 -2t-41 -1h-76q-41 0 -55 7t-12 26z" />
<glyph unicode="&#xde;" horiz-adv-x="1196" d="M102 1263.5v16.5q0 35 25 62.5t57 27.5h4q2 0 3.5 -1t5.5 -1h14h18q23 2 60 2h73q39 0 61.5 -21.5t22.5 -60.5v-65q0 -12 12.5 -22.5t28.5 -10.5l121 4q14 0 46 -4t67 -10t67.5 -13.5t49.5 -13.5q51 -16 108.5 -49t106.5 -74q16 -16 44.5 -57t45.5 -78q18 -41 26.5 -85 t8.5 -108q0 -156 -43 -259t-140 -173q-123 -92 -319 -92h-13.5t-14.5 1t-25.5 3t-47.5 6q-53 0 -77.5 -3t-34.5 -11q-20 -16 -21 -39v-15t2 -24q2 -10 2 -30q0 -70 -43 -70q-41 0 -85 1t-80.5 2t-63.5 2t-29 1q-37 12 -36 55q0 10 1 32t3 50q0 6 1 38t2 72t1 78v56l-4 186 l2 179q-2 47 -3 73.5t-2 44t-1 30.5v36v52.5t2 51.5q2 29 2 49.5v28.5q0 23 -2 56.5t-7 74.5q-2 10 -2 18.5zM428 678q0 -68 8 -109t32 -64.5t64.5 -31.5t108.5 -8q53 0 98 17.5t66 43.5q14 23 26 35q14 18 17.5 25.5t11.5 29.5q14 51 14 80q0 12 -7 39t-17 62 q-4 16 -22.5 37.5t-34.5 33.5q-74 52 -207 52q-53 0 -84 -7.5t-47.5 -32t-21.5 -72.5t-5 -130z" />
<glyph unicode="&#xdf;" horiz-adv-x="954" d="M66 1028v10q0 47 15 99.5t44 93.5q0 2 9 11l21.5 21.5t25 23.5t18.5 18q14 14 40.5 27.5t58.5 22.5t66.5 15t67.5 6q92 0 181 -34.5t139 -90.5q29 -31 46 -80t17 -90q0 -20 -2 -35.5t-8 -36t-19.5 -50t-37.5 -78.5q-6 -12 -7 -31q0 -16 11.5 -37.5t46.5 -64.5 q27 -37 51 -85.5t41.5 -100.5t28 -105.5t10.5 -100.5q0 -55 -11.5 -108t-32 -99.5t-48 -81t-60.5 -51.5q-31 -16 -81 -25t-109 -9q-115 0 -115 100l2 78q-2 27 -3 42t-2 22t-1 11.5v8.5q0 29 18 41q6 4 16.5 5t65.5 5q27 4 48.5 31.5t21.5 60.5q0 25 -5 42t-28 58l-47 95 q-10 23 -51 73q-55 72 -55 148q0 14 1 24.5t7 22.5t19.5 30.5t35.5 51.5q23 33 23 80q0 94 -76 94q-72 0 -86 -102q-4 -12 -4 -20.5t-2 -43.5q0 -29 -2 -57.5t-4 -59.5q0 -2 1 -17t3 -38q2 -16 3 -49t1 -86v-55.5t-4 -73.5v-19v-7t1 -11t2 -23.5t3 -42.5v-32v-39 q-2 -49 -3 -83t-1 -38v-24.5t2 -22.5l2 -86q0 -35 -17.5 -57.5t-42.5 -22.5l-98 2q-29 -4 -36 -4h-21q-49 0 -68.5 17.5t-19.5 60.5v32q0 25 1 41.5t1 30.5v29.5v38.5l-4 297v59q2 61 2 97v57q0 12 -1 50t-2 82t-2 84t-1 58z" />
<glyph unicode="&#xe0;" horiz-adv-x="980" d="M35 324q0 55 23.5 112.5t64.5 100.5q16 18 48 33.5t87 31.5q45 14 90 19.5t123 5.5q25 0 43 -1t31 -3q35 -8 55 -9q14 0 25.5 10.5t11.5 22.5q0 33 -41 55.5t-100 22.5q-33 0 -56.5 -2t-54.5 -8t-77 -19.5t-122 -36.5q-16 -4 -24 -4q-23 0 -37 13.5t-14 36.5l4 165 q4 20 14 30.5t39 21.5l68 28q45 20 110.5 29.5t169.5 9.5q164 0 248 -51q59 -39 89 -67.5t48 -73.5q10 -18 12 -51t2 -109v-125v-21.5t3 -44.5v-43v-25t-3 -46q-2 -12 -2 -23.5v-21.5v-37q2 -16 2 -27.5v-19.5v-9.5t-2 -37.5l2 -15q2 -8 2.5 -17t0.5 -20q0 -39 -4.5 -60 t-20.5 -31.5t-52 -13.5t-100 -5l-49 -2h-10q-10 0 -15 5t-28 38q-4 4 -8 4q-2 0 -7.5 -3t-33.5 -22q-8 -6 -24.5 -12t-36 -10t-40 -7t-34.5 -3h-6.5t-28.5 4l-49 -2q-72 0 -139.5 25.5t-106.5 66.5q-47 51 -68.5 109.5t-21.5 138.5zM262 1294q0 51 43 58l74 -2q2 0 12 1 t27 3h16h8t21 -4h55q25 0 36 -15.5t26 -74.5q16 -57 25 -105.5t9 -69.5q0 -27 -45 -26q-59 0 -93 1t-52 3t-26.5 6t-14.5 12q-4 4 -6 8.5t-15 24.5q-2 8 -36 57q-4 6 -9.5 15.5t-13.5 23.5q-4 8 -9 16.5t-9 18.5q-23 37 -23 49zM334 305q0 -41 46 -62.5t132 -21.5 q53 0 87 24.5t34 65.5q0 39 -37 64.5t-90 25.5q-172 0 -172 -96z" />
<glyph unicode="&#xe1;" horiz-adv-x="980" d="M35 324q0 55 23.5 112.5t64.5 100.5q16 18 48 33.5t87 31.5q45 14 90 19.5t123 5.5q25 0 43 -1t31 -3q35 -8 55 -9q14 0 25.5 10.5t11.5 22.5q0 33 -41 55.5t-100 22.5q-33 0 -56.5 -2t-54.5 -8t-77 -19.5t-122 -36.5q-16 -4 -24 -4q-23 0 -37 13.5t-14 36.5l4 165 q4 20 14 30.5t39 21.5l68 28q45 20 110.5 29.5t169.5 9.5q164 0 248 -51q59 -39 89 -67.5t48 -73.5q10 -18 12 -51t2 -109v-125v-21.5t3 -44.5v-43v-25t-3 -46q-2 -12 -2 -23.5v-21.5v-37q2 -16 2 -27.5v-19.5v-9.5t-2 -37.5l2 -15q2 -8 2.5 -17t0.5 -20q0 -39 -4.5 -60 t-20.5 -31.5t-52 -13.5t-100 -5l-49 -2h-10q-10 0 -15 5t-28 38q-4 4 -8 4q-2 0 -7.5 -3t-33.5 -22q-8 -6 -24.5 -12t-36 -10t-40 -7t-34.5 -3h-6.5t-28.5 4l-49 -2q-72 0 -139.5 25.5t-106.5 66.5q-47 51 -68.5 109.5t-21.5 138.5zM334 305q0 -41 46 -62.5t132 -21.5 q53 0 87 24.5t34 65.5q0 39 -37 64.5t-90 25.5q-172 0 -172 -96zM385 1092q0 14 1 23t4 24.5t10.5 43t19.5 77.5q14 55 25.5 72.5t37.5 17.5h56q16 4 19 4h7h17q18 -2 31.5 -3t21.5 -1h12t21 2h18q23 0 37 -15.5t14 -40.5q0 -14 -22 -51q-4 -10 -9.5 -18t-9.5 -17l-53 -84 q-10 -18 -16 -29.5t-10.5 -16.5t-8.5 -8t-10 -5q-6 -4 -10 -5t-18.5 -2t-41 -1h-75.5q-41 0 -55.5 7t-12.5 26z" />
<glyph unicode="&#xe2;" horiz-adv-x="980" d="M35 324q0 55 23.5 112.5t64.5 100.5q16 18 48 33.5t87 31.5q45 14 90 19.5t123 5.5q25 0 43 -1t31 -3q35 -8 55 -9q14 0 25.5 10.5t11.5 22.5q0 33 -41 55.5t-100 22.5q-33 0 -56.5 -2t-54.5 -8t-77 -19.5t-122 -36.5q-16 -4 -24 -4q-23 0 -37 13.5t-14 36.5l4 165 q4 20 14 30.5t39 21.5l68 28q45 20 110.5 29.5t169.5 9.5q164 0 248 -51q59 -39 89 -67.5t48 -73.5q10 -18 12 -51t2 -109v-125v-21.5t3 -44.5v-43v-25t-3 -46q-2 -12 -2 -23.5v-21.5v-37q2 -16 2 -27.5v-19.5v-9.5t-2 -37.5l2 -15q2 -8 2.5 -17t0.5 -20q0 -39 -4.5 -60 t-20.5 -31.5t-52 -13.5t-100 -5l-49 -2h-10q-10 0 -15 5t-28 38q-4 4 -8 4q-2 0 -7.5 -3t-33.5 -22q-8 -6 -24.5 -12t-36 -10t-40 -7t-34.5 -3h-6.5t-28.5 4l-49 -2q-72 0 -139.5 25.5t-106.5 66.5q-47 51 -68.5 109.5t-21.5 138.5zM221 1098q0 10 7.5 23.5t27.5 37.5l35 49 q39 53 77 94t56 52q14 8 41 8h4h8t19.5 -1t35.5 -3q29 -2 46.5 -4t28.5 -8.5t20.5 -18.5t25.5 -33q8 -10 15.5 -20t17.5 -21q14 -20 32.5 -45.5t34 -49t25.5 -41t10 -21.5q0 -25 -24 -31h-23q-23 -2 -31 -2t-32 -2h-7t-14 2q-10 4 -17 4h-13h-6q-16 -2 -26.5 -3t-12.5 -1 q-10 0 -17.5 7t-25.5 32q-20 27 -45 26q-25 0 -45 -26q-16 -23 -22.5 -30t-16.5 -7h-15.5t-19.5 2t-15.5 2h-15.5l-84 -2q-39 0 -39 31zM334 305q0 -41 46 -62.5t132 -21.5q53 0 87 24.5t34 65.5q0 39 -37 64.5t-90 25.5q-172 0 -172 -96z" />
<glyph unicode="&#xe3;" horiz-adv-x="980" d="M35 324q0 55 23.5 112.5t64.5 100.5q16 18 48 33.5t87 31.5q45 14 90 19.5t123 5.5q25 0 43 -1t31 -3q35 -8 55 -9q14 0 25.5 10.5t11.5 22.5q0 33 -41 55.5t-100 22.5q-33 0 -56.5 -2t-54.5 -8t-77 -19.5t-122 -36.5q-16 -4 -24 -4q-23 0 -37 13.5t-14 36.5l4 165 q4 20 14 30.5t39 21.5l68 28q45 20 110.5 29.5t169.5 9.5q164 0 248 -51q59 -39 89 -67.5t48 -73.5q10 -18 12 -51t2 -109v-125v-21.5t3 -44.5v-43v-25t-3 -46q-2 -12 -2 -23.5v-21.5v-37q2 -16 2 -27.5v-19.5v-9.5t-2 -37.5l2 -15q2 -8 2.5 -17t0.5 -20q0 -39 -4.5 -60 t-20.5 -31.5t-52 -13.5t-100 -5l-49 -2h-10q-10 0 -15 5t-28 38q-4 4 -8 4q-2 0 -7.5 -3t-33.5 -22q-8 -6 -24.5 -12t-36 -10t-40 -7t-34.5 -3h-6.5t-28.5 4l-49 -2q-72 0 -139.5 25.5t-106.5 66.5q-47 51 -68.5 109.5t-21.5 138.5zM147 1141q0 211 158 211q31 0 68 -5.5 t65 -13.5q59 -18 100.5 -28.5t53.5 -10.5t16 6.5t15 42.5q4 14 43 15h14t16 -2q6 0 12.5 -1t10.5 -1h10h76q33 0 33 -58q0 -117 -38 -170t-122 -53q-16 0 -32.5 2t-43.5 7t-64.5 15.5t-95.5 26.5q-25 8 -49 9q-16 0 -21 -6.5t-16 -41.5q-6 -14 -47 -14h-47h-72 q-27 0 -35 14.5t-8 55.5zM334 305q0 -41 46 -62.5t132 -21.5q53 0 87 24.5t34 65.5q0 39 -37 64.5t-90 25.5q-172 0 -172 -96z" />
<glyph unicode="&#xe4;" horiz-adv-x="980" d="M35 324q0 55 23.5 112.5t64.5 100.5q16 18 48 33.5t87 31.5q45 14 90 19.5t123 5.5q25 0 43 -1t31 -3q35 -8 55 -9q14 0 25.5 10.5t11.5 22.5q0 33 -41 55.5t-100 22.5q-33 0 -56.5 -2t-54.5 -8t-77 -19.5t-122 -36.5q-16 -4 -24 -4q-23 0 -37 13.5t-14 36.5l4 165 q4 20 14 30.5t39 21.5l68 28q45 20 110.5 29.5t169.5 9.5q164 0 248 -51q59 -39 89 -67.5t48 -73.5q10 -18 12 -51t2 -109v-125v-21.5t3 -44.5v-43v-25t-3 -46q-2 -12 -2 -23.5v-21.5v-37q2 -16 2 -27.5v-19.5v-9.5t-2 -37.5l2 -15q2 -8 2.5 -17t0.5 -20q0 -39 -4.5 -60 t-20.5 -31.5t-52 -13.5t-100 -5l-49 -2h-10q-10 0 -15 5t-28 38q-4 4 -8 4q-2 0 -7.5 -3t-33.5 -22q-8 -6 -24.5 -12t-36 -10t-40 -7t-34.5 -3h-6.5t-28.5 4l-49 -2q-72 0 -139.5 25.5t-106.5 66.5q-47 51 -68.5 109.5t-21.5 138.5zM145 1112v11t2 18l3 67q0 14 -1.5 35 l-3.5 49v15q0 33 25 39h66l24 2h27h26q12 -2 20.5 -2h10.5h84q4 0 11 -6.5t12 -12.5q0 -2 1 -11t1 -31.5v-61.5v-101q0 -31 -6.5 -43t-20.5 -12l-139 2h-101q-41 0 -41 43zM334 305q0 -41 46 -62.5t132 -21.5q53 0 87 24.5t34 65.5q0 39 -37 64.5t-90 25.5q-172 0 -172 -96z M549 1096l2 26q0 23 1 36t1 29.5t1 40t1 64.5l-2 25v10q0 20 22 27q37 -2 82 -3t101 -3q68 0 83 -6.5t15 -34.5v-15q-2 -14 -2 -25.5v-27.5q0 -20 1 -48t5 -56q2 -8 2 -23q0 -47 -37 -43l-22 2h-29q-12 0 -25.5 -1t-25.5 -1h-43h-53.5t-40.5 -2q-37 0 -37 29z" />
<glyph unicode="&#xe5;" horiz-adv-x="980" d="M35 324q0 55 23.5 112.5t64.5 100.5q16 18 48 33.5t87 31.5q45 14 90 19.5t123 5.5q25 0 43 -1t31 -3q35 -8 55 -9q14 0 25.5 10.5t11.5 22.5q0 33 -41 55.5t-100 22.5q-33 0 -56.5 -2t-54.5 -8t-77 -19.5t-122 -36.5q-16 -4 -24 -4q-23 0 -37 13.5t-14 36.5l4 165 q4 20 14 30.5t39 21.5l68 28q45 20 110.5 29.5t169.5 9.5q164 0 248 -51q59 -39 89 -67.5t48 -73.5q10 -18 12 -51t2 -109v-125v-21.5t3 -44.5v-43v-25t-3 -46q-2 -12 -2 -23.5v-21.5v-37q2 -16 2 -27.5v-19.5v-9.5t-2 -37.5l2 -15q2 -8 2.5 -17t0.5 -20q0 -39 -4.5 -60 t-20.5 -31.5t-52 -13.5t-100 -5l-49 -2h-10q-10 0 -15 5t-28 38q-4 4 -8 4q-2 0 -7.5 -3t-33.5 -22q-8 -6 -24.5 -12t-36 -10t-40 -7t-34.5 -3h-6.5t-28.5 4l-49 -2q-72 0 -139.5 25.5t-106.5 66.5q-47 51 -68.5 109.5t-21.5 138.5zM215 1233q0 78 80 125t209 47 q139 0 213 -46t74 -132q0 -82 -78 -127t-219 -45q-127 0 -203 49t-76 129zM334 305q0 -41 46 -62.5t132 -21.5q53 0 87 24.5t34 65.5q0 39 -37 64.5t-90 25.5q-172 0 -172 -96zM406 1233q0 -23 28.5 -37t77.5 -14q43 0 69.5 14t26.5 39q0 53 -104 53q-47 0 -72.5 -14 t-25.5 -41z" />
<glyph unicode="&#xe6;" horiz-adv-x="1536" d="M35 311q0 57 10 95t39 73q2 4 10 14.5t19 22.5q10 14 24 31q47 27 73 41t41 21t24.5 9.5t21.5 4.5q18 2 46 5t56.5 5t57 3t49.5 1h10t13.5 -2t25.5 -4t45 -8h10q25 0 25 20q0 78 -111 78h-35l-28 -2l-49 -2q-4 0 -10.5 -2t-41.5 -15q-10 -4 -25.5 -7t-35.5 -9 q-10 -2 -17.5 -4t-14.5 -4t-16 -7t-28 -14q-16 -8 -43 -8q-31 0 -50 17.5t-19 46.5l2 71l-4 76q0 23 18 37t72 37q43 18 77.5 29.5t70.5 17.5t77 8t96 2q61 0 112.5 -9t106.5 -30q12 -4 18.5 -7t13.5 -8t15.5 -13.5t24.5 -22.5q0 -2 4 -2q2 0 4 3t19 20q2 2 6 5t11 7 t22.5 11t44.5 20q29 14 63.5 19t89.5 5q92 0 150.5 -16.5t113.5 -57.5q41 -29 63.5 -56.5t41.5 -68.5q8 -20 16 -38.5t19 -36.5q16 -33 25 -67t9 -62v-2q-2 -16 -3 -26.5t-1 -12.5l4 -103q0 -10 -9 -24.5t-19 -20.5q-8 -4 -13.5 -7t-14.5 -4t-25.5 -2t-45.5 -1l-34 -2 q-23 -2 -41.5 -3t-30.5 -1h-12q-20 0 -38 1t-30 1h-26q-31 -4 -38.5 -4h-17.5l-67 2h-68t-35 -2t-12 -6.5t-2 -12.5q0 -23 13.5 -47t29.5 -35q8 -4 27.5 -9t41 -10t43 -7t33.5 -2q72 4 113 6t67.5 6t47 10t55.5 19q39 12 68 12q14 0 27 -13.5t11 -27.5q-4 -37 -4 -43v-8 v-12.5t2 -20.5q2 -10 2 -21.5v-21.5q0 -47 -15 -67.5t-66 -36.5q-23 -8 -55 -16.5t-64.5 -15.5t-62 -11.5t-48.5 -4.5h-6q-10 0 -16.5 1.5t-10.5 1.5h-10l-92 -3q-18 0 -56 8.5t-78 19.5t-76 24.5t-50 23.5q-25 18 -29 19q-6 0 -26 -15q-4 -4 -16.5 -11t-28 -14t-31 -14.5 t-23.5 -9.5q-18 -6 -51 -12t-68.5 -11t-71.5 -8.5t-61 -3.5q-43 0 -87 9.5t-83 26t-70.5 39t-52.5 48.5q-72 100 -71 215zM330 309q0 -35 39 -59.5t94 -24.5q82 0 127 23.5t45 66.5q0 33 -35 57.5t-82 24.5q-106 0 -137 -18q-23 -12 -37 -32.5t-14 -37.5zM930 612 q4 -16 31 -16h17t19 2q8 2 21 2q4 0 14 -1t23 -3q8 -2 14 -2h10q8 0 15 2l53 2h41q35 0 35 35q0 45 -43 74.5t-105 29.5q-45 0 -81 -17.5t-50 -43.5q-4 -10 -10 -34t-4 -30z" />
<glyph unicode="&#xe7;" horiz-adv-x="651" d="M25 434v19.5t2 19.5q0 6 1 11t1 10v8l-2 59q0 20 10 68.5t20 81.5q8 33 18.5 49t39.5 53l10 16l22 37q18 31 78 63t123 48q29 6 66 8t108 2q55 0 78 -15.5t23 -53.5q0 -18 -2 -27q-2 -23 -3.5 -39t-1.5 -21q0 -4 1 -16t4 -33v-26q0 -31 -10.5 -43.5t-39.5 -14.5l-34 -2 q-10 -2 -17.5 -2h-11.5h-33q-41 0 -75.5 -25.5t-57.5 -70.5q-10 -20 -20.5 -53t-10.5 -49q0 -12 3 -33t7.5 -41.5t9.5 -37.5t9 -26q4 -6 16.5 -19t26.5 -25.5t27.5 -23.5t19.5 -14q4 0 33 -6q6 -2 22 -6q20 -6 26.5 -7t29.5 -1l55 -4q10 -2 20.5 -16.5t10.5 -24.5l-4 -84v-6 q0 -10 2 -17q2 -10 2 -21v-26q0 -84 -62 -84h-6q-14 2 -22.5 2h-10.5q-6 0 -6 -6q0 -4 5 -7t34 -21q8 -6 15.5 -21.5t7.5 -28.5q0 -23 -36 -40t-89 -17q-78 0 -118 3t-56 7q-51 18 -52 52q0 10 10.5 23t20.5 13l47 -2q8 0 16.5 11.5t8.5 21.5q0 14 -14.5 24.5t-71.5 39.5 q-25 10 -61.5 41.5t-55.5 56.5q-6 10 -17.5 31.5t-23.5 46t-24.5 51.5t-18.5 45q-23 63 -22 135z" />
<glyph unicode="&#xe8;" horiz-adv-x="952" d="M25 467q0 92 17 162.5t54 134.5q68 113 160 166t219 53q102 0 170 -23.5t131 -80.5q47 -43 84 -102.5t45 -106.5q4 -20 6 -27.5t7 -30.5q6 -23 8 -38t2 -42q0 -57 -8.5 -86.5t-24.5 -42.5q-10 -8 -25.5 -13t-25.5 -5h-119l-39 -2l-96 2l-123 -2l-64 4q-27 0 -45 -12.5 t-18 -28.5q0 -18 28.5 -40.5t80.5 -43.5q6 -2 22 -5t38.5 -5t47.5 -3t45 -1q27 0 47.5 2t44 6t55 13.5t80.5 25.5q14 6 35 6q55 0 56 -78v-17.5t-1 -32.5t-2.5 -33.5t-1.5 -20.5q-2 -33 -17 -53.5t-54 -36.5q-115 -49 -260 -49t-236.5 25.5t-161.5 86.5q-45 37 -85 99.5 t-52 113.5q-8 35 -13 57.5t-7 39t-3 30.5t-1 35zM233 1294q0 51 43 58l74 -2q2 0 12.5 1t26.5 3h17h8t20 -4h55q25 0 36.5 -15.5t25.5 -74.5q16 -57 25.5 -105.5t9.5 -69.5q0 -27 -45 -26q-59 0 -93 1t-52.5 3t-27 6t-14.5 12q-4 4 -6 8.5t-14 24.5q-2 8 -37 57 q-4 6 -9 15.5t-14 23.5q-4 8 -9 16.5t-9 18.5q-23 37 -23 49zM332 641q-2 -23 22.5 -35t71.5 -10l117 2q82 -2 82 37q0 20 -12.5 39.5t-33 35t-47 24.5t-53.5 9t-53.5 -9t-47 -23.5t-33.5 -33t-13 -36.5z" />
<glyph unicode="&#xe9;" horiz-adv-x="952" d="M25 467q0 92 17 162.5t54 134.5q68 113 160 166t219 53q102 0 170 -23.5t131 -80.5q47 -43 84 -102.5t45 -106.5q4 -20 6 -27.5t7 -30.5q6 -23 8 -38t2 -42q0 -57 -8.5 -86.5t-24.5 -42.5q-10 -8 -25.5 -13t-25.5 -5h-119l-39 -2l-96 2l-123 -2l-64 4q-27 0 -45 -12.5 t-18 -28.5q0 -18 28.5 -40.5t80.5 -43.5q6 -2 22 -5t38.5 -5t47.5 -3t45 -1q27 0 47.5 2t44 6t55 13.5t80.5 25.5q14 6 35 6q55 0 56 -78v-17.5t-1 -32.5t-2.5 -33.5t-1.5 -20.5q-2 -33 -17 -53.5t-54 -36.5q-115 -49 -260 -49t-236.5 25.5t-161.5 86.5q-45 37 -85 99.5 t-52 113.5q-8 35 -13 57.5t-7 39t-3 30.5t-1 35zM332 641q-2 -23 22.5 -35t71.5 -10l117 2q82 -2 82 37q0 20 -12.5 39.5t-33 35t-47 24.5t-53.5 9t-53.5 -9t-47 -23.5t-33.5 -33t-13 -36.5zM369 1092q0 14 1 23t4 24.5t10 43t19 77.5q14 55 25.5 72.5t38.5 17.5h55 q16 4 19.5 4h7.5h16q18 -2 31.5 -3t21.5 -1h12.5t20.5 2h19q23 0 37 -15.5t14 -40.5q0 -14 -23 -51q-4 -10 -9 -18t-9 -17l-53 -84q-10 -18 -16.5 -29.5t-10.5 -16.5t-8 -8t-10 -5q-6 -4 -10.5 -5t-18.5 -2t-41 -1h-76q-41 0 -55 7t-12 26z" />
<glyph unicode="&#xea;" horiz-adv-x="952" d="M25 467q0 92 17 162.5t54 134.5q68 113 160 166t219 53q102 0 170 -23.5t131 -80.5q47 -43 84 -102.5t45 -106.5q4 -20 6 -27.5t7 -30.5q6 -23 8 -38t2 -42q0 -57 -8.5 -86.5t-24.5 -42.5q-10 -8 -25.5 -13t-25.5 -5h-119l-39 -2l-96 2l-123 -2l-64 4q-27 0 -45 -12.5 t-18 -28.5q0 -18 28.5 -40.5t80.5 -43.5q6 -2 22 -5t38.5 -5t47.5 -3t45 -1q27 0 47.5 2t44 6t55 13.5t80.5 25.5q14 6 35 6q55 0 56 -78v-17.5t-1 -32.5t-2.5 -33.5t-1.5 -20.5q-2 -33 -17 -53.5t-54 -36.5q-115 -49 -260 -49t-236.5 25.5t-161.5 86.5q-45 37 -85 99.5 t-52 113.5q-8 35 -13 57.5t-7 39t-3 30.5t-1 35zM193 1098q0 10 7 23.5t27 37.5l35 49q39 53 77 94t56 52q14 8 41 8h4h8.5t19.5 -1t36 -3q29 -2 46 -4t28.5 -8.5t20.5 -18.5t26 -33q8 -10 15 -20t17 -21q14 -20 33 -45.5t34 -49t25.5 -41t10.5 -21.5q0 -25 -25 -31h-22 q-23 -2 -31 -2t-33 -2h-7t-13 2q-10 4 -17.5 4h-13.5h-6q-16 -2 -26.5 -3t-12.5 -1q-10 0 -17.5 7t-25.5 32q-20 27 -45 26q-25 0 -45 -26q-16 -23 -22.5 -30t-16.5 -7h-15.5t-19.5 2t-15 2h-16l-84 -2q-39 0 -38 31zM332 641q-2 -23 22.5 -35t71.5 -10l117 2q82 -2 82 37 q0 20 -12.5 39.5t-33 35t-47 24.5t-53.5 9t-53.5 -9t-47 -23.5t-33.5 -33t-13 -36.5z" />
<glyph unicode="&#xeb;" horiz-adv-x="952" d="M25 467q0 92 17 162.5t54 134.5q68 113 160 166t219 53q102 0 170 -23.5t131 -80.5q47 -43 84 -102.5t45 -106.5q4 -20 6 -27.5t7 -30.5q6 -23 8 -38t2 -42q0 -57 -8.5 -86.5t-24.5 -42.5q-10 -8 -25.5 -13t-25.5 -5h-119l-39 -2l-96 2l-123 -2l-64 4q-27 0 -45 -12.5 t-18 -28.5q0 -18 28.5 -40.5t80.5 -43.5q6 -2 22 -5t38.5 -5t47.5 -3t45 -1q27 0 47.5 2t44 6t55 13.5t80.5 25.5q14 6 35 6q55 0 56 -78v-17.5t-1 -32.5t-2.5 -33.5t-1.5 -20.5q-2 -33 -17 -53.5t-54 -36.5q-115 -49 -260 -49t-236.5 25.5t-161.5 86.5q-45 37 -85 99.5 t-52 113.5q-8 35 -13 57.5t-7 39t-3 30.5t-1 35zM119 1112v11t2 18l2 67q0 14 -1 35t-3 49v15q0 33 24 39h66l24 2h27h27q12 -2 20 -2h10h84q4 0 11.5 -6.5t11.5 -12.5q0 -2 1 -11t1 -31.5v-61.5v-101q0 -31 -6 -43t-21 -12l-139 2h-100q-41 0 -41 43zM332 641 q-2 -23 22.5 -35t71.5 -10l117 2q82 -2 82 37q0 20 -12.5 39.5t-33 35t-47 24.5t-53.5 9t-53.5 -9t-47 -23.5t-33.5 -33t-13 -36.5zM522 1096l2 26q0 23 1 36t1 29.5t1 40t1 64.5l-2 25v10q0 20 23 27q37 -2 82 -3t100 -3q68 0 83 -6.5t15 -34.5v-15q-2 -14 -2 -25.5v-27.5 q0 -20 1 -48t6 -56q2 -8 2 -23q0 -47 -37 -43l-23 2h-28q-12 0 -25.5 -1t-26.5 -1h-43h-53t-41 -2q-37 0 -37 29z" />
<glyph unicode="&#xec;" horiz-adv-x="452" d="M-16 1294q0 51 43 58l73 -2q2 0 12.5 1t26.5 3h17h8t20 -4h56q25 0 36 -15.5t25 -74.5q16 -57 25.5 -105.5t9.5 -69.5q0 -27 -45 -26q-59 0 -93 1t-52.5 3t-26.5 6t-15 12q-4 4 -6 8.5t-14 24.5q-2 8 -37 57q-4 6 -9 15.5t-13 23.5q-4 8 -9.5 16.5t-9.5 18.5 q-23 37 -22 49zM74 813v55v43q0 35 14 47.5t49 12.5h14.5t14.5 -2l47 -2h10q31 2 55.5 3t34.5 1q66 0 66 -62l-2 -41q-4 -35 -5 -95t-1 -130l6 -207v-114.5t4 -108.5v-39q0 -59 -2 -94t-10.5 -53.5t-21.5 -23.5t-38 -5q-8 0 -26.5 1t-40.5 3h-23h-15t-24 -2h-35 q-41 0 -55 15.5t-14 56.5v6v45l4 162z" />
<glyph unicode="&#xed;" horiz-adv-x="452" d="M72 813v55v43q0 35 14 47.5t49 12.5h14.5t14.5 -2l47 -2h10q31 2 55.5 3t34.5 1q66 0 66 -62l-2 -41q-4 -35 -5 -95t-1 -130l6 -207v-114.5t4 -108.5v-39q0 -59 -2 -94t-10.5 -53.5t-21.5 -23.5t-38 -5q-8 0 -26.5 1t-40.5 3h-23h-15t-24 -2h-35q-41 0 -55 15.5t-14 56.5 v6v45l4 162zM119 1092q0 14 1 23t4 24.5t10 43t20 77.5q14 55 25 72.5t38 17.5h55q16 4 19.5 4h7.5h16q18 -2 31.5 -3t22.5 -1h12t20 2h19q23 0 37 -15.5t14 -40.5q0 -14 -22 -51q-4 -10 -9.5 -18t-9.5 -17l-53 -84q-10 -18 -16.5 -29.5t-10.5 -16.5t-8 -8t-10 -5 q-6 -4 -10.5 -5t-18.5 -2t-40.5 -1h-76.5q-41 0 -55 7t-12 26z" />
<glyph unicode="&#xee;" horiz-adv-x="452" d="M-57 1098q0 10 7 23.5t27 37.5l35 49q39 53 77 94t56 52q14 8 41 8h4.5h8.5t19 -1t36 -3q29 -2 46 -4t28.5 -8.5t20.5 -18.5t26 -33q8 -10 15 -20t18 -21q14 -20 32.5 -45.5t33.5 -49t25.5 -41t10.5 -21.5q0 -25 -25 -31h-22q-23 -2 -31 -2t-33 -2h-7t-13 2 q-10 4 -17.5 4h-13.5h-6q-16 -2 -26.5 -3t-12.5 -1q-10 0 -17 7t-26 32q-20 27 -45 26q-25 0 -45 -26q-16 -23 -22.5 -30t-16.5 -7h-15.5t-19.5 2t-15 2h-15l-84 -2q-39 0 -39 31zM72 813v55v43q0 35 14 47.5t49 12.5h14.5t14.5 -2l47 -2h10q31 2 55.5 3t34.5 1q66 0 66 -62 l-2 -41q-4 -35 -5 -95t-1 -130l6 -207v-114.5t4 -108.5v-39q0 -59 -2 -94t-10.5 -53.5t-21.5 -23.5t-38 -5q-8 0 -26.5 1t-40.5 3h-23h-15t-24 -2h-35q-41 0 -55 15.5t-14 56.5v6v45l4 162z" />
<glyph unicode="&#xef;" horiz-adv-x="452" d="M-84 1112v29q2 10 2 29.5v37.5v46.5t-2 37.5v15q0 33 23 39h57l24 2h23h25l26 -2h76q6 0 11 -6.5t9 -12.5q0 -2 1.5 -11t1.5 -32.5v-62.5v-99q0 -31 -5.5 -43t-19.5 -12l-125 2h-90q-37 0 -37 43zM72 813v55v43q0 35 14 47.5t49 12.5h14.5t14.5 -2l47 -2h10q31 2 55.5 3 t34.5 1q66 0 66 -62l-2 -41q-4 -35 -5 -95t-1 -130l6 -207v-114.5t4 -108.5v-39q0 -59 -2 -94t-10.5 -53.5t-21.5 -23.5t-38 -5q-8 0 -26.5 1t-40.5 3h-23h-15t-24 -2h-35q-41 0 -55 15.5t-14 56.5v6v45l4 162zM256 1096q0 16 2 26l2 172v7.5t-2 15.5v10q0 20 21 27 q63 -2 163 -6q61 0 75.5 -6.5t14.5 -34.5v-15q-2 -12 -2 -25.5v-25.5q0 -23 1 -49.5t4 -56.5q2 -8 2 -23q0 -47 -33 -43l-21 2h-24q-10 0 -23.5 -1t-23.5 -1h-39h-28.5h-19t-16.5 -1t-20 -1q-33 0 -33 29z" />
<glyph unicode="&#xf0;" horiz-adv-x="1095" d="M25 487q0 92 32.5 165t102.5 141q35 33 80 57t92 37q47 12 109.5 21.5t97.5 9.5l67 -3q43 0 43 31q0 20 -16.5 46t-42 50.5t-59 46t-68.5 33.5q-10 4 -30.5 10.5t-43 13.5t-45 12t-37.5 9q-53 16 -53 60q0 8 1 15t4 20.5t11.5 36t22.5 65.5q14 41 28.5 55.5t40.5 14.5 q16 0 42 -5.5t55 -15.5l37 -10q14 -6 26.5 -9t22.5 -8q33 -14 51 -21t27.5 -10t13.5 -4t10 -1q25 0 43.5 11t52.5 48q39 43 66 43q14 0 23.5 -10t35.5 -53q10 -18 29 -31q23 -25 30 -34t7 -19q0 -23 -55 -64q-29 -23 -41.5 -35t-12.5 -22t23 -35q49 -51 90 -128t70.5 -168 t46 -190.5t16.5 -195.5q0 -199 -80 -287q-45 -49 -66.5 -73.5t-23.5 -26.5q-53 -41 -119.5 -67.5t-124.5 -30.5q-45 -4 -69.5 -5.5t-36.5 -2.5t-18.5 -1h-12.5q-35 0 -72.5 7.5t-75.5 19.5t-71 27.5t-55 33.5q-12 10 -19.5 16.5t-13.5 10.5t-12 9t-19 16 q-86 66 -121.5 152.5t-35.5 221.5zM322 477q0 -92 63.5 -149.5t165.5 -57.5q43 0 81 14.5t65.5 39t44 57.5t16.5 70q0 39 -18.5 74.5t-49.5 62t-72 42t-86 15.5q-61 0 -119.5 -28.5t-78.5 -69.5q-12 -20 -12 -70z" />
<glyph unicode="&#xf1;" horiz-adv-x="1021" d="M72 63v18.5t1 21t2 35t3 63.5v41v14v20.5t-1 42t-3 76.5q0 6 -1 26.5t-1 45.5v50.5v41.5v26.5t1 21.5t2 25.5t3 41.5v26v7.5v12.5t-1 25.5t-3 47.5q-4 104 4 139t43 35l143 -2h25h45q18 0 27.5 -6.5t44.5 -43.5l18 13l8 8q20 18 78.5 30.5t124.5 12.5q57 0 119.5 -28.5 t101.5 -71.5q45 -51 69.5 -123t24.5 -154v-50.5t-2 -59.5v-27v-9t1 -19.5t2 -43t3 -80.5v-45l-4 -110v-68q0 -23 -6 -47.5t-14 -30.5q-8 -8 -24.5 -10t-80.5 -6h-81.5t-44 1t-21.5 2t-12 3q-10 6 -17.5 21.5t-7.5 31.5l10 80q0 57 -1 123t-3 123t-3 100t-3 54 q-10 66 -44 100.5t-85 34.5q-111 0 -127 -129q-2 -6 -3 -38t-2 -75t-1 -92v-90q2 -29 3 -45.5t2 -24.5t1 -12v-10q0 -57 -1 -90t-7 -48.5t-18.5 -19.5t-32.5 -4h-23.5t-26.5 2q-18 2 -32.5 2h-24.5h-20q-23 -2 -40.5 -2h-33.5q-29 0 -41 15.5t-12 53.5zM162 1141 q0 211 157 211q31 0 68 -5.5t66 -13.5q59 -18 100 -28.5t53 -10.5t16.5 6.5t14.5 42.5q4 14 43 15h14t17 -2q6 0 12 -1t10 -1h10h76q33 0 33 -58q0 -117 -38 -170t-122 -53q-16 0 -32.5 2t-43 7t-64.5 15.5t-95 26.5q-25 8 -49 9q-16 0 -21.5 -6.5t-15.5 -41.5 q-6 -14 -47 -14h-48h-71q-27 0 -35 14.5t-8 55.5z" />
<glyph unicode="&#xf2;" horiz-adv-x="1095" d="M25 506q0 66 23.5 141.5t60.5 126.5q41 59 80.5 94t89.5 60q51 25 128.5 41t147.5 16q72 0 148.5 -19.5t138.5 -54.5q20 -12 36.5 -23t30 -25.5t28.5 -37t36 -55.5l10 -18q16 -27 26.5 -41.5t15.5 -24.5t8 -19.5t7 -21.5q31 -84 31 -182q0 -94 -23.5 -160.5t-76.5 -132.5 l-70 -82q-53 -43 -119.5 -72.5t-124.5 -33.5q-43 -4 -67.5 -5.5t-36.5 -2.5t-18.5 -1h-12.5q-35 0 -73.5 7.5t-76.5 20.5t-71 30.5t-55 36.5q-16 16 -31.5 29.5t-32.5 25.5q-96 80 -127 174q-12 41 -21 102.5t-9 106.5zM303 1294q0 51 43 58l74 -2q2 0 12 1t27 3h16h8t21 -4 h55q25 0 36 -15.5t26 -74.5q16 -57 25 -105.5t9 -69.5q0 -27 -45 -26q-59 0 -93 1t-52.5 3t-26.5 6t-14 12q-4 4 -6 8.5t-15 24.5q-2 8 -36 57q-4 6 -9.5 15.5t-13.5 23.5q-4 8 -9 16.5t-9 18.5q-23 37 -23 49zM322 502q0 -49 17 -91t48 -74t73 -49.5t91 -17.5q43 0 82 17.5 t66.5 46t44 68.5t16.5 85t-18.5 86t-49 72t-71.5 49.5t-84 18.5t-82 -17.5t-69 -46t-47 -66.5t-17 -81z" />
<glyph unicode="&#xf3;" horiz-adv-x="1095" d="M25 506q0 66 23.5 141.5t60.5 126.5q41 59 80.5 94t89.5 60q51 25 128.5 41t147.5 16q72 0 148.5 -19.5t138.5 -54.5q20 -12 36.5 -23t30 -25.5t28.5 -37t36 -55.5l10 -18q16 -27 26.5 -41.5t15.5 -24.5t8 -19.5t7 -21.5q31 -84 31 -182q0 -94 -23.5 -160.5t-76.5 -132.5 l-70 -82q-53 -43 -119.5 -72.5t-124.5 -33.5q-43 -4 -67.5 -5.5t-36.5 -2.5t-18.5 -1h-12.5q-35 0 -73.5 7.5t-76.5 20.5t-71 30.5t-55 36.5q-16 16 -31.5 29.5t-32.5 25.5q-96 80 -127 174q-12 41 -21 102.5t-9 106.5zM322 502q0 -49 17 -91t48 -74t73 -49.5t91 -17.5 q43 0 82 17.5t66.5 46t44 68.5t16.5 85t-18.5 86t-49 72t-71.5 49.5t-84 18.5t-82 -17.5t-69 -46t-47 -66.5t-17 -81zM440 1092q0 14 1 23t4.5 24.5t10.5 43t19 77.5q14 55 25.5 72.5t38.5 17.5h55q16 4 19 4h8h16q18 -2 31.5 -3t21.5 -1h12.5t20.5 2h18q23 0 37.5 -15.5 t14.5 -40.5q0 -14 -23 -51q-4 -10 -9 -18t-9 -17l-54 -84q-10 -18 -16 -29.5t-10 -16.5t-8.5 -8t-10.5 -5q-6 -4 -10 -5t-18.5 -2t-41 -1h-75.5q-41 0 -55.5 7t-12.5 26z" />
<glyph unicode="&#xf4;" horiz-adv-x="1095" d="M25 506q0 66 23.5 141.5t60.5 126.5q41 59 80.5 94t89.5 60q51 25 128.5 41t147.5 16q72 0 148.5 -19.5t138.5 -54.5q20 -12 36.5 -23t30 -25.5t28.5 -37t36 -55.5l10 -18q16 -27 26.5 -41.5t15.5 -24.5t8 -19.5t7 -21.5q31 -84 31 -182q0 -94 -23.5 -160.5t-76.5 -132.5 l-70 -82q-53 -43 -119.5 -72.5t-124.5 -33.5q-43 -4 -67.5 -5.5t-36.5 -2.5t-18.5 -1h-12.5q-35 0 -73.5 7.5t-76.5 20.5t-71 30.5t-55 36.5q-16 16 -31.5 29.5t-32.5 25.5q-96 80 -127 174q-12 41 -21 102.5t-9 106.5zM264 1098q0 10 7.5 23.5t27.5 37.5l35 49q39 53 77 94 t56 52q14 8 41 8h4h8t19.5 -1t35.5 -3q29 -2 46.5 -4t29 -8.5t20.5 -18.5t25 -33q8 -10 15.5 -20t17.5 -21q14 -20 32.5 -45.5t34 -49t25.5 -41t10 -21.5q0 -25 -24 -31h-23q-23 -2 -31 -2t-32 -2h-7t-14 2q-10 4 -17 4h-13h-6q-16 -2 -26.5 -3t-12.5 -1q-10 0 -17.5 7 t-25.5 32q-20 27 -45 26q-25 0 -45 -26q-16 -23 -22.5 -30t-16.5 -7h-15.5t-19.5 2t-15.5 2h-15.5l-84 -2q-39 0 -39 31zM322 502q0 -49 17 -91t48 -74t73 -49.5t91 -17.5q43 0 82 17.5t66.5 46t44 68.5t16.5 85t-18.5 86t-49 72t-71.5 49.5t-84 18.5t-82 -17.5t-69 -46 t-47 -66.5t-17 -81z" />
<glyph unicode="&#xf5;" horiz-adv-x="1095" d="M25 506q0 66 23.5 141.5t60.5 126.5q41 59 80.5 94t89.5 60q51 25 128.5 41t147.5 16q72 0 148.5 -19.5t138.5 -54.5q20 -12 36.5 -23t30 -25.5t28.5 -37t36 -55.5l10 -18q16 -27 26.5 -41.5t15.5 -24.5t8 -19.5t7 -21.5q31 -84 31 -182q0 -94 -23.5 -160.5t-76.5 -132.5 l-70 -82q-53 -43 -119.5 -72.5t-124.5 -33.5q-43 -4 -67.5 -5.5t-36.5 -2.5t-18.5 -1h-12.5q-35 0 -73.5 7.5t-76.5 20.5t-71 30.5t-55 36.5q-16 16 -31.5 29.5t-32.5 25.5q-96 80 -127 174q-12 41 -21 102.5t-9 106.5zM203 1141q0 211 157 211q31 0 68 -5.5t66 -13.5 q59 -18 100 -28.5t53 -10.5t16.5 6.5t14.5 42.5q4 14 43 15h14t17 -2q6 0 12 -1t10 -1h10h76q33 0 33 -58q0 -117 -38 -170t-122 -53q-16 0 -32.5 2t-43 7t-64.5 15.5t-95 26.5q-25 8 -49 9q-16 0 -21.5 -6.5t-15.5 -41.5q-6 -14 -47 -14h-48h-71q-27 0 -35 14.5t-8 55.5z M322 502q0 -49 17 -91t48 -74t73 -49.5t91 -17.5q43 0 82 17.5t66.5 46t44 68.5t16.5 85t-18.5 86t-49 72t-71.5 49.5t-84 18.5t-82 -17.5t-69 -46t-47 -66.5t-17 -81z" />
<glyph unicode="&#xf6;" horiz-adv-x="1095" d="M25 506q0 66 23.5 141.5t60.5 126.5q41 59 80.5 94t89.5 60q51 25 128.5 41t147.5 16q72 0 148.5 -19.5t138.5 -54.5q20 -12 36.5 -23t30 -25.5t28.5 -37t36 -55.5l10 -18q16 -27 26.5 -41.5t15.5 -24.5t8 -19.5t7 -21.5q31 -84 31 -182q0 -94 -23.5 -160.5t-76.5 -132.5 l-70 -82q-53 -43 -119.5 -72.5t-124.5 -33.5q-43 -4 -67.5 -5.5t-36.5 -2.5t-18.5 -1h-12.5q-35 0 -73.5 7.5t-76.5 20.5t-71 30.5t-55 36.5q-16 16 -31.5 29.5t-32.5 25.5q-96 80 -127 174q-12 41 -21 102.5t-9 106.5zM188 1112v11t2 18l3 67q0 14 -1.5 35l-3.5 49v15 q0 33 25 39h66l24 2h27h26q12 -2 20.5 -2h10.5h84q4 0 11 -6.5t12 -12.5q0 -2 1 -11t1 -31.5v-61.5v-101q0 -31 -6.5 -43t-20.5 -12l-139 2h-101q-41 0 -41 43zM322 502q0 -49 17 -91t48 -74t73 -49.5t91 -17.5q43 0 82 17.5t66.5 46t44 68.5t16.5 85t-18.5 86t-49 72 t-71.5 49.5t-84 18.5t-82 -17.5t-69 -46t-47 -66.5t-17 -81zM592 1096l2 26q0 23 1 36t1 29.5t1 40t1 64.5l-2 25v10q0 20 22 27q37 -2 82 -3t101 -3q68 0 83 -6.5t15 -34.5v-15q-2 -14 -2 -25.5v-27.5q0 -20 1 -48t5 -56q2 -8 2 -23q0 -47 -37 -43l-22 2h-29 q-12 0 -25.5 -1t-25.5 -1h-43h-53.5t-40.5 -2q-37 0 -37 29z" />
<glyph unicode="&#xf7;" d="M111 741q0 35 18 46.5t76 9.5l45 2q14 2 23.5 2h13.5h16t39 -2q10 -2 38 -2h71l235 6h16h11h14q10 2 18 2l48 -4h59q35 0 48 -20.5t13 -67.5v-31v-18v-50q-4 -49 -53 -49h-75.5h-40t-19.5 1t-12 1q-10 2 -35 2h-51h-31l-104 -4l-150 -2h-45q-35 4 -42 4h-19h-23.5 t-50.5 -4q-10 -2 -23.5 5t-17.5 18q-6 12 -8 40.5t-2 114.5zM358 246l2 49l-2 111q0 47 6.5 65t24.5 23l133 2h17.5t17.5 -2h27q35 0 43 -1t16 -6q8 -6 15.5 -17t7.5 -21q0 -225 -9 -240q-8 -20 -36 -21q-27 -2 -65 -2t-75 2t-64.5 4.5t-33.5 6.5q-25 8 -25 47zM358 928 l2 49l-2 110q0 47 6.5 65.5t24.5 23.5l133 2h17.5t17.5 -2h27q35 0 43 -1t16 -6q8 -6 15.5 -17t7.5 -22q0 -225 -9 -239q-8 -20 -36 -21q-27 -2 -65 -2t-75 2t-64.5 4.5t-33.5 6.5q-25 8 -25 47z" />
<glyph unicode="&#xf8;" horiz-adv-x="1093" d="M18 66q0 6 1 10t8.5 12t24 24.5t44.5 47.5q10 10 10 20q0 8 -5 17.5t-23 38.5q-23 35 -38 98t-15 129q0 92 20.5 159.5t67.5 133.5q6 8 10 13t20 34q45 78 127 119q27 14 61 25t69.5 20.5t71.5 14.5t67 5q35 0 74.5 -5t79.5 -13t74 -20.5t56 -24.5q27 -16 36 -19.5 t20 -3.5q8 0 13 1t14 8.5t24.5 21.5t44.5 43q10 10 22 10q10 0 23.5 -9t26 -21.5t20.5 -27t8 -24.5q0 -20 -33 -41q-57 -39 -57 -69q0 -6 5 -16.5t22 -37.5q10 -18 20 -46.5t18.5 -60.5t13.5 -63.5t5 -56.5q0 -76 -17.5 -156t-45.5 -125q-12 -23 -21.5 -35t-25 -27 t-42 -37.5t-73.5 -61.5q-25 -20 -57.5 -38t-68.5 -30t-73 -19.5t-70 -7.5q-10 0 -21 1t-65 6q-10 2 -25 2t-38 2q-18 0 -43 7t-50.5 16t-48 20.5t-36.5 23.5q-33 27 -43 27q-6 0 -19 -12q-45 -51 -62.5 -66.5t-31.5 -15.5q-10 0 -23.5 8t-24.5 19.5t-18.5 25.5t-7.5 27z M336 492q0 -76 24 -76q10 0 56.5 38t111.5 103l33 31q45 41 64.5 60.5t19.5 29.5q0 12 -27.5 24.5t-56.5 12.5q-45 0 -86 -18.5t-71.5 -49.5t-49 -71.5t-18.5 -83.5zM455 305q0 -10 29.5 -21.5t60.5 -11.5q33 0 75 14.5t70 37.5q35 27 58.5 79t23.5 105q0 61 -31 61 q-18 0 -53 -32q-29 -29 -69.5 -65t-114.5 -101q-49 -43 -49 -66z" />
<glyph unicode="&#xf9;" horiz-adv-x="1013" d="M66 303v15.5t1 20.5t2 40t3 76v41v10t-1 44t-2 111.5t-3 217.5q0 43 13 63.5t48 28.5q23 0 58.5 -1t70.5 -3t61.5 -4t28.5 -2q10 -4 18.5 -15.5t8.5 -21.5l-2 -74q-2 -72 -3 -111t-1 -61.5t-1 -34.5t-4 -29q-6 -80 -6 -137q0 -86 37 -140t92 -54q45 0 87 29.5t55 68.5 q2 4 3 7t2 14.5t2 32t3 57.5v40v7q0 8 2 14q2 14 2 44v67v59t-2 35q-4 47 -6 76.5t-2 39.5q0 18 8 41t20 35q16 16 60 17h45t51 -2h21h15t21 2h19q49 0 49 -66v-43q-2 -41 -3 -67.5t-1 -30.5v-283q0 -20 -1 -45.5t-3 -56.5q-4 -78 -7 -132.5t-3 -72.5q0 -10 1 -21.5t5 -62.5 v-12q0 -41 -22.5 -64.5t-63.5 -23.5q-31 0 -62.5 1t-57.5 2t-44.5 2t-22.5 3q-10 4 -14 8t-25 33q-8 12 -16 12q-25 0 -86 -29q-31 -14 -83 -24t-89 -10q-45 0 -95 16t-75 39q-31 29 -51.5 55.5t-32.5 56t-17 66.5t-5 86zM262 1294q0 51 43 58l74 -2q2 0 12 1t27 3h16h8 t21 -4h55q25 0 36 -15.5t26 -74.5q16 -57 25 -105.5t9 -69.5q0 -27 -45 -26q-59 0 -93 1t-52 3t-26.5 6t-14.5 12q-4 4 -6 8.5t-15 24.5q-2 8 -36 57q-4 6 -9.5 15.5t-13.5 23.5q-4 8 -9 16.5t-9 18.5q-23 37 -23 49z" />
<glyph unicode="&#xfa;" horiz-adv-x="1013" d="M66 303v15.5t1 20.5t2 40t3 76v41v10t-1 44t-2 111.5t-3 217.5q0 43 13 63.5t48 28.5q23 0 58.5 -1t70.5 -3t61.5 -4t28.5 -2q10 -4 18.5 -15.5t8.5 -21.5l-2 -74q-2 -72 -3 -111t-1 -61.5t-1 -34.5t-4 -29q-6 -80 -6 -137q0 -86 37 -140t92 -54q45 0 87 29.5t55 68.5 q2 4 3 7t2 14.5t2 32t3 57.5v40v7q0 8 2 14q2 14 2 44v67v59t-2 35q-4 47 -6 76.5t-2 39.5q0 18 8 41t20 35q16 16 60 17h45t51 -2h21h15t21 2h19q49 0 49 -66v-43q-2 -41 -3 -67.5t-1 -30.5v-283q0 -20 -1 -45.5t-3 -56.5q-4 -78 -7 -132.5t-3 -72.5q0 -10 1 -21.5t5 -62.5 v-12q0 -41 -22.5 -64.5t-63.5 -23.5q-31 0 -62.5 1t-57.5 2t-44.5 2t-22.5 3q-10 4 -14 8t-25 33q-8 12 -16 12q-25 0 -86 -29q-31 -14 -83 -24t-89 -10q-45 0 -95 16t-75 39q-31 29 -51.5 55.5t-32.5 56t-17 66.5t-5 86zM399 1092q0 14 1 23t4.5 24.5t10.5 43t19 77.5 q14 55 25.5 72.5t38.5 17.5h55q16 4 19 4h8h16q18 -2 31.5 -3t21.5 -1h12.5t20.5 2h18q23 0 37.5 -15.5t14.5 -40.5q0 -14 -23 -51q-4 -10 -9 -18t-9 -17l-54 -84q-10 -18 -16 -29.5t-10 -16.5t-8.5 -8t-10.5 -5q-6 -4 -10 -5t-18.5 -2t-41 -1h-75.5q-41 0 -55.5 7t-12.5 26 z" />
<glyph unicode="&#xfb;" horiz-adv-x="1013" d="M66 303v15.5t1 20.5t2 40t3 76v41v10t-1 44t-2 111.5t-3 217.5q0 43 13 63.5t48 28.5q23 0 58.5 -1t70.5 -3t61.5 -4t28.5 -2q10 -4 18.5 -15.5t8.5 -21.5l-2 -74q-2 -72 -3 -111t-1 -61.5t-1 -34.5t-4 -29q-6 -80 -6 -137q0 -86 37 -140t92 -54q45 0 87 29.5t55 68.5 q2 4 3 7t2 14.5t2 32t3 57.5v40v7q0 8 2 14q2 14 2 44v67v59t-2 35q-4 47 -6 76.5t-2 39.5q0 18 8 41t20 35q16 16 60 17h45t51 -2h21h15t21 2h19q49 0 49 -66v-43q-2 -41 -3 -67.5t-1 -30.5v-283q0 -20 -1 -45.5t-3 -56.5q-4 -78 -7 -132.5t-3 -72.5q0 -10 1 -21.5t5 -62.5 v-12q0 -41 -22.5 -64.5t-63.5 -23.5q-31 0 -62.5 1t-57.5 2t-44.5 2t-22.5 3q-10 4 -14 8t-25 33q-8 12 -16 12q-25 0 -86 -29q-31 -14 -83 -24t-89 -10q-45 0 -95 16t-75 39q-31 29 -51.5 55.5t-32.5 56t-17 66.5t-5 86zM223 1098q0 10 7.5 23.5t27.5 37.5l35 49 q39 53 77 94t56 52q14 8 41 8h4h8t19.5 -1t36.5 -3q29 -2 46 -4t28.5 -8.5t20.5 -18.5t25 -33q8 -10 15.5 -20t17.5 -21q14 -20 32.5 -45.5t34 -49t26 -41t10.5 -21.5q0 -25 -25 -31h-23q-23 -2 -30.5 -2t-32.5 -2h-7t-14 2q-10 4 -17 4h-13h-6q-16 -2 -26.5 -3t-12.5 -1 q-10 0 -17.5 7t-25.5 32q-20 27 -45 26q-25 0 -45 -26q-16 -23 -22.5 -30t-16.5 -7h-15.5t-19.5 2t-15.5 2h-15.5l-84 -2q-39 0 -39 31z" />
<glyph unicode="&#xfc;" horiz-adv-x="1013" d="M66 303v15.5t1 20.5t2 40t3 76v41v10t-1 44t-2 111.5t-3 217.5q0 43 13 63.5t48 28.5q23 0 58.5 -1t70.5 -3t61.5 -4t28.5 -2q10 -4 18.5 -15.5t8.5 -21.5l-2 -74q-2 -72 -3 -111t-1 -61.5t-1 -34.5t-4 -29q-6 -80 -6 -137q0 -86 37 -140t92 -54q45 0 87 29.5t55 68.5 q2 4 3 7t2 14.5t2 32t3 57.5v40v7q0 8 2 14q2 14 2 44v67v59t-2 35q-4 47 -6 76.5t-2 39.5q0 18 8 41t20 35q16 16 60 17h45t51 -2h21h15t21 2h19q49 0 49 -66v-43q-2 -41 -3 -67.5t-1 -30.5v-283q0 -20 -1 -45.5t-3 -56.5q-4 -78 -7 -132.5t-3 -72.5q0 -10 1 -21.5t5 -62.5 v-12q0 -41 -22.5 -64.5t-63.5 -23.5q-31 0 -62.5 1t-57.5 2t-44.5 2t-22.5 3q-10 4 -14 8t-25 33q-8 12 -16 12q-25 0 -86 -29q-31 -14 -83 -24t-89 -10q-45 0 -95 16t-75 39q-31 29 -51.5 55.5t-32.5 56t-17 66.5t-5 86zM145 1112v11t2 18l3 67q0 14 -1.5 35l-3.5 49v15 q0 33 25 39h66l24 2h27h26q12 -2 20.5 -2h10.5h84q4 0 11 -6.5t12 -12.5q0 -2 1 -11t1 -31.5v-61.5v-101q0 -31 -6.5 -43t-20.5 -12l-139 2h-101q-41 0 -41 43zM549 1096l2 26q0 23 1 36t1 29.5t1 40t1 64.5l-2 25v10q0 20 22 27q37 -2 82 -3t101 -3q68 0 83 -6.5t15 -34.5 v-15q-2 -14 -2 -25.5v-27.5q0 -20 1 -48t5 -56q2 -8 2 -23q0 -47 -37 -43l-22 2h-29q-12 0 -25.5 -1t-25.5 -1h-43h-53.5t-40.5 -2q-37 0 -37 29z" />
<glyph unicode="&#xfd;" horiz-adv-x="833" d="M-10 909q0 45 30 49h140l92 3q29 -2 43 -43q4 -10 6 -17.5t6 -19t10.5 -28.5t18.5 -48t15 -41t9 -37q4 -8 6.5 -17.5t6.5 -19.5q8 -20 14 -42.5t14 -49.5t24.5 -52.5t25.5 -25.5q12 0 14 37l2 16q4 20 9 40t11 40l5 21q10 59 20 106t20 74q4 10 7.5 18.5t7.5 16.5 q14 51 27.5 64.5t54.5 13.5l102 -2l62 2q51 0 51 -41v-13.5t-3 -13.5t-8.5 -22.5t-13.5 -40.5q-4 -14 -10 -34t-12 -44q-6 -23 -9.5 -35t-8.5 -27.5t-14 -37t-24 -60.5q-10 -27 -17 -52.5t-15 -53.5q-6 -20 -18.5 -59.5t-28 -82.5t-30 -81t-22.5 -54q-2 -4 -10 -25.5 t-22 -62.5q-10 -27 -26.5 -57.5t-36 -58t-38 -48t-33.5 -26.5q-20 -8 -32.5 -13.5t-18.5 -9.5q-61 -35 -170 -35q-16 0 -23 1t-42 5q-14 2 -19.5 2h-23.5q-37 2 -51.5 27t-14.5 88v37v59q0 41 15.5 58.5t52.5 21.5h6q31 -4 52.5 -4h68.5q31 0 30 29q0 12 -1 18t-11 29 q-18 43 -24 67q-4 12 -7.5 18.5t-17.5 31.5q-6 12 -16.5 32.5t-21.5 46t-23.5 52t-20.5 51.5l-16 40t-12.5 29.5t-14.5 32t-22 47.5q-12 29 -26.5 62t-25 63.5t-17.5 54t-7 31.5zM309 1092q0 14 1 23t4 24.5t10.5 43t19.5 77.5q14 55 25.5 72.5t38.5 17.5h55q16 4 19 4h7h17 q18 -2 31.5 -3t21.5 -1h12.5t20.5 2h18q23 0 37.5 -15.5t14.5 -40.5q0 -14 -23 -51q-4 -10 -9 -18t-9 -17l-54 -84q-10 -18 -16 -29.5t-10 -16.5t-8.5 -8t-10.5 -5q-6 -4 -10 -5t-18.5 -2t-41 -1h-75.5q-41 0 -55.5 7t-12.5 26z" />
<glyph unicode="&#xfe;" horiz-adv-x="1112" d="M72 -29q0 4 1 22.5t3 47.5q2 14 2 27.5v25.5v24.5t-2 31.5q-2 37 -2 53v45l10 719v192v84t1 52.5t3 28.5t4 13q16 35 64 35l102 -2l76 4q31 0 44 -15.5t13 -53.5v-48.5t-1 -34t-2 -28.5t-3 -33q-2 -18 -3 -29.5t-1 -15.5q0 -106 5 -155.5t15 -51.5q4 0 10.5 3t37.5 24 q31 23 84 35t112 12q57 0 108.5 -16.5t129.5 -59.5q43 -25 80.5 -65.5t64.5 -93t42 -111.5t15 -119q0 -182 -41 -266q-12 -29 -30.5 -59.5t-38.5 -59.5q-2 -2 -12.5 -11t-30.5 -26q-6 -8 -19 -20q-47 -45 -123.5 -75t-150.5 -30q-104 0 -150 23q-35 18 -60.5 29.5 t-37.5 11.5q-8 0 -16 -8.5t-8 -16.5l2 -176q0 -4 -7.5 -12t-13.5 -12q-16 -8 -104 -9q-14 0 -30.5 1t-37.5 3l-74 -4q-14 2 -23 18.5t-7 39.5l2 30zM369 453q0 -39 6 -63.5t22 -47.5q29 -37 84.5 -65.5t102.5 -28.5q23 0 50.5 9t53 25.5t47 36t33.5 41.5q12 23 20.5 54.5 t8.5 56.5q0 47 -22.5 100.5t-55.5 81.5q-23 23 -67 38.5t-79 15.5q-59 0 -113 -40t-77 -100q-8 -16 -11 -45.5t-3 -68.5z" />
<glyph unicode="&#xff;" horiz-adv-x="833" d="M-10 909q0 45 30 49h140l92 3q29 -2 43 -43q4 -10 6 -17.5t6 -19t10.5 -28.5t18.5 -48t15 -41t9 -37q4 -8 6.5 -17.5t6.5 -19.5q8 -20 14 -42.5t14 -49.5t24.5 -52.5t25.5 -25.5q12 0 14 37l2 16q4 20 9 40t11 40l5 21q10 59 20 106t20 74q4 10 7.5 18.5t7.5 16.5 q14 51 27.5 64.5t54.5 13.5l102 -2l62 2q51 0 51 -41v-13.5t-3 -13.5t-8.5 -22.5t-13.5 -40.5q-4 -14 -10 -34t-12 -44q-6 -23 -9.5 -35t-8.5 -27.5t-14 -37t-24 -60.5q-10 -27 -17 -52.5t-15 -53.5q-6 -20 -18.5 -59.5t-28 -82.5t-30 -81t-22.5 -54q-2 -4 -10 -25.5 t-22 -62.5q-10 -27 -26.5 -57.5t-36 -58t-38 -48t-33.5 -26.5q-20 -8 -32.5 -13.5t-18.5 -9.5q-61 -35 -170 -35q-16 0 -23 1t-42 5q-14 2 -19.5 2h-23.5q-37 2 -51.5 27t-14.5 88v37v59q0 41 15.5 58.5t52.5 21.5h6q31 -4 52.5 -4h68.5q31 0 30 29q0 12 -1 18t-11 29 q-18 43 -24 67q-4 12 -7.5 18.5t-17.5 31.5q-6 12 -16.5 32.5t-21.5 46t-23.5 52t-20.5 51.5l-16 40t-12.5 29.5t-14.5 32t-22 47.5q-12 29 -26.5 62t-25 63.5t-17.5 54t-7 31.5zM57 1112v11t2 18l2 67q0 14 -1 35t-3 49v15q0 33 25 39h65l25 2h27h26q12 -2 20.5 -2h10.5h84 q4 0 11 -6.5t11 -12.5q0 -2 1.5 -11t1.5 -31.5v-61.5v-101q0 -31 -6.5 -43t-20.5 -12l-139 2h-101q-41 0 -41 43zM461 1096l2 26q0 23 1 36t1 29.5t1 40t1 64.5l-2 25v10q0 20 22 27q37 -2 82 -3t101 -3q68 0 83 -6.5t15 -34.5v-15q-2 -14 -2 -25.5v-27.5q0 -20 1 -48t5 -56 q2 -8 2 -23q0 -47 -37 -43l-22 2h-29q-12 0 -25.5 -1t-25.5 -1h-43h-53.5t-40.5 -2q-37 0 -37 29z" />
<glyph unicode="&#x152;" horiz-adv-x="1890" d="M39 698q0 80 14.5 150t48.5 153q12 31 25.5 55.5t31 49t41 50.5t58.5 56q49 47 95 79t97.5 50.5t111 26.5t134.5 8h37.5t31.5 -1t44 -3t76 -4q49 -4 132 -6t184.5 -5t212 -4t212.5 -1h76q43 0 55 -15.5t12 -72.5q0 -61 -4 -99.5t-13 -60t-25.5 -29.5t-43.5 -8h-6t-28.5 1 t-75.5 3t-146 6h-30q-66 0 -93.5 -16.5t-27.5 -56.5v-17.5t2 -25.5l2 -39q2 -51 22.5 -65.5t86.5 -14.5l180 2h45q29 -2 47 -2h22h13q49 0 64.5 -21.5t15.5 -91.5q0 -47 -1 -76.5t-3.5 -47t-6.5 -27t-10 -15.5q-8 -6 -16 -10t-34 -6t-77 -2h-143h-22.5t-26.5 2 q-33 2 -56.5 3t-31.5 1q-41 0 -55.5 -19.5t-14.5 -74.5v-95q0 -39 19.5 -55t66.5 -18l117 -2q23 -2 33 -2h32q35 0 65.5 1t59.5 3q18 2 34.5 2h27.5q49 0 69.5 -25.5t20.5 -87.5v-37v-51q0 -102 -74 -98l-35 2h-41q-6 0 -16 -1t-30.5 -1h-53.5h-86h-21l-129 -2l-112 2h-154 l-145 4h-33t-49 -2q-35 -2 -64.5 -2h-62.5q-451 0 -615 360q-35 76 -49 155t-14 191zM348 692q0 -88 21.5 -151.5t68.5 -122.5q98 -117 226 -117q72 0 135 39t110 111q12 20 24.5 48.5t22 61.5t14.5 64.5t5 56.5q0 174 -82 272.5t-227 98.5q-63 0 -97 -10.5t-77 -45.5 q-143 -113 -144 -305z" />
<glyph unicode="&#x153;" horiz-adv-x="1640" d="M25 485q0 43 3 77t11 65.5t23.5 65.5t37.5 77q14 27 27.5 46.5t34 37.5t49.5 36.5t74 43.5q98 55 213 55q66 0 127 -11t92 -30q20 -12 32.5 -19t20.5 -12.5t13 -7.5t16 -6q14 -8 18 -11t14 -9q25 -20 29 -21q4 0 17.5 12.5t31.5 32.5q16 18 46 33.5t67 27t79 17.5t85 6 q66 0 111.5 -11t82.5 -38q76 -53 82 -57q31 -29 51.5 -49.5t33 -38t19.5 -36t15 -42.5q12 -41 18.5 -62.5t9.5 -32t3 -14.5v-8q2 -10 3 -19.5t1 -24.5v-43v-73q0 -29 -6 -39t-29 -24q-10 -6 -19.5 -9t-23.5 -3h-22.5t-26.5 2q-35 2 -52.5 2h-27.5h-12t-37 -4h-8h-9.5 t-33.5 2q-8 2 -18.5 2h-20.5h-35q-18 -2 -33.5 -2h-25.5t-16.5 1t-41.5 5q-10 2 -33 2q-53 0 -53 -25q0 -37 27.5 -65.5t66.5 -32.5q61 -4 93 -7t36 -3l134 6q10 2 18 3t47 11q10 2 27.5 5t42.5 7q23 4 37 6.5t20 2.5q33 0 33 -35v-13.5t-2 -17.5l-2 -31q-2 -43 -3 -67.5 t-5.5 -38.5t-10.5 -20.5t-16 -12.5q-8 -6 -30.5 -14t-49.5 -16.5t-54.5 -15.5t-47.5 -11q-14 -4 -23.5 -5t-18 -2t-19.5 -2t-29 -1q-8 0 -58 -7q-8 -2 -37 -2q-33 0 -70.5 4.5t-74.5 11.5t-69.5 17t-57.5 21q-23 10 -35 21t-39 42q-2 2 -6 2q-2 0 -8 -6q-2 -2 -13.5 -9 t-24.5 -15.5t-27.5 -16.5t-20.5 -10q-16 -8 -34.5 -16.5t-39.5 -18.5q-57 -27 -166 -27q-115 0 -212 37t-152 101q-10 10 -22.5 28.5t-24 38t-20.5 40t-15 34.5q-18 53 -29.5 84t-15.5 52.5t-5 42t-1 54.5zM301 481q0 -31 7 -53t34 -78q23 -47 74 -73.5t119 -26.5q20 0 53 7 t51 15q49 23 76.5 79.5t27.5 140.5q0 31 -16 73.5t-37 65.5q-4 4 -6 7t-16 13l-19 19q-23 20 -49.5 28.5t-71.5 8.5q-31 0 -69.5 -10.5t-61.5 -22.5q-6 -4 -16 -15.5t-21.5 -24.5t-20.5 -26.5t-13 -21.5q-10 -18 -17.5 -52t-7.5 -53zM1030 616q0 -31 12 -30h5q2 2 10 2 l33 -2h15t30 2q10 2 17 2h19h15q16 -2 26.5 -2h12.5h8t33 4l47 -6q10 0 16 11t6 28q0 53 -61 92q-35 23 -125 22q-18 0 -40 -12t-39 -30.5t-28.5 -40t-11.5 -40.5z" />
<glyph unicode="&#x178;" horiz-adv-x="1126" d="M-20 1325q-4 51 65 51h127h57q59 0 81 -10t36 -47q14 -33 21.5 -51.5t12.5 -30.5t10 -20.5t11 -22.5q16 -39 38 -85t44 -103q8 -23 14.5 -35.5t10.5 -22.5t9 -21.5t15 -29.5q14 -31 31 -31q20 0 39 41q4 6 45 113q6 14 17.5 39.5t22.5 52.5t21.5 49.5t14.5 30.5 q18 37 28.5 57.5t15.5 31.5t8 17.5t7 14.5q16 35 31.5 46t50.5 11l111 -2q23 -2 35 -2h24l51 2q61 0 62 -41q0 -8 -1 -14t-4 -14.5t-10.5 -21.5t-21.5 -38q-25 -47 -47.5 -93t-42.5 -89q-8 -16 -14.5 -27.5t-13.5 -26t-20.5 -38t-37.5 -66.5q-4 -8 -8 -15t-10.5 -20.5 t-18.5 -39t-35 -72.5q-25 -51 -69 -140q-25 -49 -41.5 -86t-25.5 -74.5t-12 -80.5t-3 -103v-44t2 -44v-35q0 -53 -2 -83.5t-8.5 -46t-17.5 -20.5t-30 -5h-15t-17 2q-16 2 -28.5 2h-19.5l-126 -2q-25 0 -41.5 7t-24.5 27.5t-11 56.5t-3 95q2 47 4 72.5t3 40t1 23v20.5 q0 45 -3 80t-9.5 64.5t-17.5 57t-28 58.5q-18 37 -43 90q-23 45 -55.5 110.5t-75.5 157.5q-16 35 -27.5 60.5t-21.5 48.5l-55 127l-47 90q-14 29 -14 47zM203 1501v11.5t2 17.5l2 67q0 14 -1 36t-3 50v15q0 33 24 39l66 -2h6q4 0 8 1t10 1q8 2 27 2h13.5t13.5 -2l30 -2l84 2 q4 0 11.5 -6.5t11.5 -12.5q0 -2 1 -11t1 -31.5v-62.5v-102q0 -31 -6 -43t-21 -12l-139 2h-100q-41 0 -41 43zM606 1485l2 26q0 23 1 36.5t1 29.5t1 39.5t1 64.5l-2 25v10q0 20 23 27q37 -2 82 -3t100 -3q66 0 82 -6.5t16 -34.5v-15q-2 -14 -2 -24v-27q0 -47 7 -104 q2 -10 2 -25q0 -41 -37 -41h-23h-45q-35 -2 -54.5 -2h-23.5l-69 -2h-25q-37 0 -37 29z" />
<glyph unicode="&#x2c6;" d="M229 1098q0 10 7.5 23.5t27.5 37.5l35 49q39 53 77 94t56 52q14 8 41 8h4h8.5t19.5 -1t36 -3q29 -2 46 -4t28.5 -8.5t20.5 -18.5t26 -33q8 -10 15 -20t17 -21q14 -20 32.5 -45.5t34 -49t26 -41t10.5 -21.5q0 -25 -25 -31h-22q-23 -2 -31 -2t-33 -2h-7t-13 2 q-10 4 -17.5 4h-13.5h-6q-16 -2 -26.5 -3t-12.5 -1q-10 0 -17.5 7t-25.5 32q-20 27 -45 26q-25 0 -45 -26q-16 -23 -22.5 -30t-16.5 -7h-15.5t-19.5 2t-15.5 2h-15.5l-84 -2q-39 0 -39 31z" />
<glyph unicode="&#x2dc;" d="M168 1141q0 211 158 211q31 0 67.5 -5.5t65.5 -13.5q59 -18 100 -28.5t53 -10.5t16.5 6.5t14.5 42.5q4 14 43 15h14.5t16.5 -2q6 0 12 -1t10 -1h11h75q33 0 33 -58q0 -117 -38 -170t-122 -53q-16 0 -32.5 2t-43 7t-64.5 15.5t-95 26.5q-25 8 -49 9q-16 0 -21.5 -6.5 t-15.5 -41.5q-6 -14 -47 -14h-47h-72q-27 0 -35 14.5t-8 55.5z" />
<glyph unicode="&#x2000;" horiz-adv-x="894" />
<glyph unicode="&#x2001;" horiz-adv-x="1788" />
<glyph unicode="&#x2002;" horiz-adv-x="894" />
<glyph unicode="&#x2003;" horiz-adv-x="1788" />
<glyph unicode="&#x2004;" horiz-adv-x="596" />
<glyph unicode="&#x2005;" horiz-adv-x="447" />
<glyph unicode="&#x2006;" horiz-adv-x="298" />
<glyph unicode="&#x2007;" horiz-adv-x="298" />
<glyph unicode="&#x2008;" horiz-adv-x="223" />
<glyph unicode="&#x2009;" horiz-adv-x="357" />
<glyph unicode="&#x200a;" horiz-adv-x="99" />
<glyph unicode="&#x2010;" horiz-adv-x="440" d="M0 465q0 35 2 65.5t6 51.5q4 23 13.5 31t35.5 12l129 -2h13.5t21.5 2h43h18.5t32.5 -2q92 -6 95 -9q25 -12 24 -47q0 -16 1 -25.5t1 -17.5t1 -18t3 -29q-6 -94 -10 -102q-8 -16 -22.5 -22.5t-55.5 -6.5l-106 2h-29q-18 0 -49 1t-60.5 2t-53 2t-25.5 1q-16 6 -22.5 31 t-6.5 80z" />
<glyph unicode="&#x2011;" horiz-adv-x="440" d="M0 465q0 35 2 65.5t6 51.5q4 23 13.5 31t35.5 12l129 -2h13.5t21.5 2h43h18.5t32.5 -2q92 -6 95 -9q25 -12 24 -47q0 -16 1 -25.5t1 -17.5t1 -18t3 -29q-6 -94 -10 -102q-8 -16 -22.5 -22.5t-55.5 -6.5l-106 2h-29q-18 0 -49 1t-60.5 2t-53 2t-25.5 1q-16 6 -22.5 31 t-6.5 80z" />
<glyph unicode="&#x2012;" horiz-adv-x="440" d="M0 465q0 35 2 65.5t6 51.5q4 23 13.5 31t35.5 12l129 -2h13.5t21.5 2h43h18.5t32.5 -2q92 -6 95 -9q25 -12 24 -47q0 -16 1 -25.5t1 -17.5t1 -18t3 -29q-6 -94 -10 -102q-8 -16 -22.5 -22.5t-55.5 -6.5l-106 2h-29q-18 0 -49 1t-60.5 2t-53 2t-25.5 1q-16 6 -22.5 31 t-6.5 80z" />
<glyph unicode="&#x2013;" horiz-adv-x="1017" d="M68 434v53q2 10 2 17.5v9.5v68q0 45 65 41h4q2 0 5 -1t8 -1l86 2l59 -2h63l240 2l205 -5h39h30q39 0 54.5 -13t15.5 -46v-53v-13.5t2 -19.5q4 -35 4 -43v-16q0 -68 -51 -68h-84l-90 -4q-2 0 -22.5 1t-55.5 3h-65h-195h-52.5t-39.5 2q-14 2 -22.5 2h-10.5l-153 -4 q-23 0 -32 20.5t-9 67.5z" />
<glyph unicode="&#x2014;" horiz-adv-x="1312" d="M0 428v20.5t4 45.5l-4 77q4 55 53 56h14.5t14.5 -2q18 -2 31.5 -2h19.5l78 2l211 -4h32.5t59.5 2h160h155.5h92t53 -1t39.5 -1q37 -2 60.5 -2.5t31.5 -0.5l100 3q61 0 76.5 -5.5t22.5 -27.5q4 -12 5 -21.5t1 -42.5v-18t4 -53q-2 -43 -2 -51.5t-2 -14.5q-6 -45 -72 -45 h-61h-156h-28.5t-61.5 2q-72 2 -164 3t-231 1h-172h-28.5h-24t-33 1t-52.5 3l-164 -4q-39 0 -51 15.5t-12 64.5z" />
<glyph unicode="&#x2018;" horiz-adv-x="468" d="M96 926q0 16 1 26.5t1 22.5t1 30.5t1 53.5q2 86 24.5 151.5t74.5 130.5q8 10 14 16.5t18.5 9.5t36 3h64.5q29 0 28 -22q0 -8 -5 -16.5t-25 -33.5q-8 -10 -16.5 -24t-15.5 -30.5t-12 -32t-5 -23.5q0 -16 9 -22.5t36 -8.5q51 0 45 -55q-2 -6 -2 -12v-5v-10l2 -84l2 -55 q2 -8 2 -13v-10q0 -37 -47 -36h-25h-57l-123 6q-27 10 -27 43z" />
<glyph unicode="&#x2019;" horiz-adv-x="468" d="M96 1324v9q0 37 47 37h11h14h10q18 2 30.5 2h16.5l123 -6q27 -10 27 -43q-2 -23 -2 -55.5t-2 -79.5q-2 -86 -24.5 -151.5t-74.5 -131.5q-8 -10 -14 -16t-18.5 -9t-36 -3h-64.5q-29 0 -28 22q0 8 5 16.5t25 32.5q8 8 16.5 23.5t15.5 32t12 32t5 23.5q0 16 -9 22t-36 9 q-51 0 -45 55q0 4 1 7t1 5v4v10l-2 84l-2 56q-2 8 -2 13z" />
<glyph unicode="&#x201a;" horiz-adv-x="468" d="M96 234.5v9.5q0 37 47 37h25h57l123 -7q27 -10 27 -43q-2 -23 -2 -55.5t-2 -77.5q-2 -86 -24.5 -151.5t-74.5 -130.5q-8 -10 -14 -16.5t-18.5 -9.5t-36 -3h-64.5q-29 0 -28 23q0 8 5 16t25 33q8 8 16.5 23.5t15.5 31.5t12 31.5t5 23.5q0 16 -9 22.5t-36 8.5q-51 0 -45 55 q0 4 1 7.5t1 5.5v4v10l-2 84l-2 55q-2 8 -2 13.5z" />
<glyph unicode="&#x201c;" horiz-adv-x="817" d="M96 926q0 16 1 26.5t1 22.5t1 30.5t1 53.5q2 86 24.5 151.5t74.5 130.5q8 10 14 16.5t18.5 9.5t36 3h64.5q29 0 28 -22q0 -8 -5 -16.5t-25 -33.5q-8 -10 -16.5 -24t-15.5 -30.5t-12 -32t-5 -23.5q0 -16 9 -22.5t36 -8.5q51 0 45 -55q-2 -6 -2 -12v-5v-10l2 -84l2 -55 q2 -8 2 -13v-10q0 -37 -47 -36h-25h-57l-123 6q-27 10 -27 43zM442 926q0 16 1 26.5t1 22.5t1 30.5t1 53.5q2 86 25 151.5t74 130.5q8 10 14 16.5t18.5 9.5t36 3h64.5q29 0 29 -22q0 -8 -5.5 -16.5t-25.5 -33.5q-8 -10 -16.5 -24t-15.5 -30.5t-12 -32t-5 -23.5 q0 -16 9 -22.5t36 -8.5q29 -2 37 -12t8 -43v-17l2 -149q2 -8 2 -13v-10q0 -37 -47 -36h-25h-57l-123 6q-27 10 -27 43z" />
<glyph unicode="&#x201d;" horiz-adv-x="817" d="M96 1324v9q0 37 47 37h11h14h10q18 2 30.5 2h16.5l123 -6q27 -10 27 -43q-2 -23 -2 -55.5t-2 -79.5q-2 -86 -24.5 -151.5t-74.5 -131.5q-8 -10 -14 -16t-18.5 -9t-36 -3h-64.5q-29 0 -28 22q0 8 5 16.5t25 32.5q8 8 16.5 23.5t15.5 32t12 32t5 23.5q0 16 -9 22t-36 9 q-51 0 -45 55q0 4 1 7t1 5v4v10l-2 84l-2 56q-2 8 -2 13zM442 1324v9q0 37 47 37h11h14h10q18 2 30.5 2h16.5l123 -6q27 -10 27 -43q-2 -23 -2 -55.5t-2 -79.5q-2 -86 -23.5 -150.5t-72.5 -132.5q-8 -10 -14.5 -16t-19 -9t-36 -3h-64.5q-29 0 -28 22q0 8 5 16.5t25 32.5 q8 8 16.5 23.5t15.5 32t12.5 32t5.5 23.5q0 16 -9.5 22t-35.5 9q-29 2 -37 12t-8 43v16l-5 150q-2 8 -2 13z" />
<glyph unicode="&#x201e;" horiz-adv-x="817" d="M96 234.5v9.5q0 37 47 37h25h57l123 -7q27 -10 27 -43q-2 -23 -2 -55.5t-2 -77.5q-2 -86 -24.5 -151.5t-74.5 -130.5q-8 -10 -14 -16.5t-18.5 -9.5t-36 -3h-64.5q-29 0 -28 23q0 8 5 16t25 33q8 8 16.5 23.5t15.5 31.5t12 31.5t5 23.5q0 16 -9 22.5t-36 8.5q-51 0 -45 55 q0 4 1 7.5t1 5.5v4v10l-2 84l-2 55q-2 8 -2 13.5zM442 234.5v9.5q0 37 47 37h25h57l123 -7q27 -10 27 -43q-2 -23 -2 -55.5t-2 -77.5q-2 -86 -24.5 -151.5t-71.5 -130.5q-8 -10 -14.5 -16.5t-19 -9.5t-36 -3h-64.5q-29 0 -28 23q0 8 5 16t25 33q8 8 16.5 23.5t15.5 31.5 t12.5 31.5t5.5 23.5q0 16 -9.5 22.5t-35.5 8.5q-29 2 -37 12.5t-8 42.5v17l-5 149q-2 8 -2 13.5z" />
<glyph unicode="&#x2022;" horiz-adv-x="1366" d="M401 694q0 59 22.5 111.5t61.5 90.5t91.5 60.5t111.5 22.5q57 0 108.5 -22.5t89.5 -61.5t60.5 -90t22.5 -109q0 -59 -22.5 -111.5t-60.5 -90t-90.5 -60t-109.5 -22.5q-59 0 -111.5 22.5t-90.5 60t-60.5 89t-22.5 110.5z" />
<glyph unicode="&#x2026;" horiz-adv-x="1574" d="M109 51l2 51l-2 109q0 47 6 65.5t24 22.5l133 2h17.5t17.5 -2h27q35 0 43 -1t16 -5q8 -6 15.5 -17.5t7.5 -19.5q0 -225 -8 -242q-4 -6 -14.5 -12t-22.5 -6q-27 -2 -65 -2t-74.5 2t-64.5 4t-34 6q-25 8 -24 45zM633 51l2 51l-2 109q0 47 6 65.5t25 22.5l133 2h17t17 -2h27 q35 0 43 -1t17 -5q8 -6 15 -17.5t7 -19.5q0 -225 -8 -242q-4 -6 -14.5 -12t-22.5 -6q-27 -2 -64.5 -2t-74.5 2t-64.5 4t-34.5 6q-25 8 -24 45zM1159 51l2 51l-2 109q0 47 6 65.5t25 22.5l133 2h17.5t17.5 -2h26q35 0 43.5 -1t16.5 -5q8 -6 15 -17.5t7 -19.5q0 -225 -8 -242 q-4 -6 -14 -12t-23 -6q-27 -2 -64.5 -2t-74.5 2t-64.5 4t-33.5 6q-25 8 -25 45z" />
<glyph unicode="&#x202f;" horiz-adv-x="357" />
<glyph unicode="&#x2039;" horiz-adv-x="380" d="M68 348v107v155q4 23 18 36t61 42l29 21q25 16 41 30q20 16 28.5 21.5t16.5 5.5q10 0 16.5 -9t6.5 -22q0 -8 -2 -12q-2 -10 -2 -18.5v-16.5v-9t2 -13q2 -23 2 -44.5v-41.5q0 -29 -6 -43l-62 -39q-4 -4 -4 -11q0 -6 7 -12t54 -33q4 -4 6.5 -8t2.5 -16q0 -98 -1 -146.5 t-3 -52.5q-8 -12 -23 -12q-4 0 -11 3t-21.5 12t-41 27.5t-71.5 49.5q-31 23 -37 29t-6 20z" />
<glyph unicode="&#x203a;" horiz-adv-x="380" d="M96 238q0 8 2 12q2 10 2 18v17v24q-2 25 -3 46.5t-1 37.5q0 29 8 43q0 2 7.5 6t50.5 33q4 4 4 10q0 2 -1 5.5t-6 7.5t-17.5 11t-35.5 21q-4 4 -6 8.5t-2 16.5q0 98 1 146.5t3 52.5q8 12 23 12q4 0 11 -3t21.5 -12.5t41 -27.5t71.5 -49q31 -23 37 -29t6 -20l-2 -107 l2 -156q-2 -20 -17 -34.5t-63 -42.5q-23 -16 -39 -28.5t-30 -23.5q-33 -27 -45 -26q-10 0 -16.5 9t-6.5 22z" />
<glyph unicode="&#x205f;" horiz-adv-x="447" />
<glyph unicode="&#x2122;" horiz-adv-x="1486" d="M10 1237q0 82 10.5 105.5t47.5 25.5l258 -4h47q33 2 56.5 2h39.5q49 0 61 -35q2 -6 2 -20.5v-53.5q-2 -66 -6 -69q-4 -8 -12 -15.5t-12 -7.5l-62 2q-10 0 -26.5 -10t-20.5 -20q-4 -8 -7 -30t-3 -44v-86l-4 -49v-47v-56v-22q0 -4 1 -6t1 -4v-5v-13t-2 -19t-2 -29 q0 -4 1 -20.5t2 -38l2 -43t1 -35.5q0 -25 -21.5 -35t-74.5 -10h-11l-43 2h-40q-35 4 -35 45l2 76v12l-2 92l6 125v14v20.5t-2 22.5q-2 8 -2 19q0 10 2 16q2 16 3 27.5t1 17.5q0 4 -1 13.5t-3 21.5q-2 4 -2 12q0 6 2 11q2 8 2 18v2q-4 23 -15.5 41t-21.5 18l-84 -2 q-33 0 -33 68zM596 1285v13q0 68 49 68h31h35h14h33q16 0 29.5 -10t29.5 -37q29 -45 63.5 -92t65.5 -86t54.5 -63.5t29.5 -24.5q2 0 13.5 15t23.5 34q2 2 10 15t19.5 27.5t21.5 29t15 20.5q10 10 21 31.5t34 64.5q45 84 74 84q20 0 42.5 -1t42 -2t34 -2t18.5 -1 q35 -10 35 -37l-2 -41l2 -94v-7t-2 -15q-2 -23 -3.5 -36.5t-1.5 -23.5l3 -104l-3 -80v-29.5t3 -36.5q2 -20 2 -36.5v-26.5v-8.5v-11.5t-1 -22.5t-4 -41.5v-23v-12t5 -41v-25q0 -72 -50 -71l-71 2h-72q-31 4 -31 41q0 10 1 20t3 25q2 12 2 19v12l-2 108l2 98q0 12 -5 21.5 t-13 9.5t-13 -5t-32 -34q-6 -8 -17.5 -20.5t-27.5 -28.5q-4 -4 -12 -16q-25 -29 -33 -36t-23 -7q-12 0 -20 2t-18.5 10t-26 25.5t-39.5 48.5l-29 30l-31 33q-23 25 -36 25q-10 0 -13.5 -7.5t-3.5 -29.5v-18.5t-2 -49.5v-36.5t-4 -69.5v-58l2 -61q2 -8 2 -16q0 -41 -45 -41 h-7t-24 2l-55 -2h-22h-2h-29q-14 2 -24.5 12t-10.5 25v4q0 4 2 6v12v10q-2 35 -3 55.5t-1 24.5v6t4 33q2 8 2 29v33q-2 20 -2 39.5v56.5l2 135v96v62q-4 37 -5 57t-2 31.5t-1 16.5z" />
<glyph unicode="&#x25fc;" horiz-adv-x="972" d="M0 0v973h973v-973h-973z" />
</font>
</defs>
</svg>
