<?xml version="1.0" standalone="no"?>
<!DOCTYPE svg PUBLIC "-//W3C//DTD SVG 1.1//EN" "http://www.w3.org/Graphics/SVG/1.1/DTD/svg11.dtd" >
<svg xmlns="http://www.w3.org/2000/svg" xmlns:xlink="http://www.w3.org/1999/xlink" version="1.1">
<metadata></metadata>
<defs>
<font id="knubiregular" horiz-adv-x="1159" >
<font-face units-per-em="2048" ascent="1542" descent="-506" />
<missing-glyph horiz-adv-x="473" />
<glyph horiz-adv-x="0" />
<glyph horiz-adv-x="682" />
<glyph unicode=" "  horiz-adv-x="473" />
<glyph unicode="&#x09;" horiz-adv-x="473" />
<glyph unicode="&#xa0;" horiz-adv-x="473" />
<glyph unicode="!" horiz-adv-x="485" d="M143 74q0 40 29 69t70 29q40 0 68 -29t28 -69t-28.5 -69.5t-67.5 -29.5q-41 0 -70 29.5t-29 69.5zM172 1456q0 8 6 14.5t15 6.5h98q7 0 13.5 -6.5t6.5 -14.5l-12 -1173q0 -9 -6 -15t-14 -6h-74q-9 0 -15 6t-6 15z" />
<glyph unicode="&#x22;" horiz-adv-x="663" d="M98 1417v49q0 3 3.5 7t7.5 4h174q12 0 12 -15v-182l-2 -23l-94 -170q-3 -10 -15 -10h-37q-5 0 -9.5 4.5t-4.5 10.5l31 239q0 4 -2 6l-51 58q-13 13 -13 22zM371 1417v49q0 11 10 11h174q12 0 12 -15v-182q0 -11 -4 -23l-94 -170q-3 -10 -14 -10h-37q-5 0 -8.5 4.5 t-3.5 10.5l30 239q0 4 -2 6l-51 58q-12 12 -12 22z" />
<glyph unicode="#" horiz-adv-x="1357" d="M66 471l18 98q2 8 8.5 14.5t13.5 6.5h248q22 0 25 20l45 256q1 9 -3.5 15t-12.5 6h-248q-9 0 -14 6t-3 14l17 99q3 20 24 20h248q8 0 16 6t9 15l71 409q2 8 9 14.5t16 6.5h96q9 0 15 -6.5t4 -14.5l-74 -409q-1 -9 4 -15t14 -6h256q9 0 16.5 6t8.5 15l72 409q2 8 8.5 14.5 t15.5 6.5h98q8 0 13 -7t4 -14l-72 -409q-1 -9 4 -15t13 -6h227q19 0 16 -20l-16 -99q-2 -8 -9 -14t-16 -6h-227q-8 0 -16 -6t-9 -15l-45 -256q-1 -9 4 -14.5t13 -5.5h229q8 0 13 -7t4 -14l-19 -98q-1 -9 -7.5 -14.5t-14.5 -5.5h-230q-7 0 -13.5 -6.5t-8.5 -14.5l-74 -410 q0 -8 -7.5 -14t-15.5 -6h-98q-19 0 -16 20l71 410q2 8 -3.5 14.5t-12.5 6.5h-258q-7 0 -15 -6.5t-10 -14.5l-71 -410q-3 -20 -25 -20h-96q-9 0 -14.5 5.5t-4.5 14.5l74 410q2 8 -3.5 14.5t-14.5 6.5h-248q-8 0 -12.5 5.5t-3.5 14.5zM518 610q-1 -9 4 -14.5t13 -5.5h258 q8 0 14.5 5.5t7.5 14.5l45 256q4 21 -16 21h-256q-9 0 -16.5 -6t-8.5 -15z" />
<glyph unicode="$" horiz-adv-x="1116" d="M78 272v144q0 10 10 10h49q12 0 15 -10l26 -47q2 -7 22 -45t27 -43q126 -116 260 -140v607q-67 31 -111 54t-97 59t-84 72t-52.5 86t-21.5 107q0 81 32 143t86.5 98.5t116 56.5t131.5 26v117q0 20 21 20h74q8 0 14 -5.5t6 -14.5v-117q27 -3 53.5 -9.5t43.5 -12t43 -18.5 t34.5 -18t36.5 -22t33 -20q7 -4 10 2l41 43q7 11 16 6l48 -10q10 -3 10 -15v-186q0 -11 -10 -14l-41 -11q-23 -6 -35 11q-59 59 -78 73q-100 79 -205 99v-508q45 -20 70 -31.5t67.5 -32.5t67.5 -36t60.5 -38.5t56.5 -44.5t45 -49t37 -56t21.5 -62.5t8.5 -71.5 q0 -170 -109.5 -274t-324.5 -113v-115q0 -9 -6 -14.5t-14 -5.5h-74q-21 0 -21 20v117q-58 5 -102.5 17t-93 40.5t-77.5 49t-95 71.5q-8 3 -24.5 22.5t-16.5 38.5zM262 1135q0 -77 58.5 -133.5t166.5 -108.5v457q-100 -10 -162.5 -61.5t-62.5 -153.5zM602 135q141 8 214 76.5 t73 194.5q0 50 -21.5 92.5t-66 78t-88.5 61.5t-111 58v-561z" />
<glyph unicode="%" horiz-adv-x="1316" d="M66 1094q0 181 74 282.5t190 98.5q116 3 190 -98.5t74 -282.5q0 -182 -74 -283.5t-190 -99.5q-116 -2 -190 99.5t-74 283.5zM168 1094q0 -132 43 -205.5t119 -73.5q74 0 116.5 73.5t42.5 205.5q0 131 -42.5 204.5t-116.5 71.5q-75 2 -118.5 -71.5t-43.5 -204.5zM191 5 q3 -5 12 -5h69q20 0 31 18l821 1440q5 8 2 13.5t-12 5.5h-70q-19 0 -30 -19l-821 -1440q-5 -8 -2 -13zM723 383q0 181 74 283t190 100q116 2 190 -100t74 -283t-74 -283t-190 -100q-116 -2 -190 100t-74 283zM827 383q0 -132 43 -205.5t117 -73.5q76 0 119 73.5t43 205.5 q0 131 -43.5 204.5t-118.5 71.5q-74 2 -117 -71.5t-43 -204.5z" />
<glyph unicode="&#x26;" horiz-adv-x="1308" d="M90 393q0 232 254 383q10 7 2 15q-145 154 -145 360q0 149 90 249.5t256 100.5q173 0 260.5 -92t87.5 -246q0 -132 -75 -230t-240 -175q-5 -2 -5.5 -7t3.5 -8l342 -348q4 -5 9 -3.5t7 7.5q33 103 33 242q0 5 -3.5 10.5t-9.5 5.5l-137 31q-12 0 -12 17v47q0 10 12 10h340 q10 0 10 -10v-47q0 -14 -10 -17l-49 -24q-10 -7 -10 -17q0 -210 -66 -360q0 -6 2 -8l129 -132l19 -14l86 -57q8 -8 8 -17v-49q0 -10 -10 -10h-256q-13 0 -13 10v49q0 10 9 19l20 18q8 8 0 17l-51 51q-9 8 -12 -2q-145 -187 -412 -187q-211 0 -337 109.5t-126 308.5zM221 393 q0 -130 89.5 -218.5t242.5 -88.5q205 0 319 172q2 5 0 10l-426 424q-5 2 -10 0q-99 -50 -157 -119.5t-58 -179.5zM338 1151q0 -168 127 -295l8 -8q2 -2 8 -2l66 28q121 51 167 120.5t46 168.5q0 103 -54 165.5t-159 62.5q-58 0 -100 -20.5t-65 -55.5t-33.5 -75.5 t-10.5 -88.5z" />
<glyph unicode="'" horiz-adv-x="393" d="M98 1417v49q0 3 3.5 7t7.5 4h174q12 0 12 -15v-182l-2 -23l-94 -170q-3 -10 -15 -10h-37q-5 0 -9.5 4.5t-4.5 10.5l31 239q0 4 -2 6l-51 58q-13 13 -13 22z" />
<glyph unicode="(" horiz-adv-x="493" d="M82 618q0 145 24 289.5t63.5 263.5t75 201.5t74.5 155.5q2 3 8.5 7.5t12.5 4.5h100q15 0 6 -14q-24 -42 -49.5 -92.5t-62.5 -144.5t-65 -190.5t-48 -225.5t-20 -255t20 -255t48 -225t65 -190t62.5 -144.5t49.5 -92.5q9 -14 -6 -14h-100q-6 0 -12.5 4.5t-8.5 7.5 q-39 73 -74.5 155.5t-75 201t-63.5 263t-24 289.5z" />
<glyph unicode=")" horiz-adv-x="495" d="M49 -289q25 43 50 93t62.5 144t65 190t48 225t20.5 255t-20.5 255t-48 225.5t-65 190.5t-63 144t-49.5 93q-5 14 6 14h101q14 0 20 -12q39 -73 74.5 -155.5t75.5 -201.5t64 -263.5t24 -289.5t-24 -289.5t-64 -263.5t-75.5 -201t-74.5 -155q-6 -12 -20 -12h-101 q-11 0 -6 14z" />
<glyph unicode="*" horiz-adv-x="632" d="M114 1175.5q2 8.5 9 12.5l104 57q7 5 7 11t-7 10l-104 57q-16 9 -8 29l28 43q4 7 12.5 9t14.5 -3l92 -64q14 -11 14 9l-6 110q0 8 6 14.5t15 6.5h51q9 0 14.5 -6.5t5.5 -14.5l-6 -110q-1 -9 4 -11.5t11 2.5l90 64q18 11 28 -6l27 -43q11 -19 -6 -29l-104 -57 q-17 -10 0 -21l104 -57q7 -4 9 -12.5t-3 -14.5l-27 -45q-10 -17 -28 -6l-90 66q-6 5 -11 1.5t-4 -12.5l6 -110q0 -8 -5.5 -14.5t-14.5 -6.5h-51q-9 0 -15 6.5t-6 14.5l6 110q0 9 -4 12t-10 -1l-92 -66q-6 -5 -14.5 -3t-12.5 9l-28 45q-3 6 -1 14.5z" />
<glyph unicode="+" horiz-adv-x="960" d="M90 604v109q0 5 4 8.5t8 3.5h304q10 0 10 12v303q0 11 12 11h109q12 0 12 -11v-303q0 -12 10 -12h301q4 0 8 -3.5t4 -8.5v-109q0 -4 -4 -8t-8 -4h-301q-10 0 -10 -10v-301q0 -5 -4 -9t-8 -4h-109q-4 0 -8 4t-4 9v301q0 10 -10 10h-304q-4 0 -8 4t-4 8z" />
<glyph unicode="," horiz-adv-x="630" d="M205 90v47q0 10 10 10h174q12 0 12 -12v-184l-2 -21l-94 -172q-5 -10 -14 -10h-37q-5 0 -9.5 4t-4.5 10l30 240q0 6 -2 6l-51 60q-12 12 -12 22z" />
<glyph unicode="-" horiz-adv-x="917" d="M123 532v132q0 10 12 10h649q11 0 11 -10v-132q0 -12 -11 -12h-649q-5 0 -8.5 4t-3.5 8z" />
<glyph unicode="." horiz-adv-x="419" d="M113 78q0 40 28.5 68t69.5 28q40 0 68 -28t28 -68q0 -41 -28 -69.5t-68 -28.5q-41 0 -69.5 28.5t-28.5 69.5z" />
<glyph unicode="/" horiz-adv-x="962" d="M45 -205l748 1737q3 10 16 10h102q10 0 7 -10l-750 -1737q-3 -10 -16 -10h-99q-11 0 -8 10z" />
<glyph unicode="0" horiz-adv-x="1253" d="M100 737q0 182 40.5 329t111.5 242t167 145t208 48q112 2 207.5 -48t166.5 -145t111.5 -242t40.5 -329t-40.5 -328.5t-111.5 -241.5t-166.5 -144.5t-207.5 -47.5q-230 -5 -378.5 198t-148.5 564zM240 737q0 -310 103 -482.5t284 -170.5q181 -2 284 170.5t103 482.5 q0 312 -103 484.5t-284 169.5q-181 3 -284 -169.5t-103 -484.5z" />
<glyph unicode="1" horiz-adv-x="542" d="M133 10v49q0 12 10 15l50 26q10 3 10 15v1212q0 11 -10 14l-50 27q-10 3 -10 14v50q0 11 10 14l84 27q12 4 21 4h82q4 0 8 -4t4 -7v-1351q0 -12 10 -15l49 -26q11 -4 11 -15v-49q0 -10 -13 -10h-256q-10 0 -10 10z" />
<glyph unicode="2" horiz-adv-x="1019" d="M53 10v45q0 7 10 17l63 63q63 62 96 95t95.5 97.5t99 106t91 104.5t87 109t70 105t58.5 106.5t35 99.5t14 97q0 152 -68.5 247t-191.5 95q-52 0 -97 -14.5t-68 -29t-62 -44.5q-20 -15 -44.5 -39.5t-31.5 -34.5q-15 -15 -35 -10l-41 10q-10 3 -10 14v187q0 12 10 12l45 12 q12 4 19 -6l39 -43q6 -6 10 -2q6 4 31 19.5t33.5 20t31 16t38 15.5t40 10.5t51 8.5t57.5 2q163 0 271 -119.5t108 -314.5q0 -52 -10.5 -104.5t-35.5 -108.5t-49.5 -103t-70 -108.5t-77.5 -103.5t-92.5 -110t-94 -105t-103 -110.5t-100.5 -107.5q-3 -4 -0.5 -8t7.5 -4h526 q8 0 16 8l25 70q3 10 14 10h49q13 0 13 -10v-162q0 -10 -11 -10h-850q-10 0 -10 10z" />
<glyph unicode="3" horiz-adv-x="1120" d="M86 207v143q0 10 10 10h49q11 0 15 -8l26 -47q2 -7 22.5 -46t27.5 -44q76 -67 150.5 -102t168.5 -35q139 0 235.5 92.5t96.5 232.5q0 141 -96 233.5t-234 92.5h-186q-11 0 -11 12v47q0 12 9 17l69 24q28 11 47 11h31q124 0 209.5 78t85.5 202q0 126 -75.5 201.5 t-198.5 75.5q-52 0 -96.5 -14.5t-67.5 -29t-62 -44.5q-44 -33 -75 -74q-15 -15 -37 -10l-41 10q-11 4 -11 14v187q0 12 11 12l47 12q10 3 16 -6l41 -43q3 -6 10 -2t31 19t33 20t31 16.5t37.5 15.5t40 10.5t51 8.5t57.5 2q162 0 273.5 -107.5t111.5 -271.5q0 -188 -172 -307 q-5 -3 -4.5 -9t6.5 -7q121 -53 192.5 -156.5t71.5 -239.5q0 -186 -133.5 -308t-343.5 -122q-74 0 -126.5 8t-99.5 30t-81 45t-95 69q-17 13 -26 20q-41 32 -41 62z" />
<glyph unicode="4" horiz-adv-x="1067" d="M41 438v82q0 8 12 23l598 923q7 11 19 11h90q10 0 10 -11v-921q0 -13 10 -13h109q9 0 16 11l25 49q3 10 16 10h47q11 0 11 -10v-225q0 -13 -11 -13h-47q-12 0 -16 11l-25 49q-7 10 -16 10h-107q-12 0 -12 -12v-297q0 -10 10 -15l51 -26q9 -4 9 -15v-49q0 -10 -11 -10 h-256q-10 0 -10 10v49q0 11 8 15l52 26q10 5 10 15v297q0 12 -10 12h-570q-12 0 -12 14zM141 539q-2 -7 2 -7h478q12 0 12 13v737q0 7 -3.5 8t-6.5 -4z" />
<glyph unicode="5" horiz-adv-x="1103" d="M90 209v143q0 10 10 10h50q10 0 14 -8l26 -47q2 -7 22.5 -46t27.5 -44q76 -67 148.5 -101t166.5 -34q159 0 246.5 94t87.5 270q0 170 -86.5 258.5t-247.5 88.5h-422q-8 0 -8 10v80l4 16l154 567q11 11 18 11h639q10 0 10 -11v-147q0 -10 -12 -10h-49q-12 0 -15 10l-24 49 q-7 10 -16 10h-457q-8 0 -12 -12l-117 -436q-6 -15 6 -15h301q213 0 339 -122t126 -344q0 -225 -127 -349.5t-338 -124.5q-59 0 -105 6.5t-78 15t-71 31t-63 39.5t-74 55q-21 16 -33 25q-41 32 -41 62z" />
<glyph unicode="6" horiz-adv-x="1122" d="M104 596q0 438 118.5 671.5t365.5 233.5q43 0 75 -3.5t60.5 -15t41 -17.5t43 -26.5t40.5 -27.5q7 -4 10 2l41 45q3 6 16 6l48 -12q10 -3 10 -12v-193q0 -7 -10 -12q-27 -8 -43 -10q-22 -6 -35 10q-7 10 -31.5 34.5t-44.5 39.5q-53 42 -97 61t-120 19q-155 0 -236.5 -129 t-107.5 -375q0 -3 2.5 -5t5.5 1q134 94 319 94q207 0 332 -136t125 -360q0 -246 -125.5 -375t-337.5 -129q-227 0 -346 164t-119 457zM236 532q0 -115 36 -214.5t113.5 -165.5t183.5 -66q160 0 246 98.5t86 294.5q0 173 -85.5 279t-240.5 106q-157 0 -248 -90t-91 -242z" />
<glyph unicode="7" horiz-adv-x="1052" d="M57 1313q1 8 17.5 75t19.5 78t12 11h836h10h86q11 -4 11 -13v-73q0 -9 -11 -15l-39 -24l-725 -1350l-2 -2h-135q-12 0 -12 10v45q0 7 10 17q8 3 25 15.5t24 21.5q1 1 64.5 120.5t155 291.5t187.5 350t175.5 320t105.5 179q4 12 -8 12h-686q-8 0 -16 -8l-29 -67 q-5 -9 -14 -9h-49q-5 0 -9.5 4t-3.5 11z" />
<glyph unicode="8" horiz-adv-x="1116" d="M94 412q0 136 61.5 235.5t172.5 151.5q-162 105 -162 321q0 175 108 278t285 103q175 0 283 -104t108 -277q0 -108 -42.5 -190.5t-119.5 -130.5q110 -52 172 -152t62 -235q0 -200 -127.5 -318.5t-335.5 -118.5q-210 0 -337.5 119t-127.5 318zM225 406q0 -147 88.5 -234.5 t245.5 -87.5q156 0 244 86.5t88 235.5q0 147 -88 234t-244 87q-157 0 -245.5 -86t-88.5 -235zM303 1122q0 -123 68 -195.5t188 -72.5q119 0 186.5 72t67.5 196q0 123 -67.5 196t-186.5 73q-120 0 -188 -72.5t-68 -196.5z" />
<glyph unicode="9" horiz-adv-x="1124" d="M90 999q0 246 125.5 374t339.5 128q226 0 344.5 -162.5t118.5 -455.5q0 -112 -5.5 -206t-19.5 -189t-37 -170t-60 -141t-86 -110t-116.5 -69t-150.5 -25q-48 0 -89.5 10t-79 33t-60 39.5t-60 50t-51.5 44.5l-5 4l-7.5 7.5t-9 10t-9.5 12.5t-7 13.5t-3 13.5v147 q0 11 12 11h47q10 0 17 -11l24 -47q41 -82 49 -92q2 -3 18 -21t20 -21.5t19 -19t22 -19.5t22.5 -15.5t27 -15t28 -9.5t34 -8t37.5 -2q73 0 129 26.5t92.5 71t62 112t38.5 139t20 163.5q0 8 -7 4q-133 -100 -325 -100q-209 0 -334 135t-125 360zM221 997q0 -172 86 -277.5 t242 -105.5t247 90t91 242q0 84 -21.5 163t-62 143t-105 102.5t-143.5 38.5q-161 0 -247.5 -99t-86.5 -297z" />
<glyph unicode=":" horiz-adv-x="440" d="M123 78q0 40 28.5 68t69.5 28q40 0 68 -28t28 -68q0 -41 -28 -69.5t-68 -28.5q-41 0 -69.5 28.5t-28.5 69.5zM123 817q0 40 28.5 68t69.5 28q40 0 68 -28t28 -68q0 -41 -28 -69.5t-68 -28.5q-41 0 -69.5 28.5t-28.5 69.5z" />
<glyph unicode=";" horiz-adv-x="460" d="M131 90v47q0 10 10 10h174q13 0 13 -12v-184l-2 -21l-95 -172q-5 -10 -14 -10h-37q-5 0 -9.5 4t-4.5 10l31 240q0 6 -2 6l-52 60q-12 12 -12 22zM131 817q0 40 29 68t69 28t69.5 -28.5t29.5 -67.5q0 -41 -29.5 -69.5t-69.5 -28.5t-69 28.5t-29 69.5z" />
<glyph unicode="&#x3c;" horiz-adv-x="1093" d="M70 530v125q0 14 10 17l887 403q10 3 10 -6v-137q0 -14 -10 -17l-717 -317q-10 -7 0 -10l717 -320q10 -3 10 -16v-135q0 -9 -10 -6l-887 403q-10 3 -10 16z" />
<glyph unicode="=" horiz-adv-x="1114" d="M133 422v131q0 10 12 10h826q10 0 10 -10v-131q0 -12 -10 -12h-826q-5 0 -8.5 4t-3.5 8zM133 764v127q0 12 12 12h826q10 0 10 -12v-127q0 -12 -10 -12h-826q-12 0 -12 12z" />
<glyph unicode="&#x3e;" horiz-adv-x="1093" d="M117 117v137q0 13 10 16l719 318q10 3 0 10l-719 320q-10 3 -10 16v135q0 9 10 6l887 -403q10 -3 10 -17v-125q0 -13 -10 -16l-887 -403q-10 -3 -10 6z" />
<glyph unicode="?" horiz-adv-x="894" d="M66 1245v187q0 11 10 14l47 10q9 4 16 -6l41 -43q3 -6 10 -2q12 7 42.5 27t46 28t44.5 20t63 16.5t77 4.5q74 0 137.5 -18.5t118 -58t86 -110.5t31.5 -167q0 -69 -20 -126.5t-51.5 -98.5t-69.5 -79.5t-76.5 -81.5t-70 -93t-51.5 -124t-20 -165q0 -10 -8 -10h-131 q-8 0 -8 8q1 97 21.5 177t52.5 133.5t71 98.5t77.5 83t70 76.5t51.5 89.5t20 112q0 254 -243 254q-181 0 -295 -168l-2 -2q-15 -15 -37 -10l-41 10q-10 3 -10 14zM305 78q0 40 29 68t69 28t69.5 -28.5t29.5 -67.5q0 -41 -29.5 -69.5t-69.5 -28.5t-69 28.5t-29 69.5z" />
<glyph unicode="@" horiz-adv-x="1806" d="M90 479q0 170 57.5 317t163.5 255.5t267 170.5t358 62q149 0 274 -38.5t214.5 -107t152.5 -161t93 -201t30 -227.5q0 -115 -21.5 -209t-56 -154.5t-80 -101.5t-90.5 -58.5t-90 -17.5q-73 0 -124.5 43t-57.5 103q-3 13 -11 2q-45 -73 -129 -127t-204 -54 q-208 0 -327.5 129.5t-119.5 358.5q0 231 123 361t336 130q171 0 287 -133q9 -6 16 -2l4 10l23 91q5 10 14 10h8q11 0 23 -4l120 -27q11 -4 11 -12v-45q0 -11 -8 -15l-52 -24q-10 -5 -10 -15v-86h2v-469q0 -38 22.5 -70t55.5 -32q95 0 151 108.5t56 309.5q0 129 -42 240.5 t-120.5 195t-200 131t-272.5 47.5q-320 0 -515.5 -187t-195.5 -497q0 -292 170.5 -473.5t435.5 -181.5q195 0 343 74q13 7 20 -7q3 -5 10.5 -41.5t7.5 -39.5q3 -13 -6 -19q-91 -47 -183.5 -64.5t-217.5 -17.5q-144 0 -275 57t-228 156.5t-154.5 244.5t-57.5 312zM518 463 q0 -174 83 -276.5t235 -102.5q150 0 231.5 101.5t81.5 277.5q0 174 -81 276.5t-232 102.5q-152 0 -235 -101.5t-83 -277.5z" />
<glyph unicode="A" horiz-adv-x="1267" d="M33 10v49q0 12 10 15l43 22q9 4 16 19l459 1259q3 13 -6 19l-59 24q-11 7 -11 17v47q0 10 11 14l120 29q12 4 23 4h8q10 0 15 -10l505 -1403q8 -13 15 -17l49 -24q10 -3 10 -15v-49q0 -10 -10 -10h-260q-10 0 -10 10v49q0 11 8 15l51 24q13 9 8 19l-141 389q0 4 -8 4 h-529q-8 0 -8 -4l-141 -387q-5 -12 8 -21l49 -24q10 -3 10 -15v-49q0 -10 -10 -10h-215q-10 0 -10 10zM387 629q-2 -3 1 -7t7 -4h439q4 0 7 4t1 9l-219 602q-1 6 -7.5 6t-9.5 -6z" />
<glyph unicode="B" horiz-adv-x="1251" d="M127 10v49q0 12 10 15l49 24q9 6 13 17v1245q0 8 -11 14l-51 27q-10 5 -10 14v51q0 11 10 11h553q161 0 273 -105t112 -262q0 -183 -172 -299q-5 -3 -4.5 -8t6.5 -8q120 -48 192 -148.5t72 -230.5q0 -177 -125 -296.5t-305 -119.5h-602q-10 0 -10 10zM336 115 q0 -17 12 -17h344q139 0 235.5 90.5t96.5 225.5q0 136 -95.5 224.5t-234.5 88.5h-348q-10 0 -10 -8v-604zM336 846q0 -10 10 -10h307q125 0 210 75.5t85 194.5t-85 194.5t-210 75.5h-299q-7 0 -12.5 -6t-5.5 -14v-510z" />
<glyph unicode="C" horiz-adv-x="1363" d="M92 737q0 182 52 328t142.5 240.5t211.5 145t262 50.5q111 0 202 -37.5t185 -113.5q7 -4 10 2l35 39q7 10 18 6l45 -13q5 0 9 -4t4 -8v-196q-4 -12 -13 -15q-25 -8 -41 -12q-21 -3 -47 20q-1 1 -20 25t-33 38.5t-41.5 41t-57.5 44t-69 36t-87 28t-101 9.5 q-111 0 -207 -44t-167 -125.5t-112 -206.5t-41 -278q0 -154 41 -278.5t112.5 -206t167.5 -125t208 -43.5q94 0 181.5 27.5t195.5 115.5q5 4 22 35t31 60l14 28q3 10 17 10h36q11 0 11 -12v-137q0 -22 -15 -33q-6 -5 -33 -25.5t-37 -27.5t-37.5 -26.5t-42.5 -28t-44.5 -24.5 t-50.5 -23.5t-53 -18.5t-60.5 -16t-63.5 -9t-71 -4q-140 0 -261.5 51.5t-212 146.5t-142.5 240.5t-52 323.5z" />
<glyph unicode="D" horiz-adv-x="1466" d="M129 10v49q0 12 10 15l49 26q11 4 11 15v1247q0 10 -11 14l-49 27q-10 3 -10 14v49q0 11 10 11h553q321 0 499.5 -194.5t178.5 -543.5q0 -346 -187 -542.5t-491 -196.5h-553q-10 0 -10 10zM338 115q0 -17 14 -17h340q253 0 393 164.5t140 476.5q0 314 -134 476.5 t-399 162.5h-338q-16 0 -16 -20v-1243z" />
<glyph unicode="E" d="M129 10v49q0 12 10 15l49 26q11 4 11 19v1218q0 35 -11 39l-49 27q-10 3 -10 14v49q0 11 10 11h905q4 0 7.5 -4t3.5 -7v-147q-3 -10 -15 -10h-47q-9 0 -16 10l-25 49q-3 10 -16 10h-582q-16 0 -16 -20v-555q0 -10 10 -10h443q12 0 16 8l24 51q5 10 17 10h47q10 0 10 -12 v-225q0 -11 -10 -11h-47q-13 0 -17 11l-24 49q-3 10 -16 10h-443q-10 0 -10 -12v-557q0 -17 12 -17h647q13 0 17 11l24 49q3 10 17 10h47q9 0 14 -10v-148q0 -10 -12 -10h-965q-10 0 -10 10z" />
<glyph unicode="F" horiz-adv-x="1093" d="M129 10v49q0 12 10 15l49 26q11 4 11 15v1239q0 18 -11 22l-49 27q-10 3 -10 14v49q0 11 10 11h905q4 0 7.5 -4t3.5 -7v-147q-3 -10 -15 -10h-47q-9 0 -16 10l-25 49q-3 10 -16 10h-582q-16 0 -16 -20v-555q0 -10 10 -10h443q12 0 16 8l24 51q5 10 17 10h47q10 0 10 -12 v-225q0 -11 -10 -11h-47q-13 0 -17 11l-24 49q-3 10 -16 10h-443q-10 0 -10 -12v-557q0 -12 10 -15l49 -26q11 -4 11 -15v-49q0 -10 -13 -10h-256q-10 0 -10 10z" />
<glyph unicode="G" horiz-adv-x="1417" d="M92 739q0 181 52 327.5t142.5 240.5t211.5 144t262 50q111 0 202 -36.5t185 -112.5q5 -5 10 0l35 41q6 6 18 6l45 -13q13 -4 13 -14v-196q-4 -13 -13 -13q-25 -8 -41 -12q-21 -6 -47 20q-1 1 -20 25t-33 38.5t-41.5 41t-57.5 44t-69 36t-87 28t-101 9.5 q-111 0 -207 -44.5t-167 -126t-112 -206.5t-41 -277q0 -155 41 -280t112.5 -206.5t167.5 -125t208 -43.5q91 0 175.5 25.5t188.5 107.5q0 1 1 2t1 2v338q0 12 -12 16l-131 25q-10 3 -10 16v48q0 10 10 10h340q12 0 12 -10v-48q0 -11 -10 -16l-51 -25q-8 -4 -8 -16v-356 q0 -16 -13 -25q-9 -6 -41.5 -31t-47 -35t-49 -32.5t-57.5 -33.5t-61 -27t-71.5 -24t-77 -14t-88.5 -6q-140 0 -261.5 51.5t-212 147t-142.5 241.5t-52 324z" />
<glyph unicode="H" horiz-adv-x="1501" d="M129 10v49q0 12 10 15l49 26q11 4 11 17v1245q0 10 -11 14l-49 27q-10 3 -10 14v49q0 11 10 11h256q4 0 8.5 -4t4.5 -7v-49q0 -10 -11 -14l-49 -27q-10 -3 -10 -14v-561q0 -8 8 -8h809q8 0 8 8v561q0 11 -10 14l-49 27q-10 3 -10 14v49q0 11 10 11h256q4 0 8 -4t4 -7v-49 q0 -11 -10 -14l-51 -27q-6 -3 -7 -3q-1 2 -1 9v-1245q0 -33 8 -37l51 -26q10 -3 10 -15v-49q0 -10 -12 -10h-256q-10 0 -10 10v49q0 12 10 15l49 26q10 3 10 15v561q0 8 -8 8h-809q-8 0 -8 -8v-561q0 -12 10 -15l49 -26q11 -4 11 -15v-49q0 -10 -13 -10h-256q-10 0 -10 10z " />
<glyph unicode="I" horiz-adv-x="536" d="M129 10v49q0 12 10 15l49 26q11 4 11 15v1247q0 10 -11 14l-49 27q-10 3 -10 14v49q0 11 10 11h256q4 0 8.5 -4t4.5 -7v-49q0 -10 -11 -14l-49 -27q-10 -3 -10 -14v-1247q0 -12 10 -15l49 -26q11 -4 11 -15v-49q0 -10 -13 -10h-256q-10 0 -10 10z" />
<glyph unicode="J" horiz-adv-x="532" d="M-133 -356l10 16q17 27 27.5 31t46.5 2q60 0 104 21.5t71 57t43 90t22 112t6 132.5v1256q0 10 -11 14l-49 27q-10 3 -10 14v49q0 11 10 11h256q4 0 8.5 -4t4.5 -7v-49q0 -10 -11 -14l-49 -27q-10 -3 -10 -14v-1276q0 -228 -114.5 -362t-303.5 -134q-14 0 -18 4l-31 31 q-9 9 -2 19z" />
<glyph unicode="K" horiz-adv-x="1280" d="M129 10v49q0 12 10 15l49 26q11 4 11 15v1247q0 10 -11 14l-49 27q-10 3 -10 14v49q0 11 10 11h256q4 0 8.5 -4t4.5 -7v-49q0 -10 -11 -14l-49 -27q-10 -3 -10 -14v-543q0 -12 10 -12h117q10 0 18 8l541 653q9 9 16 9h154q10 0 10 -11v-14v-20v-50q0 -10 -10 -10h-84 q-8 0 -16 -8l-506 -616q-7 -11 2 -17l579 -584l17 -14l86 -57q10 -7 10 -17v-49q0 -10 -12 -10h-256q-10 0 -10 10v49q0 14 8 19l18 18q8 8 0 17l-545 549q-6 6 -20 6h-117q-10 0 -10 -11v-542q0 -12 10 -15l49 -26q11 -4 11 -15v-49q0 -10 -13 -10h-256q-10 0 -10 10z" />
<glyph unicode="L" horiz-adv-x="1130" d="M129 10v49q0 12 10 15l49 26q11 4 11 15v1247q0 10 -11 14l-49 27q-10 3 -10 14v49q0 11 10 11h256q4 0 8.5 -4t4.5 -7v-49q0 -10 -11 -14l-49 -27q-10 -3 -10 -14v-1237q0 -16 12 -16h647q13 0 17 8l24 51q4 8 17 8h47q11 0 14 -10v-156q0 -10 -12 -10h-965 q-10 0 -10 10z" />
<glyph unicode="M" horiz-adv-x="1742" d="M129 10v49q0 12 10 15l49 26q11 4 11 15v1247q0 10 -11 14l-49 27q-10 3 -10 14v49q0 11 10 11h178q11 0 11 -9l546 -1235l533 1237q0 7 8 7h189q10 0 10 -11v-49q0 -11 -10 -14l-50 -27q-10 -3 -10 -14v-1247q0 -12 10 -15l50 -26q10 -3 10 -15v-49q0 -10 -10 -10h-256 q-13 0 -13 10v49q0 11 11 15l49 26q10 3 10 15v1067q0 7 -6.5 8.5t-9.5 -4.5l-510 -1192q-6 -19 -19 -19h-12q-14 0 -29 37l-504 1164q-3 6 -9.5 5t-6.5 -7v-1059q0 -12 10 -15l49 -26q11 -4 11 -15v-49q0 -10 -11 -10h-219q-10 0 -10 10z" />
<glyph unicode="N" horiz-adv-x="1495" d="M129 10v49q0 12 10 15l49 26q11 4 11 15v1247q0 10 -11 14l-49 27q-10 3 -10 14v49q0 11 10 11h180q9 0 9 -4l874 -1180v1069q0 11 -10 14l-49 27q-10 3 -10 14v49q0 3 4 7t8 4h213q10 0 10 -11v-49q0 -11 -10 -14l-49 -27q-11 -4 -11 -14v-1366q0 -21 -14 -21h-4 q-19 0 -33 19l-208 280q-208 281 -440 596.5t-286 391.5q-3 4 -8.5 1.5t-5.5 -8.5v-1140q0 -12 10 -15l49 -26q11 -4 11 -15v-49q0 -10 -11 -10h-219q-10 0 -10 10z" />
<glyph unicode="O" horiz-adv-x="1517" d="M92 713q0 182 52 328t142.5 240.5t211.5 145t262 50.5q140 0 260.5 -51.5t211 -147t142 -241.5t51.5 -324q0 -181 -51.5 -327.5t-142 -241t-211 -145t-260.5 -50.5t-261.5 51.5t-212 147t-142.5 241.5t-52 324zM231 713q0 -154 41 -279t112.5 -206.5t167.5 -125 t208 -43.5q111 0 206.5 44.5t167 126t112 206.5t40.5 277q0 154 -40.5 278.5t-112 206t-167 125t-206.5 43.5q-230 0 -379.5 -175t-149.5 -478z" />
<glyph unicode="P" horiz-adv-x="1130" d="M129 10v49q0 12 10 15l49 26q11 4 11 15v1247q0 10 -11 14l-49 27q-10 3 -10 14v49q0 11 10 11h504q102 0 187 -38t140 -99.5t85 -138.5t30 -157q0 -86 -34.5 -167.5t-92.5 -142t-140 -97.5t-173 -37h-299q-8 0 -8 -8v-477q0 -12 10 -15l49 -26q11 -4 11 -15v-49 q0 -10 -13 -10h-256q-10 0 -10 10zM338 717q0 -8 8 -8h299q133 0 219 102.5t86 232.5q0 85 -32.5 159t-104 124.5t-170.5 50.5h-289q-16 0 -16 -20v-641z" />
<glyph unicode="Q" horiz-adv-x="1521" d="M92 737q0 182 52 328t142.5 240.5t211.5 145t262 50.5q140 0 260.5 -51.5t211 -147t142 -241.5t51.5 -324q0 -197 -59.5 -349t-167.5 -251l152 -176l4 -4l53 -6q10 0 14 -12l15 -45q3 -10 -4 -17l-93 -55q-5 -5 -20 -10h-2q-12 -4 -17 6l-200 245q-146 -88 -340 -88 q-140 0 -261.5 51.5t-212 146.5t-142.5 240.5t-52 323.5zM231 737q0 -154 41 -278.5t112.5 -205t167.5 -124t208 -43.5q146 0 264 74l-223 274l-90 58q-9 9 -9 16v47q0 12 11 12h252q10 0 10 -12v-47q0 -13 -6 -19l-25 -22q-7 -11 -2 -16q123 -153 174 -213q170 181 170 499 q0 155 -40.5 280t-112 206t-167 124.5t-206.5 43.5q-112 0 -208 -44t-167.5 -125.5t-112.5 -206.5t-41 -278z" />
<glyph unicode="R" horiz-adv-x="1206" d="M129 10v49q0 12 10 15l49 26q11 4 11 15v1247q0 10 -11 14l-49 27q-10 3 -10 14v49q0 11 10 11h549q113 0 203 -58.5t138 -151.5t48 -200q0 -148 -101 -264t-245 -148q-9 -3 -6 -12l342 -489q6 -12 20 -21l87 -57q8 -8 8 -17v-49q0 -10 -11 -10h-256q-10 0 -10 10v49 q0 13 6 19l21 18q7 7 0 17l-361 530q-4 4 -8 4h-217q-8 0 -8 -8v-524q0 -12 10 -15l49 -26q11 -4 11 -15v-49q0 -10 -13 -10h-256q-10 0 -10 10zM338 762q0 -8 8 -8h299q121 0 209 95t88 218q0 125 -85 218t-214 93h-289q-16 0 -16 -20v-596z" />
<glyph unicode="S" horiz-adv-x="1167" d="M82 209v143q0 10 10 10h49q12 0 15 -10l26 -47q2 -7 22 -45t27 -43q70 -64 164.5 -101.5t192.5 -37.5q166 0 262 70t96 208q0 79 -45.5 145t-117.5 113t-159.5 89.5t-175.5 86t-160 91t-117.5 114.5t-45.5 148q0 76 30 139t77 102.5t109 66.5t122 38.5t119 11.5 q70 0 130.5 -15t93.5 -31t83 -46q7 -4 10 2l41 43q7 10 16 6l48 -10q10 -3 10 -14v-187q0 -11 -10 -14l-41 -10q-23 -6 -35 10q-62 63 -78 74q-121 92 -256 92q-45 0 -89 -7.5t-88 -26.5t-77 -46.5t-53.5 -71.5t-20.5 -98q0 -48 28.5 -90t76 -75t110 -64t131 -62t137 -64 t131 -75.5t110 -91t76 -115.5t28.5 -145q0 -180 -133.5 -287t-372.5 -107q-152 0 -246 37.5t-219 134.5q-8 3 -24.5 23t-16.5 39z" />
<glyph unicode="T" horiz-adv-x="1277" d="M20 1311v188q0 10 11 10h49q2 0 10 -4l35 -24q8 -4 10 -4h1008q2 0 10 4q1 0 9.5 5.5t17 11.5t10.5 7q4 4 10 4h47q10 0 10 -10v-188q0 -13 -10 -13h-47q-12 0 -16 11l-25 49q-3 10 -16 10h-420q-14 0 -14 -14v-1239q0 -12 10 -15l49 -26q10 -3 10 -15v-49q0 -10 -10 -10 h-256q-12 0 -12 10v49q0 12 10 15l49 26q10 3 10 15v1239q0 14 -12 14h-422q-11 0 -14 -10l-27 -49q-4 -11 -14 -11h-49q-11 0 -11 13z" />
<glyph unicode="U" horiz-adv-x="1466" d="M113 1417v49q0 11 10 11h256q4 0 8 -4t4 -7v-49q0 -11 -10 -14l-49 -27q-9 -3 -13 -14v-735q0 -277 111.5 -409t302.5 -132t302.5 131.5t111.5 407.5v737q0 11 -10 14l-50 27q-10 3 -10 14v49q0 11 10 11h256q4 0 8.5 -4t4.5 -7v-49q0 -11 -10 -14l-52 -27q-8 -4 -8 -14 v-739q0 -164 -43.5 -290t-120 -203t-175 -116t-214.5 -39q-117 0 -215.5 39.5t-174 116.5t-118.5 203t-43 289v739q0 11 -10 14l-49 27q-10 3 -10 14z" />
<glyph unicode="V" horiz-adv-x="1372" d="M18 1417v49q0 3 3.5 7t7.5 4h260q4 0 8 -4t4 -7v-49q0 -9 -10 -14l-51 -27q-12 -4 -9 -18l476 -1106q1 -4 3.5 -5.5t5.5 -0.5t5 4l459 1108q5 13 -9 18l-49 27q-10 3 -10 14v49q0 11 10 11h215q4 0 7.5 -4t3.5 -7v-49q0 -10 -11 -14l-43 -23q-9 -5 -16 -18l-559 -1368 q-2 -6 -8 -12.5t-13 -6.5h-22q-4 0 -10.5 7t-8.5 12l-565 1368q-8 12 -14 14l-49 27q-11 4 -11 14z" />
<glyph unicode="W" horiz-adv-x="2045" d="M18 1417v49q0 3 3.5 7t7.5 4h260q4 0 8 -4t4 -7v-49q0 -9 -10 -14l-51 -27q-12 -4 -9 -18l476 -1106q7 -17 14 -2l250 600q3 9 0 18l-205 494q-8 12 -14 14l-50 27q-10 3 -10 14v49q0 11 10 11h261q4 0 8 -4t4 -7v-49q0 -9 -10 -14l-52 -27q-11 -4 -8 -18l137 -324 q4 0 5 2l133 322q5 13 -9 18l-49 27q-10 3 -10 14v49q0 11 10 11h215q4 0 7.5 -4t3.5 -7v-49q0 -10 -11 -14l-43 -23q-9 -5 -16 -18l-178 -436q-5 -9 0 -23l278 -651q3 -7 8.5 -7.5t8.5 5.5l458 1108q5 14 -8 18l-49 27q-10 3 -10 14v49q0 11 10 11h215q10 0 10 -11v-49 q0 -11 -10 -14l-43 -23q-9 -5 -16 -18l-559 -1368q-9 -19 -23 -19h-20q-13 0 -19 19l-305 739q-3 3 -6 0l-301 -739q-9 -19 -23 -19h-20q-13 0 -19 19l-565 1368q-8 12 -14 14l-49 27q-11 4 -11 14z" />
<glyph unicode="X" horiz-adv-x="1314" d="M12 10v45q0 11 11 15l43 20q25 13 30 19l492 618q6 6 0 12l-473 627q-12 12 -19 14l-49 25q-10 3 -10 16v45q0 11 10 11h287q12 0 12 -11v-45q0 -13 -10 -16l-49 -25q-7 -1 -10.5 -6t-0.5 -10l396 -522q3 -3 6 0l414 522q6 9 -9 16l-49 25q-10 3 -10 16v45q0 11 10 11 h213q13 0 13 -11v-45q0 -12 -11 -16l-37 -16q-11 -8 -22 -23l-465 -586q-3 -3 0 -10l487 -643q10 -13 41 -33l50 -22q10 -7 10 -17v-45q0 -10 -10 -10h-299q-11 0 -11 10v45q0 9 8 17l52 22q15 10 8 19l-418 553q-1 3 -4 3.5t-4 -1.5l-440 -555q-6 -12 8 -19l51 -24 q10 -5 10 -15v-45q0 -10 -12 -10h-229q-11 0 -11 10z" />
<glyph unicode="Y" horiz-adv-x="1255" d="M18 1417v49q0 3 3.5 7t7.5 4h260q4 0 8 -4t4 -7v-49q0 -9 -10 -14l-51 -27q-12 -4 -9 -18l418 -653q1 -3 6 -3t7 3l399 653q6 11 -8 18l-52 27q-8 4 -8 14v49q0 3 3.5 7t7.5 4h213q4 0 8 -4t4 -7v-49q0 -9 -10 -14l-43 -23q-6 -3 -17 -18l-461 -754v-6v-487q0 -11 11 -15 l49 -26q10 -3 10 -15v-49q0 -10 -12 -10h-256q-11 0 -11 10v49q0 11 11 15l49 26q10 3 10 15v493q0 2 -2 4l-465 750q-8 12 -14 14l-49 27q-11 4 -11 14z" />
<glyph unicode="Z" horiz-adv-x="1204" d="M27 10v45q0 10 10 17l47 37q727 1130 819 1261q3 4 0.5 8t-8.5 4h-664q-8 0 -16 -8l-29 -67q-4 -9 -14 -9h-49q-5 0 -9 4t-3 11q1 9 17 75.5t19 77.5t13 11h835h11h84q12 0 12 -13v-73q0 -10 -10 -15l-39 -24l-161 -258q-161 -259 -361.5 -570.5t-282.5 -417.5 q-3 -4 -1 -8t7 -4h778q13 0 17 8l24 70q7 10 17 10h47q11 0 14 -10v-162q0 -10 -10 -10h-1104q-10 0 -10 10z" />
<glyph unicode="[" horiz-adv-x="620" d="M174 -244v1766q0 4 4 8t8 4h375q5 0 8.5 -4t3.5 -8v-84q0 -11 -12 -11h-235q-13 0 -13 -12v-1552q0 -10 13 -10h235q4 0 8 -4t4 -9v-84q0 -4 -3.5 -8t-8.5 -4h-375q-4 0 -8 4t-4 8z" />
<glyph unicode="\" horiz-adv-x="937" d="M47 1466q-4 11 6 11h103q12 0 16 -11l721 -1671q3 -5 1 -7.5t-7 -2.5h-101q-11 0 -14 10z" />
<glyph unicode="]" horiz-adv-x="620" d="M47 -160q0 10 12 10h236q4 0 8 4t4 9v1552q0 10 -12 10h-236q-4 0 -8 4t-4 9v84q0 4 3.5 8t8.5 4h375q4 0 8 -4t4 -8v-1766q0 -4 -4 -8t-8 -4h-375q-5 0 -8.5 4t-3.5 8v84z" />
<glyph unicode="^" horiz-adv-x="831" d="M112 1042q-3 6 1 13l243 403q11 19 31 19h57q22 0 33 -19l242 -403q5 -7 2 -13t-12 -6h-91q-19 0 -30 19l-160 286q-10 17 -20 0l-164 -286q-3 -7 -12 -13t-17 -6h-92q-8 0 -11 6z" />
<glyph unicode="_" horiz-adv-x="1447" d="M123 -63q0 10 12 10h1180q10 0 10 -10v-74q0 -13 -10 -13h-1180q-12 0 -12 13v74z" />
<glyph unicode="`" horiz-adv-x="397" d="M71.5 1802q2.5 6 8.5 6h127q2 0 6 -4l109 -217q3 -6 -1 -10t-10 -4h-78q-1 0 -3 1t-3 1l-155 217q-3 4 -0.5 10z" />
<glyph unicode="a" horiz-adv-x="1042" d="M61 283q0 55 13.5 100t32.5 78t55.5 58.5t66 42t82 28t85.5 17t94.5 8t91.5 3t92 0.5h28h48q8 0 8 9q-6 158 -74 241.5t-168 83.5q-98 0 -156.5 -25.5t-105.5 -70.5q-10 -10 -14 -22l-17 -54q-3 -8 -14 -12l-45 -8q-13 -4 -17 8l-20 45q-14 31 -12 43.5t22 34.5 q65 80 155.5 121t223.5 41q96 0 171 -36.5t120 -99t68.5 -141t23.5 -168.5v-2v-491q0 -12 10 -15l49 -26q11 -4 11 -15v-49q0 -10 -11 -10h-153q-12 0 -12 10l-31 121l-2 21v10q0 6 -6 6t-11 -10q-18 -29 -42 -56t-63.5 -58t-97 -50t-124.5 -19t-129 19.5t-113.5 56.5 t-82 97t-30.5 135zM207 293q0 -81 61 -144t170 -63q95 0 171 62.5t113.5 152t37.5 182.5v17q0 10 -10 10h-50q-206 0 -284 -13q-169 -28 -201 -140q-8 -29 -8 -64z" />
<glyph unicode="b" horiz-adv-x="1157" d="M86 10v49q0 12 10 15l49 26q11 4 11 15v1278q0 10 -11 14l-49 27q-10 3 -10 14v49q0 11 10 14l84 27q12 4 21 4h84q10 0 10 -12v-537v-75q0 -9 6 -9l12 9q132 135 308 135q206 0 334 -148t128 -391q0 -245 -126 -392t-336 -147q-182 0 -316 144q-4 4 -6 4q-6 0 -10 -8 l-27 -105q-3 -10 -12 -10h-154q-10 0 -10 10zM287 514q0 -197 89.5 -313.5t244.5 -116.5t243 115.5t88 314.5q0 202 -91 316t-240 114q-153 0 -243.5 -115.5t-90.5 -314.5z" />
<glyph unicode="c" horiz-adv-x="987" d="M74 514q0 247 128 393t337 146q79 0 128.5 -15.5t116.5 -58.5q6 -3 11 2l41 49q7 8 18 4l47 -10q10 -3 10 -14v-197q0 -11 -10 -14l-43 -11q-18 -5 -33 7q-6 5 -24 26q-54 63 -115.5 93t-146.5 30q-157 0 -245.5 -116t-88.5 -314q0 -196 88.5 -313t245.5 -117 q128 0 239 100q6 5 23 36t31 59l14 28q4 8 16 8h39q10 0 10 -10v-129q0 -19 -14 -33q-173 -168 -360 -168q-210 0 -336.5 147t-126.5 392z" />
<glyph unicode="d" horiz-adv-x="1157" d="M74 514q0 245 125 392t340 147q173 0 305 -135q9 -9 12 -9q6 0 6 9v475q0 10 -8 14l-51 27q-10 5 -10 14v49q0 9 12 14l82 27q12 4 22 4h80q12 0 12 -14v-1411q0 -10 11 -17l49 -26q10 -7 10 -15v-49q0 -10 -10 -10h-152q-11 0 -14 10l-27 105q-3 8 -8 8q-4 0 -8 -4 q-134 -144 -313 -144q-209 0 -337 146.5t-128 392.5zM205 514q0 -194 85.5 -312t248.5 -118q152 0 241.5 118.5t89.5 311.5q0 195 -89 312.5t-242 117.5t-243.5 -117t-90.5 -313z" />
<glyph unicode="e" horiz-adv-x="1030" d="M74 518q0 126 37 229t101 169t149.5 101.5t183.5 35.5q176 0 297 -142t133 -354q0 -6 -0.5 -8t-2.5 -3.5t-7 -2.5l-119 -31q-6 -2 -23 -2h-610q-10 0 -10 -10v-4q4 -90 25 -162t60 -129t103.5 -88t149.5 -31q148 0 245 92q4 4 21 34.5t32 59.5l15 29q8 8 16 8h37 q13 0 13 -10v-131q0 -16 -15 -31q-167 -162 -362 -162q-217 0 -343 150t-126 393zM213 629q0 -11 12 -11h590q6 0 9 4t1 7q-21 145 -95.5 230t-192.5 85q-127 0 -218 -87.5t-106 -227.5z" />
<glyph unicode="f" horiz-adv-x="665" d="M43 938v51q0 12 10 15q127 30 131 30q4 2 6.5 4.5t2.5 3.5v2q0 229 114 363.5t303 134.5q103 0 193 -43q10 -3 10 -14v-47q0 -17 -2 -21l-29 -84q-3 -10 -14 -10h-47q-13 0 -16 10l-25 49q-1 2 -5.5 11.5t-5.5 11.5t-6 9t-9 8.5t-11.5 6t-16.5 5.5t-22 2.5t-29 1.5 q-60 0 -103.5 -19t-70 -51.5t-42.5 -83.5t-21.5 -107t-5.5 -130q0 -13 8 -13h297q12 0 12 -10v-51q0 -5 -3.5 -8.5t-8.5 -3.5l-119 -31q-6 -2 -22 -2h-156q-8 0 -8 -8v-805q0 -13 10 -15l84 -26q10 -2 10 -15v-49q0 -10 -10 -10h-324q-10 0 -10 10v49q0 12 10 15l80 26 q11 2 11 15v805q0 8 -9 8h-131q-10 0 -10 10z" />
<glyph unicode="g" d="M74 514q0 239 126 389t339 150q179 0 313 -144q10 -10 18 9l27 106q0 10 12 10h11q14 0 20 -2l123 -28q10 -5 10 -15v-47q0 -13 -10 -16l-49 -25q-10 -3 -10 -16v-852q0 -254 -128.5 -396.5t-336.5 -142.5q-88 0 -160 37.5t-141 128.5q-12 17 -19 21l-53 24q-10 3 -10 14 v50q0 9 10 12l94 20q12 4 23 4h8q10 0 14 -12q28 -77 97.5 -132.5t136.5 -55.5q144 0 235.5 110.5t91.5 304.5v93q0 6 -5 7.5t-11 -3.5q-63 -67 -143 -104.5t-168 -37.5q-209 0 -337 146t-128 393zM205 514q0 -201 88.5 -315.5t245.5 -114.5q152 0 241.5 116t89.5 314 q0 194 -89.5 312t-241.5 118q-159 0 -246.5 -116.5t-87.5 -313.5z" />
<glyph unicode="h" horiz-adv-x="1136" d="M86 10v49q0 12 10 15l49 26q11 4 11 15v1278q0 10 -11 14l-49 27q-10 3 -10 14v49q0 11 10 14l84 27q12 4 21 4h82q5 0 8.5 -4t3.5 -8v-627q0 -7 5.5 -8.5t10.5 4.5q48 72 133.5 113t178.5 41q94 0 176.5 -43t137 -132t54.5 -206v-557q0 -10 10 -15l52 -26q8 -4 8 -15 v-49q0 -10 -10 -10h-187q-10 0 -10 10v627q0 134 -74 221.5t-176 87.5q-79 0 -151.5 -52t-115 -132t-42.5 -160v-592q0 -10 -12 -10h-187q-10 0 -10 10z" />
<glyph unicode="i" horiz-adv-x="454" d="M90 10v49q0 12 10 15l50 26q10 3 10 15v770q0 13 -10 16l-50 25q-10 3 -10 16v47q0 12 10 15l84 28q6 2 21 2h82q12 0 12 -10v-909q0 -12 10 -15l49 -26q11 -4 11 -15v-49q0 -10 -13 -10h-256q-10 0 -10 10zM131 1282q0 41 29 69.5t69 28.5t69.5 -28.5t29.5 -69.5 q0 -39 -29.5 -67.5t-69.5 -28.5t-69 28t-29 68z" />
<glyph unicode="j" horiz-adv-x="438" d="M30 -449.5q-4 -12.5 7 -46.5q3 -10 12 -10h39q9 0 18 6q91 60 139.5 169.5t49.5 258.5v1096q0 10 -12 10h-82q-17 0 -21 -2l-84 -28q-10 -3 -10 -15v-47q0 -13 10 -16l49 -25q11 -4 11 -16v-936q0 -272 -97 -361q-25 -25 -29 -37.5zM125 1282q0 41 29 69.5t69 28.5 t69.5 -28.5t29.5 -69.5q0 -39 -29.5 -67.5t-69.5 -28.5t-69 28t-29 68z" />
<glyph unicode="k" horiz-adv-x="1058" d="M86 10v49q0 12 10 15l49 26q11 4 11 15v1278q0 10 -11 14l-49 27q-10 3 -10 14v49q0 11 10 14l84 27q12 4 21 4h82q5 0 8.5 -4t3.5 -8v-901q0 -11 10 -11h117q9 0 18 9l334 399q8 8 19 8h151q10 0 10 -10v-12v-23v-47q0 -12 -10 -12h-82q-13 0 -18 -8l-299 -365 q-8 -8 0 -16l401 -394l19 -14l86 -57q8 -8 8 -17v-49q0 -10 -10 -10h-256q-13 0 -13 10v49q0 11 8 19l21 18q3 3 3 8.5t-3 8.5l-369 358q-8 8 -18 8h-117q-10 0 -10 -12v-457q0 -10 -12 -10h-187q-10 0 -10 10z" />
<glyph unicode="l" horiz-adv-x="458" d="M90 10v49q0 12 10 15l50 26q10 3 10 15v1278q0 11 -10 14l-50 27q-10 3 -10 14v49q0 11 10 14l84 27q12 4 21 4h82q5 0 8.5 -4t3.5 -8v-1415q0 -12 10 -15l49 -26q11 -4 11 -15v-49q0 -10 -13 -10h-256q-10 0 -10 10z" />
<glyph unicode="m" horiz-adv-x="1761" d="M90 10v49q0 12 10 15l50 26q10 3 10 15v770q0 13 -10 16l-50 25q-10 3 -10 16v47q0 12 10 15l123 28q4 2 21 2h10q9 0 12 -10l29 -117l4 -12q7 -7 16 4q49 73 127 113.5t170 40.5q96 0 177 -52.5t126 -146.5q3 -6 10 -6t11 6q60 95 139.5 147t196.5 52q92 0 169.5 -45.5 t126 -135.5t48.5 -208v-549q0 -12 10 -15l49 -26q11 -4 11 -15v-49q0 -10 -11 -10h-186q-12 0 -12 10v627q0 136 -63 222.5t-163 86.5q-122 0 -208.5 -91t-86.5 -214v-526q0 -9 11 -15l51 -26q10 -5 10 -15v-49q0 -10 -12 -10h-256q-10 0 -10 10v49q0 11 8 15l51 26 q10 5 10 15v522q0 137 -63 223t-164 86q-122 0 -207.5 -91t-85.5 -214v-491v-140q0 -10 -12 -10h-187q-10 0 -10 10z" />
<glyph unicode="n" horiz-adv-x="1138" d="M90 10v49q0 12 10 15l50 26q10 3 10 15v770q0 13 -10 16l-50 25q-10 3 -10 16v47q0 12 10 15l123 28q4 2 21 2h10q9 0 12 -10l29 -117l4 -12q7 -7 16 4q48 72 133.5 113t178.5 41q145 0 256.5 -107.5t111.5 -281.5v-549q0 -9 11 -15l51 -26q8 -4 8 -15v-49q0 -10 -10 -10 h-187q-10 0 -10 10v627q0 137 -73.5 223t-178.5 86q-122 0 -214.5 -92t-92.5 -213v-491v-140q0 -10 -12 -10h-187q-10 0 -10 10z" />
<glyph unicode="o" horiz-adv-x="1075" d="M74 514q0 247 128 393t337 146q208 0 335 -147t127 -392q0 -247 -127.5 -393t-334.5 -146q-210 0 -337.5 147t-127.5 392zM205 514q0 -196 88.5 -313t245.5 -117q155 0 243 116t88 314q0 196 -87.5 313t-243.5 117q-157 0 -245.5 -116t-88.5 -314z" />
<glyph unicode="p" d="M86 -449q0 14 10 17l49 24q11 7 11 17v1276q0 12 -11 16l-49 25q-10 3 -10 16v47q0 12 10 15l123 28q4 2 21 2h10q9 0 12 -10l29 -117q6 -21 20 -10q59 74 139 115t171 41q212 0 338 -146.5t126 -396.5q0 -244 -131 -389.5t-333 -145.5q-189 0 -308 140q-6 5 -12 2 t-6 -11v-10v-487q0 -10 10 -17l49 -24q11 -4 11 -17v-47q0 -10 -13 -10h-256q-10 0 -10 10v47zM289 514q0 -196 88 -313t244 -117q157 0 245 116t88 314q0 196 -88.5 313t-244.5 117t-244 -116t-88 -314z" />
<glyph unicode="q" d="M74 510q0 250 126 396.5t337 146.5q187 0 311 -156q12 -12 18 10l29 117q3 10 14 10h9q16 0 22 -2l121 -28q12 -4 12 -15v-47q0 -11 -10 -16l-51 -25q-8 -4 -8 -16v-1276q0 -9 8 -17l51 -24q10 -5 10 -17v-47q0 -10 -12 -10h-256q-10 0 -10 10v47q0 14 10 17l49 24 q10 7 10 17v487v10q0 7 -7 10.5t-11 -1.5q-119 -140 -309 -140q-202 0 -332.5 145.5t-130.5 389.5zM205 514q0 -198 88 -314t244 -116q157 0 245 116.5t88 313.5q0 198 -88 314t-245 116q-156 0 -244 -117t-88 -313z" />
<glyph unicode="r" horiz-adv-x="694" d="M90 10v49q0 12 10 15l50 26q10 3 10 15v770q0 9 -10 16l-50 25q-10 3 -10 16v47q0 12 10 12l123 31q4 2 21 2h10q9 0 12 -10l29 -119q1 -2 2 -5.5t2 -4.5q9 -9 16 2q43 70 123 113t168 43q39 0 84 -11q3 0 5 -2.5t1 -5.5l-28 -116q-3 -10 -13 -7q-49 19 -102 19 q-101 0 -177.5 -79.5t-76.5 -188.5v-547q0 -12 10 -15l49 -26q11 -4 11 -15v-49q0 -10 -13 -10h-256q-10 0 -10 10z" />
<glyph unicode="s" horiz-adv-x="909" d="M70 174v129q0 12 10 12h39q9 0 14 -10q60 -113 70 -123q54 -47 112.5 -72.5t151.5 -25.5q97 0 166 50.5t69 129.5q0 50 -33 88.5t-86 64t-117 47.5t-128 48t-117 58t-86 84t-33 120q0 133 98 205t246 74q118 0 230 -72q4 -2 12 2l39 47q7 8 18 4l46 -10q10 -3 10 -14 v-197q0 -11 -10 -14l-41 -11q-19 -5 -35 11q-1 1 -15.5 17t-31.5 33t-31 28q-44 35 -83.5 50t-90.5 15q-107 0 -165 -42.5t-58 -117.5q0 -47 33 -83.5t86 -62t117 -48.5t128 -50.5t117 -61t86 -87t33 -121.5q0 -131 -99.5 -212t-273.5 -81q-110 0 -190 31.5t-160 102.5l-6 5 q-6 5 -12.5 11t-13 14.5t-11 17.5t-4.5 17z" />
<glyph unicode="t" horiz-adv-x="643" d="M39 938v51q0 12 10 15l121 28q1 0 4.5 1t5.5 1q8 0 8 8v129q0 14 -10 17l-49 24q-10 3 -10 17v47q0 11 10 14l84 29q6 2 20 2h84q11 0 11 -10v-234v-30v-5q0 -8 8 -8h297q12 0 12 -10v-51q0 -5 -3.5 -8.5t-8.5 -3.5l-119 -31q-6 -2 -22 -2h-156q-8 0 -8 -8v-805 q0 -12 10 -15l49 -26q10 -3 10 -15v-49q0 -10 -10 -10h-256q-12 0 -12 10v49q0 12 10 15l49 26q10 3 10 15v805q0 8 -8 8h-131q-10 0 -10 10z" />
<glyph unicode="u" horiz-adv-x="1126" d="M74 942v47q0 12 10 15l123 28q4 2 20 2h43q13 0 13 -10v-657q0 -123 77.5 -202t200.5 -79q108 0 189 97.5t81 226.5v475q0 11 -10 16l-51 25q-16 8 -16 16v47q0 9 18 15l121 28q6 2 22 2h43q11 0 11 -10v-909q0 -10 10 -15l51 -26q8 -4 8 -15v-49q0 -10 -10 -10h-151 q-12 0 -15 10l-31 117q-1 6 -7 6.5t-9 -4.5q-105 -154 -307 -154q-96 0 -181 52t-134.5 135.5t-49.5 173.5v549q0 13 -10 16l-49 25q-10 3 -10 16z" />
<glyph unicode="v" horiz-adv-x="935" d="M41 942v47q0 12 10 15l123 28q4 2 21 2h4q4 0 8 -3.5t4 -6.5l276 -735q3 -6 8.5 -6t8.5 6l276 735q0 10 17 10q16 0 20 -2l70 -16q10 -3 10 -15v-47q0 -12 -8 -16l-47 -23q-4 -4 -4 -6q-18 -38 -179 -472t-163 -445q-4 -8 -11 -8h-36q-6 0 -9 6q0 1 -79 215t-163.5 440 t-95.5 252q0 2 -4 6l-47 23q-10 3 -10 16z" />
<glyph unicode="w" horiz-adv-x="1523" d="M43 942v47q0 12 10 15l123 28q4 2 21 2h4q4 0 8 -3.5t4 -6.5l276 -735q3 -6 8.5 -6t8.5 6l205 547q3 3 0 6l-21 55q-1 1 -1.5 2t-1.5 2t-3 2l-47 23q-8 4 -8 16v47q0 12 10 15l121 28q6 2 22 2h4q8 0 13 -10l276 -735q1 -6 7.5 -6t9.5 6l274 735q5 10 16 10q17 0 23 -2 l70 -16q10 -3 10 -15v-47q0 -13 -10 -16l-48 -23l-4 -6q-11 -25 -95.5 -251.5t-165.5 -445.5t-81 -220q0 -8 -8 -8h-37q-5 0 -8 6q0 1 -42.5 113.5t-108.5 290t-109 292.5q-2 6 -6 6t-6 -6q-240 -640 -258 -694q-4 -8 -11 -8h-36q-6 0 -9 6q0 1 -79 215t-163.5 440 t-95.5 252q0 2 -4 6l-47 23q-10 3 -10 16z" />
<glyph unicode="x" horiz-adv-x="1003" d="M37 10v47q0 14 10 17l49 24l17 15l303 383q4 4 0 8q-298 401 -299 401l-51 25q-11 7 -11 16v47q0 11 13 15l100 24q6 2 22 2q7 0 17 -10l299 -397q7 -7 14 0l314 397q7 10 16 10q16 0 22 -2l70 -16q10 -3 10 -15v-47q0 -9 -10 -16l-74 -37l-288 -360q-3 -5 0 -11 l315 -417q10 -11 16 -15l52 -24q8 -4 8 -17v-47q0 -10 -10 -10h-156q-16 0 -27 14q0 2 -291 394q-6 6 -12 0q-309 -392 -311 -396q-12 -12 -21 -12h-96q-10 0 -10 10z" />
<glyph unicode="y" horiz-adv-x="940" d="M45 942v47q0 12 10 15l123 28q4 2 21 2h4q4 0 8 -3.5t4 -6.5l274 -756q1 -6 6.5 -6t8.5 6l280 756q0 3 4.5 6.5t8.5 3.5h4q14 0 20 -2l70 -16q10 -3 10 -15v-47q0 -12 -8 -16l-47 -23q-4 -4 -4 -6l-523 -1405q-3 -10 -14 -10h-106q-9 0 -9 10v47q0 13 11 17l45 22 q9 6 14 19q0 6 158 426v6q-285 789 -312 856l-4 4l-47 25q-10 3 -10 16z" />
<glyph unicode="z" horiz-adv-x="923" d="M47 10v49q0 10 10 15l31 26q13 8 16 15l545 811q2 3 0 6.5t-6 3.5h-448q-11 0 -15 -8l-24 -51q-4 -9 -17 -9h-47q-5 0 -9 4t-3 11q1 8 16 73t15 66q2 12 12 12h618h11h86q10 0 10 -12v-76q0 -9 -10 -16l-39 -25l-13 -21q-14 -21 -36 -55.5t-52 -80.5t-65.5 -100.5 t-73.5 -112t-78 -117.5t-77 -114.5t-72.5 -105t-63.5 -87.5q-3 -5 -1 -9t7 -4h467q10 0 17 11l24 49q3 10 15 10h49q12 0 12 -10v-148q0 -10 -10 -10h-791q-10 0 -10 10z" />
<glyph unicode="{" horiz-adv-x="573" d="M55 594v88q0 8 11 14q52 15 90.5 53t38.5 103v344q0 157 82 243t235 89q12 0 12 -10v-84q0 -9 -8 -9q-81 -2 -135.5 -50.5t-54.5 -143.5v-379q0 -126 -123 -211q-2 -4 2 -6q121 -86 121 -211v-379q0 -94 55 -144.5t133 -50.5q10 0 10 -10v-84q0 -8 -10 -8 q-155 3 -237 88.5t-82 243.5v344q0 65 -39 103t-93 53q-8 8 -8 14z" />
<glyph unicode="|" horiz-adv-x="489" d="M174 -207v1671q0 5 4 9t8 4h119q10 0 10 -13v-1671q0 -12 -10 -12h-119q-4 0 -8 3.5t-4 8.5z" />
<glyph unicode="}" horiz-adv-x="573" d="M49 -158q0 8 8 8q81 2 136 51t55 144v379q0 126 123 211q4 2 0 6q-123 87 -123 211v379q0 94 -54.5 144t-134.5 50q-10 0 -10 11v84q0 8 10 8q155 -3 237.5 -89t82.5 -243v-344q0 -65 38.5 -103t92.5 -55q8 0 8 -12v-88q0 -6 -8 -14q-54 -15 -92.5 -53t-38.5 -103v-344 q0 -157 -81.5 -243t-236.5 -89q-12 0 -12 10v84z" />
<glyph unicode="~" horiz-adv-x="935" d="M133 518v121l2 8q44 54 93.5 72t95.5 6.5t94 -35.5l96 -48t94 -36.5t95.5 4t93.5 68.5q6 12 6 -2v-115q0 -6 -4 -10q-44 -54 -93.5 -72t-95.5 -6.5t-93.5 35.5l-95 48t-93.5 36t-95.5 -5.5t-93.5 -70.5q-6 -6 -6 2z" />
<glyph unicode="&#xa1;" horiz-adv-x="448" d="M125 989q0 41 28.5 69.5t69.5 28.5q40 0 68 -28.5t28 -69.5q0 -40 -28 -68t-68 -28q-41 0 -69.5 28t-28.5 68zM154 -393l12 1173q0 21 20 21h74q8 0 14.5 -6t6.5 -15l12 -1173q0 -7 -6.5 -14t-14.5 -7h-98q-9 0 -14.5 6.5t-5.5 14.5z" />
<glyph unicode="&#xa2;" horiz-adv-x="1062" d="M102 827q0 230 111 373.5t297 163.5q6 0 6 8v109h100v-109q0 -8 9 -8q52 -4 92.5 -20t95.5 -52q5 -3 10 2l41 49q10 10 19 7l47 -13q10 -3 10 -12v-197q0 -9 -10 -14l-43 -12q-21 -4 -33 8l-25 25q-87 104 -202 120q-11 0 -11 -10v-831q0 -5 3.5 -7t7.5 -1q100 20 180 92 q6 5 23 36t30 59l14 28q7 10 17 10h37q12 0 12 -10v-132q0 -12 -14 -30q-144 -144 -301 -164q-9 -5 -9 -8v-113h-100v111q0 8 -6 8q-187 20 -297.5 163.5t-110.5 370.5zM233 827q0 -175 72 -288t201 -136q10 0 10 11v831q0 5 -2 7t-6 1q-130 -20 -202.5 -133.5t-72.5 -292.5 z" />
<glyph unicode="&#xa3;" horiz-adv-x="1030" d="M76 670v51q0 11 10 14q127 31 131 31q4 2 6 4.5t2 3.5v2v207q1 227 115 360.5t303 133.5q103 0 193 -43q10 -3 10 -15v-47q0 -16 -2 -20l-29 -84q-4 -11 -14 -11h-47q-13 0 -17 11l-24 49q-1 3 -4.5 10.5t-5 10t-5 8.5t-7 8t-9 6t-12 5.5t-15.5 3.5t-21 2.5t-26 0.5 q-60 0 -103.5 -19t-70 -51t-42.5 -83t-21.5 -106.5t-5.5 -129.5v-205q0 -12 8 -12h297q12 0 12 -10v-51q0 -5 -4 -9t-8 -4l-119 -30l-23 -3h-155q-8 0 -8 -8v-526q0 -16 12 -16h469q12 0 16 8l25 51q4 8 16 8h47q12 0 15 -10v-156q0 -10 -13 -10h-786q-10 0 -10 10v49 q0 12 10 15l49 26q10 3 10 15v536q0 8 -8 8h-131q-10 0 -10 11z" />
<glyph unicode="&#xa4;" horiz-adv-x="1277" d="M155 281.5q0 4.5 3 5.5l96 96q2 1 2 5t-2 5q-98 129 -98 292t98 294q3 7 0 10l-96 96q-6 7 0 13l71 71q4 4 13 0l94 -96q5 -5 12 -2q129 98 292 98t292 -98q7 -4 10 2l96 96q6 3 13 0l71 -71q6 -6 0 -13l-96 -96q-3 -3 0 -10q97 -129 97.5 -292t-97.5 -294q-2 -1 -2 -5 t2 -5l96 -96q3 -1 3 -5.5t-3 -7.5l-71 -71q-7 -4 -13 2l-96 94q-3 6 -10 2q-129 -98 -292 -98t-292 98q-7 3 -12 -2l-94 -94q-3 -3 -7.5 -3t-5.5 3l-71 69q-3 3 -3 7.5zM266 686q0 -123 72 -221q15 -21 37 -43t43 -37q98 -72 221 -72t221 72q21 15 43 37l37 43q72 98 72 221 t-72 221l-37 43q-22 22 -43 37q-98 72 -221 72t-221 -72q-21 -15 -43 -37t-37 -43q-72 -98 -72 -221z" />
<glyph unicode="&#xa5;" horiz-adv-x="1320" d="M55 1417v49q0 3 3.5 7t7.5 4h260q4 0 8 -4t4 -7v-49q0 -9 -10 -14l-52 -27q-11 -4 -8 -18l418 -653q2 -3 6 -3t6 3l400 653q6 11 -8 18l-52 27q-8 4 -8 14v49q0 11 10 11h213q4 0 8.5 -4t4.5 -7v-49q0 -9 -11 -14l-43 -23q-4 -2 -16 -18l-397 -653q-3 -3 -1.5 -6t5.5 -3 h184q10 0 10 -12v-51q0 -9 -10 -12l-119 -31l-22 -2h-103q-8 0 -8 -8v-92q0 -9 8 -9h244q10 0 10 -10v-51q0 -12 -10 -12l-119 -31l-22 -2h-103q-8 0 -8 -8v-254q0 -12 10 -15l50 -26q10 -3 10 -15v-49q0 -10 -12 -10h-256q-11 0 -11 10v49q0 11 11 15l49 26q10 3 10 15v254 q0 8 -8 8h-238q-10 0 -10 10v51q0 12 10 15q127 30 131 30h107q8 0 8 9v92q0 8 -8 8h-238q-10 0 -10 10v51q0 12 10 15q127 30 131 32h47q4 0 6.5 3t0.5 6l-406 653q-8 12 -14 14l-49 27q-11 4 -11 14z" />
<glyph unicode="&#xa6;" horiz-adv-x="385" d="M121 -270v635q0 5 3.5 8.5t8.5 3.5h119q10 0 10 -12v-635q0 -13 -10 -13h-119q-4 0 -8 4t-4 9zM121 893v635q0 4 3.5 8t8.5 4h119q10 0 10 -12v-635q0 -12 -10 -12h-119q-5 0 -8.5 3.5t-3.5 8.5z" />
<glyph unicode="&#xa7;" horiz-adv-x="987" d="M104 184v131q0 3 3.5 7t7.5 4h39q10 0 14 -11q60 -112 70 -122q55 -47 113 -73t151 -26q97 0 166 50.5t69 129.5q0 84 -98 142q-45 27 -137 59q-149 54 -193 76q-142 71 -166 181q-6 26 -6 54q0 140 113 213q-113 78 -113 201q0 132 98 203.5t246 73.5q117 0 230 -70 q4 -4 12 0l39 47q6 6 18 6l45 -12q11 -4 11 -14v-197q0 -12 -11 -12l-41 -13q-18 -5 -34 11l-16 17q-15 16 -31.5 32.5t-30.5 27.5q-46 36 -85 52t-89 16q-107 0 -165.5 -42.5t-58.5 -117.5q0 -42 26 -76t68 -56.5t96 -45.5t110 -42t110 -46.5t96 -59t68 -81t26 -109.5 q0 -138 -102 -215q102 -79 102 -198q0 -132 -99 -212.5t-273 -80.5q-109 0 -189 31.5t-161 101.5l-6 5q-7 5 -13 11.5t-13 14.5t-11.5 17t-4.5 17zM274 795q0 -33 17 -61t41.5 -48t66 -40t77 -33.5t87.5 -33t86 -34.5q41 24 64.5 61t23.5 82q0 34 -16 63t-38.5 48.5 t-63.5 40t-72.5 32.5t-85.5 32t-84 32q-103 -42 -103 -141z" />
<glyph unicode="&#xa8;" horiz-adv-x="550" d="M72 1573v119q0 8 4 8h121q4 0 4 -8v-119q0 -6 -4 -6h-121q-4 0 -4 6zM348 1573v119q0 8 6 8h121q4 0 4 -8v-119q0 -6 -4 -6h-121q-6 0 -6 6z" />
<glyph unicode="&#xa9;" horiz-adv-x="1593" d="M96 682q0 190 94.5 351.5t255.5 255t351 93.5q143 0 272.5 -55.5t223 -149t149 -223t55.5 -272.5q0 -142 -55.5 -271t-149 -222.5t-223 -149t-272.5 -55.5q-189 0 -350.5 93.5t-256 254.5t-94.5 350zM170 682q0 -169 84.5 -313.5t229 -229t313.5 -84.5q127 0 243 50 t200 134t133.5 200t49.5 243t-49.5 243.5t-133.5 201t-200 134.5t-243 50q-169 0 -313.5 -84.5t-229 -229.5t-84.5 -315zM469 684q0 172 90 274.5t236 102.5q55 0 90.5 -11t81.5 -40q4 -2 8 0l29 34q6 6 12 3l33 -7q8 -4 8 -10v-137q0 -7 -8 -10l-29 -9q-12 -2 -25 5 q-1 2 -7 8t-9 12q-74 86 -184 86q-109 0 -171.5 -81.5t-62.5 -219.5t62.5 -219.5t171.5 -81.5q92 0 168 70q4 4 16 25.5t21 41.5l10 19q4 6 12 6h27q8 0 8 -8v-91q0 -12 -10 -22q-119 -119 -252 -119q-148 0 -237 103.5t-89 275.5z" />
<glyph unicode="&#xab;" horiz-adv-x="1429" d="M70 510v98q0 9 8 13l692 315q8 4 8 -6v-107q0 -8 -8 -12l-559 -248q-5 -5 0 -8l559 -250q8 0 8 -12v-105q0 -6 -8 -6l-692 316q-8 4 -8 12zM598 510v98q0 10 10 13l690 315q9 4 9 -6v-107q0 -7 -9 -12l-559 -248q-8 -5 0 -8l559 -250q9 0 9 -12v-105q0 -6 -9 -6l-690 316 q-10 3 -10 12z" />
<glyph unicode="&#xac;" horiz-adv-x="1347" d="M131 768v139q0 8 8 8h1057q8 0 8 -8v-422q0 -8 -8 -8h-137q-8 0 -8 8v267q0 8 -9 8h-903q-8 0 -8 8z" />
<glyph unicode="&#xad;" horiz-adv-x="917" d="M123 532v132q0 10 12 10h649q11 0 11 -10v-132q0 -12 -11 -12h-649q-5 0 -8.5 4t-3.5 8z" />
<glyph unicode="&#xae;" horiz-adv-x="1593" d="M96 682q0 190 94.5 351.5t255.5 255t351 93.5q143 0 272.5 -55.5t223 -149t149 -223t55.5 -272.5q0 -142 -55.5 -271t-149 -222.5t-223 -149t-272.5 -55.5q-189 0 -350.5 93.5t-256 254.5t-94.5 350zM170 682q0 -169 84.5 -313.5t229 -229t313.5 -84.5q127 0 243 50 t200 134t133.5 200t49.5 243t-49.5 243.5t-133.5 201t-200 134.5t-243 50q-169 0 -313.5 -84.5t-229 -229.5t-84.5 -315zM545 293v6v27v6l26 14q3 0 4.5 1.5l2.5 2.5v2v695q-1 4 -7 4l-26 14v8v25v8h307q90 0 151.5 -68t61.5 -157q0 -81 -57.5 -147t-135.5 -81q-6 -6 0 -6 l187 -274q6 -6 14 -6l47 -35v-6v-27v-6h-145q-5 0 -5.5 0.5t-0.5 5.5v27q0 6 6 6l8 14q6 0 0 6l-201 295h-120q-9 0 -9 -6v-289l9 -6l26 -14q3 0 4.5 -1.5t1.5 -2.5v-2v-27q0 -3 -1.5 -4.5t-2.5 -1.5h-2h-143zM653 711h9h165q66 0 114 51t48 119q0 69 -46.5 119.5 t-115.5 50.5h-159q-5 0 -10 -3.5t-5 -9.5v-327z" />
<glyph unicode="&#xaf;" horiz-adv-x="786" d="M72 1595v80q0 11 12 11h621q10 0 10 -11v-80q0 -12 -10 -12h-621q-4 0 -8 3.5t-4 8.5z" />
<glyph unicode="&#xb0;" horiz-adv-x="528" d="M98 1264q0 82 42 125t124 43q80 0 123 -43.5t43 -124.5t-43 -124.5t-123 -43.5q-82 0 -124 43t-42 125zM172 1264q0 -55 20.5 -78t71.5 -23q49 0 69.5 23.5t20.5 77.5t-20 76t-70 22q-51 0 -71.5 -22t-20.5 -76z" />
<glyph unicode="&#xb1;" horiz-adv-x="1038" d="M125 100v105q0 10 12 10h770q11 0 11 -10v-105q0 -12 -11 -12h-770q-5 0 -8.5 4t-3.5 8zM125 690v109q0 5 3.5 8.5t8.5 3.5h303q11 0 11 12v303q0 11 12 11h108q13 0 13 -11v-303q0 -12 10 -12h301q5 0 8.5 -3.5t3.5 -8.5v-109q0 -4 -3.5 -8t-8.5 -4h-301q-10 0 -10 -10 v-301q0 -5 -4 -9t-9 -4h-108q-4 0 -8 4t-4 9v301q0 10 -11 10h-303q-5 0 -8.5 4t-3.5 8z" />
<glyph unicode="&#xb4;" horiz-adv-x="397" d="M74 1608l108 217q4 4 6 4h127q6 0 9 -6t0 -11l-152 -213l-6 -4q-2 -2 -4 -2h-78q-6 0 -9.5 4.5t-0.5 10.5z" />
<glyph unicode="&#xb6;" horiz-adv-x="1071" d="M57 1081q0 164 116 280t280 116h407q10 0 10 -13v-1671q0 -12 -10 -12h-119q-5 0 -8.5 3.5t-3.5 8.5v1544q0 9 -8 9h-119q-8 0 -8 -9v-1544q0 -12 -10 -12h-119q-12 0 -12 12v893q-164 0 -280 115.5t-116 279.5z" />
<glyph unicode="&#xb7;" horiz-adv-x="440" d="M123 631q0 40 28.5 68t69.5 28q40 0 68 -28t28 -68q0 -41 -28 -70t-68 -29q-41 0 -69.5 29t-28.5 70z" />
<glyph unicode="&#xb8;" horiz-adv-x="440" d="M72 -285q0 7 5 10.5t11 0.5q56 -29 100 -29q91 0 91 74q0 34 -21 57.5t-55 34t-60 15t-53 5.5q-6 0 -9 4t-1 9l41 104h82l-21 -53q-3 -10 6 -13q181 -29 181 -167q0 -65 -44 -106.5t-114 -41.5q-71 0 -135 33q-4 4 -4 6v57z" />
<glyph unicode="&#xbb;" horiz-adv-x="1429" d="M123 184v107q0 8 8 12l559 248q8 5 0 8l-559 250q-8 0 -8 12v105q0 6 8 6l690 -316q10 -3 10 -12v-98q0 -9 -10 -12l-690 -316q-8 -4 -8 6zM651 184v107q0 8 8 12l560 246q5 5 0 8l-560 252q-8 0 -8 12v105q0 6 8 6l693 -318q8 -4 8 -12v-98q0 -8 -8 -12l-693 -314 q-8 -4 -8 6z" />
<glyph unicode="&#xbc;" horiz-adv-x="1114" d="M78 -205q-3 -10 8 -10h70q13 0 16 10l750 1737q3 10 -7 10h-73q-14 0 -17 -10zM139 768v25q0 8 6 8l27 14q4 4 4 8v643q0 9 -4 9l-27 14q-6 0 -6 8v25q0 2 6 8l45 14q2 2 11 2h45q4 0 4 -6v-717q0 -2 6 -8l27 -14q4 0 4 -8v-25q0 -6 -4 -6h-138q-6 0 -6 6zM541 14v43 q0 7 6 13l317 491q4 4 10 4h50q4 0 4 -4v-489q0 -6 6 -6h57q4 0 8 4l13 26q3 6 10 6h25q1 0 3.5 -2t2.5 -4v-121q0 -4 -6 -4h-25q-6 0 -10 4l-13 27q-4 4 -8 4h-57q-6 0 -6 -6v-158q0 -2 6 -8l27 -12q4 -4 4 -8v-27q0 -6 -4 -6h-138q-1 0 -3.5 2.5t-2.5 3.5v27q0 5 6 8 l27 12q4 4 4 8v158q0 6 -4 6h-303q-6 0 -6 8zM594 68q-2 -2 2 -2h252q6 0 6 6v391q0 10 -4 2q-256 -395 -256 -397z" />
<glyph unicode="&#xbd;" horiz-adv-x="1210" d="M70 -205q-3 -10 8 -10h69q14 0 17 10l749 1737q3 10 -6 10h-73q-14 0 -17 -10zM131 768v25q0 8 6 8l27 14q4 4 4 8v643q0 9 -4 9l-27 14q-6 0 -6 8v25q0 2 6 8l45 14q2 2 11 2h45q4 0 4 -6v-717q0 -2 6 -8l26 -14q5 0 5 -8v-25q0 -6 -5 -6h-137q-6 0 -6 6zM682 -188 q0 5 6 8q11 11 56.5 57t64.5 65.5t61 64t62 70.5t50.5 67t45 70.5t26 64t11.5 63.5q0 81 -36.5 131.5t-102.5 50.5q-28 0 -51.5 -7.5t-35.5 -15.5t-34 -24q-8 -6 -41 -39q-9 -9 -19 -6l-20 6q-6 0 -6 6v101q0 6 6 6l25 6q3 3 8 -2l20 -25h6q2 1 19 12t21 13t19.5 9t26 9 t28 4.5t36.5 2.5q88 0 145.5 -64t57.5 -168q0 -31 -9 -64.5t-20 -60.5t-36.5 -65.5t-41.5 -61t-54 -66t-54.5 -61.5t-62.5 -67t-60 -64q-2 -2 -0.5 -4t4.5 -2h278q7 0 11 4l12 37q3 6 8 6h25q8 0 8 -6v-86q0 -6 -6 -6h-451q-6 0 -6 6v25z" />
<glyph unicode="&#xbe;" horiz-adv-x="1345" d="M74 860v76q0 6 6 6h26q5 0 9 -4l12 -27q1 -1 12 -22t15 -25q83 -73 170 -73q74 0 125 50t51 124t-51 123t-125 49h-99q-6 6 -6 8v24q0 9 6 9l37 14q8 4 25 4h16q66 0 111 42t45 108t-40 106.5t-106 40.5q-38 0 -63.5 -12t-54.5 -35q-8 -6 -41 -39q-6 -9 -19 -6l-22 6 q-2 0 -4.5 2.5t-2.5 3.5v100q0 7 7 7l24 6q4 4 10 -2l21 -25h6q4 2 15 9t15 9.5t14 8t16.5 7.5t17.5 6t21 5.5t23 2.5t28 1q86 0 144 -56.5t58 -143.5q0 -103 -90 -164q-3 -2 -3 -5t3 -5q65 -27 103.5 -81.5t38.5 -127.5q0 -99 -71 -163.5t-183 -64.5q-55 0 -94 11.5 t-59.5 25t-74.5 53.5q-22 18 -22 33zM309 -205l748 1737q3 10 16 10h74q9 0 6 -10l-750 -1737q-3 -10 -16 -10h-70q-11 0 -8 10zM772 14v43q0 7 6 13l318 491q4 4 10 4h49q4 0 4 -4v-489q0 -6 6 -6h58q4 0 8 4l12 26q3 6 10 6h25q2 0 4 -2t2 -4v-121q0 -4 -6 -4h-25 q-6 0 -10 4l-12 27q-4 4 -8 4h-58q-6 0 -6 -6v-158q0 -2 6 -8l27 -12q4 -4 4 -8v-27q0 -6 -4 -6h-137q-1 0 -3.5 2.5t-2.5 3.5v27q0 5 6 8l26 12q4 4 4 8v158q0 6 -4 6h-303q-6 0 -6 8zM825 68q-2 -2 2 -2h252q6 0 6 6v391q0 10 -4 2q-256 -395 -256 -397z" />
<glyph unicode="&#xbf;" horiz-adv-x="882" d="M53 -76q0 -77 21 -139t56.5 -101.5t84 -66.5t101 -38t110.5 -11q43 0 77 4.5t63 16.5t44.5 20t45.5 28t42 27q4 4 11 0l39 -45q6 -6 18 -6l45 12q12 4 12 13v188q0 8 -12 12q-25 8 -41 12q-22 3 -35 -10q-5 -9 -14.5 -22.5t-37.5 -42t-60 -50.5t-82 -39.5t-103 -17.5 q-243 0 -243 256q0 60 20 111t51.5 89.5t70 76.5t77.5 83.5t71 99t52.5 133.5t21.5 177q0 6 -8 6h-131q-10 0 -10 -10q0 -90 -19.5 -164t-51 -123.5t-69.5 -92.5t-76.5 -82t-70 -80t-51 -98t-19.5 -126zM387 993q0 40 28.5 69.5t67.5 29.5q41 0 70 -29.5t29 -69.5t-29 -69 t-70 -29q-40 0 -68 29t-28 69z" />
<glyph unicode="&#xc0;" horiz-adv-x="1267" d="M33 10v49q0 12 10 15l43 22q9 4 16 19l459 1259q3 13 -6 19l-59 24q-11 7 -11 17v47q0 10 11 14l120 29q12 4 23 4h8q10 0 15 -10l505 -1403q8 -13 15 -17l49 -24q10 -3 10 -15v-49q0 -10 -10 -10h-260q-10 0 -10 10v49q0 11 8 15l51 24q13 9 8 19l-141 389q0 4 -8 4 h-529q-8 0 -8 -4l-141 -387q-5 -12 8 -21l49 -24q10 -3 10 -15v-49q0 -10 -10 -10h-215q-10 0 -10 10zM387 629q-2 -3 1 -7t7 -4h439q4 0 7 4t1 9l-219 602q-1 6 -7.5 6t-9.5 -6zM421.5 1822.5q2.5 6.5 8.5 6.5h127q2 0 6 -4l109 -217q3 -6 -0.5 -10.5t-9.5 -4.5h-78 q-1 0 -3 1t-3 1l-156 217q-3 4 -0.5 10.5z" />
<glyph unicode="&#xc1;" horiz-adv-x="1267" d="M33 10v49q0 12 10 15l43 22q9 4 16 19l459 1259q3 13 -6 19l-59 24q-11 7 -11 17v47q0 10 11 14l120 29q12 4 23 4h8q10 0 15 -10l505 -1403q8 -13 15 -17l49 -24q10 -3 10 -15v-49q0 -10 -10 -10h-260q-10 0 -10 10v49q0 11 8 15l51 24q13 9 8 19l-141 389q0 4 -8 4 h-529q-8 0 -8 -4l-141 -387q-5 -12 8 -21l49 -24q10 -3 10 -15v-49q0 -10 -10 -10h-215q-10 0 -10 10zM387 629q-2 -3 1 -7t7 -4h439q4 0 7 4t1 9l-219 602q-1 6 -7.5 6t-9.5 -6zM528 1628l109 217q4 4 6 4h127q6 0 8.5 -5.5t-0.5 -10.5l-151 -213l-6 -4q-2 -2 -5 -2h-77 q-6 0 -10 4t-1 10z" />
<glyph unicode="&#xc2;" horiz-adv-x="1267" d="M33 10v49q0 12 10 15l43 22q9 4 16 19l459 1259q3 13 -6 19l-59 24q-11 7 -11 17v47q0 10 11 14l120 29q12 4 23 4h8q10 0 15 -10l505 -1403q8 -13 15 -17l49 -24q10 -3 10 -15v-49q0 -10 -10 -10h-260q-10 0 -10 10v49q0 11 8 15l51 24q13 9 8 19l-141 389q0 4 -8 4 h-529q-8 0 -8 -4l-141 -387q-5 -12 8 -21l49 -24q10 -3 10 -15v-49q0 -10 -10 -10h-215q-10 0 -10 10zM387 629q-2 -3 1 -7t7 -4h439q4 0 7 4t1 9l-219 602q-1 6 -7.5 6t-9.5 -6zM420 1613q-3 5 0 11l151 225q4 4 7 4h75q2 0 6 -4l154 -225q3 -6 0 -11t-10 -5h-90q-2 0 -6 4 l-84 145q-3 5 -8.5 5.5t-8.5 -5.5l-94 -145q-4 -4 -6 -4h-76q-7 0 -10 5z" />
<glyph unicode="&#xc3;" horiz-adv-x="1267" d="M33 10v49q0 12 10 15l43 22q9 4 16 19l459 1259q3 13 -6 19l-59 24q-11 7 -11 17v47q0 10 11 14l120 29q12 4 23 4h8q10 0 15 -10l505 -1403q8 -13 15 -17l49 -24q10 -3 10 -15v-49q0 -10 -10 -10h-260q-10 0 -10 10v49q0 11 8 15l51 24q13 9 8 19l-141 389q0 4 -8 4 h-529q-8 0 -8 -4l-141 -387q-5 -12 8 -21l49 -24q10 -3 10 -15v-49q0 -10 -10 -10h-215q-10 0 -10 10zM387 629q-2 -3 1 -7t7 -4h439q4 0 7 4t1 9l-219 602q-1 6 -7.5 6t-9.5 -6zM418 1622v76q0 1 1 3t1 3q28 34 59.5 45t60.5 3.5t59 -22.5t60 -30.5t59 -23.5t60.5 2.5 t59.5 43.5q4 4 4 -2v-71l-2 -7q-32 -40 -69.5 -49t-70 5t-69.5 32t-69.5 32.5t-70 5.5t-69.5 -48q-4 -4 -4 2z" />
<glyph unicode="&#xc4;" horiz-adv-x="1267" d="M33 10v49q0 12 10 15l43 22q9 4 16 19l459 1259q3 13 -6 19l-59 24q-11 7 -11 17v47q0 10 11 14l120 29q12 4 23 4h8q10 0 15 -10l505 -1403q8 -13 15 -17l49 -24q10 -3 10 -15v-49q0 -10 -10 -10h-260q-10 0 -10 10v49q0 11 8 15l51 24q13 9 8 19l-141 389q0 4 -8 4 h-529q-8 0 -8 -4l-141 -387q-5 -12 8 -21l49 -24q10 -3 10 -15v-49q0 -10 -10 -10h-215q-10 0 -10 10zM387 629q-2 -3 1 -7t7 -4h439q4 0 7 4t1 9l-219 602q-1 6 -7.5 6t-9.5 -6zM418 1593v119q0 8 4 8h121q4 0 4 -8v-119q0 -6 -4 -6h-121q-4 0 -4 6zM694 1593v119q0 8 6 8 h121q4 0 4 -8v-119q0 -6 -4 -6h-121q-6 0 -6 6z" />
<glyph unicode="&#xc5;" horiz-adv-x="1267" d="M33 10v49q0 12 10 15l43 22q9 4 16 19l459 1259q3 13 -6 19l-59 24q-11 7 -11 17v47q0 10 11 14l120 29q12 4 23 4h8q10 0 15 -10l505 -1403q8 -13 15 -17l49 -24q10 -3 10 -15v-49q0 -10 -10 -10h-260q-10 0 -10 10v49q0 11 8 15l51 24q13 9 8 19l-141 389q0 4 -8 4 h-529q-8 0 -8 -4l-141 -387q-5 -12 8 -21l49 -24q10 -3 10 -15v-49q0 -10 -10 -10h-215q-10 0 -10 10zM387 629q-2 -3 1 -7t7 -4h439q4 0 7 4t1 9l-219 602q-1 6 -7.5 6t-9.5 -6zM455 1772q0 82 42 124.5t124 42.5q80 0 122.5 -43t42.5 -124q0 -82 -42.5 -125t-122.5 -43 q-82 0 -124 43t-42 125zM528 1772q0 -54 21 -77.5t72 -23.5q49 0 69.5 23.5t20.5 77.5t-20 76t-70 22q-51 0 -72 -22t-21 -76z" />
<glyph unicode="&#xc6;" horiz-adv-x="1812" d="M0 10v49q0 12 10 15l43 22q10 5 17 19l639 1243q6 12 -7 18l-51 27q-10 5 -10 14v49q0 3 4 7t8 4h1043q10 0 10 -11v-147q0 -10 -12 -10h-49q-12 0 -15 10l-24 49q-7 10 -17 10h-581q-7 0 -13 -6t-6 -14v-555q0 -10 10 -10h443q12 0 16 8l25 51q10 10 16 10h47q5 0 9 -4 t4 -8v-225q0 -11 -13 -11h-47q-9 0 -16 11l-25 49q-3 10 -16 10h-443q-3 0 -6.5 -4t-3.5 -8v-557q0 -6 4.5 -11.5t10.5 -5.5h645q12 0 16 11l25 49q7 10 16 10h47q9 0 14 -10v-148q0 -10 -10 -10h-964q-13 0 -13 10v49q0 11 11 15l49 26q10 3 10 19v565h-379l-293 -565 q-8 -14 2 -21l49 -24q11 -4 11 -15v-49q0 -10 -11 -10h-219q-10 0 -10 10zM528 793h322v581q0 7 -2.5 10t-6 2.5t-5.5 -4.5z" />
<glyph unicode="&#xc7;" horiz-adv-x="1363" d="M92 737q0 182 52 328t142.5 240.5t211.5 145t262 50.5q111 0 202 -37.5t185 -113.5q7 -4 10 2l35 39q7 10 18 6l45 -13q5 0 9 -4t4 -8v-196q-4 -12 -13 -15q-25 -8 -41 -12q-21 -3 -47 20q-1 1 -20 25t-33 38.5t-41.5 41t-57.5 44t-69 36t-87 28t-101 9.5 q-111 0 -207 -44t-167 -125.5t-112 -206.5t-41 -278q0 -154 41 -278.5t112.5 -206t167.5 -125t208 -43.5q94 0 181.5 27.5t195.5 115.5q5 4 22 35t31 60l14 28q3 10 17 10h36q11 0 11 -12v-137q0 -22 -15 -33q-2 -1 -36.5 -27.5t-42 -31.5t-41 -28.5t-50 -31t-50 -25.5 t-59.5 -24.5t-61.5 -16.5t-72 -14t-76.5 -4l-12 -30q-3 -10 6 -13q180 -29 180 -168q0 -65 -44 -106t-114 -41q-71 0 -135 33q-4 4 -4 6v57q0 7 5 10.5t11 0.5q56 -29 101 -29q90 0 90 74q0 34 -21 57.5t-55 34t-60 15t-53 5.5q-6 0 -9 4t-1 9l33 86q-126 13 -233 70 t-187 151t-125 232t-45 304z" />
<glyph unicode="&#xc8;" d="M129 10v49q0 12 10 15l49 26q11 4 11 19v1218q0 35 -11 39l-49 27q-10 3 -10 14v49q0 11 10 11h905q4 0 7.5 -4t3.5 -7v-147q-3 -10 -15 -10h-47q-9 0 -16 10l-25 49q-3 10 -16 10h-582q-16 0 -16 -20v-555q0 -10 10 -10h443q12 0 16 8l24 51q5 10 17 10h47q10 0 10 -12 v-225q0 -11 -10 -11h-47q-13 0 -17 11l-24 49q-3 10 -16 10h-443q-10 0 -10 -12v-557q0 -17 12 -17h647q13 0 17 11l24 49q3 10 17 10h47q9 0 14 -10v-148q0 -10 -12 -10h-965q-10 0 -10 10zM433.5 1802q2.5 6 8.5 6h127q2 0 6 -4l109 -217q3 -6 -0.5 -10t-9.5 -4h-78 q-1 0 -3 1t-3 1l-156 217q-3 4 -0.5 10z" />
<glyph unicode="&#xc9;" d="M129 10v49q0 12 10 15l49 26q11 4 11 19v1218q0 35 -11 39l-49 27q-10 3 -10 14v49q0 11 10 11h905q4 0 7.5 -4t3.5 -7v-147q-3 -10 -15 -10h-47q-9 0 -16 10l-25 49q-3 10 -16 10h-582q-16 0 -16 -20v-555q0 -10 10 -10h443q12 0 16 8l24 51q5 10 17 10h47q10 0 10 -12 v-225q0 -11 -10 -11h-47q-13 0 -17 11l-24 49q-3 10 -16 10h-443q-10 0 -10 -12v-557q0 -17 12 -17h647q13 0 17 11l24 49q3 10 17 10h47q9 0 14 -10v-148q0 -10 -12 -10h-965q-10 0 -10 10zM553 1608l109 217q4 4 6 4h127q6 0 8.5 -6.5t-0.5 -10.5l-152 -213l-6 -4 q-2 -2 -4 -2h-78q-6 0 -9.5 4.5t-0.5 10.5z" />
<glyph unicode="&#xca;" d="M129 10v49q0 12 10 15l49 26q11 4 11 19v1218q0 35 -11 39l-49 27q-10 3 -10 14v49q0 11 10 11h905q4 0 7.5 -4t3.5 -7v-147q-3 -10 -15 -10h-47q-9 0 -16 10l-25 49q-3 10 -16 10h-582q-16 0 -16 -20v-555q0 -10 10 -10h443q12 0 16 8l24 51q5 10 17 10h47q10 0 10 -12 v-225q0 -11 -10 -11h-47q-13 0 -17 11l-24 49q-3 10 -16 10h-443q-10 0 -10 -12v-557q0 -17 12 -17h647q13 0 17 11l24 49q3 10 17 10h47q9 0 14 -10v-148q0 -10 -12 -10h-965q-10 0 -10 10zM412 1592.5q-3 5.5 0 11.5l151 225q4 4 6 4h76q2 0 6 -4l154 -225q3 -6 0 -11.5 t-10 -5.5h-90q-3 0 -7 4l-84 146q-3 5 -8 5.5t-8 -5.5l-94 -146q-4 -4 -6 -4h-76q-7 0 -10 5.5z" />
<glyph unicode="&#xcb;" d="M129 10v49q0 12 10 15l49 26q11 4 11 19v1218q0 35 -11 39l-49 27q-10 3 -10 14v49q0 11 10 11h905q4 0 7.5 -4t3.5 -7v-147q-3 -10 -15 -10h-47q-9 0 -16 10l-25 49q-3 10 -16 10h-582q-16 0 -16 -20v-555q0 -10 10 -10h443q12 0 16 8l24 51q5 10 17 10h47q10 0 10 -12 v-225q0 -11 -10 -11h-47q-13 0 -17 11l-24 49q-3 10 -16 10h-443q-10 0 -10 -12v-557q0 -17 12 -17h647q13 0 17 11l24 49q3 10 17 10h47q9 0 14 -10v-148q0 -10 -12 -10h-965q-10 0 -10 10zM418 1573v119q0 8 4 8h121q4 0 4 -8v-119q0 -6 -4 -6h-121q-4 0 -4 6zM694 1573 v119q0 8 6 8h121q4 0 4 -8v-119q0 -6 -4 -6h-121q-6 0 -6 6z" />
<glyph unicode="&#xcc;" horiz-adv-x="536" d="M110.5 1802q2.5 6 8.5 6h127q2 0 6 -4l108 -217q3 -6 -0.5 -10t-9.5 -4h-78q-1 0 -3 1t-3 1l-155 217q-3 4 -0.5 10zM127 10v49q0 12 10 15l49 26q11 4 11 15v1247q0 10 -11 14l-49 27q-10 3 -10 14v49q0 11 10 11h256q4 0 8.5 -4t4.5 -7v-49q0 -10 -11 -14l-49 -27 q-10 -3 -10 -14v-1247q0 -12 10 -15l49 -26q11 -4 11 -15v-49q0 -10 -13 -10h-256q-10 0 -10 10z" />
<glyph unicode="&#xcd;" horiz-adv-x="536" d="M129 10v49q0 12 10 15l49 26q11 4 11 15v1247q0 10 -11 14l-49 27q-10 3 -10 14v49q0 11 10 11h256q4 0 8.5 -4t4.5 -7v-49q0 -10 -11 -14l-49 -27q-10 -3 -10 -14v-1247q0 -12 10 -15l49 -26q11 -4 11 -15v-49q0 -10 -13 -10h-256q-10 0 -10 10zM162 1608l108 217 q4 4 6 4h127q6 0 9 -6t0 -11l-152 -213l-6 -4q-2 -2 -4 -2h-78q-6 0 -9.5 4.5t-0.5 10.5z" />
<glyph unicode="&#xce;" horiz-adv-x="536" d="M80 1592.5q-3 5.5 0 11.5l151 225q4 4 7 4h75q2 0 6 -4l154 -225q3 -6 0 -11.5t-10 -5.5h-90q-2 0 -6 4l-84 146q-3 5 -8.5 5.5t-8.5 -5.5l-94 -146q-4 -4 -6 -4h-76q-7 0 -10 5.5zM129 10v49q0 12 10 15l49 26q11 4 11 15v1247q0 10 -11 14l-49 27q-10 3 -10 14v49 q0 11 10 11h256q4 0 8.5 -4t4.5 -7v-49q0 -10 -11 -14l-49 -27q-10 -3 -10 -14v-1247q0 -12 10 -15l49 -26q11 -4 11 -15v-49q0 -10 -13 -10h-256q-10 0 -10 10z" />
<glyph unicode="&#xcf;" horiz-adv-x="536" d="M63 1573v119q0 8 5 8h120q5 0 5 -8v-119q0 -6 -5 -6h-120q-5 0 -5 6zM129 10v49q0 12 10 15l49 26q11 4 11 15v1247q0 10 -11 14l-49 27q-10 3 -10 14v49q0 11 10 11h256q4 0 8.5 -4t4.5 -7v-49q0 -10 -11 -14l-49 -27q-10 -3 -10 -14v-1247q0 -12 10 -15l49 -26 q11 -4 11 -15v-49q0 -10 -13 -10h-256q-10 0 -10 10zM340 1573v119q0 8 6 8h121q4 0 4 -8v-119q0 -6 -4 -6h-121q-6 0 -6 6z" />
<glyph unicode="&#xd0;" horiz-adv-x="1507" d="M-12 772v80q0 10 12 10h231q9 0 9 8v492q0 10 -11 14l-49 27q-10 3 -10 14v49q0 11 10 11h553q321 0 499.5 -194.5t178.5 -543.5q0 -346 -187 -542.5t-491 -196.5h-553q-10 0 -10 10v49q0 12 10 15l49 26q11 4 11 15v637q0 8 -9 8h-231q-4 0 -8 4t-4 8zM379 115 q0 -17 14 -17h340q253 0 393 164.5t140 476.5q0 314 -134 476.5t-399 162.5h-338q-16 0 -16 -20v-488q0 -8 10 -8h232q10 0 10 -10v-80q0 -12 -10 -12h-232q-10 0 -10 -8v-637z" />
<glyph unicode="&#xd1;" horiz-adv-x="1495" d="M129 10v49q0 12 10 15l49 26q11 4 11 15v1247q0 10 -11 14l-49 27q-10 3 -10 14v49q0 11 10 11h180q9 0 9 -4l874 -1180v1069q0 11 -10 14l-49 27q-10 3 -10 14v49q0 3 4 7t8 4h213q10 0 10 -11v-49q0 -11 -10 -14l-49 -27q-11 -4 -11 -14v-1366q0 -21 -14 -21h-4 q-19 0 -33 19l-208 280q-208 281 -440 596.5t-286 391.5q-3 4 -8.5 1.5t-5.5 -8.5v-1140q0 -12 10 -15l49 -26q11 -4 11 -15v-49q0 -10 -11 -10h-219q-10 0 -10 10zM518 1602v75q0 1 1 3t1 3q38 46 82.5 50t85.5 -17.5l82 -43t85.5 -18.5t82.5 48q4 4 4 -2v-72l-2 -6 q-28 -34 -59.5 -45.5t-60.5 -4t-59 22.5l-60 30t-59 22.5t-60.5 -3.5t-59.5 -45q-4 -4 -4 3z" />
<glyph unicode="&#xd2;" horiz-adv-x="1517" d="M92 713q0 182 52 328t142.5 240.5t211.5 145t262 50.5q140 0 260.5 -51.5t211 -147t142 -241.5t51.5 -324q0 -181 -51.5 -327.5t-142 -241t-211 -145t-260.5 -50.5t-261.5 51.5t-212 147t-142.5 241.5t-52 324zM231 713q0 -154 41 -279t112.5 -206.5t167.5 -125 t208 -43.5q111 0 206.5 44.5t167 126t112 206.5t40.5 277q0 154 -40.5 278.5t-112 206t-167 125t-206.5 43.5q-230 0 -379.5 -175t-149.5 -478zM579.5 1802q2.5 6 8.5 6h127q2 0 6 -4l108 -217q3 -6 -0.5 -10t-9.5 -4h-78q-1 0 -3 1t-3 1l-155 217q-3 4 -0.5 10z" />
<glyph unicode="&#xd3;" horiz-adv-x="1517" d="M92 713q0 182 52 328t142.5 240.5t211.5 145t262 50.5q140 0 260.5 -51.5t211 -147t142 -241.5t51.5 -324q0 -181 -51.5 -327.5t-142 -241t-211 -145t-260.5 -50.5t-261.5 51.5t-212 147t-142.5 241.5t-52 324zM231 713q0 -154 41 -279t112.5 -206.5t167.5 -125 t208 -43.5q111 0 206.5 44.5t167 126t112 206.5t40.5 277q0 154 -40.5 278.5t-112 206t-167 125t-206.5 43.5q-230 0 -379.5 -175t-149.5 -478zM668 1608l108 217q4 4 6 4h127q6 0 9 -6t0 -11l-152 -213l-6 -4q-2 -2 -4 -2h-78q-6 0 -9.5 4.5t-0.5 10.5z" />
<glyph unicode="&#xd4;" horiz-adv-x="1517" d="M92 713q0 182 52 328t142.5 240.5t211.5 145t262 50.5q140 0 260.5 -51.5t211 -147t142 -241.5t51.5 -324q0 -181 -51.5 -327.5t-142 -241t-211 -145t-260.5 -50.5t-261.5 51.5t-212 147t-142.5 241.5t-52 324zM231 713q0 -154 41 -279t112.5 -206.5t167.5 -125 t208 -43.5q111 0 206.5 44.5t167 126t112 206.5t40.5 277q0 154 -40.5 278.5t-112 206t-167 125t-206.5 43.5q-230 0 -379.5 -175t-149.5 -478zM563 1592.5q-3 5.5 0 11.5l152 225q4 4 6 4h76q2 0 6 -4l153 -225q3 -6 0 -11.5t-10 -5.5h-90q-2 0 -6 4l-84 146q-3 5 -8 5.5 t-8 -5.5l-95 -146q-4 -4 -6 -4h-76q-7 0 -10 5.5z" />
<glyph unicode="&#xd5;" horiz-adv-x="1517" d="M92 713q0 182 52 328t142.5 240.5t211.5 145t262 50.5q140 0 260.5 -51.5t211 -147t142 -241.5t51.5 -324q0 -181 -51.5 -327.5t-142 -241t-211 -145t-260.5 -50.5t-261.5 51.5t-212 147t-142.5 241.5t-52 324zM231 713q0 -154 41 -279t112.5 -206.5t167.5 -125 t208 -43.5q111 0 206.5 44.5t167 126t112 206.5t40.5 277q0 154 -40.5 278.5t-112 206t-167 125t-206.5 43.5q-230 0 -379.5 -175t-149.5 -478zM557 1602v75q0 1 1 3t1 3q38 46 82.5 50t85.5 -17.5l82 -43t85.5 -18.5t82.5 48q4 4 4 -2v-72l-2 -6q-28 -34 -59.5 -45.5 t-60.5 -4t-59 22.5l-60 30t-59 22.5t-60.5 -3.5t-59.5 -45q-4 -4 -4 3z" />
<glyph unicode="&#xd6;" horiz-adv-x="1517" d="M92 713q0 182 52 328t142.5 240.5t211.5 145t262 50.5q140 0 260.5 -51.5t211 -147t142 -241.5t51.5 -324q0 -181 -51.5 -327.5t-142 -241t-211 -145t-260.5 -50.5t-261.5 51.5t-212 147t-142.5 241.5t-52 324zM231 713q0 -154 41 -279t112.5 -206.5t167.5 -125 t208 -43.5q111 0 206.5 44.5t167 126t112 206.5t40.5 277q0 154 -40.5 278.5t-112 206t-167 125t-206.5 43.5q-230 0 -379.5 -175t-149.5 -478zM553 1573v119q0 8 4 8h121q4 0 4 -8v-119q0 -6 -4 -6h-121q-4 0 -4 6zM829 1573v119q0 8 7 8h120q5 0 5 -8v-119q0 -6 -5 -6 h-120q-7 0 -7 6z" />
<glyph unicode="&#xd7;" horiz-adv-x="933" d="M120 919.5q0 5.5 3 8.5l78 78q8 8 16 0l244 -244q6 -6 16 0l242 242q6 6 16 0l76 -78q3 -3 3 -8.5t-3 -8.5l-242 -241q-3 -3 -3 -8.5t3 -8.5l242 -241q3 -3 3 -8.5t-3 -8.5l-76 -76q-10 -10 -16 0l-242 242q-8 8 -16 0l-244 -244q-8 -8 -16 0l-78 78q-7 7 0 17l244 241 q3 3 3 8.5t-3 8.5l-244 243q-3 3 -3 8.5z" />
<glyph unicode="&#xd8;" horiz-adv-x="1519" d="M94 713q0 182 52 328t142.5 240.5t211.5 145t262 50.5q129 0 242 -43l94 221q3 10 16 10h103q5 0 7 -2.5t-1 -7.5l-117 -273q151 -92 236 -263t85 -406q0 -181 -51.5 -327.5t-142 -241t-211 -145t-260.5 -50.5q-136 0 -254 47l-86 -201q-3 -10 -16 -10h-101q-9 0 -6 10 l109 252q-146 94 -230 264.5t-84 401.5zM233 713q0 -188 59.5 -328.5t164.5 -222.5l499 1165q-85 39 -194 39q-230 0 -379.5 -175t-149.5 -478zM555 102q90 -43 207 -43q111 0 206.5 44.5t167 126t112 206.5t40.5 277q0 192 -61 334.5t-170 222.5z" />
<glyph unicode="&#xd9;" horiz-adv-x="1466" d="M113 1417v49q0 11 10 11h256q4 0 8 -4t4 -7v-49q0 -11 -10 -14l-49 -27q-9 -3 -13 -14v-735q0 -277 111.5 -409t302.5 -132t302.5 131.5t111.5 407.5v737q0 11 -10 14l-50 27q-10 3 -10 14v49q0 11 10 11h256q4 0 8.5 -4t4.5 -7v-49q0 -11 -10 -14l-52 -27q-8 -4 -8 -14 v-739q0 -164 -43.5 -290t-120 -203t-175 -116t-214.5 -39q-117 0 -215.5 39.5t-174 116.5t-118.5 203t-43 289v739q0 11 -10 14l-49 27q-10 3 -10 14zM577.5 1802q2.5 6 8.5 6h127q2 0 6 -4l108 -217q3 -6 -0.5 -10t-9.5 -4h-78q-1 0 -3 1t-3 1l-155 217q-3 4 -0.5 10z" />
<glyph unicode="&#xda;" horiz-adv-x="1466" d="M113 1417v49q0 11 10 11h256q4 0 8 -4t4 -7v-49q0 -11 -10 -14l-49 -27q-9 -3 -13 -14v-735q0 -277 111.5 -409t302.5 -132t302.5 131.5t111.5 407.5v737q0 11 -10 14l-50 27q-10 3 -10 14v49q0 11 10 11h256q4 0 8.5 -4t4.5 -7v-49q0 -11 -10 -14l-52 -27q-8 -4 -8 -14 v-739q0 -164 -43.5 -290t-120 -203t-175 -116t-214.5 -39q-117 0 -215.5 39.5t-174 116.5t-118.5 203t-43 289v739q0 11 -10 14l-49 27q-10 3 -10 14zM674 1608l108 217q4 4 6 4h127q6 0 9 -6t0 -11l-152 -213l-6 -4q-2 -2 -4 -2h-78q-6 0 -9.5 4.5t-0.5 10.5z" />
<glyph unicode="&#xdb;" horiz-adv-x="1466" d="M113 1417v49q0 11 10 11h256q4 0 8 -4t4 -7v-49q0 -11 -10 -14l-49 -27q-9 -3 -13 -14v-735q0 -277 111.5 -409t302.5 -132t302.5 131.5t111.5 407.5v737q0 11 -10 14l-50 27q-10 3 -10 14v49q0 11 10 11h256q4 0 8.5 -4t4.5 -7v-49q0 -11 -10 -14l-52 -27q-8 -4 -8 -14 v-739q0 -164 -43.5 -290t-120 -203t-175 -116t-214.5 -39q-117 0 -215.5 39.5t-174 116.5t-118.5 203t-43 289v739q0 11 -10 14l-49 27q-10 3 -10 14zM541 1592.5q-3 5.5 0 11.5l151 225q4 4 6 4h76q2 0 6 -4l154 -225q3 -6 0 -11.5t-10 -5.5h-90q-3 0 -7 4l-84 146 q-3 5 -8 5.5t-8 -5.5l-94 -146q-4 -4 -6 -4h-76q-7 0 -10 5.5z" />
<glyph unicode="&#xdc;" horiz-adv-x="1466" d="M113 1417v49q0 11 10 11h256q4 0 8 -4t4 -7v-49q0 -11 -10 -14l-49 -27q-9 -3 -13 -14v-735q0 -277 111.5 -409t302.5 -132t302.5 131.5t111.5 407.5v737q0 11 -10 14l-50 27q-10 3 -10 14v49q0 11 10 11h256q4 0 8.5 -4t4.5 -7v-49q0 -11 -10 -14l-52 -27q-8 -4 -8 -14 v-739q0 -164 -43.5 -290t-120 -203t-175 -116t-214.5 -39q-117 0 -215.5 39.5t-174 116.5t-118.5 203t-43 289v739q0 11 -10 14l-49 27q-10 3 -10 14zM539 1573v119q0 8 4 8h121q4 0 4 -8v-119q0 -6 -4 -6h-121q-4 0 -4 6zM815 1573v119q0 8 6 8h121q4 0 4 -8v-119 q0 -6 -4 -6h-121q-6 0 -6 6z" />
<glyph unicode="&#xdd;" horiz-adv-x="1255" d="M18 1417q0 -10 11 -14l49 -27q6 -2 14 -14l465 -750l2 -4v-493q0 -12 -10 -15l-49 -26q-11 -4 -11 -15v-49q0 -10 11 -10h256q12 0 12 10v49q0 12 -10 15l-49 26q-11 4 -11 15v487v6l461 754q11 15 17 18l43 23q10 5 10 14v49q0 3 -4 7t-8 4h-213q-4 0 -7.5 -4t-3.5 -7 v-49q0 -10 8 -14l52 -27q14 -7 8 -18l-399 -653q-2 -3 -7 -3t-6 3l-418 653q-3 14 9 18l51 27q10 5 10 14v49q0 3 -4 7t-8 4h-260q-4 0 -7.5 -4t-3.5 -7v-49zM575 1608l109 217q4 4 6 4h127q6 0 8.5 -6.5t-0.5 -10.5l-151 -213l-6 -4q-2 -2 -4 -2h-78q-6 0 -10 4.5t-1 10.5z " />
<glyph unicode="&#xde;" horiz-adv-x="1187" d="M127 10v47q0 14 10 17l49 24q11 7 11 17v1212q0 12 -11 16l-49 25q-10 3 -10 16v48q0 11 10 14l123 29q4 2 21 2h10q8 0 12 -11l25 -98q2 -8 2 -12v-232q1 -10 8.5 -12.5t13.5 2.5q59 74 139 115t171 41q212 0 338 -146.5t126 -396.5q0 -244 -131 -389t-333 -145 q-190 0 -308 139q-6 5 -12 2t-6 -10v-11v-198q0 -10 10 -17l49 -24q11 -4 11 -17v-47q0 -10 -13 -10h-256q-10 0 -10 10zM330 731q0 -196 88 -313t244 -117q157 0 245 116t88 314q0 196 -88.5 313t-244.5 117t-244 -116t-88 -314z" />
<glyph unicode="&#xdf;" horiz-adv-x="1019" d="M86 10v49q0 12 10 15l49 24q9 6 13 17v1245q0 8 -11 14l-51 27q-8 4 -8 14v49q0 11 10 11h371q161 0 273 -104t112 -261q0 -182 -174 -299q-11 -7 2 -16q121 -48 193.5 -148t72.5 -231q0 -192 -126.5 -304t-389.5 -112q-8 0 -8 8v82q0 8 8 8q186 0 278.5 86.5t92.5 229.5 q0 115 -73.5 201t-182.5 112q-32 7 -47 15.5t-15 25.5v39q0 15 11.5 23.5t44.5 17.5q72 25 129 99t57 159q0 119 -85.5 194.5t-211.5 75.5h-117q-6 0 -9.5 -6t-6 -32.5t-2.5 -75.5v-1262h-199q-10 0 -10 10z" />
<glyph unicode="&#xe0;" horiz-adv-x="1042" d="M61 283q0 55 13.5 100t32.5 78t55.5 58.5t66 42t82 28t85.5 17t94.5 8t91.5 3t92 0.5h28h48q8 0 8 9q-6 158 -74 241.5t-168 83.5q-98 0 -156.5 -25.5t-105.5 -70.5q-10 -10 -14 -22l-17 -54q-3 -8 -14 -12l-45 -8q-13 -4 -17 8l-20 45q-14 31 -12 43.5t22 34.5 q65 80 155.5 121t223.5 41q96 0 171 -36.5t120 -99t68.5 -141t23.5 -168.5v-2v-491q0 -12 10 -15l49 -26q11 -4 11 -15v-49q0 -10 -11 -10h-153q-12 0 -12 10l-31 121l-2 21v10q0 6 -6 6t-11 -10q-18 -29 -42 -56t-63.5 -58t-97 -50t-124.5 -19t-129 19.5t-113.5 56.5 t-82 97t-30.5 135zM207 293q0 -81 61 -144t170 -63q95 0 171 62.5t113.5 152t37.5 182.5v17q0 10 -10 10h-50q-206 0 -284 -13q-169 -28 -201 -140q-8 -29 -8 -64zM358 1382q-3 5 0 11t9 6h127q2 0 6 -4l108 -217q3 -6 -0.5 -10.5t-9.5 -4.5h-78q-1 0 -3 1t-3 1z" />
<glyph unicode="&#xe1;" horiz-adv-x="1042" d="M61 283q0 55 13.5 100t32.5 78t55.5 58.5t66 42t82 28t85.5 17t94.5 8t91.5 3t92 0.5h28h48q8 0 8 9q-6 158 -74 241.5t-168 83.5q-98 0 -156.5 -25.5t-105.5 -70.5q-10 -10 -14 -22l-17 -54q-3 -8 -14 -12l-45 -8q-13 -4 -17 8l-20 45q-14 31 -12 43.5t22 34.5 q65 80 155.5 121t223.5 41q96 0 171 -36.5t120 -99t68.5 -141t23.5 -168.5v-2v-491q0 -12 10 -15l49 -26q11 -4 11 -15v-49q0 -10 -11 -10h-153q-12 0 -12 10l-31 121l-2 21v10q0 6 -6 6t-11 -10q-18 -29 -42 -56t-63.5 -58t-97 -50t-124.5 -19t-129 19.5t-113.5 56.5 t-82 97t-30.5 135zM207 293q0 -81 61 -144t170 -63q95 0 171 62.5t113.5 152t37.5 182.5v17q0 10 -10 10h-50q-206 0 -284 -13q-169 -28 -201 -140q-8 -29 -8 -64zM436 1176l109 217q4 4 6 4h127q6 0 8.5 -6.5t-0.5 -10.5l-151 -213l-7 -4q-2 -2 -4 -2h-78q-6 0 -9.5 4.5 t-0.5 10.5z" />
<glyph unicode="&#xe2;" horiz-adv-x="1042" d="M61 283q0 55 13.5 100t32.5 78t55.5 58.5t66 42t82 28t85.5 17t94.5 8t91.5 3t92 0.5h28h48q8 0 8 9q-6 158 -74 241.5t-168 83.5q-98 0 -156.5 -25.5t-105.5 -70.5q-10 -10 -14 -22l-17 -54q-3 -8 -14 -12l-45 -8q-13 -4 -17 8l-20 45q-14 31 -12 43.5t22 34.5 q65 80 155.5 121t223.5 41q96 0 171 -36.5t120 -99t68.5 -141t23.5 -168.5v-2v-491q0 -12 10 -15l49 -26q11 -4 11 -15v-49q0 -10 -11 -10h-153q-12 0 -12 10l-31 121l-2 21v10q0 6 -6 6t-11 -10q-18 -29 -42 -56t-63.5 -58t-97 -50t-124.5 -19t-129 19.5t-113.5 56.5 t-82 97t-30.5 135zM207 293q0 -81 61 -144t170 -63q95 0 171 62.5t113.5 152t37.5 182.5v17q0 10 -10 10h-50q-206 0 -284 -13q-169 -28 -201 -140q-8 -29 -8 -64zM315 1186l152 225q4 4 6 4h76q2 0 6 -4l154 -225q3 -6 -0.5 -11.5t-10.5 -5.5h-90q-1 0 -6 5l-84 145 q-3 5 -8 5.5t-8 -5.5l-94 -145q-5 -5 -7 -5h-75q-7 0 -10.5 5.5t-0.5 11.5z" />
<glyph unicode="&#xe3;" horiz-adv-x="1042" d="M61 283q0 55 13.5 100t32.5 78t55.5 58.5t66 42t82 28t85.5 17t94.5 8t91.5 3t92 0.5h28h48q8 0 8 9q-6 158 -74 241.5t-168 83.5q-98 0 -156.5 -25.5t-105.5 -70.5q-10 -10 -14 -22l-17 -54q-3 -8 -14 -12l-45 -8q-13 -4 -17 8l-20 45q-14 31 -12 43.5t22 34.5 q65 80 155.5 121t223.5 41q96 0 171 -36.5t120 -99t68.5 -141t23.5 -168.5v-2v-491q0 -12 10 -15l49 -26q11 -4 11 -15v-49q0 -10 -11 -10h-153q-12 0 -12 10l-31 121l-2 21v10q0 6 -6 6t-11 -10q-18 -29 -42 -56t-63.5 -58t-97 -50t-124.5 -19t-129 19.5t-113.5 56.5 t-82 97t-30.5 135zM207 293q0 -81 61 -144t170 -63q95 0 171 62.5t113.5 152t37.5 182.5v17q0 10 -10 10h-50q-206 0 -284 -13q-169 -28 -201 -140q-8 -29 -8 -64zM301 1186v76q0 1 1 3t1 3q28 34 59.5 45t60.5 3.5t59 -22.5t60 -30.5t59 -23.5t60.5 2.5t59.5 43.5q4 4 4 -2 v-72l-2 -6q-32 -40 -69.5 -49t-70 5t-69.5 32t-69.5 32.5t-70 5.5t-69.5 -48q-4 -4 -4 2z" />
<glyph unicode="&#xe4;" horiz-adv-x="1042" d="M61 283q0 55 13.5 100t32.5 78t55.5 58.5t66 42t82 28t85.5 17t94.5 8t91.5 3t92 0.5h28h48q8 0 8 9q-6 158 -74 241.5t-168 83.5q-98 0 -156.5 -25.5t-105.5 -70.5q-10 -10 -14 -22l-17 -54q-3 -8 -14 -12l-45 -8q-13 -4 -17 8l-20 45q-14 31 -12 43.5t22 34.5 q65 80 155.5 121t223.5 41q96 0 171 -36.5t120 -99t68.5 -141t23.5 -168.5v-2v-491q0 -12 10 -15l49 -26q11 -4 11 -15v-49q0 -10 -11 -10h-153q-12 0 -12 10l-31 121l-2 21v10q0 6 -6 6t-11 -10q-18 -29 -42 -56t-63.5 -58t-97 -50t-124.5 -19t-129 19.5t-113.5 56.5 t-82 97t-30.5 135zM207 293q0 -81 61 -144t170 -63q95 0 171 62.5t113.5 152t37.5 182.5v17q0 10 -10 10h-50q-206 0 -284 -13q-169 -28 -201 -140q-8 -29 -8 -64zM309 1176v118q0 9 4 9h121q4 0 4 -9v-118q0 -7 -4 -7h-121q-4 0 -4 7zM586 1176v118q0 9 6 9h121q4 0 4 -9 v-118q0 -7 -4 -7h-121q-6 0 -6 7z" />
<glyph unicode="&#xe5;" horiz-adv-x="1042" d="M61 283q0 55 13.5 100t32.5 78t55.5 58.5t66 42t82 28t85.5 17t94.5 8t91.5 3t92 0.5h28h48q8 0 8 9q-6 158 -74 241.5t-168 83.5q-98 0 -156.5 -25.5t-105.5 -70.5q-10 -10 -14 -22l-17 -54q-3 -8 -14 -12l-45 -8q-13 -4 -17 8l-20 45q-14 31 -12 43.5t22 34.5 q65 80 155.5 121t223.5 41q96 0 171 -36.5t120 -99t68.5 -141t23.5 -168.5v-2v-491q0 -12 10 -15l49 -26q11 -4 11 -15v-49q0 -10 -11 -10h-153q-12 0 -12 10l-31 121l-2 21v10q0 6 -6 6t-11 -10q-18 -29 -42 -56t-63.5 -58t-97 -50t-124.5 -19t-129 19.5t-113.5 56.5 t-82 97t-30.5 135zM207 293q0 -81 61 -144t170 -63q95 0 171 62.5t113.5 152t37.5 182.5v17q0 10 -10 10h-50q-206 0 -284 -13q-169 -28 -201 -140q-8 -29 -8 -64zM356 1313q0 82 42 125t124 43q80 0 123 -43.5t43 -124.5t-43 -124.5t-123 -43.5q-82 0 -124 43t-42 125z M430 1313q0 -55 20.5 -78t71.5 -23q49 0 69.5 23.5t20.5 77.5t-20 76t-70 22q-51 0 -71.5 -22t-20.5 -76z" />
<glyph unicode="&#xe6;" horiz-adv-x="1720" d="M61 283q0 55 13.5 100t32.5 78t55.5 58.5t66 42t82 28t85.5 17t94.5 8t91.5 3t92 0.5h28h48q8 0 8 9q-6 158 -74 241.5t-168 83.5q-98 0 -156.5 -25.5t-105.5 -70.5q-10 -10 -14 -22l-17 -54q-3 -8 -14 -12l-45 -8q-13 -4 -17 8l-20 45q-14 31 -12 43.5t22 34.5 q65 80 155.5 121t223.5 41q115 0 197.5 -51t128.5 -140q7 -14 18 0q62 93 160 142t215 49q176 0 297 -142.5t135 -355.5q0 -5 -3.5 -8.5t-8.5 -3.5l-119 -31q-6 -2 -23 -2h-610q-10 0 -10 -10v-4q4 -90 25 -162t60 -129t103.5 -88t149.5 -31q149 0 246 92q4 4 21 34.5 t32 59.5l14 29q8 8 17 8h36q13 0 13 -10v-131q0 -12 -15 -31q-167 -162 -362 -162q-139 0 -242.5 63t-161.5 177l-8 18h-2q-21 -45 -54 -87t-81.5 -82t-118 -64.5t-149.5 -24.5q-67 0 -129 19.5t-113.5 56.5t-82 97t-30.5 135zM207 293q0 -81 61 -144t170 -63q95 0 171 62.5 t113.5 152t37.5 182.5v17q0 10 -10 10h-50q-206 0 -284 -13q-169 -28 -201 -140q-8 -29 -8 -64zM903 629q0 -11 12 -11h592q4 0 7.5 4t1.5 7q-21 145 -95.5 230t-193.5 85q-127 0 -218 -87.5t-106 -227.5z" />
<glyph unicode="&#xe7;" horiz-adv-x="985" d="M72 514q0 247 128 393t337 146q79 0 128.5 -15.5t116.5 -58.5q6 -3 11 2l41 49q8 8 18 4l47 -10q10 -3 10 -14v-197q0 -11 -10 -14l-43 -11q-18 -5 -33 7q-6 5 -24 26q-54 63 -115.5 93t-146.5 30q-157 0 -245.5 -116t-88.5 -314q0 -196 88.5 -313t245.5 -117 q128 0 239 100q6 5 23 36t31 59l14 28q4 8 16 8h39q10 0 10 -10v-129q0 -19 -14 -33q-162 -157 -334 -168l-12 -28q-3 -10 6 -13q180 -29 180 -167q0 -65 -43.5 -106.5t-113.5 -41.5q-72 0 -136 33q-4 4 -4 6v57q0 7 5.5 10.5t11.5 0.5q56 -29 100 -29q90 0 90 74 q0 34 -21 57.5t-54.5 34t-59.5 15t-53 5.5q-6 0 -9.5 4t-1.5 9l33 81q-187 20 -297 164.5t-110 372.5z" />
<glyph unicode="&#xe8;" horiz-adv-x="1030" d="M74 518q0 126 37 229t101 169t149.5 101.5t183.5 35.5q176 0 297 -142t133 -354q0 -6 -0.5 -8t-2.5 -3.5t-7 -2.5l-119 -31q-6 -2 -23 -2h-610q-10 0 -10 -10v-4q4 -90 25 -162t60 -129t103.5 -88t149.5 -31q148 0 245 92q4 4 21 34.5t32 59.5l15 29q8 8 16 8h37 q13 0 13 -10v-131q0 -16 -15 -31q-167 -162 -362 -162q-217 0 -343 150t-126 393zM213 629q0 -11 12 -11h590q6 0 9 4t1 7q-21 145 -95.5 230t-192.5 85q-127 0 -218 -87.5t-106 -227.5zM394.5 1394.5q2.5 6.5 8.5 6.5h127q3 0 7 -4l108 -217q3 -6 -0.5 -10.5t-9.5 -4.5h-78 q-1 0 -3 1t-3 1l-156 217q-3 4 -0.5 10.5z" />
<glyph unicode="&#xe9;" horiz-adv-x="1030" d="M74 518q0 126 37 229t101 169t149.5 101.5t183.5 35.5q176 0 297 -142t133 -354q0 -6 -0.5 -8t-2.5 -3.5t-7 -2.5l-119 -31q-6 -2 -23 -2h-610q-10 0 -10 -10v-4q4 -90 25 -162t60 -129t103.5 -88t149.5 -31q148 0 245 92q4 4 21 34.5t32 59.5l15 29q8 8 16 8h37 q13 0 13 -10v-131q0 -16 -15 -31q-167 -162 -362 -162q-217 0 -343 150t-126 393zM213 629q0 -11 12 -11h590q6 0 9 4t1 7q-21 145 -95.5 230t-192.5 85q-127 0 -218 -87.5t-106 -227.5zM446 1174l109 217q4 4 6 4h127q6 0 8.5 -6.5t-0.5 -10.5l-151 -213l-6 -4q-2 -2 -4 -2 h-78q-6 0 -10 4.5t-1 10.5z" />
<glyph unicode="&#xea;" horiz-adv-x="1030" d="M74 518q0 126 37 229t101 169t149.5 101.5t183.5 35.5q176 0 297 -142t133 -354q0 -6 -0.5 -8t-2.5 -3.5t-7 -2.5l-119 -31q-6 -2 -23 -2h-610q-10 0 -10 -10v-4q4 -90 25 -162t60 -129t103.5 -88t149.5 -31q148 0 245 92q4 4 21 34.5t32 59.5l15 29q8 8 16 8h37 q13 0 13 -10v-131q0 -16 -15 -31q-167 -162 -362 -162q-217 0 -343 150t-126 393zM213 629q0 -11 12 -11h590q6 0 9 4t1 7q-21 145 -95.5 230t-192.5 85q-127 0 -218 -87.5t-106 -227.5zM352 1179q-3 5 0 11l152 225q4 4 6 4h76q2 0 6 -4l153 -225q3 -6 0 -11t-10 -5h-90 q-2 0 -6 4l-84 145q-3 5 -8 5.5t-8 -5.5l-95 -145q-4 -4 -6 -4h-76q-7 0 -10 5z" />
<glyph unicode="&#xeb;" horiz-adv-x="1030" d="M74 518q0 126 37 229t101 169t149.5 101.5t183.5 35.5q176 0 297 -142t133 -354q0 -6 -0.5 -8t-2.5 -3.5t-7 -2.5l-119 -31q-6 -2 -23 -2h-610q-10 0 -10 -10v-4q4 -90 25 -162t60 -129t103.5 -88t149.5 -31q148 0 245 92q4 4 21 34.5t32 59.5l15 29q8 8 16 8h37 q13 0 13 -10v-131q0 -16 -15 -31q-167 -162 -362 -162q-217 0 -343 150t-126 393zM213 629q0 -11 12 -11h590q6 0 9 4t1 7q-21 145 -95.5 230t-192.5 85q-127 0 -218 -87.5t-106 -227.5zM334 1188v119q0 8 4 8h121q4 0 4 -8v-119q0 -6 -4 -6h-121q-4 0 -4 6zM610 1188v119 q0 8 6 8h121q4 0 4 -8v-119q0 -6 -4 -6h-121q-6 0 -6 6z" />
<glyph unicode="&#xec;" horiz-adv-x="454" d="M44.5 1392.5q2.5 6.5 8.5 6.5h127q2 0 6 -4l109 -217q3 -6 -0.5 -10.5t-9.5 -4.5h-78q-1 0 -3 1t-3 1l-156 217q-3 4 -0.5 10.5zM88 10v49q0 12 10 15l49 26q11 4 11 15v770q0 12 -11 16l-49 25q-10 3 -10 16v47q0 12 10 15l84 28q6 2 21 2h82q12 0 12 -10v-909 q0 -12 10 -15l49 -26q11 -4 11 -15v-49q0 -10 -13 -10h-256q-10 0 -10 10z" />
<glyph unicode="&#xed;" horiz-adv-x="454" d="M90 10v49q0 12 10 15l50 26q10 3 10 15v770q0 13 -10 16l-50 25q-10 3 -10 16v47q0 12 10 15l84 28q6 2 21 2h82q12 0 12 -10v-909q0 -12 10 -15l49 -26q11 -4 11 -15v-49q0 -10 -13 -10h-256q-10 0 -10 10zM172 1178l109 217q4 4 6 4h127q6 0 8.5 -6.5t-0.5 -10.5 l-156 -217q-1 0 -3 -1t-3 -1h-78q-6 0 -9.5 4.5t-0.5 10.5z" />
<glyph unicode="&#xee;" horiz-adv-x="454" d="M18 1167l152 226q4 4 6 4h76q2 0 6 -4l154 -226q3 -6 -0.5 -11t-10.5 -5h-90q-2 0 -6 4l-84 145q-3 5 -8 5.5t-8 -5.5l-94 -145q-4 -4 -7 -4h-75q-7 0 -10.5 5t-0.5 11zM90 10v49q0 12 10 15l50 26q10 3 10 15v770q0 13 -10 16l-50 25q-10 3 -10 16v47q0 12 10 15l84 28 q6 2 21 2h82q12 0 12 -10v-909q0 -12 10 -15l49 -26q11 -4 11 -15v-49q0 -10 -13 -10h-256q-10 0 -10 10z" />
<glyph unicode="&#xef;" horiz-adv-x="454" d="M23 1159v119q0 8 4 8h120q5 0 5 -8v-119q0 -6 -5 -6h-120q-4 0 -4 6zM90 10v49q0 12 10 15l50 26q10 3 10 15v770q0 13 -10 16l-50 25q-10 3 -10 16v47q0 12 10 15l84 28q6 2 21 2h82q12 0 12 -10v-909q0 -12 10 -15l49 -26q11 -4 11 -15v-49q0 -10 -13 -10h-256 q-10 0 -10 10zM299 1159v119q0 8 6 8h121q4 0 4 -8v-119q0 -6 -4 -6h-121q-6 0 -6 6z" />
<glyph unicode="&#xf0;" horiz-adv-x="1105" d="M78 479q0 225 125 360.5t334 135.5q183 0 317 -94q3 -3 5.5 -1t2.5 5q-29 293 -135 413q-6 6 -12 0l-74 -75l-92 -93q-9 -8 -17 0l-34 37q-10 9 -2 17q67 110 69 116l60 60q8 5 -2 12q-53 17 -105 17q-75 0 -120 -19t-97 -61q-20 -15 -44.5 -39.5t-31.5 -34.5 q-13 -16 -35 -10l-40 10q-13 4 -13 12v193q0 7 10 12l48 12q12 0 18 -6l39 -45q6 -6 10 -2q10 7 40.5 27.5t43 26.5t41 17.5t60.5 15t75 3.5q111 0 191 -45q7 -4 10 2l162 162q8 8 16 0l35 -37q9 -9 2 -16l-64 -107q-1 -1 -5.5 -7.5t-8.5 -8.5l-51 -51q-3 -7 0 -13 q197 -212 197 -784q0 -293 -119 -457t-344 -164q-214 0 -339.5 128.5t-125.5 375.5zM209 479q0 -196 86.5 -294.5t247.5 -98.5q105 0 182 66t113 165.5t36 214.5q0 152 -90.5 242t-246.5 90t-242 -106t-86 -279z" />
<glyph unicode="&#xf1;" horiz-adv-x="1138" d="M90 10v49q0 12 10 15l50 26q10 3 10 15v770q0 13 -10 16l-50 25q-10 3 -10 16v47q0 12 10 15l123 28q4 2 21 2h10q9 0 12 -10l29 -117l4 -12q7 -7 16 4q48 72 133.5 113t178.5 41q145 0 256.5 -107.5t111.5 -281.5v-549q0 -9 11 -15l51 -26q8 -4 8 -15v-49q0 -10 -10 -10 h-187q-10 0 -10 10v627q0 137 -73.5 223t-178.5 86q-122 0 -214.5 -92t-92.5 -213v-491v-140q0 -10 -12 -10h-187q-10 0 -10 10zM381 1206v76q0 1 1 3t1 3q38 46 82.5 50t85.5 -17.5l82 -43t85.5 -18.5t82.5 48q4 4 4 -2v-72l-2 -6q-28 -34 -59.5 -45.5t-60.5 -4t-59 22.5 l-60 30t-59 22.5t-60.5 -3.5t-59.5 -45q-4 -4 -4 2z" />
<glyph unicode="&#xf2;" horiz-adv-x="1075" d="M74 514q0 -245 127.5 -392t337.5 -147q207 0 334.5 146t127.5 393q0 245 -127 392t-335 147q-209 0 -337 -146t-128 -393zM205 514q0 198 88.5 314t245.5 116q156 0 243.5 -117t87.5 -313q0 -198 -88 -314t-243 -116q-157 0 -245.5 117t-88.5 313zM382.5 1399.5 q2.5 5.5 8.5 5.5h127q2 0 6 -4l109 -217q3 -6 -0.5 -10.5t-9.5 -4.5h-78q-1 0 -3 1t-3 1l-156 218q-3 5 -0.5 10.5z" />
<glyph unicode="&#xf3;" horiz-adv-x="1075" d="M74 514q0 -245 127.5 -392t337.5 -147q207 0 334.5 146t127.5 393q0 245 -127 392t-335 147q-209 0 -337 -146t-128 -393zM205 514q0 198 88.5 314t245.5 116q156 0 243.5 -117t87.5 -313q0 -198 -88 -314t-243 -116q-157 0 -245.5 117t-88.5 313zM430 1194l109 217 q4 4 6 4h127q6 0 8.5 -5.5t-0.5 -10.5l-152 -213l-6 -4q-2 -2 -4 -2h-78q-6 0 -9.5 4t-0.5 10z" />
<glyph unicode="&#xf4;" horiz-adv-x="1075" d="M74 514q0 -245 127.5 -392t337.5 -147q207 0 334.5 146t127.5 393q0 245 -127 392t-335 147q-209 0 -337 -146t-128 -393zM205 514q0 198 88.5 314t245.5 116q156 0 243.5 -117t87.5 -313q0 -198 -88 -314t-243 -116q-157 0 -245.5 117t-88.5 313zM348 1160q-3 5 0 11 l152 226q4 4 6 4h76q2 0 6 -4l153 -226q3 -6 0 -11t-10 -5h-90q-2 0 -6 4l-84 146q-3 5 -8 5.5t-8 -5.5l-95 -146q-4 -4 -6 -4h-76q-7 0 -10 5z" />
<glyph unicode="&#xf5;" horiz-adv-x="1075" d="M74 514q0 247 128 393t337 146q208 0 335 -147t127 -392q0 -247 -127.5 -393t-334.5 -146q-210 0 -337.5 147t-127.5 392zM205 514q0 -196 88.5 -313t245.5 -117q155 0 243 116t88 314q0 196 -87.5 313t-243.5 117q-157 0 -245.5 -116t-88.5 -314zM338 1204v76q0 1 1 3 t1 3q38 46 82.5 50t85.5 -17.5l82 -43t85.5 -18.5t82.5 48q4 4 4 -2v-72l-2 -6q-28 -34 -59.5 -45.5t-60.5 -4t-59 22.5l-60 30t-59 22.5t-60.5 -3.5t-59.5 -45q-4 -4 -4 2z" />
<glyph unicode="&#xf6;" horiz-adv-x="1075" d="M74 514q0 -245 127.5 -392t337.5 -147q207 0 334.5 146t127.5 393q0 245 -127 392t-335 147q-209 0 -337 -146t-128 -393zM205 514q0 198 88.5 314t245.5 116q156 0 243.5 -117t87.5 -313q0 -198 -88 -314t-243 -116q-157 0 -245.5 117t-88.5 313zM336 1176v118q0 9 4 9 h121q4 0 4 -9v-118q0 -7 -4 -7h-121q-4 0 -4 7zM612 1176v118q0 9 6 9h121q4 0 4 -9v-118q0 -7 -4 -7h-121q-6 0 -6 7z" />
<glyph unicode="&#xf7;" horiz-adv-x="1359" d="M133 532q0 -4 3.5 -8t8.5 -4h1074q10 0 10 12v132q0 10 -10 10h-1074q-12 0 -12 -10v-132zM604 287q0 40 28.5 68t69.5 28q40 0 68.5 -28t28.5 -68q0 -41 -28.5 -70t-68.5 -29q-41 0 -69.5 29t-28.5 70zM604 936q0 40 28.5 68t69.5 28q40 0 68.5 -28t28.5 -68 q0 -41 -28.5 -69.5t-68.5 -28.5q-41 0 -69.5 28.5t-28.5 69.5z" />
<glyph unicode="&#xf8;" horiz-adv-x="1075" d="M74 514q0 247 128 393t337 146q80 0 153 -25l156 363q3 10 16 10h103q9 0 6 -10l-178 -414q98 -67 152 -186.5t54 -276.5q0 -247 -127.5 -393t-334.5 -146q-85 0 -164 29l-152 -350q-3 -10 -16 -10h-98q-12 0 -9 10l174 401q-96 68 -148 186.5t-52 272.5zM205 514 q0 -229 117 -346l325 758q-49 18 -108 18q-157 0 -245.5 -116t-88.5 -314zM418 104q62 -20 121 -20q155 0 243 116t88 314q0 239 -122 352z" />
<glyph unicode="&#xf9;" horiz-adv-x="1126" d="M74 942q0 -13 10 -16l49 -25q10 -3 10 -16v-549q0 -90 49.5 -173.5t134.5 -135.5t181 -52q202 0 307 154q3 5 9 4.5t7 -6.5l31 -117q3 -10 15 -10h151q10 0 10 10v49q0 11 -8 15l-51 26q-10 5 -10 15v909q0 10 -11 10h-43q-16 0 -22 -2l-121 -28q-18 -6 -18 -15v-47 q0 -8 16 -16l51 -25q10 -5 10 -16v-475q0 -129 -81 -226.5t-189 -97.5q-123 0 -200.5 79t-77.5 202v657q0 10 -13 10h-43q-16 0 -20 -2l-123 -28q-10 -3 -10 -15v-47zM394.5 1390.5q2.5 6.5 8.5 6.5h127q3 0 7 -4l108 -217q3 -6 -0.5 -10.5t-9.5 -4.5h-78q-1 0 -3 1t-3 1 l-156 217q-3 4 -0.5 10.5z" />
<glyph unicode="&#xfa;" horiz-adv-x="1126" d="M74 942q0 -13 10 -16l49 -25q10 -3 10 -16v-549q0 -90 49.5 -173.5t134.5 -135.5t181 -52q202 0 307 154q3 5 9 4.5t7 -6.5l31 -117q3 -10 15 -10h151q10 0 10 10v49q0 11 -8 15l-51 26q-10 5 -10 15v909q0 10 -11 10h-43q-16 0 -22 -2l-121 -28q-18 -6 -18 -15v-47 q0 -8 16 -16l51 -25q10 -5 10 -16v-475q0 -129 -81 -226.5t-189 -97.5q-123 0 -200.5 79t-77.5 202v657q0 10 -13 10h-43q-16 0 -20 -2l-123 -28q-10 -3 -10 -15v-47zM479 1155l109 217q4 4 6 4h127q6 0 8.5 -6t-0.5 -10l-151 -213l-7 -4q-2 -2 -4 -2h-78q-6 0 -9.5 4 t-0.5 10z" />
<glyph unicode="&#xfb;" horiz-adv-x="1126" d="M74 942q0 -13 10 -16l49 -25q10 -3 10 -16v-549q0 -90 49.5 -173.5t134.5 -135.5t181 -52q202 0 307 154q3 5 9 4.5t7 -6.5l31 -117q3 -10 15 -10h151q10 0 10 10v49q0 11 -8 15l-51 26q-10 5 -10 15v909q0 10 -11 10h-43q-16 0 -22 -2l-121 -28q-18 -6 -18 -15v-47 q0 -8 16 -16l51 -25q10 -5 10 -16v-475q0 -129 -81 -226.5t-189 -97.5q-123 0 -200.5 79t-77.5 202v657q0 10 -13 10h-43q-16 0 -20 -2l-123 -28q-10 -3 -10 -15v-47zM360 1167l152 226q4 4 6 4h76q2 0 6 -4l154 -226q3 -6 -0.5 -11t-10.5 -5h-90q-2 0 -6 4l-84 145 q-3 5 -8 5.5t-8 -5.5l-94 -145q-4 -4 -7 -4h-75q-7 0 -10.5 5t-0.5 11z" />
<glyph unicode="&#xfc;" horiz-adv-x="1126" d="M74 942q0 -13 10 -16l49 -25q10 -3 10 -16v-549q0 -90 49.5 -173.5t134.5 -135.5t181 -52q202 0 307 154q3 5 9 4.5t7 -6.5l31 -117q3 -10 15 -10h151q10 0 10 10v49q0 11 -8 15l-51 26q-10 5 -10 15v909q0 10 -11 10h-43q-16 0 -22 -2l-121 -28q-18 -6 -18 -15v-47 q0 -8 16 -16l51 -25q10 -5 10 -16v-475q0 -129 -81 -226.5t-189 -97.5q-123 0 -200.5 79t-77.5 202v657q0 10 -13 10h-43q-16 0 -20 -2l-123 -28q-10 -3 -10 -15v-47zM352 1157v119q0 8 4 8h121q4 0 4 -8v-119q0 -6 -4 -6h-121q-4 0 -4 6zM629 1157v119q0 8 6 8h121 q4 0 4 -8v-119q0 -6 -4 -6h-121q-6 0 -6 6z" />
<glyph unicode="&#xfd;" horiz-adv-x="940" d="M45 942q0 -13 10 -16l47 -25l4 -4q27 -67 312 -856v-6q-158 -420 -158 -426q-5 -13 -14 -19l-45 -22q-11 -4 -11 -17v-47q0 -10 9 -10h106q11 0 14 10l523 1405q0 2 4 6l47 23q8 4 8 16v47q0 12 -10 15l-70 16q-6 2 -20 2h-4q-4 0 -8.5 -3.5t-4.5 -6.5l-280 -756 q-3 -6 -8.5 -6t-6.5 6l-274 756q0 3 -4 6.5t-8 3.5h-4q-17 0 -21 -2l-123 -28q-10 -3 -10 -15v-47zM391 1133l109 217q4 4 6 4h127q6 0 8.5 -6t-0.5 -11l-152 -213l-6 -4q-2 -2 -4 -2h-78q-6 0 -9.5 4.5t-0.5 10.5z" />
<glyph unicode="&#xfe;" horiz-adv-x="1146" d="M74 -449q0 14 10 17l49 24q10 7 10 17v1718q0 13 -10 16l-49 25q-10 3 -10 16v48q0 11 10 14l123 29q4 2 20 2h11q8 0 12 -11l24 -98q2 -8 2 -12v-449q1 -10 9 -12.5t14 2.5q124 156 309 156q212 0 338.5 -147t126.5 -396q0 -244 -131.5 -389.5t-333.5 -145.5 q-188 0 -307 140q-6 5 -12 2t-6 -11v-10v-487q0 -10 10 -17l49 -24q10 -3 10 -17v-47q0 -10 -12 -10h-256q-10 0 -10 10v47zM276 514q0 -196 88 -313t244 -117q157 0 245.5 116t88.5 314q0 196 -89 313t-245 117t-244 -116t-88 -314z" />
<glyph unicode="&#xff;" horiz-adv-x="940" d="M45 942q0 -13 10 -16l47 -25l4 -4q27 -67 312 -856v-6q-158 -420 -158 -426q-5 -13 -14 -19l-45 -22q-11 -4 -11 -17v-47q0 -10 9 -10h106q11 0 14 10l523 1405q0 2 4 6l47 23q8 4 8 16v47q0 12 -10 15l-70 16q-6 2 -20 2h-4q-4 0 -8.5 -3.5t-4.5 -6.5l-280 -756 q-3 -6 -8.5 -6t-6.5 6l-274 756q0 3 -4 6.5t-8 3.5h-4q-17 0 -21 -2l-123 -28q-10 -3 -10 -15v-47zM293 1147v119q0 8 4 8h121q4 0 4 -8v-119q0 -6 -4 -6h-121q-4 0 -4 6zM569 1147v119q0 8 6 8h121q4 0 4 -8v-119q0 -6 -4 -6h-121q-6 0 -6 6z" />
<glyph unicode="&#x152;" horiz-adv-x="2244" d="M92 713q0 182 52 328t142.5 240.5t211.5 145t262 50.5q162 0 298 -68.5t226 -196.5v125q0 36 -10 39l-49 27q-11 4 -11 14v49q0 3 3.5 7t7.5 4h905q10 0 10 -11v-147q-3 -10 -14 -10h-47q-10 0 -17 10l-24 49q-3 10 -17 10h-581q-7 0 -12 -6t-5 -14v-555q0 -3 3.5 -6.5 t7.5 -3.5h442q12 0 16 8l25 51q5 10 16 10h47q11 0 11 -12v-225q0 -11 -11 -11h-47q-12 0 -16 11l-25 49q-3 10 -16 10h-442q-6 0 -9 -6l-2 -35v-528q0 -17 13 -17h647q12 0 16 11l25 49q3 10 16 10h47q10 0 15 -10v-148q0 -10 -13 -10h-964q-11 0 -11 10v49q0 11 11 15 l49 26q10 3 10 19v90q-90 -127 -226 -193.5t-298 -66.5q-140 0 -261.5 51.5t-212 147t-142.5 241.5t-52 324zM231 713q0 -154 41 -279t112.5 -206.5t167.5 -125t208 -43.5q215 0 361 156.5t163 429.5v135q-17 275 -162.5 430.5t-361.5 155.5q-230 0 -379.5 -175t-149.5 -478 z" />
<glyph unicode="&#x153;" horiz-adv-x="1830" d="M74 514q0 247 128 393t337 146q133 0 234.5 -61.5t160.5 -174.5q6 -9 12 0q59 114 165.5 175t236.5 61q176 0 297 -142t133 -354v-2q0 -8 -11 -12l-118 -31q-6 -2 -23 -2h-610q-10 0 -10 -10v-4q4 -90 24.5 -162t60 -129t103.5 -88t149 -31q149 0 246 92q4 4 21 34.5 t32 59.5l15 29q8 8 16 8h37q12 0 12 -10v-131q0 -14 -14 -31q-167 -162 -362 -162q-137 0 -239.5 62t-160.5 174q-6 9 -12 0q-59 -113 -161.5 -174.5t-233.5 -61.5q-210 0 -337.5 147t-127.5 392zM205 514q0 -196 88.5 -313t245.5 -117q155 0 243 116t88 314 q0 196 -87.5 313t-243.5 117q-157 0 -245.5 -116t-88.5 -314zM1016 629q0 -11 12 -11h590q6 0 9 4t1 7q-21 145 -95.5 230t-193.5 85q-127 0 -217.5 -87.5t-105.5 -227.5z" />
<glyph unicode="&#x178;" horiz-adv-x="1255" d="M18 1417q0 -10 11 -14l49 -27q6 -2 14 -14l465 -750l2 -4v-493q0 -12 -10 -15l-49 -26q-11 -4 -11 -15v-49q0 -10 11 -10h256q12 0 12 10v49q0 12 -10 15l-49 26q-11 4 -11 15v487v6l461 754q11 15 17 18l43 23q10 5 10 14v49q0 3 -4 7t-8 4h-213q-4 0 -7.5 -4t-3.5 -7 v-49q0 -10 8 -14l52 -27q14 -7 8 -18l-399 -653q-2 -3 -7 -3t-6 3l-418 653q-3 14 9 18l51 27q10 5 10 14v49q0 3 -4 7t-8 4h-260q-4 0 -7.5 -4t-3.5 -7v-49zM434 1573v119q0 8 4 8h121q4 0 4 -8v-119q0 -6 -4 -6h-121q-4 0 -4 6zM711 1573v119q0 8 6 8h121q4 0 4 -8v-119 q0 -6 -4 -6h-121q-6 0 -6 6z" />
<glyph unicode="&#x2c6;" horiz-adv-x="827" d="M217 1592.5q-3 5.5 0 11.5l152 225q4 4 6 4h76q2 0 6 -4l153 -225q3 -6 0 -11.5t-10 -5.5h-90q-2 0 -6 4l-84 146q-3 5 -8.5 5.5t-8.5 -5.5l-94 -146q-4 -4 -6 -4h-76q-7 0 -10 5.5z" />
<glyph unicode="&#x2dc;" horiz-adv-x="567" d="M72 1602v75q0 1 1 3t1 3q38 46 82.5 50t85.5 -17.5l82 -43t85.5 -18.5t82.5 48q4 4 4 -2v-72l-2 -6q-28 -34 -59.5 -45.5t-60.5 -4t-59 22.5l-60 30t-59 22.5t-60.5 -3.5t-59.5 -45q-4 -4 -4 3z" />
<glyph unicode="&#x2000;" horiz-adv-x="969" />
<glyph unicode="&#x2001;" horiz-adv-x="1939" />
<glyph unicode="&#x2002;" horiz-adv-x="969" />
<glyph unicode="&#x2003;" horiz-adv-x="1939" />
<glyph unicode="&#x2004;" horiz-adv-x="646" />
<glyph unicode="&#x2005;" horiz-adv-x="484" />
<glyph unicode="&#x2006;" horiz-adv-x="323" />
<glyph unicode="&#x2007;" horiz-adv-x="323" />
<glyph unicode="&#x2008;" horiz-adv-x="242" />
<glyph unicode="&#x2009;" horiz-adv-x="387" />
<glyph unicode="&#x200a;" horiz-adv-x="107" />
<glyph unicode="&#x2010;" horiz-adv-x="917" d="M123 532v132q0 10 12 10h649q11 0 11 -10v-132q0 -12 -11 -12h-649q-5 0 -8.5 4t-3.5 8z" />
<glyph unicode="&#x2011;" horiz-adv-x="917" d="M123 532v132q0 10 12 10h649q11 0 11 -10v-132q0 -12 -11 -12h-649q-5 0 -8.5 4t-3.5 8z" />
<glyph unicode="&#x2012;" horiz-adv-x="917" d="M123 532v132q0 10 12 10h649q11 0 11 -10v-132q0 -12 -11 -12h-649q-5 0 -8.5 4t-3.5 8z" />
<glyph unicode="&#x2013;" horiz-adv-x="1079" d="M123 532v132q0 10 12 10h811q10 0 10 -10v-132q0 -12 -10 -12h-811q-5 0 -8.5 4t-3.5 8z" />
<glyph unicode="&#x2014;" horiz-adv-x="1472" d="M123 532v132q0 10 12 10h1204q11 0 11 -10v-132q0 -12 -11 -12h-1204q-5 0 -8.5 4t-3.5 8z" />
<glyph unicode="&#x2018;" horiz-adv-x="419" d="M115 1090v184q0 12 4 20l94 172q4 11 14 11h37q5 0 8.5 -4.5t3.5 -10.5l-30 -239q0 -6 2 -6l51 -60q12 -12 12 -22v-48q0 -10 -10 -10h-174q-12 0 -12 13z" />
<glyph unicode="&#x2019;" horiz-adv-x="393" d="M98 1417v49q0 3 3.5 7t7.5 4h174q12 0 12 -15v-182l-2 -23l-94 -170q-3 -10 -15 -10h-37q-5 0 -9.5 4.5t-4.5 10.5l31 239q0 4 -2 6l-51 58q-13 13 -13 22z" />
<glyph unicode="&#x201a;" horiz-adv-x="630" d="M205 90v47q0 10 10 10h174q12 0 12 -12v-184l-2 -21l-94 -172q-5 -10 -14 -10h-37q-5 0 -9.5 4t-4.5 10l30 240q0 6 -2 6l-51 60q-12 12 -12 22z" />
<glyph unicode="&#x201c;" horiz-adv-x="692" d="M115 1090v184q0 12 4 20l94 172q4 11 14 11h37q5 0 8.5 -4.5t3.5 -10.5l-30 -239q0 -6 2 -6l51 -60q12 -12 12 -22v-48q0 -10 -10 -10h-174q-12 0 -12 13zM387 1090v184q0 16 2 20l94 172q4 11 15 11h37q5 0 8.5 -4.5t3.5 -10.5l-29 -239v-6l53 -60q1 -2 3.5 -4.5t4.5 -5 t3.5 -6t1.5 -6.5v-48q0 -10 -13 -10h-172q-12 0 -12 13z" />
<glyph unicode="&#x201d;" horiz-adv-x="663" d="M98 1417v49q0 3 3.5 7t7.5 4h174q12 0 12 -15v-182l-2 -23l-94 -170q-3 -10 -15 -10h-37q-5 0 -9.5 4.5t-4.5 10.5l31 239q0 4 -2 6l-51 58q-13 13 -13 22zM371 1417v49q0 11 10 11h174q12 0 12 -15v-182q0 -11 -4 -23l-94 -170q-3 -10 -14 -10h-37q-5 0 -8.5 4.5 t-3.5 10.5l30 239q0 4 -2 6l-51 58q-12 12 -12 22z" />
<glyph unicode="&#x201e;" horiz-adv-x="903" d="M205 90v47q0 10 10 10h174q12 0 12 -12v-184l-2 -21l-94 -172q-5 -10 -14 -10h-37q-5 0 -9.5 4t-4.5 10l30 240q0 6 -2 6l-51 60q-12 12 -12 22zM477 90v47q0 10 10 10h175q12 0 12 -12v-184l-2 -21l-94 -172q-5 -10 -15 -10h-37q-5 0 -9.5 4t-4.5 10l31 240q0 6 -2 6 l-52 60q-12 12 -12 22z" />
<glyph unicode="&#x2022;" horiz-adv-x="925" d="M139 584q0 133 95 228t229 95q133 0 228 -94.5t95 -228.5t-95 -229t-228 -95t-228.5 95t-95.5 229z" />
<glyph unicode="&#x2026;" horiz-adv-x="1341" d="M113 78q0 40 28.5 68t69.5 28q40 0 68 -28t28 -68q0 -41 -28 -69.5t-68 -28.5q-41 0 -69.5 28.5t-28.5 69.5zM573 78q0 40 28.5 68t68.5 28q41 0 69.5 -28t28.5 -68q0 -41 -28.5 -69.5t-69.5 -28.5q-40 0 -68.5 28.5t-28.5 69.5zM1032 78q0 40 29 68t69 28t69.5 -28.5 t29.5 -67.5q0 -41 -29.5 -69.5t-69.5 -28.5t-69 28.5t-29 69.5z" />
<glyph unicode="&#x202f;" horiz-adv-x="387" />
<glyph unicode="&#x2039;" horiz-adv-x="1069" d="M57 530v125q0 13 11 17l886 403q11 4 11 -6v-137q0 -13 -11 -17l-716 -317q-10 -7 0 -10l716 -320q11 -4 11 -16v-135q0 -10 -11 -6l-886 403q-11 4 -11 16z" />
<glyph unicode="&#x203a;" horiz-adv-x="1069" d="M104 117v137q0 12 11 16l719 318q10 3 0 10l-719 320q-11 4 -11 16v135q0 10 11 6l886 -403q11 -4 11 -17v-125q0 -12 -11 -16l-886 -403q-11 -4 -11 6z" />
<glyph unicode="&#x205f;" horiz-adv-x="484" />
<glyph unicode="&#x20ac;" horiz-adv-x="1564" d="M68 582v51q0 12 10 12q125 33 131 33h53q8 0 8 8q-2 18 -2 51q0 29 2 43q0 8 -8 8h-184q-10 0 -10 13v49q0 11 10 14l131 33h61q8 0 11 8q43 283 222 439.5t433 156.5q111 0 202 -37.5t185 -113.5q7 -4 10 2l35 39q7 10 18 6l46 -13q4 0 8 -4t4 -8v-196q0 -11 -12 -15 q-25 -8 -41 -12q-22 -3 -45 20q-1 1 -25.5 30t-41.5 47.5t-55.5 49t-76 48.5t-94 32.5t-117.5 14.5q-195 0 -335 -128t-179 -358q-1 -3 1 -5.5t5 -2.5h608q11 0 11 -12v-49q0 -11 -11 -15l-118 -28q-15 -5 -23 -5h-477q-8 0 -8 -8q0 -7 -1 -21t-1 -22q0 -9 1 -26t1 -25t8 -8 h489q11 0 11 -10v-52q0 -10 -11 -14l-119 -29q-6 -2 -22 -2h-336q-3 0 -5 -2.5t-1 -5.5q40 -228 179 -353.5t333 -125.5q94 0 181.5 27.5t195.5 115.5q5 4 22 35t31 60l14 28q3 10 17 10h37q10 0 10 -12v-137q0 -23 -14 -33q-5 -4 -33 -25.5t-37 -28t-37.5 -26t-43 -27.5 t-44.5 -24.5t-51 -24t-53 -18.5t-60.5 -16t-63.5 -9t-71 -4q-250 0 -429 155.5t-224 432.5q-3 8 -11 8h-194q-10 0 -10 11z" />
<glyph unicode="&#x2122;" horiz-adv-x="1546" d="M109 1378v88q0 7 4 7h22q1 0 3 -1.5t3 -1.5q0 -1 7.5 -6.5t9.5 -5.5q0 -2 4 -2h465q4 0 6 2l16 12q1 0 2 1.5t2 1.5h23q4 0 4 -7v-88q0 -4 -4 -4h-23q-6 0 -6 4l-12 25q-4 4 -8 4h-195q-6 0 -6 -8v-572q0 -5 6 -8l23 -10q4 -4 4 -8v-23q0 -4 -4 -4h-119q-6 0 -6 4v23 q0 5 6 8l22 10q4 4 4 8v572q0 8 -6 8h-194q-4 0 -8 -4l-11 -25q-4 -4 -8 -4h-22q-4 0 -4 4zM723 778v23q0 4 4 8l25 10q4 4 4 8v576q0 4 -4 8l-25 10q-4 4 -4 9v22q0 4 6 4h82q4 0 4 -4l252 -571l248 573q2 2 4 2h86q4 0 4 -4v-22q0 -5 -4 -9l-23 -10q-4 -4 -4 -8v-576 q0 -4 4 -8l23 -10q4 -4 4 -8v-23q0 -4 -4 -4h-119q-4 0 -4 4v23q0 4 4 8l23 10q4 4 4 8v494q0 3 -3 3t-3 -3l-236 -551q-8 -8 -10 -8h-4q-7 0 -15 18l-233 537q-1 3 -4.5 3t-3.5 -3v-490q0 -5 6 -8l22 -10q5 -5 5 -8v-23q0 -4 -5 -4h-100q-6 0 -6 4z" />
<glyph unicode="&#x25fc;" horiz-adv-x="1034" d="M0 0v1034h1034v-1034h-1034z" />
</font>
</defs>
</svg>
