<?xml version="1.0" encoding="utf-8"?>
<!-- Generator: Adobe Illustrator 18.1.1, SVG Export Plug-In . SVG Version: 6.00 Build 0)  -->
<svg version="1.1" id="Layer_1" xmlns="http://www.w3.org/2000/svg" xmlns:xlink="http://www.w3.org/1999/xlink" x="0px" y="0px"
	 viewBox="0 0 28.4 11.9" enable-background="new 0 0 28.4 11.9" xml:space="preserve">
<g>
	<path d="M0.4,7.6c0,0.1-0.1,0.1-0.2,0C0,7.4-0.1,7,0.2,6.3c0.4-1.1,2.4-4.3,3.7-6.1C3.9,0,4.1,0,4.2,0.1c0.5,0.4,0.6,0.8,0.3,1.8
		C4.1,3,3.7,4.4,3.2,6.1c1.3-2.1,3.1-3.9,4.4-6C7.7,0,7.8,0,8,0.1c0.5,0.5,0.4,1.2,0,1.8c-0.8,1.6-2,4-2.6,5.7c0,0.1-0.1,0.1-0.2,0
		C5,7.4,4.8,7.1,5,6.3C5.2,5.6,6,3.9,6.8,2.4C5.4,4.1,4,5.9,3.1,7.5C3.1,7.6,3,7.7,2.9,7.6C2.5,7.3,2.4,6.9,2.5,6.1
		c0.1-0.7,0.5-2.3,1-3.9C2.4,3.8,1.1,6,0.4,7.6z"/>
	<path d="M9.4,7.9c-0.7,1.6-1.5,3.5-2.5,3.9c-0.2,0.1-0.5,0.1-0.7-0.3C6,11.2,5.7,10.7,6,10C6.3,9,7.4,8.2,8.5,7.8
		c0.1-0.3,0.2-0.6,0.4-0.9C8.5,7.3,8.1,7.6,7.6,7.6C6.7,7.5,6.7,6.6,7,5.8c0.3-0.8,0.9-2,1.6-3c0.1-0.1,0.2-0.1,0.3,0
		c0.3,0.4,0.2,0.9-0.2,1.6C8.3,5.1,8,5.6,7.8,6.1c-0.2,0.6-0.2,1,0.1,1c0.5,0,1.1-0.7,1.7-1.8c0.5-0.9,1-2,1.5-2.6
		c0.1-0.2,0.2-0.2,0.3-0.1c0.2,0.2,0.3,0.7,0,1.3c-0.4,0.7-1.1,2.1-1.6,3.3c0.9-0.5,1.6-1.2,2.1-1.8c0.1-0.1,0.2-0.1,0.2,0
		c0,0.1,0,0.4-0.2,0.7C11.3,7,10.4,7.5,9.4,7.9z M6.5,11.1c0.2,0.2,1.1-1.1,1.9-2.8C6.8,9.2,6.2,10.8,6.5,11.1z"/>
	<path d="M14.1,6.4c0.6,0,0.9,0.2,1.1,0.5c0,0.1,0,0.2-0.1,0.2c-0.6,0-1.9,0.3-2.6,0.5c-0.3,0.1-0.4,0.1-0.5-0.1
		c-0.1-0.2-0.3-0.4-0.3-0.5c-0.1-0.2-0.1-0.4,0-0.7c0.6-1.5,2.6-5.1,3.3-6.1C15,0,15.1,0,15.2,0.1c0.1,0.3,0.2,0.8-0.3,1.7
		c-0.6,1.1-1.7,3-2.6,4.9C12.9,6.6,13.6,6.4,14.1,6.4z"/>
	<path d="M19.2,5c-0.3,1-1,2.2-1.9,2.5c-0.4,0.1-1,0.1-1.5-0.5c-0.5-0.7-0.3-1.7,0.2-2.7c0.5-0.8,1.2-1.5,1.9-1.6
		c0.4,0,0.6,0.1,0.8,0.4c0.3,0.4,0.6,0.5,0.6,1.3c0,0.1,0,0.2,0,0.3c0.1,0,0.1,0,0.2,0c0.1,0,0.1,0.1,0,0.1C19.5,4.9,19.4,5,19.2,5z
		 M18.2,4.7c-0.3-0.2-0.5-0.6-0.6-1.1c-0.3,0.3-0.7,0.7-0.9,1.1c-0.5,0.9-0.7,2-0.4,2.3c0.3,0.3,1.1-0.1,1.7-1.2
		c0.2-0.3,0.3-0.7,0.4-1C18.4,4.8,18.3,4.8,18.2,4.7z M18.6,3.6c-0.1-0.4-0.3-0.3-0.4,0c-0.1,0.3,0.1,0.7,0.3,0.9
		C18.6,4.1,18.7,3.8,18.6,3.6z"/>
	<path d="M22.1,7.9c-0.7,1.6-1.5,3.5-2.5,3.9c-0.2,0.1-0.5,0.1-0.7-0.3c-0.3-0.4-0.5-0.8-0.2-1.5C19,9,20.1,8.3,21.3,7.8
		c0.1-0.3,0.2-0.6,0.3-0.8c-0.3,0.3-0.8,0.6-1.2,0.6c-1.1,0-1.3-1.5-0.3-2.9c0.9-1.4,1.9-1.9,2.5-1.9c0.5,0,0.7,0.4,0.7,0.8
		c0.1-0.2,0.3-0.5,0.4-0.7c0.1-0.2,0.2-0.2,0.3-0.1c0.2,0.2,0.3,0.7,0,1.3c-0.4,0.7-1.1,2.2-1.6,3.3c1-0.5,1.7-1.2,2.1-1.8
		c0.1-0.1,0.2-0.1,0.2,0c0,0.1,0,0.4-0.2,0.7C24,7.1,23.1,7.5,22.1,7.9z M19.2,11.1c0.2,0.2,1.1-1,1.9-2.8
		C19.5,9.2,19,10.8,19.2,11.1z M22.7,3.3c-0.4,0-1.2,0.7-1.9,1.8c-0.6,1-0.8,2.1-0.3,2.1c0.5,0,1.1-0.7,1.7-1.8
		C23,4.1,23.1,3.3,22.7,3.3z"/>
	<path d="M28,5c-0.3,1-1,2.2-1.9,2.5c-0.4,0.1-1,0.1-1.5-0.5c-0.5-0.7-0.3-1.7,0.2-2.7c0.5-0.8,1.2-1.5,1.9-1.6
		c0.4,0,0.6,0.1,0.8,0.4c0.3,0.4,0.6,0.5,0.6,1.3c0,0.1,0,0.2,0,0.3c0.1,0,0.1,0,0.2,0c0.1,0,0.1,0.1,0,0.1C28.3,4.9,28.2,5,28,5z
		 M27,4.7c-0.3-0.2-0.5-0.6-0.6-1.1c-0.3,0.3-0.7,0.7-0.9,1.1c-0.5,0.9-0.7,2-0.4,2.3c0.3,0.3,1.1-0.1,1.7-1.2
		c0.2-0.3,0.3-0.7,0.4-1C27.2,4.8,27.1,4.8,27,4.7z M27.4,3.6c-0.1-0.4-0.3-0.3-0.4,0C27,4,27.1,4.3,27.3,4.5
		C27.4,4.1,27.5,3.8,27.4,3.6z"/>
</g>
</svg>
