<?xml version="1.0" encoding="utf-8"?>
<!-- Generator: Adobe Illustrator 18.1.1, SVG Export Plug-In . SVG Version: 6.00 Build 0)  -->
<svg version="1.1" id="Layer_1" xmlns="http://www.w3.org/2000/svg" xmlns:xlink="http://www.w3.org/1999/xlink" x="0px" y="0px"
	 viewBox="0 0 134.3 41.8" enable-background="new 0 0 134.3 41.8" xml:space="preserve">
<g>
	<g>
		<path fill="#154D6D" d="M0,12.1c0-6.4,3.6-9.9,9-9.9s9,3.6,9,9.9c0,6.4-3.6,10.1-9,10.1S0,18.4,0,12.1z M12.7,12.1
			c0-3.5-1.4-5.5-3.7-5.5c-2.3,0-3.7,2-3.7,5.5c0,3.5,1.4,5.7,3.7,5.7C11.3,17.8,12.7,15.6,12.7,12.1z"/>
		<path fill="#154D6D" d="M19.4,16.1V6.9h5.1v8.5c0,1.9,0.5,2.4,1.5,2.4c1,0,1.5-0.4,2.1-1.3V6.9h5.1v14.8H29l-0.4-2h-0.1
			c-1.2,1.4-2.6,2.3-4.6,2.3C20.7,22.2,19.4,19.8,19.4,16.1z"/>
		<path fill="#154D6D" d="M35.8,16.1v-5.2h-2V7.1l2.3-0.2l0.6-3.9h4.2v3.9h3.4v4h-3.4V16c0,1.6,0.8,2.2,1.8,2.2c0.5,0,1-0.1,1.3-0.2
			l0.8,3.7c-0.8,0.2-1.9,0.5-3.5,0.5C37.4,22.2,35.8,19.7,35.8,16.1z"/>
		<path fill="#154D6D" d="M44.3,14.4c0-4.9,3-7.8,6.1-7.8c1.6,0,2.6,0.6,3.4,1.5l-0.2-2.1V1.1h5.1v20.7h-4.2l-0.4-1.4h-0.1
			c-1,1-2.4,1.7-3.7,1.7C46.7,22.2,44.3,19.2,44.3,14.4z M53.6,16.9v-5.5c-0.6-0.5-1.4-0.7-2-0.7c-1.1,0-2.1,1-2.1,3.6
			c0,2.7,0.8,3.7,2.2,3.7C52.5,18,53.1,17.8,53.6,16.9z"/>
		<path fill="#154D6D" d="M59.9,14.4c0-4.9,3.6-7.8,7.4-7.8s7.4,2.9,7.4,7.8c0,4.9-3.6,7.8-7.4,7.8S59.9,19.3,59.9,14.4z M69.4,14.4
			c0-2.3-0.6-3.7-2.1-3.7s-2.1,1.4-2.1,3.7s0.6,3.7,2.1,3.7S69.4,16.6,69.4,14.4z"/>
		<path fill="#154D6D" d="M75.1,14.4c0-4.9,3.6-7.8,7.4-7.8s7.4,2.9,7.4,7.8c0,4.9-3.6,7.8-7.4,7.8S75.1,19.3,75.1,14.4z M84.6,14.4
			c0-2.3-0.6-3.7-2.1-3.7s-2.1,1.4-2.1,3.7s0.6,3.7,2.1,3.7S84.6,16.6,84.6,14.4z"/>
		<path fill="#154D6D" d="M91,6.9h4.2l0.4,2.6h0.1c1.1-2,2.8-2.9,4.2-2.9c0.9,0,1.4,0.1,1.8,0.3l-0.8,4.4c-0.5-0.1-1-0.2-1.7-0.2
			c-1.1,0-2.4,0.7-3.1,2.5v8.3H91V6.9z"/>
		<path fill="#F6851F" d="M101.9,1.1h5v11h0.1l4.1-5.2h5.5l-5.3,6.2l5.6,8.7h-5.5l-3-5.3l-1.5,1.7v3.6h-5V1.1z"/>
		<path fill="#F6851F" d="M117,2.6c0-1.5,1.2-2.6,2.8-2.6c1.7,0,2.9,1.1,2.9,2.6c0,1.5-1.2,2.6-2.9,2.6C118.2,5.1,117,4,117,2.6z
			 M117.3,6.9h5.1v14.8h-5.1V6.9z"/>
		<path fill="#F6851F" d="M125,16.1v-5.2h-2V7.1l2.3-0.2l0.6-3.9h4.2v3.9h3.4v4h-3.4V16c0,1.6,0.8,2.2,1.8,2.2c0.5,0,1-0.1,1.3-0.2
			l0.8,3.7c-0.8,0.2-1.9,0.5-3.5,0.5C126.6,22.2,125,19.7,125,16.1z"/>
	</g>
	<g>
		<path fill="#0F1231" d="M20.3,30.5c-0.3,0.4-0.5,0.9-0.8,1.2c-0.3,0.4-0.6,0.7-1,1.1c-0.3,0.3-0.7,0.6-1,0.9
			c-0.3,0.3-0.7,0.5-1,0.7c0,0.3,0,0.6,0.1,0.9s0.2,0.4,0.3,0.5c0.1,0.1,0.2,0.1,0.4,0.1c0.2,0,0.4-0.1,0.6-0.2
			c0.2-0.1,0.4-0.2,0.6-0.4c0.2-0.1,0.3-0.3,0.4-0.4s0.2-0.2,0.3-0.2c0.1,0,0.3,0,0.4,0.1c0.1,0.1,0.2,0.2,0.3,0.3
			c0.1,0.1,0,0.2-0.1,0.4c-0.1,0.2-0.3,0.4-0.6,0.6c-0.2,0.2-0.5,0.5-0.8,0.7c-0.3,0.2-0.6,0.4-0.9,0.5c-0.3,0.1-0.6,0.2-0.9,0.2
			c-0.3,0-0.5-0.1-0.7-0.3c-0.2-0.2-0.3-0.5-0.3-0.9c-0.2,0.5-0.5,0.9-0.7,1.3c-0.2,0.4-0.4,0.8-0.6,1.2c-0.2,0.3-0.3,0.6-0.4,0.9
			c-0.1,0.2-0.2,0.4-0.2,0.4c-0.1,0.2-0.3,0.3-0.5,0.4c-0.2,0-0.4,0-0.6-0.1c-0.2-0.1-0.3-0.2-0.4-0.4c-0.1-0.2-0.1-0.4,0.1-0.7
			c0.1-0.2,0.3-0.5,0.5-1c0.3-0.5,0.6-1,0.9-1.7c0.3-0.6,0.7-1.3,1.1-2c0.4-0.7,0.7-1.4,1.1-2c0.3-0.6,0.6-1.2,0.9-1.7
			c0.3-0.5,0.5-0.9,0.6-1.1c0.2-0.4,0.5-0.8,0.8-1s0.6-0.5,1-0.6c0.3-0.1,0.6-0.1,0.9-0.1c0.3,0.1,0.5,0.2,0.6,0.4s0.2,0.5,0.2,0.9
			C20.8,29.5,20.6,29.9,20.3,30.5z M18.5,30.3c0,0-0.1,0.2-0.2,0.4c-0.1,0.2-0.2,0.4-0.3,0.6c-0.1,0.2-0.2,0.4-0.3,0.6
			s-0.2,0.3-0.2,0.4c0.2-0.2,0.5-0.5,0.8-0.8s0.5-0.7,0.8-1.2c0.2-0.3,0.3-0.6,0.3-0.8c0-0.2,0-0.3-0.1-0.3c-0.1,0-0.2,0.1-0.3,0.3
			C18.9,29.6,18.7,29.9,18.5,30.3z"/>
		<path fill="#0F1231" d="M25.3,34.7c0.1-0.1,0.2-0.2,0.3-0.2c0.1,0,0.3,0,0.4,0.1c0.1,0.1,0.2,0.1,0.3,0.3c0,0.1,0,0.2-0.1,0.4
			c-0.1,0.2-0.3,0.4-0.5,0.6c-0.2,0.2-0.5,0.4-0.8,0.6c-0.3,0.2-0.6,0.3-0.9,0.3c-0.3,0.1-0.6,0-1-0.1c-0.4,0.4-0.9,0.8-1.4,1.1
			c-0.5,0.3-1,0.4-1.5,0.4c-0.4,0-0.7-0.1-0.9-0.3s-0.5-0.4-0.6-0.7c-0.1-0.3-0.2-0.6-0.2-1c0-0.4,0.1-0.8,0.2-1.2
			c0.2-0.4,0.4-0.8,0.7-1.2c0.3-0.4,0.6-0.7,0.9-1c0.3-0.3,0.7-0.5,1.1-0.7c0.4-0.2,0.8-0.3,1.1-0.3c0.4,0,0.7,0.1,1,0.3
			c0.3,0.2,0.5,0.4,0.6,0.7c0.1,0.3,0.2,0.6,0.2,1c0,0.4-0.1,0.8-0.2,1.2c0,0.1-0.1,0.2-0.1,0.3s-0.1,0.2-0.1,0.3
			c0.2,0,0.5-0.1,0.7-0.2S25.1,35,25.3,34.7z M22.8,34.8c0.2-0.5,0.3-0.9,0.2-1.2c-0.1-0.3-0.4-0.5-0.7-0.5c-0.2,0-0.4,0-0.6,0.1
			c-0.2,0.1-0.4,0.2-0.6,0.4s-0.4,0.3-0.5,0.6c-0.2,0.2-0.3,0.4-0.4,0.7c-0.2,0.5-0.3,0.9-0.1,1.2c0.1,0.3,0.4,0.5,0.7,0.5
			c0.2,0,0.4,0,0.6-0.1s0.4-0.2,0.6-0.4s0.4-0.4,0.5-0.6C22.6,35.3,22.7,35.1,22.8,34.8z"/>
		<path fill="#0F1231" d="M25.3,34.7c0.3-0.3,0.6-0.7,0.9-1.2c0.3-0.5,0.6-0.9,0.9-1.3c-0.2-0.2-0.3-0.5-0.4-0.8
			c-0.1-0.3-0.1-0.6-0.1-0.9c0-0.3,0-0.6,0.1-0.9c0.1-0.3,0.2-0.5,0.4-0.7c0.3-0.2,0.6-0.4,0.9-0.4c0.3,0,0.5,0.1,0.7,0.2
			c0.2,0.2,0.3,0.4,0.4,0.6c0.1,0.3,0.1,0.6,0.1,0.9c0,0.2-0.1,0.4-0.2,0.6c-0.1,0.2-0.2,0.5-0.4,0.8c0.2,0,0.4,0,0.6,0
			c0.2,0,0.4,0,0.6,0c0.2,0.1,0.3,0.2,0.4,0.3c0.1,0.1,0.1,0.2,0.1,0.4c0,0.1,0,0.2-0.1,0.3c-0.1,0.1-0.2,0.2-0.3,0.4
			s-0.4,0.4-0.6,0.7c-0.2,0.3-0.4,0.6-0.7,0.9c-0.2,0.3-0.4,0.6-0.6,0.9c-0.2,0.3-0.3,0.5-0.4,0.7c-0.1,0.2-0.1,0.4,0,0.4
			c0.2,0.1,0.4,0.2,0.7,0c0.3-0.1,0.6-0.3,0.9-0.5c0.3-0.2,0.6-0.5,0.9-0.8s0.5-0.5,0.7-0.8c0.1-0.1,0.2-0.2,0.4-0.2s0.3,0,0.4,0.1
			c0.1,0.1,0.2,0.1,0.3,0.3c0.1,0.1,0,0.2-0.1,0.4c-0.2,0.3-0.5,0.6-0.9,1c-0.4,0.4-0.8,0.8-1.3,1.1c-0.5,0.3-0.9,0.5-1.4,0.7
			c-0.5,0.1-0.9,0.1-1.4-0.1c-0.4-0.2-0.6-0.5-0.6-0.9c0-0.4,0-0.8,0.2-1.3s0.4-0.9,0.8-1.4c0.3-0.5,0.7-0.9,1.1-1.2
			c0.1-0.1,0.2-0.2,0.2-0.2c0,0-0.1-0.1-0.4-0.2c-0.4,0.5-0.7,1-1,1.5c-0.3,0.5-0.5,0.8-0.7,0.9c-0.1,0.1-0.2,0.2-0.4,0.2
			c-0.1,0-0.3,0-0.4-0.1c-0.1-0.1-0.2-0.2-0.2-0.3C25.2,35,25.2,34.9,25.3,34.7z M28,29.7c-0.1,0-0.2,0-0.3,0.1s-0.1,0.2-0.1,0.4
			c0,0.1,0,0.3,0,0.5c0,0.2,0.1,0.3,0.2,0.5c0.1-0.2,0.2-0.3,0.2-0.5c0.1-0.2,0.1-0.3,0.1-0.5c0-0.1,0-0.3,0-0.3
			C28.2,29.7,28.1,29.7,28,29.7z"/>
		<path fill="#0F1231" d="M43.5,34.7c0.1-0.1,0.2-0.2,0.3-0.2c0.1,0,0.3,0,0.4,0.1c0.1,0.1,0.2,0.1,0.3,0.3c0,0.1,0,0.2-0.1,0.4
			c-0.1,0.2-0.3,0.4-0.5,0.6c-0.2,0.2-0.5,0.4-0.8,0.6c-0.3,0.2-0.6,0.3-0.9,0.3c-0.3,0.1-0.6,0-1-0.1c-0.4,0.4-0.9,0.8-1.4,1.1
			c-0.5,0.3-1,0.4-1.5,0.4c-0.4,0-0.7-0.1-0.9-0.3s-0.5-0.4-0.6-0.7c-0.1-0.3-0.2-0.6-0.2-1c0-0.4,0.1-0.8,0.2-1.2
			c0.2-0.4,0.4-0.8,0.7-1.2c0.3-0.4,0.6-0.7,0.9-1c0.3-0.3,0.7-0.5,1.1-0.7c0.4-0.2,0.8-0.3,1.1-0.3c0.4,0,0.7,0.1,1,0.3
			c0.3,0.2,0.5,0.4,0.6,0.7c0.1,0.3,0.2,0.6,0.2,1c0,0.4-0.1,0.8-0.2,1.2c0,0.1-0.1,0.2-0.1,0.3s-0.1,0.2-0.1,0.3
			c0.2,0,0.5-0.1,0.7-0.2S43.3,35,43.5,34.7z M41.1,34.8c0.2-0.5,0.3-0.9,0.2-1.2c-0.1-0.3-0.4-0.5-0.7-0.5c-0.2,0-0.4,0-0.6,0.1
			c-0.2,0.1-0.4,0.2-0.6,0.4s-0.4,0.3-0.5,0.6c-0.2,0.2-0.3,0.4-0.4,0.7c-0.2,0.5-0.3,0.9-0.1,1.2c0.1,0.3,0.4,0.5,0.7,0.5
			c0.2,0,0.4,0,0.6-0.1s0.4-0.2,0.6-0.4s0.4-0.4,0.5-0.6C40.8,35.3,40.9,35.1,41.1,34.8z"/>
		<path fill="#0F1231" d="M49.4,34.7c0.1-0.1,0.2-0.2,0.3-0.2c0.1,0,0.3,0,0.4,0.1c0.1,0.1,0.2,0.2,0.3,0.3c0.1,0.1,0,0.2-0.1,0.4
			c-0.1,0.1-0.2,0.2-0.3,0.4c-0.1,0.2-0.3,0.3-0.4,0.5c-0.2,0.2-0.3,0.4-0.5,0.6c-0.2,0.2-0.4,0.4-0.6,0.5c-0.4,0.3-0.7,0.6-1,0.7
			c-0.3,0.1-0.5,0.2-0.8,0.2c-0.2,0-0.4-0.1-0.6-0.2c-0.2-0.1-0.3-0.3-0.4-0.4c-0.1,0.1-0.2,0.1-0.3,0.2c-0.1,0.1-0.2,0.2-0.4,0.2
			C45,38,44.8,38,44.7,38.1s-0.4,0.1-0.7,0.1c-0.7,0-1.1-0.3-1.2-0.9c-0.1-0.6,0.1-1.4,0.7-2.3c0.1-0.2,0.3-0.4,0.4-0.7
			c0.1-0.3,0.3-0.5,0.4-0.8s0.3-0.5,0.4-0.7c0.1-0.2,0.2-0.4,0.3-0.6c0.1-0.2,0.3-0.3,0.5-0.4c0.2-0.1,0.4-0.1,0.5,0
			c0.2,0.1,0.3,0.2,0.4,0.3c0.1,0.1,0.1,0.3,0,0.5c-0.2,0.3-0.3,0.6-0.5,0.9c-0.2,0.4-0.4,0.7-0.5,1c-0.2,0.3-0.3,0.5-0.5,0.8
			s-0.3,0.5-0.4,0.7c-0.1,0.2-0.2,0.4-0.2,0.5c0,0.1,0,0.2,0.1,0.3c0.2,0.1,0.4,0.1,0.8-0.2c0.4-0.3,0.8-0.7,1.2-1.2
			c0.2-0.2,0.3-0.5,0.5-0.8c0.2-0.3,0.4-0.7,0.6-1c0.2-0.4,0.4-0.8,0.7-1.2c0.1-0.2,0.2-0.3,0.4-0.4c0.2-0.1,0.4-0.1,0.5-0.1
			c0.2,0,0.3,0.1,0.4,0.2s0.1,0.3,0,0.5c-0.1,0.2-0.3,0.5-0.4,0.8c-0.2,0.3-0.4,0.7-0.5,1c-0.2,0.3-0.4,0.7-0.5,1
			c-0.2,0.3-0.3,0.5-0.4,0.7c-0.1,0.2-0.1,0.3-0.1,0.3c0,0.1,0.1,0.1,0.2,0.1c0.1,0,0.2,0,0.3-0.1c0.1-0.1,0.3-0.2,0.4-0.3
			c0.2-0.3,0.4-0.5,0.6-0.6C49.1,35.2,49.3,35,49.4,34.7z"/>
		<path fill="#0F1231" d="M53,31.4l-1.7,3.1c-0.2,0.3-0.3,0.5-0.5,0.8s-0.3,0.5-0.4,0.7c-0.1,0.2-0.2,0.4-0.2,0.5
			c0,0.1,0,0.2,0.1,0.3c0.1,0.1,0.2,0.1,0.3,0.1c0.1,0,0.3-0.1,0.4-0.2s0.3-0.2,0.5-0.3c0.2-0.1,0.3-0.3,0.4-0.4
			c0.3-0.3,0.4-0.5,0.6-0.6c0.1-0.1,0.3-0.3,0.5-0.6c0.1-0.1,0.2-0.2,0.3-0.2c0.1,0,0.3,0,0.4,0.1c0.1,0.1,0.2,0.2,0.3,0.3
			c0.1,0.1,0,0.2-0.1,0.4c-0.1,0.2-0.3,0.4-0.6,0.7c-0.2,0.3-0.5,0.6-0.9,1c-0.2,0.2-0.5,0.4-0.7,0.6c-0.2,0.2-0.4,0.3-0.6,0.4
			c-0.2,0.1-0.4,0.2-0.6,0.2c-0.2,0-0.4,0.1-0.7,0.1c-0.7,0-1.1-0.3-1.2-0.9c-0.1-0.6,0.1-1.4,0.7-2.3c0.1-0.1,0.2-0.3,0.3-0.6
			c0.1-0.3,0.3-0.5,0.5-0.9s0.4-0.7,0.6-1c0.2-0.4,0.4-0.7,0.6-1.1c-0.1,0-0.2,0-0.4,0s-0.3,0-0.4,0c-0.3,0-0.5-0.1-0.6-0.2
			C50,31.1,50,31,50,30.8c0.1-0.2,0.2-0.3,0.4-0.4s0.4-0.2,0.6-0.2c0.1,0,0.3,0,0.4,0c0.2,0,0.4,0,0.6,0l0.5-0.8
			c0.1-0.2,0.3-0.3,0.5-0.4c0.2-0.1,0.4-0.1,0.5,0s0.3,0.2,0.4,0.3c0.1,0.1,0.1,0.3,0,0.5l-0.2,0.4c0.2,0,0.4,0,0.6,0
			c0.2,0,0.3,0,0.4,0c0.2,0,0.3,0.1,0.4,0.2s0,0.3,0,0.4c-0.1,0.1-0.2,0.3-0.3,0.4c-0.2,0.1-0.3,0.2-0.5,0.2L53,31.4z"/>
		<path fill="#0F1231" d="M59.6,34.7c0.1-0.1,0.2-0.2,0.3-0.2c0.1,0,0.3,0,0.4,0.1c0.1,0.1,0.2,0.2,0.3,0.3c0.1,0.1,0,0.2-0.1,0.4
			c-0.1,0.1-0.2,0.2-0.3,0.4s-0.3,0.3-0.4,0.5c-0.2,0.2-0.3,0.4-0.5,0.6c-0.2,0.2-0.4,0.4-0.6,0.5c-0.4,0.3-0.7,0.6-1,0.7
			s-0.6,0.2-0.8,0.2c-0.2,0-0.4-0.1-0.6-0.2s-0.3-0.3-0.4-0.4c-0.2,0.1-0.5,0.3-0.7,0.4c-0.3,0.2-0.6,0.2-1.2,0.2
			c-0.4,0-0.7-0.1-0.9-0.3c-0.3-0.2-0.5-0.4-0.6-0.7c-0.1-0.3-0.2-0.7-0.1-1.1c0-0.4,0.2-0.9,0.5-1.4c0.3-0.5,0.6-0.9,1-1.3
			c0.4-0.4,0.7-0.7,1.1-0.9c0.4-0.2,0.7-0.4,1.1-0.5c0.4-0.1,0.7-0.2,0.9-0.2c0.2,0,0.3,0,0.5,0.1c0.1,0,0.3,0.1,0.4,0.2
			c0.1,0.1,0.2,0.2,0.3,0.3c0.2-0.5,0.4-0.9,0.6-1.2c0.2-0.3,0.4-0.7,0.6-1.1c0.2-0.4,0.4-0.8,0.6-1.2c0.2-0.4,0.4-0.7,0.5-0.9
			c0.1-0.3,0.2-0.4,0.3-0.5c0.1-0.1,0.2-0.2,0.4-0.2c0.2,0,0.3,0,0.5,0c0.2,0,0.3,0.1,0.4,0.2c0.1,0.1,0.1,0.2,0,0.4
			c-0.1,0.1-0.2,0.4-0.5,0.9s-0.5,0.9-0.8,1.5c-0.3,0.6-0.6,1.2-1,1.8c-0.3,0.6-0.7,1.2-1,1.8c-0.3,0.6-0.6,1-0.8,1.4
			c-0.2,0.4-0.4,0.6-0.4,0.7c-0.1,0.2-0.1,0.3-0.1,0.3c0,0.1,0.1,0.1,0.2,0.1c0.1,0,0.2,0,0.3-0.1s0.3-0.2,0.4-0.3
			c0.3-0.3,0.4-0.5,0.6-0.6S59.4,35,59.6,34.7z M56.5,35.3c0.2-0.3,0.4-0.5,0.5-0.8c0.1-0.3,0.2-0.5,0.3-0.8
			c0.1-0.2,0.1-0.4,0.1-0.6c0-0.2-0.1-0.3-0.2-0.4c-0.1-0.1-0.3-0.1-0.4-0.1c-0.2,0-0.4,0.1-0.6,0.2c-0.2,0.1-0.4,0.3-0.6,0.5
			c-0.2,0.2-0.4,0.4-0.6,0.7c-0.2,0.3-0.4,0.6-0.5,0.8c-0.1,0.3-0.2,0.5-0.3,0.7C54,35.9,54,36.2,54,36.3c0,0.2,0.1,0.3,0.2,0.4
			c0.1,0.1,0.3,0.1,0.4,0.1c0.2,0,0.4-0.1,0.6-0.2s0.4-0.3,0.6-0.5C56.1,35.9,56.3,35.6,56.5,35.3z"/>
		<path fill="#0F1231" d="M66.1,34.7c0.1-0.1,0.2-0.2,0.3-0.2c0.1,0,0.3,0,0.4,0.1c0.1,0.1,0.2,0.1,0.3,0.3c0,0.1,0,0.2-0.1,0.4
			c-0.1,0.2-0.3,0.4-0.5,0.6c-0.2,0.2-0.5,0.4-0.8,0.6c-0.3,0.2-0.6,0.3-0.9,0.3c-0.3,0.1-0.6,0-1-0.1c-0.4,0.4-0.9,0.8-1.4,1.1
			c-0.5,0.3-1,0.4-1.5,0.4c-0.4,0-0.7-0.1-0.9-0.3s-0.5-0.4-0.6-0.7c-0.1-0.3-0.2-0.6-0.2-1c0-0.4,0.1-0.8,0.2-1.2
			c0.2-0.4,0.4-0.8,0.7-1.2c0.3-0.4,0.6-0.7,0.9-1c0.3-0.3,0.7-0.5,1.1-0.7c0.4-0.2,0.8-0.3,1.1-0.3c0.4,0,0.7,0.1,1,0.3
			c0.3,0.2,0.5,0.4,0.6,0.7c0.1,0.3,0.2,0.6,0.2,1c0,0.4-0.1,0.8-0.2,1.2c0,0.1-0.1,0.2-0.1,0.3s-0.1,0.2-0.1,0.3
			c0.2,0,0.5-0.1,0.7-0.2S65.9,35,66.1,34.7z M63.6,34.8c0.2-0.5,0.3-0.9,0.2-1.2c-0.1-0.3-0.4-0.5-0.7-0.5c-0.2,0-0.4,0-0.6,0.1
			c-0.2,0.1-0.4,0.2-0.6,0.4s-0.4,0.3-0.5,0.6c-0.2,0.2-0.3,0.4-0.4,0.7c-0.2,0.5-0.3,0.9-0.1,1.2c0.1,0.3,0.4,0.5,0.7,0.5
			c0.2,0,0.4,0,0.6-0.1s0.4-0.2,0.6-0.4s0.4-0.4,0.5-0.6C63.4,35.3,63.5,35.1,63.6,34.8z"/>
		<path fill="#0F1231" d="M72.6,34.7c0.1-0.1,0.2-0.2,0.3-0.2c0.1,0,0.3,0,0.4,0.1c0.1,0.1,0.2,0.1,0.3,0.3c0,0.1,0,0.2-0.1,0.4
			c-0.1,0.2-0.3,0.4-0.5,0.6c-0.2,0.2-0.5,0.4-0.8,0.6c-0.3,0.2-0.6,0.3-0.9,0.3c-0.3,0.1-0.6,0-1-0.1c-0.4,0.4-0.9,0.8-1.4,1.1
			c-0.5,0.3-1,0.4-1.5,0.4c-0.4,0-0.7-0.1-0.9-0.3s-0.5-0.4-0.6-0.7c-0.1-0.3-0.2-0.6-0.2-1c0-0.4,0.1-0.8,0.2-1.2
			c0.2-0.4,0.4-0.8,0.7-1.2c0.3-0.4,0.6-0.7,0.9-1c0.3-0.3,0.7-0.5,1.1-0.7c0.4-0.2,0.8-0.3,1.1-0.3c0.4,0,0.7,0.1,1,0.3
			c0.3,0.2,0.5,0.4,0.6,0.7c0.1,0.3,0.2,0.6,0.2,1c0,0.4-0.1,0.8-0.2,1.2c0,0.1-0.1,0.2-0.1,0.3s-0.1,0.2-0.1,0.3
			c0.2,0,0.5-0.1,0.7-0.2S72.4,35,72.6,34.7z M70.1,34.8c0.2-0.5,0.3-0.9,0.2-1.2c-0.1-0.3-0.4-0.5-0.7-0.5c-0.2,0-0.4,0-0.6,0.1
			c-0.2,0.1-0.4,0.2-0.6,0.4s-0.4,0.3-0.5,0.6c-0.2,0.2-0.3,0.4-0.4,0.7c-0.2,0.5-0.3,0.9-0.1,1.2c0.1,0.3,0.4,0.5,0.7,0.5
			c0.2,0,0.4,0,0.6-0.1s0.4-0.2,0.6-0.4s0.4-0.4,0.5-0.6C69.8,35.3,70,35.1,70.1,34.8z"/>
		<path fill="#0F1231" d="M72.6,34.7c0.3-0.3,0.6-0.7,0.9-1.2c0.3-0.5,0.6-0.9,0.9-1.3C74.2,32,74,31.7,74,31.4
			c-0.1-0.3-0.1-0.6-0.1-0.9c0-0.3,0-0.6,0.1-0.9c0.1-0.3,0.2-0.5,0.4-0.7c0.3-0.2,0.6-0.4,0.9-0.4c0.3,0,0.5,0.1,0.7,0.2
			s0.3,0.4,0.4,0.6c0.1,0.3,0.1,0.6,0.1,0.9c0,0.2-0.1,0.4-0.2,0.6c-0.1,0.2-0.2,0.5-0.4,0.8c0.2,0,0.4,0,0.6,0c0.2,0,0.4,0,0.6,0
			c0.2,0.1,0.3,0.2,0.4,0.3c0.1,0.1,0.1,0.2,0.1,0.4c0,0.1,0,0.2-0.1,0.3c-0.1,0.1-0.2,0.2-0.3,0.4s-0.4,0.4-0.6,0.7
			c-0.2,0.3-0.4,0.6-0.7,0.9c-0.2,0.3-0.4,0.6-0.6,0.9c-0.2,0.3-0.3,0.5-0.4,0.7c-0.1,0.2-0.1,0.4,0,0.4c0.2,0.1,0.4,0.2,0.7,0
			c0.3-0.1,0.6-0.3,0.9-0.5c0.3-0.2,0.6-0.5,0.9-0.8s0.5-0.5,0.7-0.8c0.1-0.1,0.2-0.2,0.4-0.2c0.1,0,0.3,0,0.4,0.1
			c0.1,0.1,0.2,0.1,0.3,0.3c0.1,0.1,0,0.2-0.1,0.4c-0.2,0.3-0.5,0.6-0.9,1c-0.4,0.4-0.8,0.8-1.3,1.1c-0.5,0.3-0.9,0.5-1.4,0.7
			c-0.5,0.1-0.9,0.1-1.4-0.1c-0.4-0.2-0.6-0.5-0.6-0.9c0-0.4,0-0.8,0.2-1.3s0.4-0.9,0.8-1.4c0.3-0.5,0.7-0.9,1.1-1.2
			c0.1-0.1,0.2-0.2,0.2-0.2s-0.1-0.1-0.4-0.2c-0.4,0.5-0.7,1-1,1.5c-0.3,0.5-0.5,0.8-0.7,0.9c-0.1,0.1-0.2,0.2-0.4,0.2
			c-0.1,0-0.3,0-0.4-0.1c-0.1-0.1-0.2-0.2-0.2-0.3C72.5,35,72.5,34.9,72.6,34.7z M75.2,29.7c-0.1,0-0.2,0-0.3,0.1s-0.1,0.2-0.1,0.4
			c0,0.1,0,0.3,0,0.5c0,0.2,0.1,0.3,0.2,0.5c0.1-0.2,0.2-0.3,0.2-0.5c0.1-0.2,0.1-0.3,0.1-0.5s0-0.3,0-0.3S75.3,29.7,75.2,29.7z"/>
		<path fill="#0F1231" d="M89.1,32c0.3,0.2,0.4,0.4,0.6,0.7c0.1,0.3,0.2,0.6,0.2,1c0,0.4-0.1,0.8-0.2,1.2s-0.3,0.8-0.6,1.2
			c-0.1,0.1-0.1,0.2-0.2,0.3c-0.1,0.1-0.2,0.2-0.2,0.3c0.3-0.1,0.6-0.3,0.9-0.6c0.3-0.2,0.5-0.5,0.7-0.7c0.2-0.2,0.3-0.4,0.5-0.7
			c0.1-0.1,0.2-0.2,0.3-0.2c0.1,0,0.3,0,0.4,0.1c0.1,0.1,0.2,0.2,0.3,0.3c0.1,0.1,0,0.2-0.1,0.4c-0.1,0.2-0.3,0.4-0.6,0.7
			c-0.3,0.3-0.6,0.6-1,1c-0.3,0.3-0.6,0.5-1,0.7c-0.4,0.2-0.7,0.3-1.1,0.4s-0.7,0.1-1,0.1s-0.6,0-0.9,0c-0.4,0-0.6-0.1-0.9-0.2
			c-0.2-0.1-0.4-0.3-0.5-0.6c-0.2,0.5-0.4,0.9-0.6,1.3s-0.4,0.8-0.5,1.1c-0.1,0.3-0.3,0.6-0.4,0.9c-0.1,0.2-0.2,0.4-0.2,0.4
			c-0.1,0.2-0.2,0.3-0.5,0.4c-0.2,0.1-0.4,0.1-0.6,0c-0.2-0.1-0.3-0.2-0.4-0.4c-0.1-0.2-0.1-0.4,0-0.7c0.1-0.2,0.2-0.5,0.5-1
			c0.2-0.5,0.5-1.1,0.8-1.7c0.3-0.6,0.6-1.3,1-2.1c0.3-0.7,0.7-1.4,1-2.1c0.3-0.7,0.6-1.2,0.8-1.8s0.4-0.9,0.5-1.1
			c0.1-0.1,0.2-0.2,0.4-0.3c0.2,0,0.4,0,0.5,0s0.3,0.1,0.4,0.2c0.1,0.1,0.1,0.3,0.1,0.4l-0.4,1c0.4-0.2,0.7-0.3,1.1-0.4
			C88.5,31.7,88.8,31.8,89.1,32z M88,35.5c0.2-0.3,0.3-0.5,0.4-0.8c0.1-0.3,0.2-0.5,0.2-0.8c0-0.2,0-0.4,0-0.6
			c0-0.2-0.1-0.3-0.2-0.4c-0.1-0.1-0.3-0.1-0.4-0.1s-0.4,0.1-0.6,0.2c-0.2,0.1-0.4,0.3-0.6,0.5c-0.2,0.2-0.4,0.4-0.6,0.7
			c-0.2,0.3-0.3,0.6-0.5,0.8c-0.1,0.3-0.2,0.5-0.3,0.7s-0.1,0.4-0.1,0.6c0,0.2,0.1,0.3,0.2,0.3c0.1,0.1,0.3,0.1,0.5,0.1
			c0.2,0,0.4-0.1,0.6-0.2c0.2-0.1,0.4-0.3,0.6-0.5S87.8,35.7,88,35.5z"/>
		<path fill="#0F1231" d="M95.1,34.7c-0.3,0.3-0.6,0.5-0.9,0.7c-0.3,0.2-0.6,0.3-0.9,0.4S92.7,36,92.5,36c-0.2,0-0.4,0-0.6,0
			c0,0.2,0.1,0.4,0.3,0.6c0.2,0.1,0.4,0.2,0.6,0.3s0.5,0,0.8,0c0.3-0.1,0.6-0.2,1-0.4c0.2-0.1,0.3-0.2,0.5-0.4
			c0.2-0.1,0.3-0.3,0.5-0.4c0.2-0.2,0.3-0.3,0.5-0.5c0.1-0.1,0.3-0.3,0.3-0.4s0.2-0.2,0.3-0.2c0.1,0,0.3,0,0.4,0.1
			c0.1,0.1,0.2,0.1,0.3,0.3c0.1,0.1,0,0.2,0,0.4c-0.1,0.1-0.2,0.3-0.3,0.4c-0.1,0.2-0.3,0.3-0.5,0.5c-0.2,0.2-0.4,0.4-0.6,0.5
			c-0.2,0.2-0.4,0.4-0.6,0.5c-0.4,0.3-0.9,0.5-1.4,0.7c-0.5,0.1-0.9,0.2-1.4,0.2c-0.4,0-0.8-0.1-1.2-0.3c-0.3-0.2-0.6-0.4-0.7-0.8
			c-0.2-0.4-0.3-0.9-0.2-1.4c0.1-0.5,0.2-0.9,0.4-1.3c0.3-0.5,0.6-0.9,0.9-1.2c0.4-0.4,0.7-0.6,1.1-0.9c0.4-0.2,0.8-0.4,1.2-0.4
			c0.4-0.1,0.8,0,1.1,0.1c0.3,0.1,0.5,0.3,0.6,0.6s0.1,0.5,0,0.8c-0.1,0.3-0.2,0.5-0.3,0.8S95.2,34.6,95.1,34.7z M92.1,35
			c0.3,0,0.6,0,1-0.2c0.3-0.1,0.7-0.3,1-0.6c0.3-0.3,0.5-0.6,0.6-0.9c0.1-0.3-0.1-0.4-0.3-0.4c-0.1,0-0.3,0.1-0.5,0.2
			c-0.2,0.1-0.4,0.3-0.6,0.4c-0.2,0.2-0.4,0.4-0.6,0.7C92.5,34.4,92.3,34.6,92.1,35L92.1,35z"/>
		<path fill="#0F1231" d="M102.9,34.7c0.1-0.1,0.2-0.2,0.3-0.2c0.1,0,0.3,0,0.4,0.1c0.1,0.1,0.2,0.1,0.3,0.3c0,0.1,0,0.2-0.1,0.4
			c-0.1,0.2-0.3,0.4-0.5,0.6c-0.2,0.2-0.5,0.4-0.8,0.6c-0.3,0.2-0.6,0.3-0.9,0.3c-0.3,0.1-0.6,0-1-0.1c-0.4,0.4-0.9,0.8-1.4,1.1
			c-0.5,0.3-1,0.4-1.5,0.4c-0.4,0-0.7-0.1-0.9-0.3c-0.3-0.2-0.5-0.4-0.6-0.7s-0.2-0.6-0.2-1c0-0.4,0.1-0.8,0.2-1.2
			c0.2-0.4,0.4-0.8,0.7-1.2c0.3-0.4,0.6-0.7,0.9-1s0.7-0.5,1.1-0.7s0.8-0.3,1.1-0.3s0.7,0.1,1,0.3s0.5,0.4,0.6,0.7s0.2,0.6,0.2,1
			c0,0.4-0.1,0.8-0.2,1.2c0,0.1-0.1,0.2-0.1,0.3s-0.1,0.2-0.1,0.3c0.2,0,0.5-0.1,0.7-0.2C102.4,35.2,102.7,35,102.9,34.7z
			 M100.4,34.8c0.2-0.5,0.3-0.9,0.2-1.2s-0.3-0.5-0.7-0.5c-0.2,0-0.4,0-0.6,0.1c-0.2,0.1-0.4,0.2-0.6,0.4c-0.2,0.2-0.4,0.3-0.5,0.6
			c-0.2,0.2-0.3,0.4-0.4,0.7c-0.2,0.5-0.3,0.9-0.1,1.2s0.3,0.5,0.7,0.5c0.2,0,0.4,0,0.6-0.1s0.4-0.2,0.6-0.4
			c0.2-0.2,0.4-0.4,0.5-0.6C100.2,35.3,100.3,35.1,100.4,34.8z"/>
		<path fill="#0F1231" d="M107.7,32c0.3,0.2,0.4,0.4,0.6,0.7c0.1,0.3,0.2,0.6,0.2,1c0,0.4-0.1,0.8-0.2,1.2s-0.3,0.8-0.6,1.2
			c-0.1,0.1-0.1,0.2-0.2,0.3c-0.1,0.1-0.2,0.2-0.2,0.3c0.3-0.1,0.6-0.3,0.9-0.6c0.3-0.2,0.5-0.5,0.7-0.7c0.2-0.2,0.3-0.4,0.5-0.7
			c0.1-0.1,0.2-0.2,0.3-0.2c0.1,0,0.3,0,0.4,0.1c0.1,0.1,0.2,0.2,0.3,0.3c0.1,0.1,0,0.2-0.1,0.4c-0.1,0.2-0.3,0.4-0.6,0.7
			c-0.3,0.3-0.6,0.6-1,1c-0.3,0.3-0.6,0.5-1,0.7c-0.4,0.2-0.7,0.3-1.1,0.4s-0.7,0.1-1,0.1s-0.6,0-0.9,0c-0.4,0-0.6-0.1-0.9-0.2
			c-0.2-0.1-0.4-0.3-0.5-0.6c-0.2,0.5-0.4,0.9-0.6,1.3s-0.4,0.8-0.5,1.1c-0.1,0.3-0.3,0.6-0.4,0.9c-0.1,0.2-0.2,0.4-0.2,0.4
			c-0.1,0.2-0.2,0.3-0.5,0.4c-0.2,0.1-0.4,0.1-0.6,0c-0.2-0.1-0.3-0.2-0.4-0.4c-0.1-0.2-0.1-0.4,0-0.7c0.1-0.2,0.2-0.5,0.5-1
			c0.2-0.5,0.5-1.1,0.8-1.7c0.3-0.6,0.6-1.3,1-2.1c0.3-0.7,0.7-1.4,1-2.1c0.3-0.7,0.6-1.2,0.8-1.8s0.4-0.9,0.5-1.1
			c0.1-0.1,0.2-0.2,0.4-0.3c0.2,0,0.4,0,0.5,0s0.3,0.1,0.4,0.2c0.1,0.1,0.1,0.3,0.1,0.4l-0.4,1c0.4-0.2,0.7-0.3,1.1-0.4
			C107.1,31.7,107.4,31.8,107.7,32z M106.6,35.5c0.2-0.3,0.3-0.5,0.4-0.8c0.1-0.3,0.2-0.5,0.2-0.8c0-0.2,0-0.4,0-0.6
			c0-0.2-0.1-0.3-0.2-0.4c-0.1-0.1-0.3-0.1-0.4-0.1s-0.4,0.1-0.6,0.2c-0.2,0.1-0.4,0.3-0.6,0.5c-0.2,0.2-0.4,0.4-0.6,0.7
			c-0.2,0.3-0.3,0.6-0.5,0.8c-0.1,0.3-0.2,0.5-0.3,0.7s-0.1,0.4-0.1,0.6c0,0.2,0.1,0.3,0.2,0.3c0.1,0.1,0.3,0.1,0.5,0.1
			c0.2,0,0.4-0.1,0.6-0.2c0.2-0.1,0.4-0.3,0.6-0.5S106.4,35.7,106.6,35.5z"/>
		<path fill="#0F1231" d="M114.3,31.9c-0.4,0.3-0.8,0.7-1.2,1c-0.4,0.4-0.8,0.7-1.2,1c-0.4,0.4-0.9,0.7-1.3,1.1
			c-0.1,0.3-0.2,0.5-0.2,0.8c0,0.3,0,0.5,0.2,0.7c0.1,0.2,0.3,0.3,0.5,0.3s0.6-0.1,0.9-0.4c0.3-0.2,0.6-0.5,0.9-0.8
			c0.3-0.3,0.5-0.6,0.7-0.8c0.1-0.1,0.2-0.2,0.3-0.2c0.1,0,0.3,0,0.4,0.1c0.1,0.1,0.2,0.2,0.3,0.3c0.1,0.1,0,0.2-0.1,0.4
			c-0.1,0.1-0.2,0.2-0.3,0.4c-0.1,0.2-0.2,0.3-0.4,0.5s-0.3,0.4-0.5,0.6c-0.2,0.2-0.4,0.4-0.6,0.5c-0.4,0.3-0.8,0.6-1.1,0.7
			s-0.7,0.2-1,0.2c-0.3,0-0.6-0.1-0.9-0.2s-0.4-0.3-0.6-0.5c-0.2-0.2-0.3-0.4-0.3-0.7c0-0.3-0.1-0.5,0-0.8s0.1-0.6,0.2-0.8
			c0.1-0.3,0.2-0.5,0.3-0.8c0.4-0.8,0.8-1.6,1.3-2.4c0.5-0.7,1-1.4,1.5-2c0.5-0.6,1-1.1,1.6-1.6c0.5-0.4,1-0.8,1.5-1
			c0.3-0.2,0.6-0.2,0.8-0.2s0.3,0.2,0.4,0.5c0.1,0.2,0.1,0.5,0.1,0.8c0,0.3-0.1,0.6-0.3,1c-0.2,0.4-0.4,0.8-0.8,1.2
			C115.3,31,114.9,31.4,114.3,31.9z M115.3,28.6c-0.6,0.4-1.1,0.9-1.5,1.4c-0.4,0.5-0.8,0.9-1,1.3c-0.3,0.5-0.6,0.9-0.8,1.3
			c0.7-0.6,1.3-1.2,1.8-1.8c0.2-0.2,0.4-0.5,0.6-0.7s0.4-0.5,0.5-0.7c0.2-0.2,0.3-0.4,0.3-0.5C115.3,28.8,115.4,28.7,115.3,28.6z"/>
		<path fill="#0F1231" d="M118.1,34.7c-0.3,0.3-0.6,0.5-0.9,0.7c-0.3,0.2-0.6,0.3-0.9,0.4c-0.3,0.1-0.5,0.1-0.8,0.2s-0.4,0-0.6,0
			c0,0.2,0.1,0.4,0.3,0.6c0.2,0.1,0.4,0.2,0.6,0.3s0.5,0,0.8,0c0.3-0.1,0.6-0.2,1-0.4c0.2-0.1,0.3-0.2,0.5-0.4s0.3-0.3,0.5-0.4
			c0.2-0.2,0.3-0.3,0.5-0.5c0.1-0.1,0.3-0.3,0.3-0.4s0.2-0.2,0.3-0.2c0.1,0,0.3,0,0.4,0.1c0.1,0.1,0.2,0.1,0.3,0.3
			c0.1,0.1,0,0.2,0,0.4s-0.2,0.3-0.3,0.4c-0.1,0.2-0.3,0.3-0.5,0.5c-0.2,0.2-0.4,0.4-0.6,0.5c-0.2,0.2-0.4,0.4-0.6,0.5
			c-0.4,0.3-0.9,0.5-1.4,0.7c-0.5,0.1-0.9,0.2-1.4,0.2c-0.4,0-0.8-0.1-1.2-0.3c-0.3-0.2-0.6-0.4-0.7-0.8c-0.2-0.4-0.3-0.9-0.2-1.4
			c0.1-0.5,0.2-0.9,0.4-1.3c0.3-0.5,0.6-0.9,0.9-1.2c0.4-0.4,0.7-0.6,1.1-0.9c0.4-0.2,0.8-0.4,1.2-0.4c0.4-0.1,0.8,0,1.1,0.1
			c0.3,0.1,0.5,0.3,0.6,0.6s0.1,0.5,0,0.8c-0.1,0.3-0.2,0.5-0.3,0.8S118.3,34.6,118.1,34.7z M115.1,35c0.3,0,0.6,0,1-0.2
			c0.3-0.1,0.7-0.3,1-0.6c0.3-0.3,0.5-0.6,0.6-0.9c0.1-0.3-0.1-0.4-0.3-0.4c-0.1,0-0.3,0.1-0.5,0.2c-0.2,0.1-0.4,0.3-0.6,0.4
			c-0.2,0.2-0.4,0.4-0.6,0.7C115.5,34.4,115.3,34.6,115.1,35L115.1,35z"/>
	</g>
</g>
</svg>
