<?xml version="1.0" encoding="utf-8"?>
<!-- Generator: Adobe Illustrator 18.1.1, SVG Export Plug-In . SVG Version: 6.00 Build 0)  -->
<svg version="1.1" id="Layer_1" xmlns="http://www.w3.org/2000/svg" xmlns:xlink="http://www.w3.org/1999/xlink" x="0px" y="0px"
	 viewBox="0 0 235 57.5" enable-background="new 0 0 235 57.5" xml:space="preserve">
<g>
	<g>
		<path fill="#144C6C" d="M25.9,8.7c0.2,0.3,0.3,0.7,0.4,0.9c0.1,0.3,0.2,0.6,0.3,0.9c0.1,0.3,0.1,0.7,0.2,1.2c0,0.4,0.1,1,0.1,1.6
			V14c0,0.3,0,0.6,0.1,0.9c0,0.3,0,0.6,0,0.8c0,0.8-0.1,1.8-0.4,2.9c-0.2,1.1-0.6,2.1-0.9,3c-0.2,0.6-0.5,1.2-0.9,1.8
			C24.4,24,24,24.5,23.6,25c-0.4,0.5-0.9,1-1.3,1.4c-0.5,0.4-0.9,0.7-1.3,0.9c-0.1,0-0.2,0.1-0.5,0.3c-0.2,0.1-0.6,0.3-1.1,0.6
			c-0.3,0.1-0.7,0.3-1.1,0.5c-0.5,0.2-0.9,0.3-1.4,0.4c-0.5,0.1-1,0.2-1.5,0.3c-0.5,0.1-0.9,0.1-1.3,0.1c-1.1,0-2.1-0.1-2.8-0.2
			c-0.7-0.1-1.5-0.3-2.3-0.6c-0.6-0.2-1.1-0.4-1.5-0.6c-0.4-0.2-0.7-0.4-0.9-0.5c-0.7-0.5-1.3-1-2-1.5c-0.6-0.5-1.1-1-1.4-1.4
			c-0.5-0.6-0.9-1.3-1.4-2.1c-0.4-0.8-0.8-1.5-1-2.1c-0.1-0.1-0.1-0.5-0.2-1.1c-0.1-0.6-0.2-1.2-0.3-1.9c-0.1-0.7-0.1-1.3-0.2-2
			C0,14.7,0,14.3,0,14c0.1-1,0.2-2.1,0.6-3.2c0.3-1.2,0.7-2.2,1.2-3.1C2.5,6.2,3.3,5.1,4,4.2c0.8-0.9,1.6-1.7,2.6-2.3
			c0.3-0.2,0.8-0.4,1.5-0.7c0.7-0.3,1.4-0.5,2.2-0.8c0.3-0.1,0.8-0.2,1.5-0.3C12.4,0,13,0,13.4,0c0.3,0,0.6,0,1,0.1
			c0.4,0,0.8,0.1,1.2,0.2c0.4,0.1,0.8,0.1,1.2,0.2c0.4,0.1,0.7,0.1,0.9,0.2c0.3,0.1,0.6,0.3,0.9,0.4s0.7,0.4,1.1,0.6s0.7,0.4,1,0.6
			c0.3,0.2,0.5,0.4,0.7,0.5c0.2,0.2,0.5,0.4,0.8,0.8c0.3,0.3,0.7,0.7,1,1c0.3,0.3,0.6,0.7,0.9,1c0.3,0.3,0.4,0.6,0.5,0.7
			C24.9,6.4,25,6.5,25,6.7c0,0.1,0.2,0.4,0.4,0.9L25.9,8.7z M13.4,6.8c-0.1,0-0.3,0-0.6,0.1c-0.3,0-0.5,0.1-0.8,0.2
			c-0.3,0.1-0.6,0.1-0.8,0.2c-0.3,0.1-0.4,0.1-0.5,0.2C9.4,8,8.4,9,7.7,10.2s-1.1,2.6-1.1,4.1c0,1,0.1,2,0.4,2.9
			c0.2,1,0.6,1.8,1.1,2.6c0.6,0.9,1.4,1.6,2.4,2.1c1,0.5,2.1,0.8,3.4,0.8c0.9,0,1.7-0.2,2.5-0.6c0.8-0.4,1.6-1,2.2-1.8
			c0.1-0.1,0.3-0.4,0.6-0.9c0.3-0.4,0.4-0.7,0.5-0.9c0.1-0.2,0.2-0.4,0.3-0.7c0.1-0.3,0.2-0.6,0.2-1c0.1-0.3,0.1-0.7,0.2-1
			c0-0.3,0.1-0.6,0.1-0.7c0-1.4-0.1-2.5-0.4-3.4s-0.7-1.6-1.3-2.3c-0.6-0.7-1.1-1.2-1.5-1.5c-0.4-0.3-0.9-0.6-1.4-0.8
			C15.4,7,15.2,6.9,15,6.9c-0.1,0-0.4,0-0.8,0c-0.1,0-0.2,0-0.2,0C14,6.8,13.7,6.8,13.4,6.8z"/>
		<path fill="#144C6C" d="M36.5,4.5l0,4.2l-0.1,3.1c0,1.3,0,2.4,0,3.3c0,0.9,0,1.6,0,2.2c0,0.6,0.1,1.1,0.1,1.5
			c0.1,0.4,0.1,0.8,0.2,1.3c0.4,2.1,2,3.1,4.6,3.1c1,0,1.9-0.2,2.7-0.7c0.8-0.5,1.4-1.1,1.6-1.8c0-0.1,0.1-0.3,0.1-0.7
			c0-0.3,0.1-0.7,0.1-1.1c0-0.4,0.1-0.9,0.1-1.4c0-0.5,0-0.9,0-1.4l0-2.7c0-0.1,0-0.2,0-0.3c0-0.1,0-0.3,0-0.5c0-0.2,0-0.6,0-1
			c0-0.4,0-1,0.1-1.8l0-1.3l0-2.9V3.8c0-0.3,0-0.5,0-0.7c0-0.2,0-0.4,0-0.5c0-0.8,0.2-1.4,0.5-1.8c0.3-0.3,0.9-0.5,1.7-0.5h2.4h0.8
			c0.4,0,0.7,0,0.9,0.1s0.4,0.2,0.5,0.5c0.1,0.2,0.2,0.6,0.2,1c0,0.4,0.1,1,0.1,1.8c0,0,0,0.1,0,0.2c0,0.1,0,0.3,0,0.5
			c0,0.2,0,0.5,0,0.7c0,0.2,0,0.5,0,0.8l0,3.1l-0.2,8.7c0,0.1,0,0.3,0,0.4c0,0.1,0,0.2,0,0.2v1.8c0,0.1,0,0.2,0,0.3
			c0,0.1-0.1,0.5-0.1,1c-0.1,0.7-0.2,1.2-0.2,1.6c-0.1,0.4-0.1,0.6-0.2,0.8c-0.3,0.8-0.7,1.6-1.2,2.2c-0.5,0.6-1.1,1.1-1.7,1.5
			c-2.1,1.2-4.5,1.8-7.3,1.8c-4,0-6.8-0.4-8.4-1.3c-1.2-0.6-2.2-1.4-2.9-2.5c-0.7-1-1.1-2.2-1.3-3.5c-0.1-1-0.2-1.8-0.3-2.3
			c-0.1-0.6-0.1-0.9-0.1-1c0-0.1,0-0.2,0-0.2s0-0.1,0-0.3c0-0.1,0-0.3,0-0.5c0-0.2,0-0.5,0.1-0.9v-0.6v-0.6c0-0.7,0-1.3,0-1.8
			c0-0.5,0-0.8,0-0.9l0-5.2c0-0.4-0.1-0.8-0.1-1c0-0.2,0-0.5,0-0.6c0-0.2,0-0.4,0-0.5c0-0.2,0-0.4,0-0.6V3.9c0-0.3,0-0.5,0-0.7
			c0-0.2,0-0.3,0-0.4V2.1c0-1.2,0.4-1.8,1.3-1.8c0.1,0,0.2,0,0.4,0s0.4,0,0.6,0H32c0.1,0,0.3,0,0.4,0c0.1,0,0.5,0,1.1-0.1H34
			c1.1,0,1.8,0.1,2.1,0.2c0.3,0.1,0.5,0.5,0.5,0.9c0,0.2,0,0.4,0,0.7c0,0.2,0,0.5-0.1,0.8c-0.1,0.3-0.1,0.5-0.1,0.8
			C36.5,3.9,36.5,4.2,36.5,4.5L36.5,4.5z"/>
		<path fill="#144C6C" d="M60.7,0.3c0.3,0,0.6,0,0.9,0c0.2,0,0.5,0,0.7,0c0.3,0,0.5,0,0.9,0c0.3,0,0.7,0,1.2,0.1c0.3,0,0.5,0,0.8,0
			c0.2,0,0.4,0,0.6,0c0.2,0,0.5,0,0.7,0c0.2,0,0.5,0,0.8,0c0.3,0,0.6,0,0.8,0c0.2,0,0.5,0,0.7,0s0.5,0,0.8,0c0.3,0,0.6,0,0.9,0
			c1,0,1.6,0.4,1.8,1.1c0,0.1,0.1,0.1,0.1,0.2c0,0.1,0,0.2,0,0.3c0,0.2,0,0.4,0,0.7s0,0.8,0,1.3c-0.1,1.5-0.1,2.3-0.2,2.3
			C72,6.7,71.8,7,71.5,7l-2.1,0c-0.3,0-0.6,0.1-0.9,0.4c-0.4,0.3-0.6,0.5-0.8,0.8c-0.1,0.2-0.2,0.6-0.3,1.2
			c-0.1,0.5-0.1,1.1-0.1,1.6v3l-0.1,1.8l0,1.7l0,2c0,0.5,0,0.8,0,0.9c0,0.1,0,0.2,0,0.3c-0.1,0.8-0.1,1.3-0.1,1.6s0,0.5,0,0.6v0.5
			c0,0.4,0,0.8,0.1,1.2c0,0.4,0,0.8,0,1.2l0,1.1c0,0.1,0,0.3,0,0.4c0,0.1,0,0.2,0,0.3v0.3c0,0.6-0.4,1-1.1,1.2
			C66.1,29,65.8,29,65.4,29c-0.4,0-0.7,0-1,0h-0.3L62.6,29h-1.3c-0.6-0.1-0.9-0.5-0.9-1.4c0-0.4,0-0.7,0-0.8c0-0.1,0-0.3,0-0.6
			c0-0.3,0-0.6,0.1-0.8c0-0.2,0-0.4,0-0.6c0,0,0-0.1,0-0.2c0-0.1,0-0.2,0-0.3c0-0.3-0.1-0.5-0.1-0.6c0-0.2,0-0.4,0-0.6
			c0-0.2,0-0.5,0-0.8s0-0.8,0-1.3c0-0.5,0-1.1,0.1-1.9c0-0.7,0.1-1.4,0.2-2c0-0.1,0-0.3,0-0.4c0-0.1,0-0.2,0-0.2c0-0.1,0-0.1,0-0.2
			c0-0.1,0-0.2,0-0.3c-0.1-0.4-0.1-0.7-0.1-0.9c0-0.2,0-0.6,0-1.2v-0.6l0.1-1.4v0c0-0.9-0.1-1.5-0.1-1.8c0-0.1,0-0.2,0.1-0.5
			c0-0.3,0.1-0.5,0.1-0.6c0-0.2,0-0.4-0.1-0.6c-0.1-0.3-0.2-0.5-0.4-0.8C60,7.4,59.8,7.2,59.7,7c-0.2-0.2-0.4-0.3-0.5-0.3l-2.8,0
			c-0.6,0-0.9-0.7-0.9-2.1c0-0.3,0-0.5,0-0.7c0-0.2,0-0.5,0-1c0-0.1,0-0.4,0-1c0-0.6,0.2-1.1,0.4-1.3c0.2-0.2,0.7-0.4,1.2-0.5
			L60.7,0.3z"/>
		<path fill="#144C6C" d="M80.5,0.3h4.8c0.4,0,0.8,0,1.1,0c0.3,0,0.6,0.1,0.9,0.1c0.3,0.1,0.6,0.1,1,0.2c0.4,0.1,0.8,0.2,1.3,0.4
			c0.8,0.3,1.4,0.5,2,0.7c0.5,0.2,1,0.5,1.4,0.7c0.4,0.3,0.8,0.6,1.2,0.9c0.4,0.3,0.8,0.7,1.3,1.2c0.4,0.4,0.7,0.7,0.9,1
			c0.2,0.3,0.4,0.6,0.6,0.9c0.2,0.3,0.4,0.7,0.6,1.1c0.2,0.4,0.5,1,0.8,1.7c0.2,0.4,0.3,0.8,0.4,1.1c0.1,0.3,0.2,0.7,0.3,1.1
			c0.1,0.4,0.1,0.8,0.1,1.3c0,0.5,0.1,1.1,0.1,1.9l0,0.8v0.3c0,1.4-0.3,2.8-0.8,4.2c-0.5,1.5-1.2,2.7-2,3.7
			c-0.5,0.6-0.9,1.1-1.4,1.5c-0.4,0.4-0.9,0.8-1.4,1.2c-0.5,0.3-1,0.6-1.6,0.9c-0.6,0.3-1.2,0.5-1.9,0.7c-0.3,0.1-0.7,0.2-1.1,0.3
			c-0.5,0.1-1,0.2-1.5,0.3c-0.5,0.1-1,0.2-1.5,0.2c-0.5,0-0.9,0.1-1.2,0.1L78,29h-0.6c-0.5,0-0.9,0-1.2-0.1
			c-0.3-0.1-0.6-0.2-0.7-0.4c-0.2-0.2-0.3-0.5-0.3-0.8C75,27.3,75,26.8,75,26.2v-1.1c0-0.7,0-1.2,0-1.6s0-0.7,0-0.8l0-3.3
			c0-0.1,0-0.3,0-0.5c0-0.2,0-0.4,0-0.7c0.1-0.4,0.1-0.8,0.1-1.1c0-0.3,0-0.5,0-0.5c0-0.2,0-0.3,0-0.5c0-0.1,0-0.3,0-0.5
			c0-0.2,0-0.4,0-0.7c0-0.1,0-0.3,0-0.4s0-0.2,0-0.3c0-0.1,0-0.2,0-0.3c0-0.1,0-0.2,0-0.3c0-0.1,0-0.4,0-0.6c0-0.3,0-0.7,0.1-1.2
			v-0.5c0-0.1,0-0.2,0-0.4s-0.1-0.5-0.1-1.1V9.4l0-3.3c0-0.3,0-0.5,0-0.6c0-0.2,0-0.2,0-0.3l-0.1-2.5c0-0.9,0.2-1.5,0.5-1.8
			c0.3-0.4,0.9-0.5,1.7-0.5c0.3,0,0.5,0,0.6,0c0.1,0,0.4,0,0.7,0H80.5z M82,11.7c0,0.2,0,0.3,0,0.4c0,0.1,0,0.2,0,0.4
			c0,0.1,0,0.3-0.1,0.6c0,0.2-0.1,0.5-0.1,0.9v0.5c0,0.2,0,0.3,0,0.4c0,0.1,0,0.3,0,0.6c0,0.1,0,0.1,0,0.2c0,0.1,0,0.2,0,0.4
			c0,0.2,0,0.6,0,1c0,0.4,0,1.1,0.1,1.9c0,0.5,0.1,0.9,0.1,1.2c0,0.3,0,0.5,0.1,0.7c0,0.2,0.1,0.3,0.1,0.4c0,0.1,0.1,0.2,0.2,0.4
			c0.5,0.6,1.8,0.9,4.1,0.9c0.8,0,1.7-0.2,2.5-0.5c0.9-0.3,1.5-0.8,2-1.4c0.3-0.3,0.5-0.6,0.7-1.1c0.2-0.4,0.4-0.9,0.6-1.4
			c0.2-0.5,0.3-1,0.4-1.5c0.1-0.5,0.1-1,0.1-1.5c0-1.4-0.2-2.5-0.5-3.4c-0.3-0.9-0.9-1.7-1.7-2.5c-0.3-0.3-0.5-0.5-0.7-0.6
			c-0.2-0.1-0.3-0.2-0.4-0.3c-0.5-0.4-1.1-0.7-2-0.9c-0.8-0.2-1.7-0.3-2.6-0.3c-0.6,0-1.1,0.1-1.5,0.2c-0.4,0.1-0.7,0.3-0.9,0.6
			c-0.2,0.3-0.4,0.7-0.5,1.2C82,9.7,82,10.3,82,11.1V11.7z"/>
		<path fill="#144C6C" d="M127,8.7c0.2,0.3,0.3,0.7,0.4,0.9c0.1,0.3,0.2,0.6,0.3,0.9c0.1,0.3,0.1,0.7,0.2,1.2c0,0.4,0.1,1,0.1,1.6
			V14c0,0.3,0,0.6,0.1,0.9c0,0.3,0,0.6,0,0.8c0,0.8-0.1,1.8-0.4,2.9c-0.2,1.1-0.6,2.1-0.9,3c-0.2,0.6-0.5,1.2-0.9,1.8
			c-0.4,0.6-0.8,1.1-1.2,1.7c-0.4,0.5-0.9,1-1.3,1.4c-0.5,0.4-0.9,0.7-1.3,0.9c-0.1,0-0.2,0.1-0.5,0.3c-0.2,0.1-0.6,0.3-1.1,0.6
			c-0.3,0.1-0.7,0.3-1.1,0.5s-0.9,0.3-1.4,0.4c-0.5,0.1-1,0.2-1.5,0.3c-0.5,0.1-0.9,0.1-1.3,0.1c-1.1,0-2.1-0.1-2.8-0.2
			c-0.7-0.1-1.5-0.3-2.3-0.6c-0.6-0.2-1.1-0.4-1.5-0.6c-0.4-0.2-0.7-0.4-0.9-0.5c-0.7-0.5-1.3-1-2-1.5c-0.6-0.5-1.1-1-1.4-1.4
			c-0.5-0.6-0.9-1.3-1.4-2.1s-0.8-1.5-1-2.1c-0.1-0.1-0.1-0.5-0.2-1.1c-0.1-0.6-0.2-1.2-0.3-1.9c-0.1-0.7-0.1-1.3-0.2-2
			c0-0.6-0.1-1.1-0.1-1.3c0.1-1,0.2-2.1,0.6-3.2c0.3-1.2,0.7-2.2,1.2-3.1c0.7-1.4,1.5-2.6,2.2-3.5c0.8-0.9,1.6-1.7,2.6-2.3
			c0.3-0.2,0.8-0.4,1.5-0.7c0.7-0.3,1.4-0.5,2.2-0.8c0.3-0.1,0.8-0.2,1.5-0.3C113.4,0,114,0,114.5,0c0.3,0,0.6,0,1,0.1
			c0.4,0,0.8,0.1,1.2,0.2c0.4,0.1,0.8,0.1,1.2,0.2s0.7,0.1,0.9,0.2c0.3,0.1,0.6,0.3,0.9,0.4s0.7,0.4,1.1,0.6c0.4,0.2,0.7,0.4,1,0.6
			c0.3,0.2,0.5,0.4,0.7,0.5c0.2,0.2,0.5,0.4,0.8,0.8s0.7,0.7,1,1c0.3,0.3,0.6,0.7,0.9,1c0.3,0.3,0.4,0.6,0.5,0.7
			c0.1,0.2,0.2,0.3,0.2,0.4c0,0.1,0.2,0.4,0.4,0.9L127,8.7z M114.4,6.8c-0.1,0-0.3,0-0.6,0.1c-0.3,0-0.5,0.1-0.8,0.2
			c-0.3,0.1-0.6,0.1-0.8,0.2c-0.3,0.1-0.4,0.1-0.5,0.2c-1.2,0.6-2.2,1.6-2.9,2.9c-0.7,1.3-1.1,2.6-1.1,4.1c0,1,0.1,2,0.4,2.9
			c0.2,1,0.6,1.8,1.1,2.6c0.6,0.9,1.4,1.6,2.4,2.1c1,0.5,2.1,0.8,3.4,0.8c0.9,0,1.7-0.2,2.5-0.6c0.8-0.4,1.5-1,2.2-1.8
			c0.1-0.1,0.3-0.4,0.6-0.9c0.3-0.4,0.4-0.7,0.5-0.9c0.1-0.2,0.2-0.4,0.3-0.7c0.1-0.3,0.2-0.6,0.2-1c0.1-0.3,0.1-0.7,0.2-1
			c0-0.3,0.1-0.6,0.1-0.7c0-1.4-0.1-2.5-0.4-3.4s-0.7-1.6-1.3-2.3c-0.6-0.7-1.1-1.2-1.5-1.5c-0.4-0.3-0.9-0.6-1.4-0.8
			c-0.3-0.1-0.5-0.2-0.7-0.2c-0.1,0-0.4,0-0.8,0c-0.1,0-0.2,0-0.2,0S114.8,6.8,114.4,6.8z"/>
		<path fill="#144C6C" d="M155.6,8.7c0.2,0.3,0.3,0.7,0.4,0.9c0.1,0.3,0.2,0.6,0.3,0.9c0.1,0.3,0.1,0.7,0.2,1.2c0,0.4,0.1,1,0.1,1.6
			V14c0,0.3,0,0.6,0.1,0.9c0,0.3,0,0.6,0,0.8c0,0.8-0.1,1.8-0.4,2.9c-0.2,1.1-0.6,2.1-0.9,3c-0.2,0.6-0.5,1.2-0.9,1.8
			c-0.4,0.6-0.8,1.1-1.2,1.7c-0.4,0.5-0.9,1-1.3,1.4c-0.5,0.4-0.9,0.7-1.3,0.9c-0.1,0-0.2,0.1-0.5,0.3c-0.2,0.1-0.6,0.3-1.1,0.6
			c-0.3,0.1-0.7,0.3-1.1,0.5c-0.5,0.2-0.9,0.3-1.4,0.4c-0.5,0.1-1,0.2-1.5,0.3c-0.5,0.1-0.9,0.1-1.3,0.1c-1.1,0-2.1-0.1-2.8-0.2
			c-0.7-0.1-1.5-0.3-2.3-0.6c-0.6-0.2-1.1-0.4-1.5-0.6c-0.4-0.2-0.7-0.4-0.9-0.5c-0.7-0.5-1.3-1-2-1.5c-0.6-0.5-1.1-1-1.4-1.4
			c-0.5-0.6-0.9-1.3-1.4-2.1c-0.4-0.8-0.8-1.5-1-2.1c-0.1-0.1-0.1-0.5-0.2-1.1c-0.1-0.6-0.2-1.2-0.3-1.9c-0.1-0.7-0.1-1.3-0.2-2
			c0-0.6-0.1-1.1-0.1-1.3c0.1-1,0.2-2.1,0.6-3.2c0.3-1.2,0.7-2.2,1.2-3.1c0.7-1.4,1.5-2.6,2.2-3.5c0.8-0.9,1.6-1.7,2.6-2.3
			c0.3-0.2,0.8-0.4,1.5-0.7c0.7-0.3,1.4-0.5,2.2-0.8c0.3-0.1,0.8-0.2,1.5-0.3C142,0,142.6,0,143.1,0c0.3,0,0.6,0,1,0.1
			c0.4,0,0.8,0.1,1.2,0.2c0.4,0.1,0.8,0.1,1.2,0.2s0.7,0.1,0.9,0.2c0.3,0.1,0.6,0.3,0.9,0.4c0.4,0.2,0.7,0.4,1.1,0.6
			c0.4,0.2,0.7,0.4,1,0.6c0.3,0.2,0.5,0.4,0.7,0.5c0.2,0.2,0.5,0.4,0.8,0.8s0.7,0.7,1,1c0.3,0.3,0.6,0.7,0.9,1
			c0.3,0.3,0.4,0.6,0.5,0.7c0.1,0.2,0.2,0.3,0.2,0.4c0,0.1,0.2,0.4,0.4,0.9L155.6,8.7z M143,6.8c-0.1,0-0.3,0-0.6,0.1
			c-0.3,0-0.5,0.1-0.8,0.2c-0.3,0.1-0.6,0.1-0.8,0.2c-0.3,0.1-0.4,0.1-0.5,0.2C139,8,138,9,137.3,10.2c-0.7,1.3-1.1,2.6-1.1,4.1
			c0,1,0.1,2,0.4,2.9c0.2,1,0.6,1.8,1.1,2.6c0.6,0.9,1.4,1.6,2.4,2.1c1,0.5,2.1,0.8,3.4,0.8c0.9,0,1.7-0.2,2.5-0.6
			c0.8-0.4,1.5-1,2.2-1.8c0.1-0.1,0.3-0.4,0.6-0.9s0.4-0.7,0.5-0.9c0.1-0.2,0.2-0.4,0.3-0.7c0.1-0.3,0.2-0.6,0.2-1
			c0.1-0.3,0.1-0.7,0.2-1c0-0.3,0.1-0.6,0.1-0.7c0-1.4-0.1-2.5-0.4-3.4c-0.2-0.9-0.7-1.6-1.3-2.3c-0.6-0.7-1.1-1.2-1.5-1.5
			c-0.4-0.3-0.9-0.6-1.4-0.8c-0.3-0.1-0.5-0.2-0.7-0.2c-0.1,0-0.4,0-0.8,0c-0.1,0-0.2,0-0.2,0S143.4,6.8,143,6.8z"/>
		<path fill="#144C6C" d="M165.4,29.2l-1.7-0.1l-2.8,0.1c-0.9,0-1.4-0.4-1.4-1.2v-1v-1.2c0,0,0-0.2,0-0.6c0-0.4,0-0.9,0.1-1.4
			c0-0.3,0-0.6,0-0.9c0-0.3,0-0.6,0-0.9c0-0.3,0-0.5,0-0.6c0-0.2,0-0.3,0-0.5c0-0.2,0-0.4,0-0.7c0-0.3,0-0.6-0.1-1.1v-0.6l0.1-2.5
			l0-4.2c0.1-1.4,0.1-2.5,0.1-3.4c0-0.8,0.1-1.5,0.1-1.9l-0.1-4.5c0-1.2,0.6-1.8,1.8-1.8c0.3,0,0.5,0,0.7,0s0.4,0,0.6,0
			c0.2,0,0.4,0,0.7,0c0.2,0,0.5,0,0.9,0.1c0.2,0,0.4,0,0.5,0c0.1,0,0.2,0,0.3,0l4.9,0c1.3,0,2.5,0.2,3.7,0.6
			c1.2,0.4,2.3,0.9,3.3,1.6c1,0.7,1.8,1.6,2.4,2.9c0.6,1.3,0.9,2.7,0.9,4.3c0,1.1-0.2,2.2-0.5,3.2c-0.3,1.1-0.7,2-1.3,2.8
			c-0.1,0.1-0.4,0.5-0.8,0.9c-0.4,0.5-1,1.1-1.7,1.9c-0.1,0.1-0.2,0.3-0.2,0.5c-0.1,0.2-0.1,0.3-0.1,0.5c0,0.4,0.2,0.7,0.6,1
			c0.3,0.3,0.8,0.6,1.3,0.9c0.5,0.3,0.9,0.5,1.2,0.5c0.6,0.2,1,0.4,1.2,0.5c0.2,0.2,0.3,0.4,0.3,0.8c0,0.5,0,1,0,1.6
			c0,0.6,0,1.2-0.1,1.7c0,0.5-0.1,1-0.1,1.4c0,0.4-0.1,0.6-0.1,0.6c-0.1,0.2-0.4,0.4-0.8,0.6c-0.4,0.2-0.8,0.2-1.1,0.2
			c-0.5,0-0.9-0.1-1.3-0.2c-0.3-0.1-0.7-0.4-1.2-0.8l-0.3-0.2c-1-0.8-1.8-1.5-2.3-2.1c-0.5-0.5-0.8-0.8-0.9-1
			c-0.1-0.1-0.2-0.2-0.4-0.3c-0.1-0.1-0.3-0.2-0.7-0.5c-0.4-0.2-0.9-0.6-1.6-1.1c-0.4-0.3-0.9-0.4-1.4-0.4c-0.4,0-0.8,0.1-1.1,0.4
			c-0.3,0.3-0.4,0.6-0.4,1v1.2l0,1.2c0.1,0.4,0.1,0.7,0.1,0.9c0,0.2,0.1,0.4,0.1,0.5c0,0.1,0,0.2,0,0.2c0,0,0,0.1,0,0.1
			C166.6,28.8,166.2,29.2,165.4,29.2L165.4,29.2z M166.4,10.4c0,0.3,0,0.9-0.1,1.8v0.4v0.6l0,0.7c0,1,0.1,1.7,0.3,2
			c0.2,0.3,0.6,0.5,1.2,0.5c1.5,0,2.8-0.7,4-2.2c0.5-0.6,0.8-1.3,1.1-2c0.3-0.7,0.4-1.3,0.4-1.9c0-0.5-0.1-1-0.3-1.5
			c-0.2-0.5-0.5-0.9-0.8-1.2c-0.7-0.6-1.9-0.9-3.7-0.9c-0.9,0-1.4,0.2-1.8,0.5c-0.3,0.3-0.5,0.9-0.5,1.7L166.4,10.4z"/>
		<path fill="#F4831F" d="M190.4,3.9c0,0.8,0,1.5,0.1,2c0,0.5,0,0.8,0,0.8l-0.1,1.8c0,0.3,0,0.6,0.2,0.8c0.1,0.2,0.3,0.3,0.6,0.3
			c0.3,0,0.5-0.1,0.8-0.3c0.2-0.2,0.6-0.6,0.9-1.1c0.4-0.5,0.7-1,1-1.4c0.3-0.4,0.5-0.7,0.7-1c0.2-0.3,0.4-0.6,0.6-0.8
			c0.1-0.2,0.3-0.5,0.6-0.9c0.3-0.4,0.6-0.8,1-1.3c0.2-0.2,0.3-0.5,0.5-0.7c0.2-0.2,0.4-0.5,0.6-0.8c0.3-0.5,0.6-0.9,0.9-1
			c0.2-0.2,0.6-0.3,1.1-0.3c0.1,0,0.3,0,0.4,0c0.1,0,0.3,0,0.4,0c0.3,0,0.6,0.1,0.9,0.1c0.2,0,0.4,0,0.5,0c0.1,0,0.2,0,0.3,0
			c0.1,0,0.3,0,0.6,0c0.3,0,0.6,0,0.9,0c0.3,0,0.6,0,1,0c0.8,0,1.2,0.3,1.2,0.8c0,0.3-0.1,0.6-0.3,0.9c-0.2,0.3-0.6,0.8-1.3,1.5
			c-0.2,0.2-0.4,0.5-0.7,1c-0.2,0.3-0.4,0.6-0.5,0.8c-0.1,0.2-0.3,0.4-0.5,0.6c-0.2,0.2-0.4,0.5-0.7,0.8c-0.3,0.3-0.6,0.8-1.1,1.4
			c-0.1,0.1-0.2,0.3-0.3,0.4s-0.2,0.2-0.3,0.3c-0.1,0.1-0.3,0.3-0.4,0.5c-0.1,0.2-0.2,0.4-0.3,0.6c-0.4,0.6-0.8,1-1,1.4
			c-0.3,0.4-0.5,0.7-0.6,0.9c-0.1,0.2-0.2,0.5-0.3,0.6c0,0.2-0.1,0.4-0.1,0.6c0,0.2,0,0.5,0.1,0.7c0.1,0.3,0.2,0.6,0.4,1
			s0.5,1,0.8,1.7c0.4,0.7,0.8,1.6,1.4,2.6c0.3,0.5,0.5,0.9,0.6,1.2c0.2,0.3,0.3,0.6,0.4,0.8c0.1,0.3,0.2,0.6,0.3,0.8
			c0.1,0.3,0.2,0.5,0.4,0.8l1.2,1.9l1.3,2.6c0.2,0.3,0.3,0.6,0.3,0.8c0,0.2-0.1,0.4-0.3,0.6c-0.2,0.2-0.4,0.3-0.6,0.3l-2.1,0
			c-0.3,0-0.6,0-0.9,0s-0.7,0-1.1-0.1h-1.6c-0.3,0-0.5-0.1-0.7-0.3c-0.2-0.1-0.4-0.3-0.5-0.6c-0.1-0.3-0.3-0.8-0.6-1.4
			c-0.3-0.6-0.6-1.4-1-2.4c-0.1-0.1-0.1-0.3-0.2-0.4c-0.1-0.1-0.2-0.3-0.2-0.4l-0.8-1.5l-0.6-0.9c-0.1-0.3-0.3-0.5-0.4-0.6l-0.7-1.5
			c-0.1-0.2-0.3-0.4-0.6-0.6c-0.3-0.2-0.5-0.3-0.7-0.3c-0.3,0-0.5,0.1-0.7,0.4c-0.2,0.2-0.3,0.6-0.3,1c0,0.3,0,0.6,0,0.8
			c0,0.2,0,0.3,0,0.5c0,0.1,0,0.2,0,0.3c0,0.1,0,0.2-0.1,0.4c-0.1,0.3-0.1,0.4-0.1,0.5c0,0.1,0,0.2,0,0.4c0,0.1,0,0.2,0,0.3
			c0,0.1,0,0.2,0,0.4c0.1,0.5,0.1,0.8,0.1,0.9c0,0.1,0,0.4,0,0.7c0,0.1,0,0.1,0,0.2c0,0.1,0,0.2,0,0.3c0,0.1,0,0.4,0,0.6
			c0,0.3,0,0.7,0.1,1.2c0,0.5-0.1,0.9-0.4,1.3c-0.2,0.4-0.6,0.6-0.9,0.7l-2.5,0.1c0,0-0.1,0-0.2,0s-0.2,0-0.3,0c-0.1,0-0.3,0-0.4,0
			s-0.2,0-0.3,0h-0.3c-0.2,0-0.3,0.1-0.5,0.1c-0.1,0-0.2,0-0.2,0c-0.3,0-0.5-0.1-0.7-0.4c-0.2-0.2-0.3-0.5-0.3-0.8
			c0-0.2,0-0.4,0-0.6c0-0.2,0-0.4,0-0.6s0-0.4,0-0.7l0-5.4c0-0.4,0-0.7,0-0.9c0-0.1,0-0.4,0-0.8c0-0.5,0-1.1,0-1.6c0-0.5,0-1,0-1.5
			c0-0.6,0-0.9,0-1.1c0-0.2,0-0.4,0-0.7c0-0.1,0-0.3,0-0.4c0-0.1,0-0.3,0-0.6c0-0.3,0-0.7,0-1.2c0-0.5,0-1.3-0.1-2.3V8.2
			c0-0.2,0-0.3,0-0.4s0-0.2,0-0.4c0-0.1,0-0.3,0-0.5c0-0.2,0-0.5,0.1-0.8l0-1.3V2.9V1.8c0-0.8,0.3-1.3,0.8-1.5c0,0,0.2,0,0.5,0
			c0.3,0,0.7,0,1.2,0c0.5,0,1,0,1.5,0c0.6,0,1.1,0,1.7,0c0.8,0.1,1.2,0.6,1.2,1.5c0,0.1,0,0.3,0,0.4c0,0.1,0,0.3,0,0.5
			c0,0.3-0.1,0.5-0.1,0.7C190.4,3.5,190.4,3.7,190.4,3.9L190.4,3.9z"/>
		<path fill="#F4831F" d="M210.5,0.3h0.4c0.3,0,0.7,0,1.2,0c0.5,0,1,0,1.5,0c1.2,0,1.8,0.8,1.8,2.3l-0.1,2.6v1v0.2
			c0,0.1,0,0.1,0,0.2c0,0.1,0,0.2,0,0.3c0,0.1,0,0.3,0,0.4c0,0.1,0,0.2,0,0.3c0,0.1,0,0.2,0,0.2s0,0.2,0,0.3c0,0.1,0,0.2,0,0.4
			c0,0.2,0,0.4,0.1,0.8l0,2.5v3.3c-0.1,0.5-0.1,0.9-0.1,1s0,0.2,0,0.2c0,0.1,0,0.2,0,0.3c0,0.1,0,0.4,0.1,0.9v5.8l0,1.6
			c0,0,0,0.1,0,0.3s0,0.4,0,0.7c0,0.2,0,0.5,0,0.8c0,0.3,0,0.6,0,0.8c0,1-0.3,1.5-0.9,1.5c-0.6,0-1.2,0-1.8,0c-0.6,0-1.2,0-1.7,0
			c-0.5,0-1,0-1.3,0c-0.4,0-0.6,0-0.6,0c-0.5-0.2-0.8-0.6-0.8-1.2c0-0.2,0-0.5,0-0.7c0-0.3,0-0.6,0.1-1l0-5.1l0-3.9l0-3.7
			c0-0.6,0-1.1-0.1-1.5c0-0.4,0-0.7,0-0.9c0-0.2,0-0.5,0-0.6c0-0.2,0-0.4,0-0.7c0-0.4,0-0.8,0-1.1c0-0.4,0-0.7,0-1.1
			c0-0.4,0-0.7,0-1c0-0.3,0-0.5,0-0.6c0-0.3,0-0.7,0-1.2c0-0.5-0.1-1-0.1-1.5c0-0.1,0-0.3,0-0.4c0-0.1,0-0.2,0-0.3
			c0-0.5,0.2-0.9,0.5-1.3c0.3-0.4,0.7-0.6,1.2-0.6h0.1c0,0,0.1,0,0.1,0c0,0,0.1,0,0.1,0H210.5z"/>
		<path fill="#F4831F" d="M223.4,0.3c0.3,0,0.6,0,0.9,0c0.2,0,0.5,0,0.7,0c0.3,0,0.5,0,0.9,0c0.3,0,0.7,0,1.2,0.1c0.3,0,0.5,0,0.8,0
			c0.2,0,0.4,0,0.6,0c0.2,0,0.5,0,0.7,0s0.5,0,0.8,0c0.3,0,0.6,0,0.8,0c0.2,0,0.5,0,0.7,0s0.5,0,0.8,0c0.3,0,0.6,0,0.9,0
			c1,0,1.6,0.4,1.8,1.1c0,0.1,0,0.1,0.1,0.2c0,0.1,0,0.2,0,0.3c0,0.2,0,0.4,0,0.7s0,0.8,0,1.3c-0.1,1.5-0.1,2.3-0.2,2.3
			c-0.1,0.4-0.4,0.6-0.6,0.6l-2.1,0c-0.3,0-0.6,0.1-0.9,0.4c-0.4,0.3-0.6,0.5-0.8,0.8c-0.1,0.2-0.2,0.6-0.3,1.2
			c-0.1,0.5-0.1,1.1-0.1,1.6v3l-0.1,1.8l0,1.7l0,2c0,0.5,0,0.8,0,0.9c0,0.1,0,0.2,0,0.3c-0.1,0.8-0.1,1.3-0.1,1.6s0,0.5,0,0.6v0.5
			c0,0.4,0,0.8,0.1,1.2c0,0.4,0,0.8,0,1.2l0,1.1c0,0.1,0,0.3,0,0.4c0,0.1,0,0.2,0,0.3v0.3c0,0.6-0.4,1-1.1,1.2
			c-0.2,0.1-0.5,0.1-0.9,0.1c-0.4,0-0.7,0-1,0h-0.3l-1.5-0.1H224c-0.6-0.1-0.9-0.5-0.9-1.4c0-0.4,0-0.7,0-0.8c0-0.1,0-0.3,0-0.6
			c0-0.3,0.1-0.6,0.1-0.8c0-0.2,0-0.4,0-0.6c0,0,0-0.1,0-0.2c0-0.1,0-0.2,0-0.3c0-0.3-0.1-0.5-0.1-0.6c0-0.2,0-0.4,0-0.6
			c0-0.2,0-0.5,0-0.8s0-0.8,0-1.3c0-0.5,0-1.1,0.1-1.9c0-0.7,0.1-1.4,0.1-2c0-0.1,0-0.3,0-0.4c0-0.1,0-0.2,0-0.2c0-0.1,0-0.1,0-0.2
			c0-0.1,0-0.2,0-0.3c-0.1-0.4-0.1-0.7-0.1-0.9c0-0.2,0-0.6,0-1.2v-0.6l0.1-1.4v0c0-0.9-0.1-1.5-0.1-1.8c0-0.1,0-0.2,0.1-0.5
			c0-0.3,0.1-0.5,0.1-0.6c0-0.2,0-0.4-0.1-0.6c-0.1-0.3-0.2-0.5-0.4-0.8c-0.2-0.3-0.3-0.5-0.5-0.6s-0.4-0.3-0.5-0.3l-2.8,0
			c-0.6,0-0.9-0.7-0.9-2.1c0-0.3,0-0.5,0-0.7c0-0.2,0-0.5,0-1c0-0.1,0-0.4,0-1c0-0.6,0.2-1.1,0.4-1.3c0.2-0.2,0.7-0.4,1.2-0.5
			L223.4,0.3z"/>
	</g>
	<g>
		<path d="M50.6,41.5c-0.4,0.6-0.8,1.3-1.2,1.8c-0.4,0.6-0.9,1.1-1.4,1.5c-0.5,0.5-1,0.9-1.5,1.3c-0.5,0.4-1,0.7-1.4,1
			c0,0.5,0,0.9,0.1,1.3c0.1,0.4,0.2,0.6,0.4,0.8c0.1,0.1,0.3,0.1,0.6,0.1c0.3-0.1,0.5-0.2,0.8-0.3c0.3-0.2,0.6-0.3,0.8-0.6
			c0.3-0.2,0.5-0.4,0.6-0.6c0.1-0.2,0.3-0.3,0.5-0.3c0.2,0,0.4,0,0.6,0.1s0.3,0.2,0.4,0.4c0.1,0.2,0.1,0.3-0.1,0.5
			c-0.2,0.2-0.5,0.5-0.8,0.9c-0.4,0.3-0.7,0.7-1.2,1c-0.4,0.3-0.9,0.6-1.3,0.8c-0.5,0.2-0.9,0.3-1.3,0.2c-0.4,0-0.8-0.2-1-0.5
			c-0.3-0.3-0.4-0.7-0.5-1.4c-0.3,0.7-0.7,1.3-1,1.9c-0.3,0.6-0.6,1.2-0.9,1.7c-0.3,0.5-0.5,0.9-0.6,1.2c-0.2,0.3-0.3,0.5-0.3,0.6
			c-0.2,0.3-0.4,0.5-0.7,0.5c-0.3,0.1-0.6,0-0.9-0.1c-0.3-0.1-0.5-0.3-0.6-0.6c-0.1-0.3-0.1-0.6,0.1-0.9c0.1-0.3,0.4-0.7,0.8-1.4
			c0.4-0.7,0.8-1.5,1.3-2.4c0.5-0.9,1-1.9,1.6-2.9c0.6-1,1.1-2,1.6-2.9c0.5-0.9,0.9-1.7,1.3-2.5c0.4-0.7,0.7-1.2,0.8-1.5
			c0.3-0.6,0.7-1.1,1.2-1.5c0.5-0.4,0.9-0.7,1.4-0.8c0.5-0.2,0.9-0.2,1.3-0.1c0.4,0.1,0.7,0.3,0.9,0.6c0.2,0.3,0.3,0.7,0.3,1.3
			C51.3,40.1,51,40.8,50.6,41.5z M48,41.3c0,0.1-0.1,0.2-0.3,0.5c-0.1,0.3-0.3,0.6-0.5,0.9c-0.2,0.3-0.3,0.6-0.5,0.9
			s-0.2,0.5-0.3,0.5c0.3-0.3,0.7-0.7,1.1-1.2c0.4-0.5,0.8-1.1,1.2-1.7c0.3-0.5,0.4-0.9,0.5-1.1c0.1-0.3,0-0.4-0.1-0.4
			c-0.1,0-0.3,0.1-0.5,0.4C48.5,40.3,48.3,40.7,48,41.3z"/>
		<path d="M57.8,47.7c0.1-0.2,0.3-0.3,0.5-0.3c0.2,0,0.4,0,0.6,0.1c0.2,0.1,0.3,0.2,0.4,0.4c0.1,0.2,0,0.3-0.1,0.5
			c-0.2,0.2-0.4,0.5-0.7,0.8c-0.3,0.3-0.7,0.6-1.1,0.8c-0.4,0.2-0.9,0.4-1.4,0.5s-0.9,0-1.4-0.1c-0.6,0.6-1.2,1.2-2,1.5
			c-0.7,0.4-1.4,0.6-2.1,0.6c-0.5,0-1-0.1-1.4-0.4c-0.4-0.2-0.7-0.6-0.9-1c-0.2-0.4-0.3-0.9-0.3-1.4c0-0.6,0.1-1.1,0.3-1.8
			c0.2-0.6,0.6-1.2,1-1.8c0.4-0.6,0.9-1,1.4-1.5c0.5-0.4,1-0.7,1.6-1c0.6-0.2,1.1-0.4,1.7-0.4c0.5,0,1,0.1,1.4,0.4
			c0.4,0.2,0.7,0.6,0.9,1c0.2,0.4,0.3,0.9,0.3,1.5c0,0.6-0.1,1.1-0.3,1.8c-0.1,0.2-0.1,0.3-0.2,0.5c-0.1,0.1-0.1,0.3-0.2,0.4
			c0.3,0,0.7-0.1,1-0.3C57.2,48.3,57.5,48,57.8,47.7z M54.2,47.9c0.3-0.7,0.4-1.3,0.2-1.8c-0.2-0.5-0.5-0.7-1-0.7
			c-0.3,0-0.5,0.1-0.8,0.2c-0.3,0.1-0.6,0.3-0.9,0.5c-0.3,0.2-0.5,0.5-0.8,0.8c-0.2,0.3-0.4,0.6-0.6,1c-0.3,0.7-0.4,1.3-0.2,1.8
			c0.2,0.5,0.5,0.7,1,0.7c0.3,0,0.5-0.1,0.8-0.2c0.3-0.1,0.6-0.3,0.9-0.5s0.5-0.5,0.7-0.8C53.9,48.5,54.1,48.2,54.2,47.9z"/>
		<path d="M57.8,47.7c0.4-0.5,0.8-1,1.3-1.7s0.9-1.3,1.3-1.9c-0.2-0.3-0.4-0.7-0.6-1.1c-0.1-0.4-0.2-0.9-0.2-1.3
			c0-0.4,0-0.9,0.2-1.3c0.1-0.4,0.3-0.7,0.6-1c0.4-0.3,0.9-0.5,1.3-0.5c0.4,0,0.7,0.1,1,0.3c0.3,0.2,0.5,0.5,0.6,0.9
			c0.1,0.4,0.2,0.8,0.1,1.3c0,0.3-0.1,0.6-0.3,0.9c-0.2,0.3-0.4,0.7-0.6,1.1c0.2,0.1,0.5,0.1,0.8,0c0.3-0.1,0.6,0,0.8,0
			c0.2,0.1,0.4,0.2,0.5,0.4c0.1,0.2,0.2,0.3,0.2,0.5c0,0.2-0.1,0.3-0.2,0.5c-0.1,0.1-0.2,0.3-0.5,0.5c-0.2,0.3-0.5,0.6-0.8,1
			c-0.3,0.4-0.6,0.8-1,1.3c-0.3,0.4-0.6,0.9-0.8,1.3c-0.2,0.4-0.4,0.8-0.5,1.1c-0.1,0.3-0.1,0.5,0,0.6c0.2,0.2,0.5,0.2,0.9,0.1
			c0.4-0.2,0.8-0.4,1.3-0.7c0.4-0.3,0.9-0.7,1.3-1.1s0.8-0.8,1-1.1c0.1-0.2,0.3-0.2,0.5-0.3c0.2,0,0.4,0,0.6,0.1
			c0.2,0.1,0.3,0.2,0.4,0.4c0.1,0.2,0.1,0.3-0.1,0.5c-0.3,0.4-0.7,0.9-1.3,1.5c-0.6,0.6-1.2,1.1-1.9,1.5c-0.7,0.5-1.4,0.8-2.1,1
			c-0.7,0.2-1.4,0.1-2-0.2C59.4,52,59.1,51.6,59,51s0-1.2,0.3-1.8c0.3-0.7,0.6-1.3,1.1-2c0.5-0.7,1-1.2,1.6-1.7
			c0.2-0.1,0.2-0.2,0.3-0.3c0-0.1-0.2-0.2-0.6-0.3c-0.5,0.8-1,1.5-1.5,2.2c-0.5,0.7-0.8,1.1-1,1.3c-0.2,0.2-0.3,0.3-0.6,0.3
			c-0.2,0-0.4,0-0.6-0.1c-0.2-0.1-0.3-0.2-0.3-0.4C57.7,48,57.7,47.9,57.8,47.7z M61.7,40.4c-0.2,0-0.3,0.1-0.4,0.2
			c-0.1,0.1-0.2,0.3-0.2,0.5c0,0.2,0,0.4,0,0.7c0,0.2,0.1,0.5,0.2,0.7c0.1-0.2,0.2-0.5,0.3-0.7c0.1-0.2,0.2-0.5,0.2-0.7
			c0-0.2,0-0.4,0-0.5C61.9,40.4,61.8,40.4,61.7,40.4z"/>
		<path d="M84.1,47.7c0.1-0.2,0.3-0.3,0.5-0.3c0.2,0,0.4,0,0.6,0.1c0.2,0.1,0.3,0.2,0.4,0.4c0.1,0.2,0,0.3-0.1,0.5
			c-0.2,0.2-0.4,0.5-0.7,0.8c-0.3,0.3-0.7,0.6-1.1,0.8c-0.4,0.2-0.9,0.4-1.4,0.5s-0.9,0-1.4-0.1c-0.6,0.6-1.2,1.2-2,1.5
			c-0.7,0.4-1.4,0.6-2.1,0.6c-0.5,0-1-0.1-1.4-0.4c-0.4-0.2-0.7-0.6-0.9-1c-0.2-0.4-0.3-0.9-0.3-1.4c0-0.6,0.1-1.1,0.3-1.8
			c0.2-0.6,0.6-1.2,1-1.8c0.4-0.6,0.9-1,1.4-1.5c0.5-0.4,1-0.7,1.6-1c0.6-0.2,1.1-0.4,1.7-0.4c0.5,0,1,0.1,1.4,0.4
			c0.4,0.2,0.7,0.6,0.9,1c0.2,0.4,0.3,0.9,0.3,1.5c0,0.6-0.1,1.1-0.3,1.8c-0.1,0.2-0.1,0.3-0.2,0.5c-0.1,0.1-0.1,0.3-0.2,0.4
			c0.3,0,0.7-0.1,1-0.3C83.5,48.3,83.9,48,84.1,47.7z M80.6,47.9c0.3-0.7,0.4-1.3,0.2-1.8c-0.2-0.5-0.5-0.7-1-0.7
			c-0.3,0-0.5,0.1-0.8,0.2c-0.3,0.1-0.6,0.3-0.9,0.5c-0.3,0.2-0.5,0.5-0.8,0.8c-0.2,0.3-0.4,0.6-0.6,1c-0.3,0.7-0.4,1.3-0.2,1.8
			c0.2,0.5,0.5,0.7,1,0.7c0.3,0,0.5-0.1,0.8-0.2c0.3-0.1,0.6-0.3,0.9-0.5c0.3-0.2,0.5-0.5,0.7-0.8C80.2,48.5,80.4,48.2,80.6,47.9z"
			/>
		<path d="M92.7,47.7c0.1-0.2,0.3-0.3,0.5-0.3c0.2,0,0.4,0,0.6,0.1c0.2,0.1,0.3,0.2,0.4,0.4c0.1,0.2,0.1,0.3-0.1,0.5
			c-0.1,0.1-0.2,0.3-0.4,0.5c-0.2,0.2-0.4,0.5-0.6,0.7c-0.2,0.3-0.5,0.5-0.7,0.8c-0.3,0.3-0.5,0.5-0.8,0.8c-0.6,0.5-1.1,0.8-1.5,1
			c-0.4,0.2-0.8,0.3-1.1,0.2c-0.3,0-0.6-0.1-0.8-0.3c-0.2-0.2-0.4-0.4-0.6-0.6c-0.2,0.1-0.3,0.2-0.5,0.3c-0.2,0.1-0.4,0.2-0.6,0.3
			c-0.2,0.1-0.4,0.2-0.7,0.2c-0.3,0.1-0.6,0.1-1,0.1c-1,0-1.6-0.4-1.8-1.3c-0.2-0.8,0.2-2,1-3.4c0.2-0.3,0.4-0.6,0.6-1
			c0.2-0.4,0.4-0.7,0.6-1.1c0.2-0.4,0.4-0.7,0.6-1c0.2-0.3,0.4-0.6,0.5-0.8c0.2-0.3,0.4-0.5,0.7-0.5c0.3-0.1,0.5-0.1,0.8,0
			c0.2,0.1,0.4,0.2,0.5,0.4c0.1,0.2,0.1,0.4,0,0.7c-0.2,0.4-0.5,0.8-0.8,1.4c-0.3,0.5-0.5,1-0.8,1.4c-0.2,0.4-0.4,0.8-0.7,1.2
			c-0.2,0.4-0.4,0.7-0.5,1c-0.1,0.3-0.2,0.6-0.3,0.8c-0.1,0.2,0,0.4,0.1,0.4c0.2,0.2,0.6,0.1,1.1-0.3c0.5-0.4,1.1-1,1.7-1.8
			c0.2-0.3,0.5-0.7,0.8-1.2c0.3-0.5,0.6-1,0.8-1.5c0.3-0.6,0.6-1.2,0.9-1.8c0.1-0.2,0.3-0.4,0.6-0.5c0.3-0.1,0.5-0.2,0.8-0.1
			c0.3,0,0.4,0.1,0.6,0.3c0.1,0.2,0.1,0.4,0,0.7c-0.2,0.3-0.4,0.7-0.6,1.2c-0.3,0.5-0.5,1-0.8,1.5c-0.3,0.5-0.5,1-0.7,1.4
			c-0.2,0.4-0.4,0.8-0.5,1c-0.1,0.2-0.2,0.4-0.1,0.5c0,0.1,0.1,0.1,0.2,0.1c0.1,0,0.3-0.1,0.5-0.2c0.2-0.1,0.4-0.2,0.6-0.4
			c0.3-0.4,0.6-0.7,0.8-0.9C92.2,48.3,92.4,48,92.7,47.7z"/>
		<path d="M97.8,42.8l-2.5,4.4c-0.2,0.4-0.4,0.8-0.7,1.2c-0.2,0.4-0.4,0.7-0.5,1c-0.1,0.3-0.2,0.6-0.3,0.8c-0.1,0.2,0,0.4,0.1,0.4
			c0.1,0.1,0.2,0.1,0.4,0.1c0.2-0.1,0.4-0.1,0.6-0.3c0.2-0.1,0.4-0.3,0.7-0.5c0.2-0.2,0.4-0.4,0.6-0.5c0.4-0.4,0.6-0.7,0.9-0.9
			c0.2-0.2,0.4-0.5,0.7-0.8c0.1-0.2,0.3-0.3,0.5-0.3c0.2,0,0.4,0,0.6,0.1s0.3,0.2,0.4,0.4c0.1,0.2,0.1,0.3-0.1,0.5
			c-0.2,0.3-0.5,0.6-0.8,1c-0.3,0.4-0.8,0.9-1.3,1.4c-0.3,0.3-0.7,0.6-0.9,0.8c-0.3,0.2-0.6,0.4-0.9,0.5c-0.3,0.1-0.6,0.2-0.9,0.3
			c-0.3,0.1-0.6,0.1-1,0.1c-1,0-1.6-0.4-1.8-1.3c-0.2-0.8,0.2-2,1-3.4c0.1-0.2,0.3-0.5,0.5-0.8c0.2-0.4,0.4-0.8,0.7-1.2
			c0.3-0.5,0.6-1,0.9-1.5c0.3-0.5,0.6-1,0.9-1.5c-0.2,0-0.3,0-0.5,0c-0.2,0-0.4,0-0.5,0c-0.4,0-0.7-0.1-0.8-0.3
			c-0.1-0.2-0.1-0.4,0-0.6c0.1-0.2,0.3-0.4,0.5-0.6c0.3-0.2,0.6-0.3,0.9-0.3c0.2,0,0.4,0,0.6,0c0.3,0,0.6,0,0.9,0l0.7-1.1
			c0.2-0.3,0.4-0.5,0.7-0.5c0.3-0.1,0.5-0.1,0.8,0c0.2,0.1,0.4,0.2,0.5,0.4c0.1,0.2,0.1,0.4,0,0.7l-0.3,0.5c0.3,0,0.6,0,0.9,0
			c0.3,0,0.5,0,0.6,0c0.3,0,0.5,0.1,0.5,0.3c0.1,0.2,0,0.4-0.1,0.6c-0.1,0.2-0.3,0.4-0.5,0.6c-0.2,0.2-0.5,0.3-0.7,0.3L97.8,42.8z"
			/>
		<path d="M107.4,47.7c0.1-0.2,0.3-0.3,0.5-0.3c0.2,0,0.4,0,0.6,0.1s0.3,0.2,0.4,0.4c0.1,0.2,0.1,0.3-0.1,0.5
			c-0.1,0.1-0.2,0.3-0.4,0.5c-0.2,0.2-0.4,0.5-0.6,0.7c-0.2,0.3-0.5,0.5-0.7,0.8c-0.3,0.3-0.6,0.5-0.8,0.8c-0.5,0.5-1,0.8-1.5,1
			c-0.4,0.2-0.8,0.3-1.1,0.2c-0.3,0-0.6-0.1-0.8-0.3s-0.4-0.4-0.6-0.6c-0.3,0.2-0.7,0.4-1,0.6c-0.4,0.2-0.9,0.3-1.7,0.3
			c-0.5,0-1-0.1-1.4-0.4c-0.4-0.2-0.7-0.6-0.9-1s-0.2-1-0.2-1.6c0.1-0.6,0.3-1.3,0.7-2c0.4-0.7,0.8-1.4,1.4-1.9
			c0.5-0.5,1.1-1,1.6-1.3c0.5-0.3,1.1-0.6,1.6-0.8c0.5-0.2,1-0.2,1.4-0.2c0.3,0,0.5,0,0.7,0.1c0.2,0.1,0.4,0.2,0.5,0.3
			c0.2,0.1,0.3,0.2,0.5,0.4c0.3-0.7,0.6-1.2,0.9-1.7c0.3-0.5,0.6-1,0.9-1.6c0.3-0.6,0.6-1.2,0.9-1.7c0.3-0.5,0.5-1,0.7-1.3
			c0.2-0.4,0.3-0.6,0.4-0.7c0.1-0.2,0.3-0.3,0.6-0.3c0.3,0,0.5,0,0.7,0c0.2,0.1,0.4,0.2,0.5,0.3c0.1,0.2,0.1,0.4,0,0.6
			c-0.1,0.2-0.3,0.6-0.7,1.2c-0.3,0.6-0.7,1.4-1.2,2.2c-0.4,0.8-0.9,1.7-1.4,2.6c-0.5,0.9-0.9,1.8-1.4,2.6c-0.4,0.8-0.8,1.5-1.1,2.1
			c-0.3,0.6-0.5,0.9-0.6,1.1c-0.1,0.2-0.2,0.4-0.2,0.5c0,0.1,0.1,0.1,0.3,0.1c0.1,0,0.3-0.1,0.5-0.2c0.2-0.1,0.4-0.2,0.5-0.4
			c0.4-0.4,0.6-0.7,0.9-0.9C106.9,48.3,107.1,48,107.4,47.7z M102.9,48.6c0.3-0.4,0.6-0.8,0.7-1.2c0.2-0.4,0.3-0.8,0.4-1.1
			c0.1-0.3,0.1-0.6,0.1-0.9c0-0.3-0.1-0.4-0.3-0.6c-0.2-0.1-0.4-0.2-0.6-0.1c-0.3,0.1-0.5,0.2-0.8,0.3c-0.3,0.2-0.6,0.4-0.9,0.7
			c-0.3,0.3-0.6,0.6-0.9,1c-0.3,0.4-0.6,0.8-0.8,1.2c-0.2,0.4-0.3,0.7-0.4,1.1c-0.1,0.3-0.1,0.6-0.1,0.9c0,0.3,0.1,0.4,0.3,0.6
			c0.2,0.1,0.4,0.2,0.6,0.1c0.3,0,0.5-0.2,0.8-0.3c0.3-0.2,0.6-0.4,0.9-0.7C102.3,49.3,102.6,49,102.9,48.6z"/>
		<path d="M116.8,47.7c0.1-0.2,0.3-0.3,0.5-0.3c0.2,0,0.4,0,0.6,0.1c0.2,0.1,0.3,0.2,0.4,0.4c0.1,0.2,0,0.3-0.1,0.5
			c-0.2,0.2-0.4,0.5-0.7,0.8c-0.3,0.3-0.7,0.6-1.1,0.8c-0.4,0.2-0.9,0.4-1.4,0.5s-0.9,0-1.4-0.1c-0.6,0.6-1.2,1.2-2,1.5
			c-0.7,0.4-1.4,0.6-2.1,0.6c-0.5,0-1-0.1-1.4-0.4c-0.4-0.2-0.7-0.6-0.9-1c-0.2-0.4-0.3-0.9-0.3-1.4c0-0.6,0.1-1.1,0.3-1.8
			c0.2-0.6,0.6-1.2,1-1.8c0.4-0.6,0.9-1,1.4-1.5c0.5-0.4,1-0.7,1.6-1c0.6-0.2,1.1-0.4,1.7-0.4c0.5,0,1,0.1,1.4,0.4
			c0.4,0.2,0.7,0.6,0.9,1c0.2,0.4,0.3,0.9,0.3,1.5c0,0.6-0.1,1.1-0.3,1.8c-0.1,0.2-0.1,0.3-0.2,0.5c-0.1,0.1-0.1,0.3-0.2,0.4
			c0.3,0,0.7-0.1,1-0.3C116.1,48.3,116.5,48,116.8,47.7z M113.2,47.9c0.3-0.7,0.4-1.3,0.2-1.8c-0.2-0.5-0.5-0.7-1-0.7
			c-0.3,0-0.5,0.1-0.8,0.2c-0.3,0.1-0.6,0.3-0.9,0.5c-0.3,0.2-0.5,0.5-0.8,0.8c-0.2,0.3-0.4,0.6-0.6,1c-0.3,0.7-0.4,1.3-0.2,1.8
			c0.2,0.5,0.5,0.7,1,0.7c0.3,0,0.5-0.1,0.8-0.2c0.3-0.1,0.6-0.3,0.9-0.5c0.3-0.2,0.5-0.5,0.7-0.8C112.8,48.5,113,48.2,113.2,47.9z"
			/>
		<path d="M126.1,47.7c0.1-0.2,0.3-0.3,0.5-0.3c0.2,0,0.4,0,0.6,0.1c0.2,0.1,0.3,0.2,0.4,0.4c0.1,0.2,0,0.3-0.1,0.5
			c-0.2,0.2-0.4,0.5-0.7,0.8c-0.3,0.3-0.7,0.6-1.1,0.8c-0.4,0.2-0.9,0.4-1.4,0.5s-0.9,0-1.4-0.1c-0.6,0.6-1.2,1.2-2,1.5
			c-0.7,0.4-1.4,0.6-2.1,0.6c-0.5,0-1-0.1-1.4-0.4c-0.4-0.2-0.7-0.6-0.9-1c-0.2-0.4-0.3-0.9-0.3-1.4c0-0.6,0.1-1.1,0.3-1.8
			c0.2-0.6,0.6-1.2,1-1.8c0.4-0.6,0.9-1,1.4-1.5c0.5-0.4,1-0.7,1.6-1c0.6-0.2,1.1-0.4,1.7-0.4c0.5,0,1,0.1,1.4,0.4
			c0.4,0.2,0.7,0.6,0.9,1c0.2,0.4,0.3,0.9,0.3,1.5c0,0.6-0.1,1.1-0.3,1.8c-0.1,0.2-0.1,0.3-0.2,0.5c-0.1,0.1-0.1,0.3-0.2,0.4
			c0.3,0,0.7-0.1,1-0.3C125.5,48.3,125.8,48,126.1,47.7z M122.5,47.9c0.3-0.7,0.4-1.3,0.2-1.8c-0.2-0.5-0.5-0.7-1-0.7
			c-0.3,0-0.5,0.1-0.8,0.2c-0.3,0.1-0.6,0.3-0.9,0.5c-0.3,0.2-0.5,0.5-0.8,0.8c-0.2,0.3-0.4,0.6-0.6,1c-0.3,0.7-0.4,1.3-0.2,1.8
			c0.2,0.5,0.5,0.7,1,0.7c0.3,0,0.5-0.1,0.8-0.2c0.3-0.1,0.6-0.3,0.9-0.5c0.3-0.2,0.5-0.5,0.7-0.8C122.2,48.5,122.4,48.2,122.5,47.9
			z"/>
		<path d="M126.1,47.7c0.4-0.5,0.8-1,1.3-1.7c0.5-0.7,0.9-1.3,1.3-1.9c-0.2-0.3-0.4-0.7-0.6-1.1c-0.1-0.4-0.2-0.9-0.2-1.3
			c0-0.4,0-0.9,0.2-1.3c0.1-0.4,0.3-0.7,0.6-1c0.4-0.3,0.9-0.5,1.3-0.5c0.4,0,0.7,0.1,1,0.3c0.3,0.2,0.5,0.5,0.6,0.9
			c0.1,0.4,0.2,0.8,0.1,1.3c0,0.3-0.1,0.6-0.3,0.9c-0.2,0.3-0.4,0.7-0.6,1.1c0.2,0.1,0.5,0.1,0.8,0c0.3-0.1,0.6,0,0.8,0
			c0.2,0.1,0.4,0.2,0.5,0.4c0.1,0.2,0.2,0.3,0.2,0.5c0,0.2-0.1,0.3-0.2,0.5c-0.1,0.1-0.2,0.3-0.5,0.5c-0.2,0.3-0.5,0.6-0.8,1
			c-0.3,0.4-0.6,0.8-1,1.3c-0.3,0.4-0.6,0.9-0.8,1.3c-0.2,0.4-0.4,0.8-0.5,1.1c-0.1,0.3-0.1,0.5,0,0.6c0.2,0.2,0.5,0.2,0.9,0.1
			c0.4-0.2,0.8-0.4,1.3-0.7c0.4-0.3,0.9-0.7,1.3-1.1c0.4-0.4,0.8-0.8,1-1.1c0.1-0.2,0.3-0.2,0.5-0.3c0.2,0,0.4,0,0.6,0.1
			c0.2,0.1,0.3,0.2,0.4,0.4c0.1,0.2,0.1,0.3-0.1,0.5c-0.3,0.4-0.7,0.9-1.3,1.5c-0.6,0.6-1.2,1.1-1.9,1.5c-0.7,0.5-1.4,0.8-2.1,1
			c-0.7,0.2-1.4,0.1-2-0.2c-0.5-0.3-0.8-0.7-0.9-1.2s0-1.2,0.3-1.8c0.3-0.7,0.6-1.3,1.1-2c0.5-0.7,1-1.2,1.6-1.7
			c0.2-0.1,0.2-0.2,0.3-0.3c0-0.1-0.2-0.2-0.6-0.3c-0.5,0.8-1,1.5-1.5,2.2c-0.5,0.7-0.8,1.1-1,1.3c-0.2,0.2-0.3,0.3-0.6,0.3
			c-0.2,0-0.4,0-0.6-0.1c-0.2-0.1-0.3-0.2-0.3-0.4C126,48,126,47.9,126.1,47.7z M130,40.4c-0.2,0-0.3,0.1-0.4,0.2
			c-0.1,0.1-0.2,0.3-0.2,0.5c0,0.2,0,0.4,0,0.7c0,0.2,0.1,0.5,0.2,0.7c0.1-0.2,0.2-0.5,0.3-0.7c0.1-0.2,0.2-0.5,0.2-0.7
			c0-0.2,0-0.4,0-0.5C130.2,40.4,130.1,40.4,130,40.4z"/>
		<path d="M150.1,43.7c0.4,0.2,0.6,0.6,0.8,1c0.2,0.4,0.2,0.9,0.2,1.5c0,0.5-0.1,1.1-0.3,1.7c-0.2,0.6-0.5,1.2-0.9,1.8
			c-0.1,0.2-0.2,0.3-0.3,0.5c-0.1,0.1-0.2,0.3-0.3,0.4c0.4-0.2,0.9-0.5,1.4-0.9c0.4-0.3,0.8-0.7,1-1c0.2-0.3,0.5-0.6,0.8-1
			c0.1-0.2,0.3-0.3,0.5-0.3c0.2,0,0.4,0,0.6,0.1c0.2,0.1,0.3,0.2,0.4,0.4c0.1,0.2,0.1,0.3-0.1,0.5c-0.2,0.3-0.5,0.6-0.9,1
			c-0.4,0.4-0.9,0.9-1.4,1.4c-0.4,0.4-0.9,0.7-1.4,0.9c-0.5,0.2-1,0.4-1.6,0.5c-0.5,0.1-1,0.2-1.5,0.2c-0.5,0-0.9,0-1.3,0
			c-0.5,0-0.9-0.1-1.2-0.3c-0.3-0.2-0.5-0.4-0.7-0.8c-0.3,0.7-0.6,1.3-0.9,1.9c-0.3,0.6-0.5,1.2-0.7,1.7c-0.2,0.5-0.4,0.9-0.5,1.2
			c-0.2,0.3-0.2,0.5-0.3,0.6c-0.1,0.3-0.4,0.5-0.7,0.6c-0.3,0.1-0.6,0.1-0.9,0c-0.3-0.1-0.5-0.3-0.6-0.5c-0.2-0.3-0.1-0.6,0-1
			c0.1-0.3,0.4-0.8,0.7-1.5c0.3-0.7,0.7-1.5,1.2-2.5c0.4-0.9,0.9-1.9,1.4-3c0.5-1.1,0.9-2.1,1.4-3c0.4-1,0.8-1.8,1.2-2.5
			c0.3-0.7,0.6-1.3,0.7-1.6c0.1-0.2,0.3-0.3,0.5-0.4c0.3-0.1,0.5-0.1,0.8,0c0.3,0.1,0.5,0.2,0.6,0.3c0.2,0.2,0.2,0.4,0.1,0.6
			l-0.6,1.5c0.5-0.3,1.1-0.5,1.6-0.5C149.2,43.3,149.7,43.4,150.1,43.7z M148.4,48.7c0.3-0.4,0.5-0.8,0.6-1.2
			c0.2-0.4,0.3-0.8,0.3-1.1c0.1-0.3,0.1-0.6,0-0.9c0-0.2-0.1-0.4-0.3-0.5c-0.2-0.1-0.4-0.1-0.6-0.1c-0.3,0-0.5,0.1-0.8,0.3
			c-0.3,0.2-0.6,0.4-0.9,0.7c-0.3,0.3-0.6,0.6-0.9,1c-0.3,0.4-0.5,0.8-0.7,1.2c-0.2,0.4-0.3,0.7-0.4,1.1c-0.1,0.3-0.1,0.6-0.1,0.8
			c0,0.2,0.1,0.4,0.3,0.5c0.2,0.1,0.4,0.2,0.7,0.2c0.3,0,0.6-0.1,0.9-0.3c0.3-0.2,0.6-0.4,0.9-0.7C147.8,49.5,148.1,49.1,148.4,48.7
			z"/>
		<path d="M158.7,47.7c-0.5,0.4-0.9,0.8-1.4,1c-0.4,0.3-0.9,0.4-1.3,0.6c-0.4,0.1-0.8,0.2-1.1,0.2c-0.3,0-0.6,0-0.9,0
			c0,0.3,0.2,0.6,0.4,0.8c0.2,0.2,0.5,0.3,0.9,0.4s0.8,0,1.2,0c0.5-0.1,0.9-0.3,1.4-0.6c0.2-0.1,0.5-0.3,0.7-0.5
			c0.3-0.2,0.5-0.4,0.7-0.6c0.2-0.2,0.5-0.4,0.7-0.7c0.2-0.2,0.4-0.4,0.5-0.6c0.1-0.2,0.3-0.3,0.5-0.3c0.2,0,0.4,0,0.6,0.1
			c0.2,0.1,0.3,0.2,0.4,0.4c0.1,0.2,0.1,0.3-0.1,0.5c-0.1,0.2-0.3,0.4-0.5,0.6c-0.2,0.2-0.4,0.5-0.7,0.7c-0.3,0.3-0.5,0.5-0.8,0.8
			c-0.3,0.3-0.6,0.5-0.9,0.7c-0.6,0.5-1.3,0.8-2,1c-0.7,0.2-1.4,0.3-2,0.2c-0.6,0-1.2-0.2-1.7-0.5c-0.5-0.3-0.8-0.6-1-1.1
			c-0.3-0.6-0.4-1.3-0.3-2c0.1-0.7,0.3-1.3,0.6-1.9c0.4-0.7,0.8-1.3,1.4-1.8c0.5-0.5,1.1-0.9,1.6-1.3c0.6-0.3,1.1-0.5,1.7-0.6
			c0.6-0.1,1.1,0,1.6,0.2c0.4,0.2,0.7,0.5,0.9,0.8c0.1,0.4,0.1,0.7,0,1.2c-0.1,0.4-0.3,0.8-0.5,1.2
			C159.1,47.1,158.9,47.4,158.7,47.7z M154.3,48c0.4,0,0.9-0.1,1.4-0.2c0.5-0.2,1-0.5,1.4-0.9c0.5-0.5,0.8-0.9,0.9-1.3
			c0.1-0.4-0.1-0.6-0.5-0.6c-0.2,0-0.4,0.1-0.7,0.2c-0.3,0.2-0.5,0.4-0.8,0.6c-0.3,0.3-0.6,0.6-0.9,1
			C154.9,47.2,154.6,47.5,154.3,48L154.3,48z"/>
		<path d="M170,47.7c0.1-0.2,0.3-0.3,0.5-0.3c0.2,0,0.4,0,0.6,0.1c0.2,0.1,0.3,0.2,0.4,0.4c0.1,0.2,0,0.3-0.1,0.5
			c-0.2,0.2-0.4,0.5-0.7,0.8c-0.3,0.3-0.7,0.6-1.1,0.8c-0.4,0.2-0.9,0.4-1.4,0.5s-0.9,0-1.4-0.1c-0.6,0.6-1.2,1.2-2,1.5
			c-0.7,0.4-1.4,0.6-2.1,0.6c-0.5,0-1-0.1-1.4-0.4s-0.7-0.6-0.9-1c-0.2-0.4-0.3-0.9-0.3-1.4c0-0.6,0.1-1.1,0.3-1.8
			c0.2-0.6,0.6-1.2,1-1.8c0.4-0.6,0.9-1,1.4-1.5c0.5-0.4,1-0.7,1.6-1c0.6-0.2,1.1-0.4,1.7-0.4c0.5,0,1,0.1,1.4,0.4
			c0.4,0.2,0.7,0.6,0.9,1c0.2,0.4,0.3,0.9,0.3,1.5c0,0.6-0.1,1.1-0.3,1.8c-0.1,0.2-0.1,0.3-0.2,0.5c-0.1,0.1-0.1,0.3-0.2,0.4
			c0.3,0,0.7-0.1,1-0.3C169.3,48.3,169.7,48,170,47.7z M166.4,47.9c0.3-0.7,0.4-1.3,0.2-1.8c-0.2-0.5-0.5-0.7-1-0.7
			c-0.3,0-0.5,0.1-0.8,0.2c-0.3,0.1-0.6,0.3-0.9,0.5c-0.3,0.2-0.5,0.5-0.8,0.8c-0.2,0.3-0.4,0.6-0.6,1c-0.3,0.7-0.4,1.3-0.2,1.8
			c0.2,0.5,0.5,0.7,1,0.7c0.3,0,0.5-0.1,0.8-0.2c0.3-0.1,0.6-0.3,0.9-0.5c0.3-0.2,0.5-0.5,0.7-0.8C166,48.5,166.2,48.2,166.4,47.9z"
			/>
		<path d="M176.9,43.7c0.4,0.2,0.6,0.6,0.8,1c0.2,0.4,0.2,0.9,0.2,1.5c0,0.5-0.1,1.1-0.3,1.7c-0.2,0.6-0.5,1.2-0.9,1.8
			c-0.1,0.2-0.2,0.3-0.3,0.5c-0.1,0.1-0.2,0.3-0.3,0.4c0.4-0.2,0.9-0.5,1.4-0.9c0.4-0.3,0.8-0.7,1-1c0.2-0.3,0.5-0.6,0.8-1
			c0.1-0.2,0.3-0.3,0.5-0.3c0.2,0,0.4,0,0.6,0.1c0.2,0.1,0.3,0.2,0.4,0.4c0.1,0.2,0.1,0.3-0.1,0.5c-0.2,0.3-0.5,0.6-0.9,1
			c-0.4,0.4-0.9,0.9-1.4,1.4c-0.4,0.4-0.9,0.7-1.4,0.9c-0.5,0.2-1,0.4-1.6,0.5c-0.5,0.1-1,0.2-1.5,0.2c-0.5,0-0.9,0-1.3,0
			c-0.5,0-0.9-0.1-1.2-0.3c-0.3-0.2-0.5-0.4-0.7-0.8c-0.3,0.7-0.6,1.3-0.9,1.9c-0.3,0.6-0.5,1.2-0.7,1.7c-0.2,0.5-0.4,0.9-0.5,1.2
			c-0.2,0.3-0.2,0.5-0.3,0.6c-0.1,0.3-0.4,0.5-0.7,0.6c-0.3,0.1-0.6,0.1-0.9,0c-0.3-0.1-0.5-0.3-0.6-0.5c-0.2-0.3-0.1-0.6,0-1
			c0.1-0.3,0.4-0.8,0.7-1.5c0.3-0.7,0.7-1.5,1.2-2.5c0.4-0.9,0.9-1.9,1.4-3c0.5-1.1,0.9-2.1,1.4-3c0.4-1,0.8-1.8,1.2-2.5
			c0.3-0.7,0.6-1.3,0.7-1.6c0.1-0.2,0.3-0.3,0.5-0.4c0.3-0.1,0.5-0.1,0.8,0c0.3,0.1,0.5,0.2,0.6,0.3c0.2,0.2,0.2,0.4,0.1,0.6
			l-0.6,1.5c0.5-0.3,1.1-0.5,1.6-0.5C176.1,43.3,176.5,43.4,176.9,43.7z M175.3,48.7c0.3-0.4,0.5-0.8,0.6-1.2
			c0.2-0.4,0.3-0.8,0.3-1.1c0.1-0.3,0.1-0.6,0-0.9c0-0.2-0.1-0.4-0.3-0.5c-0.2-0.1-0.4-0.1-0.6-0.1c-0.3,0-0.5,0.1-0.8,0.3
			c-0.3,0.2-0.6,0.4-0.9,0.7c-0.3,0.3-0.6,0.6-0.9,1c-0.3,0.4-0.5,0.8-0.7,1.2c-0.2,0.4-0.3,0.7-0.4,1.1c-0.1,0.3-0.1,0.6-0.1,0.8
			c0,0.2,0.1,0.4,0.3,0.5c0.2,0.1,0.4,0.2,0.7,0.2c0.3,0,0.6-0.1,0.9-0.3c0.3-0.2,0.6-0.4,0.9-0.7C174.7,49.5,175,49.1,175.3,48.7z"
			/>
		<path d="M186.5,43.6c-0.5,0.5-1.1,1-1.7,1.5c-0.6,0.5-1.2,1-1.7,1.5c-0.6,0.5-1.2,1-1.9,1.5c-0.2,0.4-0.2,0.8-0.3,1.2
			c0,0.4,0.1,0.7,0.2,1c0.2,0.3,0.4,0.4,0.8,0.4c0.4,0,0.8-0.2,1.4-0.6c0.4-0.3,0.9-0.7,1.3-1.2c0.4-0.5,0.8-0.9,1-1.2
			c0.1-0.2,0.3-0.3,0.5-0.3c0.2,0,0.4,0,0.6,0.1c0.2,0.1,0.3,0.2,0.4,0.4c0.1,0.2,0.1,0.3-0.1,0.5c-0.1,0.1-0.2,0.3-0.4,0.5
			c-0.2,0.2-0.4,0.5-0.6,0.7c-0.2,0.3-0.5,0.5-0.7,0.8c-0.3,0.3-0.6,0.5-0.8,0.8c-0.5,0.5-1.1,0.8-1.6,1c-0.5,0.2-1,0.3-1.5,0.3
			c-0.5,0-0.9-0.1-1.2-0.3s-0.6-0.4-0.9-0.7c-0.2-0.3-0.4-0.6-0.5-1c-0.1-0.4-0.1-0.8,0-1.2c0.1-0.4,0.1-0.8,0.3-1.2
			c0.1-0.4,0.3-0.7,0.4-1.1c0.5-1.2,1.2-2.4,1.9-3.4c0.7-1.1,1.4-2.1,2.2-2.9c0.8-0.9,1.5-1.6,2.3-2.3c0.8-0.6,1.5-1.1,2.1-1.4
			c0.5-0.2,0.9-0.3,1.1-0.3c0.2,0.1,0.4,0.3,0.6,0.7c0.1,0.3,0.2,0.7,0.2,1.1c0,0.4-0.2,0.9-0.4,1.4c-0.2,0.5-0.6,1.1-1.1,1.7
			C187.9,42.2,187.3,42.9,186.5,43.6z M188,38.8c-0.9,0.6-1.6,1.3-2.2,2c-0.6,0.7-1.1,1.3-1.5,1.9c-0.5,0.7-0.9,1.3-1.2,1.9
			c1-0.9,1.9-1.8,2.6-2.6c0.3-0.3,0.6-0.7,0.9-1c0.3-0.3,0.6-0.7,0.8-1c0.2-0.3,0.4-0.6,0.5-0.8C188,39.1,188,38.9,188,38.8z"/>
		<path d="M192,47.7c-0.5,0.4-0.9,0.8-1.4,1c-0.4,0.3-0.9,0.4-1.3,0.6c-0.4,0.1-0.8,0.2-1.1,0.2c-0.3,0-0.6,0-0.9,0
			c0,0.3,0.2,0.6,0.4,0.8c0.2,0.2,0.5,0.3,0.9,0.4s0.8,0,1.2,0c0.5-0.1,0.9-0.3,1.4-0.6c0.2-0.1,0.5-0.3,0.7-0.5
			c0.3-0.2,0.5-0.4,0.7-0.6c0.2-0.2,0.5-0.4,0.7-0.7c0.2-0.2,0.4-0.4,0.5-0.6c0.1-0.2,0.3-0.3,0.5-0.3c0.2,0,0.4,0,0.6,0.1
			c0.2,0.1,0.3,0.2,0.4,0.4c0.1,0.2,0.1,0.3-0.1,0.5c-0.1,0.2-0.3,0.4-0.5,0.6c-0.2,0.2-0.4,0.5-0.7,0.7c-0.3,0.3-0.5,0.5-0.8,0.8
			c-0.3,0.3-0.6,0.5-0.9,0.7c-0.6,0.5-1.3,0.8-2,1c-0.7,0.2-1.4,0.3-2,0.2c-0.6,0-1.2-0.2-1.7-0.5c-0.5-0.3-0.8-0.6-1-1.1
			c-0.3-0.6-0.4-1.3-0.3-2c0.1-0.7,0.3-1.3,0.6-1.9c0.4-0.7,0.8-1.3,1.4-1.8c0.5-0.5,1.1-0.9,1.6-1.3c0.6-0.3,1.1-0.5,1.7-0.6
			c0.6-0.1,1.1,0,1.6,0.2c0.4,0.2,0.7,0.5,0.9,0.8c0.1,0.4,0.1,0.7,0,1.2c-0.1,0.4-0.3,0.8-0.5,1.2C192.5,47.1,192.2,47.4,192,47.7z
			 M187.7,48c0.4,0,0.9-0.1,1.4-0.2c0.5-0.2,1-0.5,1.4-0.9c0.5-0.5,0.8-0.9,0.9-1.3c0.1-0.4-0.1-0.6-0.5-0.6c-0.2,0-0.4,0.1-0.7,0.2
			c-0.3,0.2-0.5,0.4-0.8,0.6c-0.3,0.3-0.6,0.6-0.9,1C188.2,47.2,187.9,47.5,187.7,48L187.7,48z"/>
	</g>
</g>
</svg>
