<?xml version="1.0" encoding="utf-8"?>
<!-- Generator: Adobe Illustrator 18.1.1, SVG Export Plug-In . SVG Version: 6.00 Build 0)  -->
<svg version="1.1" id="Layer_1" xmlns="http://www.w3.org/2000/svg" xmlns:xlink="http://www.w3.org/1999/xlink" x="0px" y="0px"
	 viewBox="0 0 282.3 286.1" enable-background="new 0 0 282.3 286.1" xml:space="preserve">
<g>
	<path fill="#F3BD19" d="M143.5,119.1V0h-2.2v119c-7,0.5-12.5,6.3-12.5,13.4c0,7.4,6,13.4,13.4,13.4c7.4,0,13.4-6,13.4-13.4
		C155.6,125.5,150.3,119.7,143.5,119.1z M142.2,142c-5.3,0-9.6-4.3-9.6-9.6c0-5.3,4.3-9.6,9.6-9.6c5.3,0,9.6,4.3,9.6,9.6
		C151.8,137.7,147.5,142,142.2,142z"/>
	<g>
		<path fill="#231F20" d="M9.7,234.7v22.6c0,0.3,0.2,0.6,0.5,0.8l2.3,1.1c0.3,0.1,0.5,0.5,0.5,0.8v2.2c0,0.3-0.3,0.5-0.6,0.5H0.5
			c-0.3,0-0.5-0.2-0.5-0.5V260c0-0.3,0.2-0.7,0.5-0.8l2.3-1.1c0.3-0.2,0.5-0.5,0.5-0.8v-59.3c0-0.3-0.2-0.7-0.5-0.8l-2.3-1.1
			c-0.3-0.1-0.5-0.5-0.5-0.8v-2.2c0-0.3,0.2-0.6,0.5-0.7l5.7-1.3c0.2-0.1,0.7-0.1,1-0.1h0.5c0.2,0,0.5,0.2,0.6,0.5l1.3,5.4
			c0.2,0.7,0.6,0.8,1,0.5c3.6-4.6,8.7-7.2,14.4-7.2c13,0,21.6,9.7,21.6,25.2c0,15.4-9.3,24.8-21.6,24.8c-5.7,0-10.7-2.2-14.3-6.5
			c-0.4-0.3-0.9-0.1-0.9,0.4V234.7z M40.3,215.3c0-12-5.7-20-15.5-20c-9.7,0-15.4,7.8-15.4,20c0,12,5.6,20,15.4,20
			S40.3,227.5,40.3,215.3z"/>
		<path fill="#231F20" d="M92.5,231.4c0,0.5-0.2,1-0.7,1.4c-3.1,3-9,7.5-16.8,7.5c-13.6,0-21.8-10.4-21.8-25.2
			c0-16.1,9.8-24.8,21.9-24.8c11,0,19.2,10.1,20,23c0,0.5,0,0.6-0.5,0.7l-5.5,1.4c-0.3,0.1-0.8,0.1-1,0.1H59.7
			c-0.3,0-0.5,0.3-0.5,0.5v0.2c0.5,10.7,4.8,19,15.7,19c3.4,0,7.9-1,11.4-4.3c0.5-0.4,3.1-5.7,3.1-5.7c0.2-0.2,0.5-0.4,0.8-0.4H92
			c0.3,0,0.6,0.2,0.6,0.5V231.4z M87.7,210.5c0.4,0,0.6-0.3,0.5-0.5c-1.2-8.8-5.9-14.6-13.4-14.6c-7.8,0-14.1,5.9-15,14.6
			c0,0.3,0.3,0.5,0.6,0.5H87.7z"/>
		<path fill="#231F20" d="M111.4,197.2c0.1,0.2,0.1,0.4,0.2,0.5c0.2,0.2,0.6,0.2,0.8-0.1c2.7-4.3,8-7.2,13.5-7.2
			c0.8,0,2.4,0.1,3.9,0.5c0.2,0,0.4,0.2,0.3,0.4l-1.3,5.4c-0.1,0.3-0.3,0.4-0.6,0.3c-1.4-0.6-3-0.9-4.8-0.9
			c-6.2,0-11.8,5.6-11.8,12.5v25.4c0,0.3,0.2,0.6,0.5,0.7l2.3,1.2c0.3,0.1,0.5,0.4,0.5,0.7v2.3c0,0.3-0.3,0.5-0.6,0.5h-11.9
			c-0.3,0-0.5-0.2-0.5-0.5v-2.3c0-0.3,0.2-0.6,0.5-0.7l2.3-1.2c0.3-0.1,0.5-0.4,0.5-0.7v-35.8c0-0.3-0.2-0.6-0.5-0.8l-2.3-1.1
			c-0.3-0.1-0.5-0.5-0.5-0.8v-2.2c0-0.3,0.2-0.6,0.5-0.6l5.7-1.4c0.2-0.1,0.7-0.1,1-0.1h0.5c0.2,0,0.5,0.2,0.6,0.5L111.4,197.2z"/>
		<path fill="#231F20" d="M167.7,172.4c0,0.3,0,0.8-0.1,0.9l-1.3,3.9c-0.1,0.3-0.4,0.5-0.7,0.5h-2.2c-0.3,0-0.7-0.2-0.8-0.5
			l-1.1-2.3c-0.8-1.5-0.8-2.6-4.9-2.6c-9.4,0-11.3,7.4-11.3,18.2c0,0.3,0.2,0.6,0.4,0.6h13.8c0.3,0,0.6,0.2,0.6,0.5v2.4
			c0,0.3-0.3,0.6-0.6,0.6L154,196c-0.3,0.1-0.8,0.1-1,0.1h-7.2c-0.2,0-0.4,0.2-0.4,0.4v37.4c0,0.3,0.1,0.6,0.5,0.7l3.9,1.2
			c0.4,0.1,0.5,0.4,0.5,0.7v2.3c0,0.3-0.3,0.5-0.5,0.5h-15c-0.3,0-0.5-0.2-0.5-0.5v-2.3c0-0.3,0.2-0.6,0.5-0.7l3.7-1.2
			c0.5-0.1,0.5-0.4,0.5-0.7v-37.4c0-0.2-0.2-0.4-0.4-0.4h-6.1c-0.3,0-0.5-0.2-0.5-0.5v-2.4c0-0.3,0.2-0.6,0.5-0.7
			c0,0,5.9-1.4,6.1-1.4c0.5-0.2,0.4-0.5,0.4-0.5c0-14.3,7.8-23.1,19.4-23.1c4.8,0,7.8,1.4,8.9,2c0.3,0.1,0.5,0.4,0.5,0.7V172.4z"/>
		<path fill="#231F20" d="M201.3,231.4c0,0.5-0.2,1-0.7,1.4c-3.1,3-9,7.5-16.8,7.5c-13.6,0-21.8-10.4-21.8-25.2
			c0-16.1,9.8-24.8,21.9-24.8c11,0,19.2,10.1,20,23c0,0.5,0,0.6-0.5,0.7l-5.5,1.4c-0.3,0.1-0.8,0.1-1,0.1h-28.3
			c-0.3,0-0.5,0.3-0.5,0.5v0.2c0.5,10.7,4.9,19,15.7,19c3.4,0,7.9-1,11.4-4.3c0.5-0.4,3.1-5.7,3.1-5.7c0.2-0.2,0.5-0.4,0.8-0.4h1.7
			c0.3,0,0.6,0.2,0.6,0.5V231.4z M196.5,210.5c0.4,0,0.6-0.3,0.5-0.5c-1.2-8.8-5.9-14.6-13.4-14.6c-7.8,0-14.1,5.9-15,14.6
			c0,0.3,0.3,0.5,0.6,0.5H196.5z"/>
		<path fill="#231F20" d="M248.8,231c0,0.6-0.2,1-0.7,1.5c-3.1,3-8.8,7.8-16.7,7.8c-12.9,0-21.5-9.8-21.5-25c0-15.4,8.8-25,21.6-25
			c5,0,7.4,0.9,11.4,3.4c0.2,0.1,0.3,0.1,0.5-0.1l1.9-2.3c0.2-0.2,0.6-0.3,0.9-0.2l2.2,0.5c0.3,0.1,0.5,0.4,0.5,0.7v9.1
			c0,0.3-0.1,0.6-0.5,0.7l-2,0.5c-0.7,0.2-1,0.2-1.5-0.3c-0.4-0.3-0.7-0.7-1.1-1.2c-3.2-3.8-6.8-5.7-12.2-5.7
			c-9.8,0-15.5,7.8-15.5,20c0,12,5.6,20,15.5,20c3.4,0,7.5-1.4,11.1-4.7c0.7-0.6,3.1-5.7,3.1-5.7c0.2-0.4,0.5-0.4,0.8-0.4h1.8
			c0.3,0,0.5,0.2,0.5,0.5V231z"/>
		<path fill="#231F20" d="M281.7,191.2c0.3,0,0.6,0.2,0.6,0.5v2.4c0,0.3-0.3,0.6-0.6,0.6l-5.5,1.4c-0.3,0.1-0.8,0.1-1,0.1h-7.2
			c-0.2,0-0.4,0.2-0.4,0.4v37.4c0,0.3,0.2,0.6,0.5,0.7l2.3,1.2c0.3,0.1,0.5,0.4,0.5,0.7v2.3c0,0.3-0.2,0.5-0.5,0.5h-11.9
			c-0.3,0-0.6-0.2-0.6-0.5v-2.3c0-0.3,0.2-0.6,0.5-0.7l2.3-1.2c0.3-0.1,0.5-0.4,0.5-0.7v-37.4c0-0.2-0.2-0.4-0.4-0.4h-6.1
			c-0.3,0-0.5-0.2-0.5-0.5v-2.4c0-0.3,0.2-0.6,0.5-0.7l5.6-1.3c0.1,0,0.3-0.1,0.5-0.1c0.2,0,0.4-0.2,0.4-0.4v-6
			c0-0.3-0.2-0.7-0.5-0.8l-2.3-1.1c-0.3-0.1-0.5-0.5-0.5-0.8v-2.2c0-0.3,0.2-0.6,0.5-0.7l3.9-1.3c0.3-0.1,0.7-0.1,1-0.1h3.9
			c0.3,0,0.5,0.2,0.5,0.5v10.8v1.4v0.2c0,0.2,0.2,0.4,0.4,0.4H281.7z"/>
		<path fill="#231F20" d="M79.9,283.9c0,0.1,0.1,0.2,0.2,0.2h9.6c0.1,0,0.2-0.1,0.2-0.1l0.4-0.8c0-0.1,0.2-0.1,0.2-0.1h0.7
			c0.1,0,0.2,0.1,0.2,0.2v2.3c0,0.1-0.1,0.2-0.2,0.2H77c-0.1,0-0.2-0.1-0.2-0.2v-0.7c0-0.1,0.1-0.2,0.2-0.2l0.7-0.4
			c0.1,0,0.2-0.1,0.2-0.2v-18.5c0-0.1-0.1-0.2-0.2-0.2L77,265c-0.1,0-0.2-0.1-0.2-0.2V264c0-0.1,0.1-0.2,0.2-0.2h3.8
			c0.1,0,0.2,0.1,0.2,0.2v0.7c0,0.1-0.1,0.2-0.2,0.2l-0.7,0.4c-0.1,0-0.2,0.1-0.2,0.2V283.9z"/>
		<path fill="#231F20" d="M101.3,284.1c0,0.1,0.1,0.2,0.2,0.2l0.7,0.4c0.1,0,0.2,0.1,0.2,0.2v0.7c0,0.1-0.1,0.2-0.2,0.2h-3.8
			c-0.1,0-0.2-0.1-0.2-0.2v-0.7c0-0.1,0.1-0.2,0.2-0.2l0.7-0.4c0.1,0,0.2-0.1,0.2-0.2v-18.5c0-0.1-0.1-0.2-0.2-0.2l-0.7-0.4
			c-0.1,0-0.2-0.1-0.2-0.2V264c0-0.1,0.1-0.2,0.2-0.2h3.8c0.1,0,0.2,0.1,0.2,0.2v0.7c0,0.1-0.1,0.2-0.2,0.2l-0.7,0.4
			c-0.1,0-0.2,0.1-0.2,0.2V284.1z"/>
		<path fill="#231F20" d="M125.5,277.5c0-0.1-0.1-0.2-0.2-0.2l-1.9-0.4c-0.1,0-0.2-0.2-0.2-0.2v-0.7c0-0.1,0.1-0.2,0.2-0.2h5
			c0.1,0,0.2,0.1,0.2,0.2v0.7c0,0.1-0.1,0.2-0.2,0.2l-0.8,0.4c-0.1,0-0.1,0.2-0.1,0.2v5.3c0,0.2-0.1,0.3-0.2,0.4
			c-1.6,1.2-3.7,3-7.3,3c-5.5,0-9.9-4.1-9.9-11.3c0-7.4,4.4-11.3,9.9-11.3c2.3,0,4,0.8,5.7,2.2c0.1,0.1,0.1,0,0.2,0l0.5-0.6
			c0.1-0.1,0.2-0.1,0.3-0.1l0.7,0.2c0.1,0,0.2,0.1,0.2,0.2v2.9c0,0.1-0.1,0.2-0.2,0.2c0,0-0.4,0.1-0.6,0.2c-0.2,0.1-0.4,0-0.7-0.3
			c-0.5-0.6-2.3-3.3-6.1-3.3c-4.4,0-7.8,3.5-7.8,9.7c0,6.3,3.4,9.7,7.8,9.7c1.4,0,3.1-0.2,5.4-2c0,0,0,0,0-0.1V277.5z"/>
		<path fill="#231F20" d="M151.6,265.6c0-0.1-0.1-0.2-0.2-0.2l-0.7-0.4c-0.1,0-0.2-0.1-0.2-0.2V264c0-0.1,0.1-0.2,0.2-0.2h3.8
			c0.1,0,0.2,0.1,0.2,0.2v0.7c0,0.1-0.1,0.2-0.2,0.2l-0.8,0.4c-0.1,0-0.1,0.1-0.1-0.1v18.5c0,0.4,0.1,0.5,0.1,0.5l0.8,0.4
			c0.1,0,0.2,0.1,0.2,0.2v0.7c0,0.1-0.1,0.2-0.2,0.2h-3.8c-0.1,0-0.2-0.1-0.2-0.2v-0.7c0-0.1,0.1-0.2,0.2-0.2l0.7-0.4
			c0.1,0,0.2-0.1,0.2-0.2v-8.3c0-0.1-0.1-0.1-0.1-0.1h-12c-0.1,0-0.1,0.1-0.1,0.1v8.3c0,0.1,0.1,0.2,0.2,0.2l0.7,0.4
			c0.1,0,0.2,0.1,0.2,0.2v0.7c0,0.1-0.1,0.2-0.2,0.2h-3.8c-0.1,0-0.2-0.1-0.2-0.2v-0.7c0-0.1,0.1-0.2,0.2-0.2l0.7-0.4
			c0.1,0,0.2-0.1,0.2-0.2v-18.5c0-0.1-0.1-0.2-0.2-0.2l-0.7-0.4c-0.1,0-0.2-0.1-0.2-0.2V264c0-0.1,0.1-0.2,0.2-0.2h3.8
			c0.1,0,0.2,0.1,0.2,0.2v0.7c0,0.1-0.1,0.2-0.2,0.2l-0.7,0.4c-0.1,0-0.2,0.1-0.2,0.2v8.3c0,0.1,0.1,0.1,0.1,0.1h12
			c0.1,0,0.1-0.1,0.1-0.1V265.6z"/>
		<path fill="#231F20" d="M179.7,263.4c0.1,0,0.2,0.1,0.2,0.2v2.8c0,0.1-0.1,0.2-0.2,0.2H179c-0.1,0-0.2-0.1-0.2-0.2l-0.4-0.7
			c0-0.1-0.2-0.2-0.2-0.2h-6.2c-0.1,0-0.2,0.1-0.2,0.2v18.4c0,0.1,0.1,0.2,0.2,0.2l0.7,0.4c0.1,0,0.2,0.1,0.2,0.2v0.7
			c0,0.1-0.1,0.2-0.2,0.2h-3.8c-0.1,0-0.2-0.1-0.2-0.2v-0.7c0-0.1,0.1-0.2,0.2-0.2l0.7-0.4c0.1,0,0.2-0.1,0.2-0.2v-18.4
			c0-0.1-0.1-0.2-0.2-0.2h-6.3c-0.1,0-0.2,0.1-0.2,0.2l-0.4,0.7c0,0.1-0.1,0.2-0.2,0.2h-0.7c-0.1,0-0.2-0.1-0.2-0.2v-2.8
			c0-0.1,0.1-0.2,0.2-0.2h0.7c0,0,0.1,0,0.2,0.1l0.5,0.4c0.1,0,0.1,0.1,0.2,0.1h15c0.1,0,0.1,0,0.2-0.1c0,0,0.5-0.3,0.5-0.4
			c0,0,0.1-0.1,0.2-0.1H179.7z"/>
		<path fill="#231F20" d="M187.4,281.3c0,0.1,0.6,1.2,0.7,1.3c1.4,1.2,3.3,2.1,5.3,2.1c3.2,0,5.3-1.3,5.3-4.1
			c0-5.8-12.2-5.7-12.2-11.7c0-4,4-5.3,6.8-5.3c2.2,0,3.4,0.7,4.6,1.4c0.1,0,0.1,0,0.2,0l0.6-0.6c0.1-0.1,0.2-0.1,0.2-0.1l0.7,0.2
			c0.1,0,0.2,0.1,0.2,0.2v2.8c0,0.1-0.1,0.2-0.2,0.2l-0.6,0.2c-0.2,0.1-0.4,0-0.5-0.2c-0.1-0.1-0.7-0.8-1.2-1.1
			c-0.9-0.7-2.2-1.4-3.8-1.4c-2.1,0-4.9,0.9-4.9,3.7c0,4.5,12.3,4.4,12.3,11.6c0,3.5-2.7,5.8-7.5,5.8c-3.2,0-4.6-0.8-6.9-2.6
			c-0.1,0-0.6-0.5-0.6-0.9v-2.1c0-0.1,0.1-0.2,0.2-0.2h0.7c0.1,0,0.2,0.1,0.2,0.2L187.4,281.3z"/>
	</g>
</g>
</svg>
