<?xml version="1.0" encoding="utf-8"?>
<!-- Generator: Adobe Illustrator 18.1.1, SVG Export Plug-In . SVG Version: 6.00 Build 0)  -->
<svg version="1.1" id="Layer_1" xmlns="http://www.w3.org/2000/svg" xmlns:xlink="http://www.w3.org/1999/xlink" x="0px" y="0px"
	 viewBox="0 0 32 32" enable-background="new 0 0 32 32" xml:space="preserve">
<path d="M30,26.4c0,2-1.6,3.6-3.6,3.6H5.6c-2,0-3.6-1.6-3.6-3.6V5.6C2,3.7,3.6,2,5.6,2h20.8c2,0,3.6,1.6,3.6,3.6V26.4z M27,13.9
	h-2.6c0.2,0.7,0.4,1.6,0.4,2.4c0,4.7-3.9,8.4-8.7,8.4c-4.8,0-8.7-3.8-8.7-8.4c0-0.8,0.1-1.6,0.4-2.4H5v12C5,26.5,5.5,27,6.1,27h19.8
	c0.6,0,1.1-0.5,1.1-1.1V13.9z M16,10.5c-3.1,0-5.6,2.4-5.6,5.4c0,3,2.5,5.4,5.6,5.4c3.1,0,5.6-2.4,5.6-5.4
	C21.7,13,19.1,10.5,16,10.5z M27,6.3C27,5.6,26.4,5,25.7,5h-3.5C21.6,5,21,5.6,21,6.3v3.5c0,0.7,0.6,1.3,1.3,1.3h3.5
	c0.7,0,1.3-0.6,1.3-1.3V6.3z"/>
</svg>
