<?xml version="1.0" encoding="utf-8"?>
<!-- Generator: Adobe Illustrator 18.1.1, SVG Export Plug-In . SVG Version: 6.00 Build 0)  -->
<svg version="1.1" id="Layer_1" xmlns="http://www.w3.org/2000/svg" xmlns:xlink="http://www.w3.org/1999/xlink" x="0px" y="0px"
	 viewBox="0 0 32 32" enable-background="new 0 0 32 32" xml:space="preserve">
<g>
	<path fill="#010002" d="M21.8,14.3c0,1.2-0.7,1.8-1.8,1.8c-0.2,0-0.4,0-0.5,0v-3.4c0.1,0,0.3,0,0.6,0
		C21.2,12.7,21.8,13.3,21.8,14.3z M16.1,12.7c-0.2,0-0.4,0-0.5,0v1.6c0.1,0,0.2,0,0.4,0c0.6,0,1-0.3,1-0.9
		C17.1,13,16.7,12.7,16.1,12.7z M27.7,10.7v7.4H12.5v-7.4H27.7z M17.9,13.4c0-0.4-0.2-0.8-0.5-1c-0.3-0.3-0.8-0.4-1.4-0.4
		c-0.6,0-1,0-1.3,0.1v4.6h0.9V15c0.1,0,0.3,0,0.4,0c0.6,0,1.1-0.2,1.5-0.5C17.8,14.3,17.9,13.9,17.9,13.4z M22.7,14.3
		c0-0.8-0.3-1.4-0.7-1.7c-0.4-0.4-1-0.5-1.9-0.5c-0.5,0-1,0-1.4,0.1v4.6c0.3,0,0.7,0.1,1.2,0.1c0.9,0,1.7-0.2,2.1-0.6
		C22.4,15.8,22.7,15.1,22.7,14.3z M24.3,14.1v-1.3h1.9v-0.7h-2.7v4.7h0.9v-2h1.7v-0.7C26.1,14.1,24.3,14.1,24.3,14.1z M23.3,24.2
		L23.3,24.2H19v3.9L19,28.2H6.1V3.8h17.2v6h1.8V2.9c0-0.5-0.4-0.9-0.9-0.9h-19C4.7,2,4.3,2.4,4.3,2.9v26.2c0,0.5,0.4,0.9,0.9,0.9
		h14.1c0.2,0,0.4-0.1,0.6-0.2l4.9-4.4c0.2-0.2,0.3-0.4,0.3-0.7v-5.8h-1.8C23.3,18.9,23.3,24.2,23.3,24.2z"/>
</g>
</svg>
