<?xml version="1.0" encoding="utf-8"?>
<!-- Generator: Adobe Illustrator 18.1.1, SVG Export Plug-In . SVG Version: 6.00 Build 0)  -->
<svg version="1.1" id="Layer_1" xmlns="http://www.w3.org/2000/svg" xmlns:xlink="http://www.w3.org/1999/xlink" x="0px" y="0px"
	 viewBox="0 0 32 32" enable-background="new 0 0 32 32" xml:space="preserve">
<g>
	<g id="Phone_x5F_2">
		<g>
			<path d="M4.3,2.9L3.5,3.7C2.5,4.6,2,6,2,7.7c0,4.2,3,9.7,7.8,14.5c7,7,15.1,9.7,18.5,6.3l0.8-0.8c0.6-0.6,0.9-1.4,0.9-2.2
				c0-0.8-0.3-1.6-0.9-2.2l-3.1-3.2c-1.2-1.2-3.2-1.2-4.4,0L20.8,21c-0.8,0.8-3,0.5-6.6-3.1c-3.1-3.1-3.5-4.8-3.5-5.6
				c0-0.4,0.1-0.7,0.4-1l0.8-0.8C13,9.3,13,7.2,11.8,6L8.7,2.9C8.1,2.3,7.3,2,6.5,2C5.6,2,4.9,2.3,4.3,2.9z M7.4,4.1l3.1,3.2
				c0.5,0.5,0.5,1.4,0,1.9L9.8,10c-0.6,0.6-0.9,1.4-0.9,2.2c0,1.9,1.4,4.2,4,6.9c5.5,5.5,8.2,4,9.1,3.1l0.8-0.8
				c0.5-0.5,1.4-0.5,1.9,0l3.1,3.1c0.5,0.5,0.5,1.4,0,1.9l-0.8,0.8c-2.6,2.6-10-0.2-16-6.3c-4.4-4.4-7.3-9.6-7.3-13.3
				c0-1.2,0.3-2.2,1-2.8l0.8-0.8c0.3-0.3,0.6-0.4,0.9-0.4C6.8,3.7,7.2,3.9,7.4,4.1z"/>
		</g>
	</g>
</g>
</svg>
