<?xml version="1.0" encoding="utf-8"?>
<!-- Generator: Adobe Illustrator 18.1.1, SVG Export Plug-In . SVG Version: 6.00 Build 0)  -->
<svg version="1.1" id="Layer_1" xmlns="http://www.w3.org/2000/svg" xmlns:xlink="http://www.w3.org/1999/xlink" x="0px" y="0px"
	 viewBox="0 0 32 32" enable-background="new 0 0 32 32" xml:space="preserve">
<g>
	<path fill="#010002" d="M16,2C8.3,2,2,8.3,2,16c0,5.7,3.4,10.7,8.4,12.8c0-1,0-2.2,0.2-3.2c0.3-1.1,1.8-7.6,1.8-7.6
		S12,17.1,12,15.8c0-2.1,1.2-3.6,2.7-3.6c1.3,0,1.9,1,1.9,2.1c0,1.3-0.8,3.2-1.2,5c-0.4,1.5,0.7,2.7,2.2,2.7c2.7,0,4.4-3.4,4.4-7.4
		c0-3.1-2.1-5.4-5.8-5.4c-4.2,0-6.9,3.2-6.9,6.7c0,1.2,0.4,2.1,0.9,2.7c0.3,0.3,0.3,0.4,0.2,0.8c-0.1,0.3-0.2,0.9-0.3,1.1
		c-0.1,0.4-0.4,0.5-0.7,0.4c-2-0.8-2.9-2.9-2.9-5.3c0-4,3.4-8.7,10-8.7c5.3,0,8.9,3.9,8.9,8c0,5.5-3.1,9.6-7.6,9.6
		c-1.5,0-2.9-0.8-3.4-1.7c0,0-0.8,3.2-1,3.8c-0.3,1.1-0.9,2.2-1.4,3c1.3,0.4,2.6,0.6,4,0.6c7.7,0,14-6.3,14-14C30,8.3,23.7,2,16,2"
		/>
</g>
</svg>
