<?xml version="1.0" encoding="utf-8"?>
<!-- Generator: Adobe Illustrator 18.1.1, SVG Export Plug-In . SVG Version: 6.00 Build 0)  -->
<svg version="1.1" id="Layer_1" xmlns="http://www.w3.org/2000/svg" xmlns:xlink="http://www.w3.org/1999/xlink" x="0px" y="0px"
	 viewBox="0 0 134 32" enable-background="new 0 0 134 32" xml:space="preserve">
<g>
	<g>
		<path d="M9.2,11.8c0,0-4.5,0.5-7.6,0.8c-0.3,0-0.5,0.2-0.6,0.5c-0.1,0.3,0,0.6,0.2,0.7c2.3,2.1,5.6,5.1,5.6,5.1
			c0,0-0.9,4.5-1.5,7.5c-0.1,0.3,0,0.6,0.3,0.7c0.2,0.2,0.5,0.2,0.8,0C9,25.8,13,23.5,13,23.5s4,2.3,6.6,3.8c0.2,0.1,0.5,0.1,0.8,0
			c0.2-0.2,0.3-0.5,0.3-0.7c-0.6-3-1.5-7.5-1.5-7.5s3.4-3.1,5.6-5.1c0.2-0.2,0.3-0.5,0.2-0.8c-0.1-0.3-0.3-0.5-0.6-0.5
			c-3-0.3-7.6-0.8-7.6-0.8s-1.9-4.2-3.1-6.9c-0.1-0.2-0.4-0.4-0.7-0.4c-0.3,0-0.5,0.2-0.7,0.4C11.1,7.7,9.2,11.8,9.2,11.8z"/>
	</g>
</g>
<g>
	<g>
		<path d="M119,8.3l2,4.4l0.5,1l1.1,0.1c0,0,2.3,0.3,4.8,0.5l-3.5,3.2l-0.8,0.8l0.2,1.1l1,4.7l-4.2-2.4l-1-0.6l-1,0.6
			c0,0-2,1.2-4.2,2.4c0.2-1.1,0.5-2.2,0.6-3.1l0.6-2.8c0,0-2.6-2.3-4.4-3.9l4.8-0.5l1.1-0.1l0.5-1L119,8.3 M119,4.5
			c-0.3,0-0.5,0.2-0.7,0.4c-1.3,2.8-3.1,6.9-3.1,6.9s-4.5,0.5-7.6,0.8c-0.3,0-0.5,0.2-0.6,0.5c-0.1,0.3,0,0.6,0.2,0.7
			c2.3,2.1,5.6,5.1,5.6,5.1c0,0-0.9,4.5-1.5,7.5c-0.1,0.3,0,0.6,0.3,0.7c0.1,0.1,0.3,0.1,0.4,0.1c0.1,0,0.2,0,0.4-0.1
			c2.7-1.5,6.6-3.8,6.6-3.8s4,2.3,6.6,3.8c0.1,0.1,0.2,0.1,0.4,0.1c0.1,0,0.3,0,0.4-0.1c0.2-0.2,0.3-0.5,0.3-0.7
			c-0.6-3-1.5-7.5-1.5-7.5s3.4-3.1,5.6-5.1c0.2-0.2,0.3-0.5,0.2-0.8c-0.1-0.3-0.3-0.5-0.6-0.5c-3-0.3-7.6-0.8-7.6-0.8
			s-1.9-4.2-3.1-6.9C119.6,4.6,119.3,4.5,119,4.5L119,4.5z"/>
	</g>
</g>
<g>
	<g>
		<path d="M93,8.3l2,4.4l0.5,1l1.1,0.1c0,0,2.3,0.3,4.8,0.5l-3.5,3.2l-0.8,0.8l0.2,1.1l1,4.7L94,21.8l-1-0.6l-1,0.6
			c0,0-2,1.2-4.2,2.4c0.2-1.1,0.5-2.2,0.6-3.1l0.6-2.8c0,0-2.6-2.3-4.4-3.9l4.8-0.5l1.1-0.1l0.5-1L93,8.3 M93,4.5
			c-0.3,0-0.5,0.2-0.7,0.4c-1.3,2.8-3.1,6.9-3.1,6.9s-4.5,0.5-7.6,0.8c-0.3,0-0.5,0.2-0.6,0.5c-0.1,0.3,0,0.6,0.2,0.7
			c2.3,2.1,5.6,5.1,5.6,5.1c0,0-0.9,4.5-1.5,7.5c-0.1,0.3,0,0.6,0.3,0.7c0.1,0.1,0.3,0.1,0.4,0.1c0.1,0,0.2,0,0.4-0.1
			c2.7-1.5,6.6-3.8,6.6-3.8s4,2.3,6.6,3.8c0.1,0.1,0.2,0.1,0.4,0.1c0.1,0,0.3,0,0.4-0.1c0.2-0.2,0.3-0.5,0.3-0.7
			c-0.6-3-1.5-7.5-1.5-7.5s3.4-3.1,5.6-5.1c0.2-0.2,0.3-0.5,0.2-0.8c-0.1-0.3-0.3-0.5-0.6-0.5c-3-0.3-7.6-0.8-7.6-0.8
			s-1.9-4.2-3.1-6.9C93.5,4.6,93.3,4.5,93,4.5L93,4.5z"/>
	</g>
</g>
<g>
	<g>
		<path d="M67,8.3l2,4.4l0.5,1l1.1,0.1c0,0,2.3,0.3,4.8,0.5l-3.5,3.2l-0.8,0.8l0.2,1.1l1,4.7L68,21.8l-1-0.6l-1,0.6
			c0,0-2,1.2-4.2,2.4c0.2-1.1,0.5-2.2,0.6-3.1l0.6-2.8c0,0-2.6-2.3-4.4-3.9l4.8-0.5l1.1-0.1l0.5-1L67,8.3 M67,4.5
			c-0.3,0-0.5,0.2-0.7,0.4c-1.3,2.8-3.1,6.9-3.1,6.9s-4.5,0.5-7.6,0.8c-0.3,0-0.5,0.2-0.6,0.5c-0.1,0.3,0,0.6,0.2,0.7
			c2.3,2.1,5.6,5.1,5.6,5.1c0,0-0.9,4.5-1.5,7.5c-0.1,0.3,0,0.6,0.3,0.7c0.1,0.1,0.3,0.1,0.4,0.1c0.1,0,0.2,0,0.4-0.1
			c2.7-1.5,6.6-3.8,6.6-3.8s4,2.3,6.6,3.8c0.1,0.1,0.2,0.1,0.4,0.1c0.1,0,0.3,0,0.4-0.1c0.2-0.2,0.3-0.5,0.3-0.7
			c-0.6-3-1.5-7.5-1.5-7.5s3.4-3.1,5.6-5.1c0.2-0.2,0.3-0.5,0.2-0.8c-0.1-0.3-0.3-0.5-0.6-0.5c-3-0.3-7.6-0.8-7.6-0.8
			s-1.9-4.2-3.1-6.9C67.5,4.6,67.3,4.5,67,4.5L67,4.5z"/>
	</g>
</g>
<g>
	<g>
		<path d="M40,8.3l2,4.4l0.5,1l1.1,0.1c0,0,2.3,0.3,4.8,0.5l-3.5,3.2l-0.8,0.8l0.2,1.1l1,4.7L41,21.8l-1-0.6l-1,0.6
			c0,0-2,1.2-4.2,2.4c0.2-1.1,0.5-2.2,0.6-3.1l0.6-2.8c0,0-2.6-2.3-4.4-3.9l4.8-0.5l1.1-0.1l0.5-1L40,8.3 M40,4.5
			c-0.3,0-0.5,0.2-0.7,0.4c-1.3,2.8-3.1,6.9-3.1,6.9s-4.5,0.5-7.6,0.8c-0.3,0-0.5,0.2-0.6,0.5c-0.1,0.3,0,0.6,0.2,0.7
			c2.3,2.1,5.6,5.1,5.6,5.1c0,0-0.9,4.5-1.5,7.5c-0.1,0.3,0,0.6,0.3,0.7c0.1,0.1,0.3,0.1,0.4,0.1c0.1,0,0.2,0,0.4-0.1
			c2.7-1.5,6.6-3.8,6.6-3.8s4,2.3,6.6,3.8c0.1,0.1,0.2,0.1,0.4,0.1c0.1,0,0.3,0,0.4-0.1c0.2-0.2,0.3-0.5,0.3-0.7
			c-0.6-3-1.5-7.5-1.5-7.5s3.4-3.1,5.6-5.1c0.2-0.2,0.3-0.5,0.2-0.8c-0.1-0.3-0.3-0.5-0.6-0.5c-3-0.3-7.6-0.8-7.6-0.8
			s-1.9-4.2-3.1-6.9C40.5,4.6,40.3,4.5,40,4.5L40,4.5z"/>
	</g>
</g>
</svg>
