<?xml version="1.0" encoding="utf-8"?>
<!-- Generator: Adobe Illustrator 18.1.1, SVG Export Plug-In . SVG Version: 6.00 Build 0)  -->
<svg version="1.1" id="Layer_1" xmlns="http://www.w3.org/2000/svg" xmlns:xlink="http://www.w3.org/1999/xlink" x="0px" y="0px"
	 viewBox="0 0 32 32" enable-background="new 0 0 32 32" xml:space="preserve">
<g>
	<g>
		<path d="M12.2,11.8c0,0-4.5,0.5-7.6,0.8c-0.3,0-0.5,0.2-0.6,0.5c-0.1,0.3,0,0.6,0.2,0.7c2.3,2.1,5.6,5.1,5.6,5.1
			c0,0-0.9,4.5-1.5,7.5c-0.1,0.3,0,0.6,0.3,0.7c0.2,0.2,0.5,0.2,0.8,0c2.7-1.5,6.6-3.8,6.6-3.8s4,2.3,6.6,3.8c0.2,0.1,0.5,0.1,0.8,0
			c0.2-0.2,0.3-0.5,0.3-0.7c-0.6-3-1.5-7.5-1.5-7.5s3.4-3.1,5.6-5.1c0.2-0.2,0.3-0.5,0.2-0.8s-0.3-0.5-0.6-0.5
			c-3-0.3-7.6-0.8-7.6-0.8s-1.9-4.2-3.1-6.9c-0.1-0.2-0.4-0.4-0.7-0.4s-0.5,0.2-0.7,0.4C14.1,7.7,12.2,11.8,12.2,11.8z"/>
	</g>
</g>
</svg>
