<?xml version="1.0" encoding="utf-8"?>
<!-- Generator: Adobe Illustrator 18.1.1, SVG Export Plug-In . SVG Version: 6.00 Build 0)  -->
<svg version="1.1" id="Layer_1" xmlns="http://www.w3.org/2000/svg" xmlns:xlink="http://www.w3.org/1999/xlink" x="0px" y="0px"
	 viewBox="0 0 32 32" enable-background="new 0 0 32 32" xml:space="preserve">
<path d="M26.3,10.7c0,0.2,0,0.5,0,0.7c0,7-5.4,15.2-15.2,15.2c-3,0-5.8-0.9-8.2-2.4c0.4,0,0.8,0.1,1.3,0.1c2.5,0,4.8-0.8,6.6-2.3
	c-2.3,0-4.3-1.6-5-3.7c0.3,0,0.7,0.1,1,0.1c0.5,0,1-0.1,1.4-0.2c-2.4-0.5-4.3-2.6-4.3-5.2c0,0,0,0,0-0.1c0.7,0.4,1.5,0.6,2.4,0.7
	c-1.4-1-2.4-2.6-2.4-4.4c0-1,0.3-1.9,0.7-2.7c2.6,3.2,6.6,5.3,11,5.6c-0.1-0.4-0.1-0.8-0.1-1.2c0-2.9,2.4-5.3,5.3-5.3
	c1.5,0,2.9,0.6,3.9,1.7c1.2-0.2,2.4-0.7,3.4-1.3C27.9,7,27,8.1,25.9,8.7C27,8.6,28,8.3,29,7.9C28.3,9,27.4,9.9,26.3,10.7z"/>
</svg>
